<?xml version="1.0" encoding="utf-8"?>
<!-- Generator: Adobe Illustrator 19.0.0, SVG Export Plug-In . SVG Version: 6.00 Build 0)  -->
<svg version="1.1" id="Layer_1" xmlns="http://www.w3.org/2000/svg" xmlns:xlink="http://www.w3.org/1999/xlink" x="0px" y="0px"
	 viewBox="0 0 800 792" enable-background="new 0 0 800 792" xml:space="preserve">
<g id="XMLID_1_">
	<g id="XMLID_1050_">
		<path id="XMLID_1057_" fill="#EBEBEB" d="M579,562.5l16.1,10l3-4.9c0.9-1.4,2.5-2.2,4.2-2.1c0.9,0.1,1.9,0.1,2.8,0.1
			c1.7,0,3.3,0.8,4.1,2.3l2.7,5.1l16.7-8.9l-2.7-5.1c-0.8-1.5-0.7-3.3,0.3-4.7c0.5-0.8,1-1.6,1.5-2.4c0.8-1.5,2.4-2.4,4.1-2.4
			l5.8,0.2l0.6-18.9l-5.8-0.2c-1.7-0.1-3.2-1.1-3.9-2.6c-0.2-0.4-0.4-0.8-0.6-1.2c-0.2-0.4-0.4-0.8-0.7-1.2c-0.9-1.5-0.9-3.3,0-4.7
			l3.1-5l-16.1-10l-3.1,4.9c-0.9,1.4-2.5,2.2-4.2,2.1c-0.9-0.1-1.9-0.1-2.8-0.1c-1.7,0-3.3-0.9-4.1-2.3l-2.7-5.1l-16.7,8.9l2.7,5.1
			c0.8,1.5,0.7,3.3-0.3,4.7c-0.5,0.8-1,1.6-1.5,2.4c-0.8,1.5-2.4,2.4-4.1,2.4l-5.8-0.2l-0.6,18.9l5.8,0.2c1.7,0.1,3.2,1.1,3.9,2.6
			c0.2,0.4,0.4,0.8,0.6,1.3c0.2,0.4,0.5,0.8,0.7,1.2c0.9,1.5,0.9,3.3,0,4.7L579,562.5z M590.9,546.5c-4-7.5-1.2-16.9,6.3-21
			c7.5-4,16.9-1.2,21,6.3c4,7.5,1.2,16.9-6.3,21C604.3,556.9,594.9,554,590.9,546.5z"/>
		<path id="XMLID_1054_" fill="#EBEBEB" d="M645.3,503.7l6.6,11.5l3.5-2c1-0.6,2.3-0.5,3.3,0.1c0.6,0.4,1.1,0.7,1.7,1
			c1.1,0.5,1.7,1.6,1.7,2.8v4.1h13.3v-4.1c0-1.2,0.7-2.3,1.7-2.8c0.6-0.3,1.2-0.6,1.7-1c1-0.7,2.3-0.7,3.3-0.1l3.5,2l6.6-11.5
			l-3.5-2c-1-0.6-1.6-1.7-1.5-2.9c0-0.3,0-0.6,0-1c0-0.3,0-0.7,0-1c-0.1-1.2,0.5-2.3,1.5-2.9l3.5-2l-6.6-11.5l-3.5,2
			c-1,0.6-2.3,0.5-3.3-0.1c-0.5-0.4-1.1-0.7-1.7-1c-1.1-0.5-1.7-1.6-1.7-2.8v-4.1h-13.3v4.1c0,1.2-0.7,2.3-1.7,2.8
			c-0.6,0.3-1.2,0.6-1.7,1c-1,0.7-2.3,0.7-3.3,0.1l-3.5-2l-6.6,11.5l3.5,2c1,0.6,1.6,1.7,1.5,2.9c0,0.3,0,0.7,0,1c0,0.3,0,0.7,0,1
			c0.1,1.2-0.5,2.3-1.5,2.9L645.3,503.7z M658,497.8c0-6,4.9-10.8,10.8-10.8c6,0,10.9,4.9,10.9,10.8s-4.9,10.9-10.9,10.9
			C662.9,508.6,658,503.8,658,497.8z"/>
		<path id="XMLID_1051_" fill="#EBEBEB" d="M109.5,130.8l6.6,11.5l3.5-2c1-0.6,2.3-0.5,3.3,0.1c0.6,0.4,1.1,0.7,1.7,1
			c1.1,0.5,1.7,1.6,1.7,2.8v4.1h13.3v-4.1c0-1.2,0.7-2.3,1.7-2.8c0.6-0.3,1.2-0.6,1.7-1c1-0.7,2.3-0.7,3.3-0.1l3.5,2l6.6-11.5
			l-3.5-2c-1-0.6-1.6-1.7-1.5-2.9c0-0.3,0-0.6,0-1c0-0.3,0-0.7,0-1c-0.1-1.2,0.5-2.3,1.5-2.9l3.5-2l-6.6-11.5l-3.5,2
			c-1,0.6-2.3,0.5-3.3-0.1c-0.5-0.4-1.1-0.7-1.7-1c-1.1-0.5-1.7-1.6-1.7-2.8v-4.1h-13.3v4.1c0,1.2-0.7,2.3-1.7,2.8
			c-0.6,0.3-1.2,0.6-1.7,1c-1,0.7-2.3,0.7-3.3,0.1l-3.5-2l-6.6,11.5l3.5,2c1,0.6,1.6,1.7,1.5,2.9c0,0.3,0,0.7,0,1c0,0.3,0,0.7,0,1
			c0.1,1.2-0.5,2.3-1.5,2.9L109.5,130.8z M122.1,124.9c0-6,4.9-10.8,10.8-10.8c6,0,10.9,4.9,10.9,10.8c0,6-4.9,10.9-10.9,10.9
			C127,135.7,122.1,130.9,122.1,124.9z"/>
	</g>
	<g id="XMLID_1038_">
		<g id="XMLID_1046_">
			<g id="XMLID_1047_">
				<path id="XMLID_441_" fill="#EBEBEB" d="M175.2,407c-3.6,24.9-25.1,44.1-51.1,44.1c-28.5,0-51.6-23.1-51.6-51.6
					c0-28.5,23.1-51.6,51.6-51.6v51.6L175.2,407z"/>
				<path id="XMLID_440_" fill="#DCDBDB" d="M186.3,388.9c0,2.6-0.2,5.1-0.6,7.6l-51.1-7.6v-51.6c19.1,0,35.9,10.4,44.8,25.9
					C183.8,370.8,186.3,379.6,186.3,388.9z"/>
			</g>
		</g>
		<g id="XMLID_1039_">
			<rect id="XMLID_439_" x="150.4" y="427.3" fill="#C7C7C6" width="54.9" height="1.3"/>
			<path id="XMLID_1042_" fill="#C7C7C6" d="M209.1,432.5c-2.5,0-4.5-2-4.5-4.5c0-2.5,2-4.5,4.5-4.5s4.5,2,4.5,4.5
				C213.6,430.5,211.6,432.5,209.1,432.5z M209.1,424.8c-1.8,0-3.2,1.4-3.2,3.2s1.4,3.2,3.2,3.2c1.8,0,3.2-1.4,3.2-3.2
				S210.9,424.8,209.1,424.8z"/>
			<rect id="XMLID_436_" x="223" y="425.1" fill="#C7C7C6" width="42.6" height="1.9"/>
			<rect id="XMLID_435_" x="223" y="428.9" fill="#C7C7C6" width="24.1" height="1.9"/>
		</g>
	</g>
	<g id="XMLID_1011_">
		<g id="XMLID_1036_">
			<rect id="XMLID_434_" x="374.4" y="96.8" fill="#EBEBEB" width="12.2" height="86.9"/>
		</g>
		<g id="XMLID_1034_">
			<rect id="XMLID_433_" x="395.4" y="117.9" fill="#EBEBEB" width="12.2" height="65.9"/>
		</g>
		<g id="XMLID_1032_">
			<rect id="XMLID_432_" x="416.4" y="150.8" fill="#EBEBEB" width="12.2" height="32.9"/>
		</g>
		<g id="XMLID_1030_">
			<rect id="XMLID_431_" x="437.4" y="132" fill="#EBEBEB" width="12.2" height="51.8"/>
		</g>
		<g id="XMLID_1028_">
			<rect id="XMLID_430_" x="458.4" y="112.2" fill="#EBEBEB" width="12.2" height="71.5"/>
		</g>
		<g id="XMLID_1026_">
			<rect id="XMLID_429_" x="479.4" y="100.6" fill="#EBEBEB" width="12.2" height="83.1"/>
		</g>
		<g id="XMLID_1012_">
			<path id="XMLID_428_" fill="#EBEBEB" d="M367.3,85.8l0.1,24.5l0.1,24.5l0.1,49l-0.3-0.3c11.2,0,22.5,0,33.7,0l33.7,0.1l33.7,0.1
				l33.7,0.2l-33.7,0.2l-33.7,0.1l-33.7,0.1c-11.2,0-22.5,0-33.7,0l-0.3,0l0-0.3l0.1-49l0.1-24.5L367.3,85.8z"/>
			<path id="XMLID_427_" fill="#EBEBEB" d="M364.6,90.7c0.9-0.3,1.8-0.3,2.7-0.3c0.9,0,1.8,0.1,2.7,0.3c-0.9,0.3-1.8,0.3-2.7,0.3
				C366.4,91,365.5,91,364.6,90.7z"/>
			<path id="XMLID_426_" fill="#EBEBEB" d="M364.6,98.1c0.9-0.3,1.8-0.3,2.7-0.3c0.9,0,1.8,0.1,2.7,0.3c-0.9,0.3-1.8,0.3-2.7,0.3
				C366.4,98.5,365.5,98.4,364.6,98.1z"/>
			<path id="XMLID_425_" fill="#EBEBEB" d="M364.6,105.6c0.9-0.3,1.8-0.3,2.7-0.3c0.9,0,1.8,0.1,2.7,0.3c-0.9,0.3-1.8,0.3-2.7,0.3
				C366.4,105.9,365.5,105.8,364.6,105.6z"/>
			<path id="XMLID_424_" fill="#EBEBEB" d="M364.6,113c0.9-0.3,1.8-0.3,2.7-0.3c0.9,0,1.8,0.1,2.7,0.3c-0.9,0.3-1.8,0.3-2.7,0.3
				C366.4,113.4,365.5,113.3,364.6,113z"/>
			<path id="XMLID_423_" fill="#EBEBEB" d="M364.6,120.5c0.9-0.3,1.8-0.3,2.7-0.3c0.9,0,1.8,0.1,2.7,0.3c-0.9,0.3-1.8,0.3-2.7,0.3
				C366.4,120.8,365.5,120.7,364.6,120.5z"/>
			<path id="XMLID_422_" fill="#EBEBEB" d="M364.6,127.9c0.9-0.3,1.8-0.3,2.7-0.3c0.9,0,1.8,0.1,2.7,0.3c-0.9,0.3-1.8,0.3-2.7,0.3
				C366.4,128.3,365.5,128.2,364.6,127.9z"/>
			<path id="XMLID_421_" fill="#EBEBEB" d="M364.6,135.4c0.9-0.3,1.8-0.3,2.7-0.3c0.9,0,1.8,0.1,2.7,0.3c-0.9,0.3-1.8,0.3-2.7,0.3
				C366.4,135.7,365.5,135.6,364.6,135.4z"/>
			<path id="XMLID_420_" fill="#EBEBEB" d="M364.6,142.8c0.9-0.3,1.8-0.3,2.7-0.3c0.9,0,1.8,0.1,2.7,0.3c-0.9,0.3-1.8,0.3-2.7,0.3
				C366.4,143.1,365.5,143.1,364.6,142.8z"/>
			<path id="XMLID_419_" fill="#EBEBEB" d="M364.6,150.3c0.9-0.3,1.8-0.3,2.7-0.3c0.9,0,1.8,0.1,2.7,0.3c-0.9,0.3-1.8,0.3-2.7,0.3
				C366.4,150.6,365.5,150.5,364.6,150.3z"/>
			<path id="XMLID_418_" fill="#EBEBEB" d="M364.6,157.7c0.9-0.3,1.8-0.3,2.7-0.3c0.9,0,1.8,0.1,2.7,0.3c-0.9,0.3-1.8,0.3-2.7,0.3
				C366.4,158,365.5,158,364.6,157.7z"/>
			<path id="XMLID_417_" fill="#EBEBEB" d="M364.6,165.2c0.9-0.3,1.8-0.3,2.7-0.3c0.9,0,1.8,0.1,2.7,0.3c-0.9,0.3-1.8,0.3-2.7,0.3
				C366.4,165.5,365.5,165.4,364.6,165.2z"/>
			<path id="XMLID_416_" fill="#EBEBEB" d="M364.6,172.6c0.9-0.3,1.8-0.3,2.7-0.3c0.9,0,1.8,0.1,2.7,0.3c-0.9,0.3-1.8,0.3-2.7,0.3
				C366.4,172.9,365.5,172.9,364.6,172.6z"/>
		</g>
	</g>
	<g id="XMLID_999_">
		<g id="XMLID_1004_">
			<path id="XMLID_1008_" fill="#EBEBEB" d="M294,267.2H127.6V152.2H294V267.2z M128.4,266.5h164.8V152.9H128.4V266.5z"/>
			<path id="XMLID_1005_" fill="#EBEBEB" d="M294,163.6H127.6v-11.4H294V163.6z M128.4,162.8h164.8v-9.9H128.4V162.8z"/>
		</g>
		<g id="XMLID_1000_">
			<circle id="XMLID_411_" fill="#C7C7C6" cx="135.3" cy="157.9" r="2.7"/>
			<circle id="XMLID_410_" fill="#EBEBEB" cx="146.2" cy="157.9" r="2.7"/>
			<circle id="XMLID_409_" fill="#FFC829" cx="157.1" cy="157.9" r="2.7"/>
		</g>
	</g>
	<g id="XMLID_987_">
		<g id="XMLID_992_">
			<path id="XMLID_996_" fill="#EBEBEB" d="M707.6,427.7H541.3V312.7h166.3V427.7z M542,427h164.8V313.4H542V427z"/>
			<path id="XMLID_993_" fill="#EBEBEB" d="M707.6,324.1H541.3v-11.4h166.3V324.1z M542,323.3h164.8v-9.9H542V323.3z"/>
		</g>
		<g id="XMLID_988_">
			<circle id="XMLID_404_" fill="#C7C7C6" cx="549" cy="318.4" r="2.7"/>
			<circle id="XMLID_403_" fill="#EBEBEB" cx="559.9" cy="318.4" r="2.7"/>
			<circle id="XMLID_402_" fill="#FFC829" cx="570.8" cy="318.4" r="2.7"/>
		</g>
	</g>
	<g id="XMLID_985_">
		<ellipse id="XMLID_401_" fill="#EBEBEB" cx="400.9" cy="669.6" rx="326.4" ry="37.7"/>
	</g>
	<polygon id="XMLID_400_" fill="#273238" points="68.3,618.6 151.4,618.3 234.6,618.1 400.9,617.9 567.2,618.1 650.4,618.3 
		733.6,618.6 650.4,619 567.2,619.1 400.9,619.4 234.6,619.1 151.4,619 	"/>
	<g id="XMLID_940_">
		<g id="XMLID_948_">
			<g id="XMLID_978_">
				<path id="XMLID_399_" fill="#FFC829" d="M663.4,382.8c0,0-33.1-4.6-25.4-44.6C638,338.2,675,346.5,663.4,382.8z"/>
				<path id="XMLID_398_" opacity="0.1" fill="#010101" d="M663.4,382.8c0,0-33.1-4.6-25.4-44.6C638,338.2,675,346.5,663.4,382.8z"
					/>
				<path id="XMLID_397_" fill="#263238" d="M661.7,374.4c-0.6-2-1.4-4-2.3-6c0-0.3-0.1-0.5-0.1-0.8c0-0.6-0.1-1.1-0.1-1.7
					c-0.1-1.2-0.2-2.4-0.2-3.6c-0.1-2.4-0.3-4.8-0.3-7.2c0-0.1-0.2-0.1-0.2,0c0,2.4-0.1,4.8,0,7.2c0,1.2,0.1,2.4,0.2,3.6
					c0,0.3,0,0.5,0.1,0.8c-1.9-4-4.1-7.8-6.6-11.4c-1.1-1.6-2.3-3.1-3.6-4.6c-1.3-1.5-2.7-2.9-4.1-4.4c-0.1-0.1-0.2,0.1-0.1,0.1
					c2.4,2.5,4.4,5.6,6.4,8.5c1,1.5,2,3.1,2.9,4.7c-0.1,0-0.2-0.1-0.3-0.1c-0.4-0.2-0.8-0.3-1.2-0.5c-0.9-0.3-1.8-0.7-2.7-1
					c-1.8-0.7-3.6-1.3-5.3-2c-0.1,0-0.2,0.1-0.1,0.2c1.8,0.7,3.5,1.4,5.2,2.2c0.9,0.4,1.7,0.7,2.6,1.1c0.4,0.2,0.9,0.4,1.3,0.5
					c0.3,0.1,0.6,0.3,0.9,0.3c0.7,1.2,1.3,2.4,1.9,3.6c1.5,3.1,2.9,6.3,4,9.5c0.1,0.2,0.2,0.5,0.2,0.7c-0.8-0.6-1.9-0.9-2.7-1.3
					c-1.1-0.5-2.3-1-3.4-1.6c-2.3-1.1-4.6-2.1-6.9-3.4c-0.1-0.1-0.2,0.1-0.1,0.2c2.3,1.2,4.5,2.6,6.8,3.8c1.1,0.6,2.3,1.2,3.5,1.8
					c1,0.5,2,1.1,3.1,1.2c1,3.1,1.9,6.2,2.2,9.4c0.4,4.5,0.3,9.1,0.4,13.6c0,0.1,0.1,0.1,0.1,0c0.3-4.1,0.5-8.3,0.5-12.4
					C663.7,381.8,662.9,378.2,661.7,374.4z"/>
				<path id="XMLID_396_" fill="#263238" d="M656.6,350.9c-0.3,2.3-0.5,4.7-0.3,7.1c0,0.1,0.1,0.1,0.1,0c0.1-2.3,0.2-4.7,0.4-7
					C656.8,350.8,656.6,350.8,656.6,350.9z"/>
				<path id="XMLID_395_" fill="#263238" d="M647.1,352.9c-1.5-0.6-2.9-1.2-4.3-2.1c-0.1-0.1-0.2,0.1-0.1,0.2
					c1.3,0.8,2.8,1.6,4.3,2.1C647.1,353.1,647.2,353,647.1,352.9z"/>
			</g>
			<path id="XMLID_394_" fill="#263238" d="M664.4,446.3c0-3.7-0.1-7.3-0.1-11c-0.1-12.2-0.2-24.3-0.4-36.5
				c-0.2-9.6-0.4-19.3-0.7-28.9c0-0.1,0-0.1-0.1-0.1c0-2.6,0-5.3,0-7.9c0-0.1-0.1-0.1-0.2-0.1c-0.1,0-0.2,0-0.2,0.1
				c0,2.6,0,5.3,0,7.9c0,0-0.1,0.1-0.1,0.1c-0.5,17.2-0.9,34.3-1,51.5c0,3.5,0,7,0,10.5c-0.1,11.2-0.2,22.4-0.1,33.6
				c0,1.8,0,3.6,0,5.3c0,10.2,0.1,20.5,0.1,30.7c0,0.6,0.6,0.8,1.3,0.9c0.7,0,1.5-0.3,1.5-0.9c0-11.3,0.1-22.6,0.1-33.9
				C664.4,460.5,664.5,453.4,664.4,446.3z"/>
			<g id="XMLID_972_">
				<path id="XMLID_393_" fill="#FFC829" d="M650.6,435.1c0,0-15.9-11.8-31-3.8c-15.1,8-17.5,38.7-17.5,38.7s22.2,3.2,36.2-10.1
					C651.7,447.1,650.6,435.1,650.6,435.1z"/>
				<path id="XMLID_392_" fill="#263238" d="M654.9,435.9c-2.9-1.2-6.1-1.5-9.2-1.2c-0.6-0.1-1.3-0.1-2-0.2
					c-0.7-0.1-1.5-0.1-2.2-0.2c-1.5-0.1-3.1-0.2-4.6-0.3c-3.1-0.2-6.3-0.4-9.4-0.7c-0.1,0-0.1,0.2,0,0.2c3.1,0.4,6.2,0.8,9.3,1.2
					c1.6,0.2,3.2,0.3,4.8,0.4c0.4,0,0.8,0.1,1.2,0.1c-0.5,0.1-0.9,0.2-1.4,0.4c-2.5,0.7-4.9,1.7-7.2,2.9c-1.3,0.2-2.5,0.6-3.7,0.9
					c-2,0.5-3.9,1-5.9,1.5c-3.9,1-7.7,2.2-11.5,3.3c-0.1,0-0.1,0.2,0.1,0.2c3.8-0.9,7.7-1.8,11.5-2.7c1.9-0.4,3.7-0.9,5.6-1.3
					c0.5-0.1,1-0.2,1.5-0.3c-4.3,2.6-8.1,6-11.3,9.8c-3.2,3.8-5.7,8-7.9,12.4c-0.1,0.1,0.1,0.2,0.2,0.1c2.6-4.5,5.8-8.8,9.5-12.5
					c-0.1,0.2-0.1,0.4-0.2,0.6c-0.3,0.9-0.6,1.9-0.9,2.8c-0.6,1.9-1.2,3.7-1.7,5.6c0,0.1,0.2,0.2,0.2,0c0.7-1.8,1.3-3.6,2-5.5
					c0.3-0.9,0.6-1.8,0.9-2.7c0.2-0.5,0.3-0.9,0.5-1.4c0-0.1,0.1-0.3,0.2-0.4c1.8-1.7,3.7-3.4,5.6-4.8c2.6-1.9,5.5-3.6,8.5-4.8
					c-0.1,0.3-0.1,0.6-0.2,0.8c-0.2,0.7-0.3,1.5-0.5,2.2c-0.3,1.5-0.6,3-0.9,4.5c-0.6,3.1-1,6.2-1.5,9.3c0,0.1,0.2,0.2,0.2,0
					c0.7-3.1,1.6-6.2,2.3-9.3c0.3-1.6,0.7-3.1,1-4.7c0.2-0.7,0.3-1.5,0.4-2.2c0.1-0.4,0.2-0.8,0.2-1.2c0.3-0.1,0.6-0.2,0.9-0.4
					c4.2-1.5,8.8-2.7,13.3-1.8c4.3,0.8,7.9,3.7,9.6,7.7c0.1,0.3,0.7,0.1,0.6-0.2C661.6,440.2,658.4,437.3,654.9,435.9z"/>
				<path id="XMLID_391_" fill="#263238" d="M630.5,449c-0.5,2-0.9,4-1.3,6.1c-0.4,1.9-1,3.9-1.1,5.9c0,0.1,0.1,0.1,0.1,0
					c0.7-1.9,1-4,1.4-5.9c0.4-2,0.8-4,1.2-6C630.8,448.9,630.6,448.9,630.5,449z"/>
				<path id="XMLID_390_" fill="#263238" d="M615.1,454.1c-2,1-4,2.2-6.1,3c-0.1,0.1,0,0.2,0.1,0.2
					C611.1,456.3,613.3,455.4,615.1,454.1C615.2,454.2,615.2,454.1,615.1,454.1z"/>
			</g>
			<g id="XMLID_967_">
				<path id="XMLID_389_" fill="#FFC829" d="M654.2,413.5c0,0-19.5,1.2-28.5-11.6c-9.1-12.8-7-31.2-7-31.2s20.5,2.5,28.6,11.7
					C655.3,391.6,654.2,413.5,654.2,413.5z"/>
				<path id="XMLID_388_" fill="#263238" d="M663.3,432.7c-0.7-2.1-1.5-4.1-2.3-6.2c-0.8-2-1.6-3.9-2.4-5.8
					c-1.7-3.9-3.7-7.8-5.8-11.5c-1.4-2.4-2.8-4.7-4.4-6.9c0-0.3-0.1-0.7-0.2-1c-0.1-0.6-0.2-1.2-0.3-1.8c-0.2-1.2-0.4-2.5-0.6-3.7
					c-0.4-2.7-1-5.4-1.4-8.1c0-0.1-0.2-0.1-0.2,0c0.4,2.7,0.7,5.3,1,8c0.2,1.3,0.4,2.6,0.6,3.9c0.1,0.5,0.1,0.9,0.2,1.4
					c-3-4.3-6.2-8.5-9.6-12.5c-0.5-0.5-0.9-1.1-1.4-1.6c0-0.1-0.1-0.3-0.2-0.4c-0.1-0.4-0.3-0.7-0.4-1.1c-0.3-0.8-0.6-1.5-0.8-2.3
					c-0.5-1.5-1-3.1-1.5-4.6c0-0.1-0.2-0.1-0.2,0.1c0.4,1.6,0.8,3.2,1.3,4.8c0.2,0.8,0.5,1.5,0.7,2.3c0,0.1,0.1,0.3,0.1,0.4
					c-2.5-2.7-5.1-5.3-7.7-7.9c-0.1-0.1-0.2,0.1-0.1,0.1c5.1,5.2,9.6,11,13.8,16.9c-0.5-0.2-1-0.3-1.4-0.4c-1.5-0.3-3-0.5-4.5-0.7
					c-3.2-0.4-6.3-0.8-9.5-1.3c-0.1,0-0.2,0.2,0,0.2c3,0.6,6,1.3,9,2c1.4,0.3,2.8,0.6,4.3,0.9c1.2,0.2,2.3,0.6,3.4,1
					c0.3,0.5,0.6,0.9,1,1.3c1.4,2.1,2.8,4.2,4.1,6.3c-0.7-0.1-1.3-0.3-2-0.4c-1.5-0.3-3-0.6-4.5-0.8c-3-0.5-5.9-1-8.9-1.7
					c-0.1,0-0.2,0.2,0,0.2c3,0.7,5.9,1.5,8.9,2.3c1.4,0.4,2.9,0.7,4.3,1c0.7,0.2,1.4,0.3,2.2,0.5c0.3,0.1,0.6,0.1,0.9,0.2
					c2.8,4.6,5.5,9.3,8,14.1c1.1,2.1,2.1,4.3,3.1,6.4c1,2.2,1.9,4.5,2.9,6.7C662.8,433.3,663.5,433.2,663.3,432.7z"/>
				<path id="XMLID_387_" fill="#263238" d="M643.4,387.9c-0.4-1.9-0.8-3.7-1.2-5.6c0-0.1-0.2-0.1-0.2,0.1c0.4,1.8,0.7,3.7,1.1,5.5
					c0.3,1.8,0.6,3.7,1.1,5.5c0,0,0.1,0,0.1,0C644.1,391.5,643.7,389.7,643.4,387.9z"/>
				<path id="XMLID_386_" fill="#263238" d="M632,387.4c-0.9-0.4-1.9-0.8-2.8-1.2c-0.5-0.2-1-0.4-1.5-0.6c-0.3-0.1-0.5-0.2-0.8-0.3
					c-0.3-0.1-0.6-0.2-0.8-0.4c-0.1-0.1-0.2,0.1-0.1,0.2c0.3,0,0.6,0.2,0.8,0.3c0.2,0.1,0.5,0.2,0.7,0.3c0.5,0.2,0.9,0.4,1.4,0.6
					c0.9,0.4,1.9,0.8,2.9,1.1C632.1,387.6,632.1,387.4,632,387.4z"/>
			</g>
			<g id="XMLID_961_">
				<path id="XMLID_385_" fill="#FFC829" d="M674.1,398.2c0,0,11.8-22,29.7-25.4c17.9-3.4,28.9,15,28.9,15s-13.1,16.7-29.5,19.6
					C686.7,410.3,674.1,398.2,674.1,398.2z"/>
				<path id="XMLID_384_" fill="#263238" d="M715.8,382.6c-4.6-0.6-9.4-0.6-14.1,0.2c0.3-0.1,0.5-0.3,0.8-0.4c1.3-0.7,2.7-1.4,4-2
					c2.8-1.4,5.5-3,8.4-4.1c0.1-0.1,0.1-0.2-0.1-0.2c-2.8,1.3-5.7,2.4-8.5,3.7c-1.4,0.6-2.8,1.3-4.2,2c-0.9,0.5-1.9,0.9-2.7,1.5
					c-3.9,0.8-7.8,2.1-11.4,3.8c0.7-0.8,1.5-1.6,2.2-2.4c1.7-1.8,3.3-3.7,5.1-5.4c0.1-0.1-0.1-0.2-0.1-0.1c-1.9,1.7-3.9,3.3-5.7,5.1
					c-0.9,0.9-1.7,1.8-2.6,2.7c-0.4,0.5-0.8,0.9-1.2,1.4c-7.8,4.2-14.4,10.6-18.8,18.4c-2.5,4.4-4.2,9.1-5.2,14.1
					c0,0.1,0.2,0.2,0.2,0.1c2.5-8.3,7.1-16.1,13.2-22.3c6.6-6.7,14.9-11.6,24-13.9c5.4-1.4,11-1.9,16.6-1.5
					C716,383,716,382.6,715.8,382.6z"/>
				<path id="XMLID_383_" opacity="0.1" fill="#010101" d="M732.7,387.8c0,0-13.1,16.7-29.5,19.6c-12.5,2.2-22.9-4.3-27.1-7.5
					l-0.9-1.5c0,0,8.5-7.2,24.5-11.3C715.8,382.9,732.7,387.8,732.7,387.8z"/>
				<path id="XMLID_382_" fill="#263238" d="M705.4,374.8c-1.4,0.8-2.7,1.7-4,2.6c-1.2,1-2.4,2-3.5,3.2c-0.1,0.1,0.1,0.2,0.2,0.1
					c1.2-1,2.4-2.1,3.6-3c1.2-1,2.4-1.9,3.8-2.7C705.6,374.9,705.5,374.7,705.4,374.8z"/>
				<path id="XMLID_381_" fill="#263238" d="M715.3,378.5c-0.7,0.3-1.3,0.5-2,0.8c-0.7,0.3-1.3,0.6-2,0.8c-0.1,0.1-0.1,0.3,0.1,0.2
					c0.7-0.3,1.3-0.5,2-0.8c0.7-0.3,1.3-0.6,2-0.8C715.4,378.6,715.4,378.4,715.3,378.5z"/>
			</g>
			<g id="XMLID_955_">
				<path id="XMLID_380_" fill="#FFC829" d="M671.7,425.9c0,0,3.1,21.8,19.6,29.5c16.4,7.6,36.4,0,36.4,0S719.9,408.1,671.7,425.9z"
					/>
				<path id="XMLID_379_" fill="#263238" d="M716.4,441.1c-1.5-0.2-3-0.4-4.5-0.7c-0.7-0.1-1.5-0.3-2.2-0.4
					c-0.4-0.1-0.8-0.2-1.2-0.2c-0.4-0.4-0.9-0.8-1.3-1.2c-3.1-2.7-6.5-5.2-10-7.3c-1.9-1.1-4-2.2-6-3.1c0.1,0,0.2,0,0.3,0
					c1.8,0.1,3.6,0.2,5.4,0.2c3.6,0.2,7.2,0.2,10.8,0.5c0.1,0,0.1-0.2,0-0.2c-3.6-0.2-7.2-0.6-10.8-1c-1.8-0.2-3.5-0.3-5.3-0.5
					c-0.9-0.1-1.8-0.2-2.7-0.2c-0.2,0-0.5,0-0.7-0.1c-0.9-0.3-1.9-0.7-2.8-1c-4.5-1.4-9.3-1.9-13.9-0.8c-4.1,1.1-8.3,3.8-9.3,8.1
					c0,0.2,0.2,0.3,0.3,0.1c1.5-3.6,5.6-5.5,9.2-6.2c2.5-0.5,5-0.5,7.4-0.1c0.1,1.1,0.5,2.3,0.8,3.3c0.5,1.5,0.9,3.1,1.4,4.6
					c0.9,3.1,2,6.1,2.9,9.2c0,0.1,0.2,0.1,0.2-0.1c-0.8-3.1-1.4-6.2-2.1-9.2c-0.4-1.5-0.7-3-1.1-4.5c-0.2-1-0.4-2.1-0.8-3.1
					c1.4,0.3,2.9,0.6,4.3,1c2.5,0.7,5,1.7,7.4,2.7c0.2,1.6,0.6,3.1,0.9,4.6c0.4,1.9,0.9,3.8,1.6,5.7c0,0.1,0.2,0.1,0.2-0.1
					c0-0.1,0-0.2-0.1-0.4c0,0,0,0,0,0c-0.4-1.8-0.8-3.6-1.1-5.3c-0.3-1.4-0.6-2.9-0.9-4.3c2,0.9,4,1.9,6,3c0,0.4,0.1,0.9,0.2,1.3
					c0.1,0.7,0.3,1.5,0.4,2.2c0.3,1.7,0.6,3.4,1,5c0.8,3.2,1.6,6.4,2.8,9.5c0,0,0,0.1,0,0.1c0,0,0.1,0.1,0.1,0.1
					c0.1,0.1,0.2,0,0.2-0.1c-0.8-3.2-1.6-6.4-2.3-9.7c-0.4-1.6-0.7-3.2-1-4.9c-0.2-0.8-0.3-1.6-0.5-2.4c0-0.2-0.1-0.5-0.1-0.7
					c2.2,1.3,4.4,2.7,6.4,4.3c3.5,2.6,6.9,5.7,9.8,8.9c0.1,0.1,0.3-0.1,0.2-0.2c-1.3-1.6-2.5-3.3-3.9-4.8c-0.8-0.9-1.7-1.7-2.6-2.6
					c0.1,0,0.2,0,0.3,0c0.8,0.1,1.5,0.2,2.3,0.3c1.5,0.2,3,0.4,4.6,0.5C716.5,441.3,716.6,441.1,716.4,441.1z"/>
				<path id="XMLID_378_" fill="#263238" d="M704.9,448.5L704.9,448.5C704.9,448.5,704.9,448.5,704.9,448.5c0-0.2-0.1-0.4-0.1-0.6
					c0-0.2-0.2-0.5-0.2-0.7c0,0,0,0,0,0c-0.3-1.5-0.6-2.9-0.9-4.4c0-0.1-0.2-0.1-0.2,0c0.1,1.9,0.6,3.9,1.2,5.7
					C704.8,448.6,704.9,448.6,704.9,448.5C704.9,448.5,704.9,448.5,704.9,448.5z"/>
				<path id="XMLID_377_" fill="#263238" d="M691.2,448.2C691.2,448.1,691.1,448.1,691.2,448.2c-0.6-2-1-4-1.4-5.9
					c-0.2-1-0.4-2-0.6-3.1c-0.1-0.6-0.2-1.1-0.3-1.7c-0.1-0.5-0.1-1-0.4-1.4c0-0.1-0.2-0.1-0.2,0c-0.1,0.9,0.2,2,0.4,2.9
					c0.2,1.1,0.4,2.1,0.6,3.2c0.5,2.2,1,4.3,1.6,6.4c0,0.1,0.2,0.1,0.2,0C691.2,448.5,691.2,448.3,691.2,448.2z"/>
				<path id="XMLID_376_" fill="#263238" d="M714.9,434.8c-3-0.4-6-0.8-9-1.2c-0.1,0-0.2,0.2,0,0.2c3,0.4,6,0.8,9,1.2
					C715,435,715.1,434.8,714.9,434.8z"/>
			</g>
			<g id="XMLID_949_">
				<path id="XMLID_375_" fill="#FFC829" d="M663.3,374.6c0,0-10-44.1,37.3-61.9C700.6,312.7,713.8,370.8,663.3,374.6z"/>
				<path id="XMLID_374_" fill="#263238" d="M673.6,349.6c0.2-0.1,0.3-0.2,0.5-0.3c0.9-0.5,1.8-1,2.7-1.5l5.5-3.1
					c3.6-2,7.2-4.1,10.8-6.1c0.1-0.1,0-0.2-0.1-0.2c-3.6,2-7.4,3.8-11,5.8l-5.4,2.9c-0.7,0.4-1.5,0.8-2.2,1.2c1.6-3,3.3-5.9,5.1-8.8
					c2.5-3.8,5.2-7.4,8-10.9c0.1-0.2-0.1-0.4-0.2-0.2c-4.2,4-7.8,8.6-10.9,13.4c0-0.2,0-0.3,0-0.5c0.1-1.1,0.1-2.2,0.1-3.3
					c0-2.2-0.1-4.3,0-6.5c0-0.1-0.2-0.1-0.2,0c-0.1,2.1-0.3,4.2-0.5,6.3c-0.1,1.1-0.1,2.1-0.1,3.2c0,0.6-0.1,1.2-0.1,1.8
					c-1,1.6-1.9,3.1-2.8,4.7c-1.6,2.8-3,5.8-4.2,8.9c0-1.1-0.1-2.2-0.2-3.3c-0.1-2.4-0.4-4.8-0.5-7.2c0-0.1-0.2-0.1-0.2,0
					c0.1,2.4-0.1,4.8,0,7.2c0,1.2,0.1,2.4,0.2,3.6c0,0.4,0.1,0.9,0.1,1.3c-1.5,4-2.7,8-3.6,12.1c-0.9,4.4-1.3,8.8-1.8,13.3
					c0,0,0,0,0.1,0c0.4-4,1.4-8,2.5-11.9c0.6-2.1,1.2-4.1,1.9-6.2c2-0.9,3.9-2.1,5.8-3.1c2-1.1,4-2.2,5.9-3.3
					c3.9-2.2,7.9-4.4,12-6.3c0.1-0.1,0-0.2-0.1-0.2c-4.1,1.9-8.3,3.6-12.3,5.7c-2,1-4,2.1-6,3.2c-1.6,0.9-3.3,1.9-4.9,2.9
					c0.5-1.4,0.9-2.7,1.5-4.1C670.1,356.8,671.8,353.2,673.6,349.6z"/>
				<path id="XMLID_373_" fill="#263238" d="M669.6,339.6c0-0.1-0.2-0.1-0.2,0c0.2,2.5,0.3,5,0.5,7.5c0,0.1,0.2,0.1,0.2,0
					C670,344.6,669.8,342.1,669.6,339.6z"/>
				<path id="XMLID_372_" fill="#263238" d="M692.3,348c-3,1.2-6,2.3-8.9,3.6c-0.1,0,0,0.2,0,0.1c3-1.1,5.9-2.3,8.9-3.5
					C692.5,348.1,692.4,347.9,692.3,348z"/>
				<path id="XMLID_371_" fill="#263238" d="M696.8,327.7c-2.9,1.3-5.7,2.8-8.4,4.5c-0.1,0.1,0,0.3,0.1,0.2c2.7-1.6,5.5-3.1,8.4-4.6
					C697,327.8,696.9,327.6,696.8,327.7z"/>
			</g>
		</g>
		<g id="XMLID_941_">
			<rect id="XMLID_370_" x="627.8" y="470" fill="#37474F" width="68.3" height="72"/>
			<g id="XMLID_942_">
				<rect id="XMLID_369_" x="623.1" y="495.4" fill="#263238" width="3.5" height="123.3"/>
				<rect id="XMLID_368_" x="696.9" y="495.4" fill="#263238" width="3.5" height="123.3"/>
				<rect id="XMLID_367_" x="661.8" y="495.4" fill="#263238" width="3.5" height="123.3"/>
				<rect id="XMLID_366_" x="624.8" y="537.3" fill="#263238" width="73.8" height="10"/>
			</g>
		</g>
	</g>
	<g id="XMLID_927_">
		<g id="XMLID_928_">
			<g id="XMLID_935_" opacity="0.5">
				<rect id="XMLID_365_" x="437.6" y="363.2" fill="#EBEBEB" width="242.2" height="172.9"/>
				<path id="XMLID_936_" fill="#EBEBEB" d="M679.8,536.1l-242.2,0.4l-0.4,0l0-0.4L437,363.2l0-0.6l0.6,0l242.2,0.2l0.4,0l0,0.4
					L679.8,536.1z M679.8,536.1l-0.4-172.9l0.4,0.4l-242.2,0.2l0.6-0.6L438,536.1l-0.4-0.4L679.8,536.1z"/>
			</g>
			<g id="XMLID_929_">
				<rect id="XMLID_362_" x="437.6" y="351.8" fill="#455B65" width="242.2" height="11.4"/>
				<g id="XMLID_930_">
					<circle id="XMLID_361_" fill="#C7C7C6" cx="443.8" cy="357.5" r="2.8"/>
					<circle id="XMLID_360_" fill="#FFFFFF" cx="455.3" cy="357.5" r="2.8"/>
					<circle id="XMLID_359_" fill="#FFC829" cx="466.8" cy="357.5" r="2.8"/>
				</g>
			</g>
		</g>
	</g>
	<g id="XMLID_924_">
		<rect id="XMLID_358_" x="617" y="394.6" fill="#FFFFFF" width="17.5" height="113.4"/>
		<rect id="XMLID_357_" x="617" y="421.9" fill="#FFC829" width="17.5" height="86.1"/>
	</g>
	<rect id="XMLID_356_" x="590.7" y="394.7" fill="#FFFFFF" width="17.5" height="113.3"/>
	<rect id="XMLID_355_" x="590.7" y="433.3" fill="#2BB673" width="17.5" height="74.7"/>
	<g id="XMLID_919_">
		<rect id="XMLID_354_" x="564.4" y="394.6" fill="#FFFFFF" width="17.5" height="113.4"/>
		<rect id="XMLID_353_" x="564.4" y="473.5" fill="#FFC829" width="17.5" height="34.5"/>
	</g>
	<rect id="XMLID_352_" x="538.1" y="394.7" fill="#FFFFFF" width="17.5" height="113.3"/>
	<rect id="XMLID_351_" x="538.1" y="413.4" fill="#2BB673" width="17.5" height="94.6"/>
	<g id="XMLID_914_">
		<rect id="XMLID_350_" x="511.8" y="394.7" fill="#FFFFFF" width="17.5" height="113.3"/>
		<rect id="XMLID_349_" x="511.8" y="405.9" fill="#FFC829" width="17.5" height="102.1"/>
	</g>
	<rect id="XMLID_348_" x="485.5" y="394.7" fill="#FFFFFF" width="17.5" height="113.3"/>
	<rect id="XMLID_347_" x="485.5" y="443.3" fill="#2BB673" width="17.5" height="64.7"/>
	<g id="XMLID_900_">
		<polygon id="XMLID_346_" fill="#C7C7C6" points="473.8,394.6 474.1,423 474.2,451.3 474.4,508 473.8,507.4 516.9,507.4 560,507.4 
			603,507.6 646.1,508 603,508.4 560,508.6 516.9,508.6 473.8,508.6 473.2,508.6 473.2,508 473.4,451.3 473.6,423 		"/>
		<path id="XMLID_345_" fill="#C7C7C6" d="M471.3,394.6c0.9-0.3,1.7-0.3,2.6-0.3c0.9,0,1.7,0.1,2.6,0.3c-0.9,0.3-1.7,0.3-2.6,0.3
			C473,394.9,472.2,394.9,471.3,394.6z"/>
		<path id="XMLID_344_" fill="#C7C7C6" d="M471.3,405.9c0.9-0.3,1.7-0.3,2.6-0.3c0.9,0,1.7,0.1,2.6,0.3c-0.9,0.3-1.7,0.3-2.6,0.3
			C473,406.2,472.2,406.1,471.3,405.9z"/>
		<path id="XMLID_343_" fill="#C7C7C6" d="M471.3,417.1c0.9-0.3,1.7-0.3,2.6-0.3c0.9,0,1.7,0.1,2.6,0.3c-0.9,0.3-1.7,0.3-2.6,0.3
			C473,417.4,472.2,417.4,471.3,417.1z"/>
		<path id="XMLID_342_" fill="#C7C7C6" d="M471.3,428.3c0.9-0.3,1.7-0.3,2.6-0.3c0.9,0,1.7,0.1,2.6,0.3c-0.9,0.3-1.7,0.3-2.6,0.3
			C473,428.7,472.2,428.6,471.3,428.3z"/>
		<path id="XMLID_341_" fill="#C7C7C6" d="M471.3,439.6c0.9-0.3,1.7-0.3,2.6-0.3c0.9,0,1.7,0.1,2.6,0.3c-0.9,0.3-1.7,0.3-2.6,0.3
			C473,439.9,472.2,439.8,471.3,439.6z"/>
		<path id="XMLID_340_" fill="#C7C7C6" d="M471.3,450.8c0.9-0.3,1.7-0.3,2.6-0.3c0.9,0,1.7,0.1,2.6,0.3c-0.9,0.3-1.7,0.3-2.6,0.3
			C473,451.1,472.2,451.1,471.3,450.8z"/>
		<path id="XMLID_339_" fill="#C7C7C6" d="M471.3,462.1c0.9-0.3,1.7-0.3,2.6-0.3c0.9,0,1.7,0.1,2.6,0.3c-0.9,0.3-1.7,0.3-2.6,0.3
			C473,462.4,472.2,462.3,471.3,462.1z"/>
		<path id="XMLID_338_" fill="#C7C7C6" d="M471.3,473.3c0.9-0.3,1.7-0.3,2.6-0.3c0.9,0,1.7,0.1,2.6,0.3c-0.9,0.3-1.7,0.3-2.6,0.3
			C473,473.6,472.2,473.6,471.3,473.3z"/>
		<path id="XMLID_337_" fill="#C7C7C6" d="M471.3,484.6c0.9-0.3,1.7-0.3,2.6-0.3c0.9,0,1.7,0.1,2.6,0.3c-0.9,0.3-1.7,0.3-2.6,0.3
			C473,484.9,472.2,484.8,471.3,484.6z"/>
		<path id="XMLID_336_" fill="#C7C7C6" d="M471.3,495.8c0.9-0.3,1.7-0.3,2.6-0.3c0.9,0,1.7,0.1,2.6,0.3c-0.9,0.3-1.7,0.3-2.6,0.3
			C473,496.1,472.2,496.1,471.3,495.8z"/>
	</g>
	<g id="XMLID_895_" opacity="0.5">
		<rect id="XMLID_335_" x="157.2" y="190.7" fill="#EBEBEB" width="223.7" height="145.6"/>
		<path id="XMLID_896_" fill="#EBEBEB" d="M380.9,336.4l-223.7,0.4l-0.4,0l0-0.4l-0.2-145.6l0-0.6l0.6,0l223.7,0.2l0.4,0l0,0.4
			l-0.1,72.9L380.9,336.4z M380.9,336.4l-0.3-72.9l-0.1-72.7l0.4,0.4l-223.7,0.2l0.6-0.6l-0.2,145.6l-0.4-0.4L380.9,336.4z"/>
	</g>
	<rect id="XMLID_332_" x="157.2" y="180.2" fill="#2BB673" width="223.7" height="10.5"/>
	<circle id="XMLID_331_" fill="#C7C7C6" cx="162.9" cy="185.5" r="2.6"/>
	<circle id="XMLID_330_" fill="#FFFFFF" cx="173.6" cy="185.5" r="2.6"/>
	<circle id="XMLID_329_" fill="#FFC829" cx="184.2" cy="185.5" r="2.6"/>
	<g id="XMLID_888_">
		<rect id="XMLID_328_" x="198.4" y="211.9" fill="#FFFFFF" width="157.5" height="15.4"/>
		<rect id="XMLID_327_" x="203.5" y="216.2" fill="#FFC829" width="78.3" height="6.6"/>
	</g>
	<rect id="XMLID_326_" x="198.4" y="234.4" fill="#FFFFFF" width="157.5" height="15.4"/>
	<rect id="XMLID_325_" x="203.5" y="238.8" fill="#2BB673" width="122.3" height="6.6"/>
	<g id="XMLID_883_">
		<rect id="XMLID_324_" x="198.4" y="257" fill="#FFFFFF" width="157.5" height="15.4"/>
		<rect id="XMLID_323_" x="203.5" y="261.3" fill="#FFC829" width="30.6" height="6.6"/>
	</g>
	<rect id="XMLID_322_" x="198.4" y="279.5" fill="#FFFFFF" width="157.5" height="15.4"/>
	<rect id="XMLID_321_" x="203.5" y="283.9" fill="#2BB673" width="97.1" height="6.6"/>
	<g id="XMLID_878_">
		<rect id="XMLID_320_" x="198.4" y="302.1" fill="#FFFFFF" width="157.5" height="15.4"/>
		<rect id="XMLID_319_" x="203.5" y="306.4" fill="#FFC829" width="111.5" height="6.6"/>
	</g>
	<g id="XMLID_851_">
		<g id="XMLID_507_">
			<path id="XMLID_517_" fill="#263238" d="M178.6,220.1c0,1-0.8,1.8-1.8,1.8c-0.9,0-1.7-0.7-1.8-1.6c0,0,0,0,0,0c0-0.1,0-0.3,0-0.4
				c0-0.5,0.1-1,0.3-1.5c0.2-0.5,0.5-1,1-1.3c0.3-0.2,0.7-0.3,1.1-0.3c0.2,0,0.4,0.2,0.4,0.4c0,0.2-0.2,0.4-0.4,0.4
				c-0.3,0-0.5,0.1-0.7,0.2c-0.2,0.1-0.3,0.3-0.5,0.5c0,0.1-0.1,0.1-0.1,0.2c0.2-0.1,0.5-0.1,0.7-0.1
				C177.8,218.3,178.6,219.1,178.6,220.1z M177.8,220.1c0-0.5-0.4-1-1-1c-0.5,0-1,0.4-1,1c0,0.5,0.4,1,1,1
				C177.4,221,177.8,220.6,177.8,220.1z"/>
			<path id="XMLID_514_" fill="#263238" d="M179.8,219.3c0-0.7,0.2-1.3,0.5-1.8c0.3-0.5,0.8-0.8,1.4-0.8c0.6,0,1.1,0.3,1.4,0.8
				c0.3,0.5,0.5,1.1,0.5,1.8c0,0.7-0.2,1.3-0.5,1.8c-0.3,0.5-0.8,0.8-1.4,0.8c-0.6,0-1.1-0.4-1.4-0.8
				C179.9,220.5,179.8,219.9,179.8,219.3z M182.7,219.3c0-0.5-0.1-1-0.4-1.3c-0.2-0.3-0.5-0.5-0.7-0.5c-0.2,0-0.5,0.1-0.7,0.5
				c-0.2,0.3-0.4,0.8-0.4,1.3c0,0.5,0.1,1,0.4,1.3c0.2,0.3,0.5,0.5,0.7,0.5c0.2,0,0.5-0.1,0.7-0.5
				C182.5,220.3,182.7,219.8,182.7,219.3z"/>
			<path id="XMLID_508_" fill="#263238" d="M184.9,217.9L184.9,217.9c0-0.7,0.5-1.3,1.2-1.3c0.7,0,1.2,0.6,1.2,1.3v0
				c0,0.7-0.5,1.3-1.2,1.3C185.4,219.3,184.9,218.7,184.9,217.9z M186.7,217.9L186.7,217.9c0-0.4-0.2-0.8-0.6-0.8
				c-0.3,0-0.6,0.3-0.6,0.7v0c0,0.4,0.2,0.8,0.6,0.8C186.5,218.7,186.7,218.3,186.7,217.9z M185.8,221.4l3.4-4.6
				c0.1-0.1,0.1-0.1,0.3-0.1c0.2,0,0.3,0.1,0.3,0.3c0,0.1,0,0.1-0.1,0.2l-3.4,4.6c-0.1,0.1-0.2,0.1-0.3,0.1c-0.2,0-0.3-0.1-0.3-0.3
				C185.7,221.5,185.7,221.4,185.8,221.4z M188.1,220.6L188.1,220.6c0-0.7,0.5-1.3,1.2-1.3c0.7,0,1.2,0.6,1.2,1.3v0
				c0,0.7-0.5,1.3-1.2,1.3C188.5,221.9,188.1,221.3,188.1,220.6z M189.8,220.6L189.8,220.6c0-0.4-0.2-0.8-0.6-0.8
				c-0.3,0-0.6,0.3-0.6,0.7v0c0,0.4,0.2,0.8,0.6,0.8C189.6,221.3,189.8,221,189.8,220.6z"/>
		</g>
	</g>
	<g id="XMLID_824_">
		<g id="XMLID_520_">
			<path id="XMLID_564_" fill="#263238" d="M175,241c0-1,0.8-1.8,1.8-1.8c0.9,0,1.7,0.7,1.8,1.6c0,0,0,0,0,0c0,0.1,0,0.3,0,0.4
				c0,0.5-0.1,1-0.3,1.5c-0.2,0.5-0.5,1-1,1.3c-0.3,0.2-0.7,0.3-1.1,0.3c-0.2,0-0.4-0.2-0.4-0.4c0-0.2,0.2-0.4,0.4-0.4
				c0.3,0,0.5-0.1,0.7-0.2c0.2-0.1,0.3-0.3,0.5-0.5c0-0.1,0.1-0.1,0.1-0.2c-0.2,0.1-0.5,0.1-0.7,0.1C175.8,242.8,175,242,175,241z
				 M175.9,241c0,0.5,0.4,1,1,1c0.5,0,1-0.4,1-1c0-0.5-0.4-1-1-1C176.3,240,175.9,240.5,175.9,241z"/>
			<path id="XMLID_561_" fill="#263238" d="M179.8,241.8c0-0.7,0.2-1.3,0.5-1.8c0.3-0.5,0.8-0.8,1.4-0.8c0.6,0,1.1,0.3,1.4,0.8
				c0.3,0.5,0.5,1.1,0.5,1.8c0,0.7-0.2,1.3-0.5,1.8c-0.3,0.5-0.8,0.8-1.4,0.8c-0.6,0-1.1-0.4-1.4-0.8
				C179.9,243.1,179.8,242.5,179.8,241.8z M182.7,241.8c0-0.5-0.1-1-0.4-1.3c-0.2-0.3-0.5-0.5-0.7-0.4c-0.2,0-0.5,0.1-0.7,0.4
				c-0.2,0.3-0.4,0.8-0.4,1.3c0,0.5,0.1,1,0.4,1.3c0.2,0.3,0.5,0.5,0.7,0.5c0.2,0,0.5-0.1,0.7-0.5
				C182.5,242.8,182.7,242.3,182.7,241.8z"/>
			<path id="XMLID_521_" fill="#263238" d="M184.9,240.5L184.9,240.5c0-0.7,0.5-1.3,1.2-1.3c0.7,0,1.2,0.6,1.2,1.3v0
				c0,0.7-0.5,1.3-1.2,1.3C185.4,241.8,184.9,241.2,184.9,240.5z M186.7,240.5L186.7,240.5c0-0.4-0.2-0.8-0.6-0.8
				c-0.3,0-0.6,0.3-0.6,0.7v0c0,0.4,0.2,0.8,0.6,0.8C186.5,241.2,186.7,240.9,186.7,240.5z M185.8,243.9l3.4-4.6
				c0.1-0.1,0.1-0.1,0.3-0.1c0.2,0,0.3,0.1,0.3,0.3c0,0.1,0,0.1-0.1,0.2l-3.4,4.6c-0.1,0.1-0.2,0.1-0.3,0.1c-0.2,0-0.3-0.1-0.3-0.3
				C185.7,244.1,185.7,244,185.8,243.9z M188.1,243.1L188.1,243.1c0-0.7,0.5-1.3,1.2-1.3c0.7,0,1.2,0.6,1.2,1.3v0
				c0,0.7-0.5,1.3-1.2,1.3C188.5,244.4,188.1,243.8,188.1,243.1z M189.8,243.1L189.8,243.1c0-0.4-0.2-0.8-0.6-0.8
				c-0.3,0-0.6,0.3-0.6,0.7v0c0,0.4,0.2,0.8,0.6,0.8C189.6,243.9,189.8,243.5,189.8,243.1z"/>
		</g>
	</g>
	<g id="XMLID_799_">
		<g id="XMLID_529_">
			<path id="XMLID_540_" fill="#263238" d="M177.8,263.8c0.4,0.4,0.5,0.8,0.5,1.3c0,0.5-0.2,0.9-0.5,1.3c-0.4,0.4-0.8,0.5-1.3,0.5
				c-0.5,0-0.9-0.2-1.3-0.5c-0.2-0.2-0.2-0.4,0-0.6c0.2-0.2,0.4-0.2,0.6,0c0.2,0.2,0.4,0.3,0.7,0.3c0.3,0,0.5-0.1,0.7-0.3
				c0.2-0.2,0.3-0.4,0.3-0.7c0-0.3-0.1-0.5-0.3-0.7c-0.2-0.2-0.4-0.3-0.7-0.3c-0.1,0-0.2,0-0.3-0.1c0,0,0,0,0,0
				c-0.2-0.2-0.2-0.4,0-0.6l0.8-0.8h-1.2c-0.2,0-0.4-0.2-0.4-0.4c0-0.2,0.2-0.4,0.4-0.4h2.2c0.2,0,0.4,0.2,0.4,0.4
				c0,0.1,0,0.1-0.1,0.2c0,0,0,0.1-0.1,0.1l-0.9,1C177.5,263.5,177.7,263.6,177.8,263.8z"/>
			<path id="XMLID_537_" fill="#263238" d="M179.5,264.3c0-0.7,0.2-1.3,0.5-1.8c0.3-0.5,0.8-0.8,1.4-0.8c0.6,0,1.1,0.3,1.4,0.8
				c0.3,0.5,0.5,1.1,0.5,1.8c0,0.7-0.2,1.3-0.5,1.8c-0.3,0.5-0.8,0.8-1.4,0.8c-0.6,0-1.1-0.4-1.4-0.8
				C179.7,265.6,179.5,265,179.5,264.3z M182.4,264.3c0-0.5-0.1-1-0.4-1.3c-0.2-0.3-0.5-0.5-0.7-0.4c-0.2,0-0.5,0.1-0.7,0.4
				c-0.2,0.3-0.4,0.8-0.4,1.3c0,0.5,0.1,1,0.4,1.3c0.2,0.3,0.5,0.5,0.7,0.5s0.5-0.1,0.7-0.5C182.3,265.3,182.4,264.9,182.4,264.3z"
				/>
			<path id="XMLID_530_" fill="#263238" d="M184.7,263L184.7,263c0-0.7,0.5-1.3,1.2-1.3c0.7,0,1.2,0.6,1.2,1.3v0
				c0,0.7-0.5,1.3-1.2,1.3C185.2,264.3,184.7,263.7,184.7,263z M186.5,263L186.5,263c0-0.4-0.2-0.8-0.6-0.8c-0.3,0-0.6,0.3-0.6,0.7
				v0c0,0.4,0.2,0.8,0.6,0.8C186.3,263.8,186.5,263.4,186.5,263z M185.5,266.5l3.4-4.6c0.1-0.1,0.1-0.1,0.3-0.1
				c0.2,0,0.3,0.1,0.3,0.3c0,0.1,0,0.1-0.1,0.2l-3.4,4.6c-0.1,0.1-0.2,0.1-0.3,0.1c-0.2,0-0.3-0.1-0.3-0.3
				C185.5,266.6,185.5,266.5,185.5,266.5z M187.8,265.7L187.8,265.7c0-0.7,0.5-1.3,1.2-1.3c0.7,0,1.2,0.6,1.2,1.3v0
				c0,0.7-0.5,1.3-1.2,1.3C188.3,267,187.8,266.4,187.8,265.7z M189.6,265.7L189.6,265.7c0-0.4-0.2-0.8-0.6-0.8
				c-0.3,0-0.6,0.3-0.6,0.7v0c0,0.4,0.2,0.8,0.6,0.8C189.4,266.4,189.6,266.1,189.6,265.7z"/>
		</g>
	</g>
	<g id="XMLID_774_">
		<g id="XMLID_542_">
			<path id="XMLID_555_" fill="#263238" d="M178.3,284.9l-1.8,4.4c-0.1,0.2-0.2,0.2-0.4,0.2c0,0-0.1,0-0.2,0
				c-0.2-0.1-0.3-0.3-0.2-0.5l1.6-3.8h-1.9c-0.2,0-0.4-0.2-0.4-0.4c0-0.2,0.2-0.4,0.4-0.4h2.5c0,0,0,0,0.1,0c0.1,0,0.1,0,0.2,0.1
				c0,0,0,0,0,0c0,0,0,0,0,0c0,0,0,0,0,0c0,0,0,0,0,0c0,0,0,0,0,0c0,0,0,0,0,0c0,0,0,0,0,0c0,0,0,0,0,0
				C178.4,284.7,178.4,284.7,178.3,284.9C178.4,284.8,178.3,284.8,178.3,284.9z"/>
			<path id="XMLID_552_" fill="#263238" d="M179.2,286.9c0-0.7,0.2-1.3,0.5-1.8c0.3-0.5,0.8-0.8,1.4-0.8c0.6,0,1.1,0.3,1.4,0.8
				c0.3,0.5,0.5,1.1,0.5,1.8c0,0.7-0.2,1.3-0.5,1.8c-0.3,0.5-0.8,0.8-1.4,0.8c-0.6,0-1.1-0.4-1.4-0.8
				C179.4,288.2,179.2,287.6,179.2,286.9z M182.1,286.9c0-0.5-0.1-1-0.4-1.3c-0.2-0.3-0.5-0.5-0.7-0.4c-0.2,0-0.5,0.1-0.7,0.4
				c-0.2,0.3-0.4,0.8-0.4,1.3c0,0.5,0.1,1,0.4,1.3c0.2,0.3,0.5,0.5,0.7,0.5c0.2,0,0.5-0.1,0.7-0.5
				C182,287.9,182.1,287.4,182.1,286.9z"/>
			<path id="XMLID_543_" fill="#263238" d="M184.4,285.6L184.4,285.6c0-0.7,0.5-1.3,1.2-1.3c0.7,0,1.2,0.6,1.2,1.3v0
				c0,0.7-0.5,1.3-1.2,1.3C184.9,286.9,184.4,286.3,184.4,285.6z M186.2,285.6L186.2,285.6c0-0.4-0.2-0.8-0.6-0.8
				c-0.3,0-0.6,0.3-0.6,0.7v0c0,0.4,0.2,0.8,0.6,0.8C186,286.3,186.2,286,186.2,285.6z M185.2,289l3.4-4.6c0.1-0.1,0.1-0.1,0.3-0.1
				c0.2,0,0.3,0.1,0.3,0.3c0,0.1,0,0.1-0.1,0.2l-3.4,4.6c-0.1,0.1-0.2,0.1-0.3,0.1c-0.2,0-0.3-0.1-0.3-0.3
				C185.2,289.1,185.2,289.1,185.2,289z M187.5,288.2L187.5,288.2c0-0.7,0.5-1.3,1.2-1.3c0.7,0,1.2,0.6,1.2,1.3v0
				c0,0.7-0.5,1.3-1.2,1.3C188,289.5,187.5,288.9,187.5,288.2z M189.3,288.2L189.3,288.2c0-0.4-0.2-0.8-0.6-0.8
				c-0.3,0-0.6,0.3-0.6,0.7v0c0,0.4,0.2,0.8,0.6,0.8C189.1,289,189.3,288.6,189.3,288.2z"/>
		</g>
	</g>
	<g id="XMLID_745_">
		<g id="XMLID_581_">
			<path id="XMLID_598_" fill="#263238" d="M178.5,310.2c0,1-0.8,1.8-1.8,1.8c-1,0-1.8-0.8-1.8-1.8c0-0.6,0.3-1.2,0.8-1.5
				c-0.2-0.2-0.2-0.5-0.2-0.7c0-0.7,0.5-1.2,1.2-1.2c0.7,0,1.2,0.5,1.2,1.2c0,0.3-0.1,0.5-0.2,0.7
				C178.2,309.1,178.5,309.6,178.5,310.2z M177.7,310.2c0-0.5-0.4-1-1-1c-0.5,0-1,0.4-1,1c0,0.5,0.4,1,1,1
				C177.3,311.2,177.7,310.8,177.7,310.2z M176.3,308c0,0.2,0.2,0.4,0.4,0.4c0.2,0,0.4-0.2,0.4-0.4c0-0.2-0.2-0.4-0.4-0.4
				C176.5,307.6,176.3,307.8,176.3,308z"/>
			<path id="XMLID_594_" fill="#263238" d="M179.7,309.4c0-0.7,0.2-1.3,0.5-1.8c0.3-0.5,0.8-0.8,1.4-0.8c0.6,0,1.1,0.3,1.4,0.8
				c0.3,0.5,0.5,1.1,0.5,1.8c0,0.7-0.2,1.3-0.5,1.8c-0.3,0.5-0.8,0.8-1.4,0.8c-0.6,0-1.1-0.4-1.4-0.8
				C179.9,310.7,179.7,310.1,179.7,309.4z M182.6,309.4c0-0.5-0.1-1-0.4-1.3c-0.2-0.3-0.5-0.5-0.7-0.4c-0.2,0-0.5,0.1-0.7,0.4
				c-0.2,0.3-0.4,0.8-0.4,1.3c0,0.5,0.1,1,0.4,1.3c0.2,0.3,0.5,0.5,0.7,0.5s0.5-0.1,0.7-0.5C182.4,310.4,182.6,309.9,182.6,309.4z"
				/>
			<path id="XMLID_582_" fill="#263238" d="M184.8,308.1L184.8,308.1c0-0.7,0.5-1.3,1.2-1.3c0.7,0,1.2,0.6,1.2,1.3v0
				c0,0.7-0.5,1.3-1.2,1.3C185.3,309.4,184.8,308.8,184.8,308.1z M186.6,308.1L186.6,308.1c0-0.4-0.2-0.8-0.6-0.8
				c-0.3,0-0.6,0.3-0.6,0.7v0c0,0.4,0.2,0.8,0.6,0.8C186.4,308.9,186.6,308.5,186.6,308.1z M185.7,311.6l3.4-4.6
				c0.1-0.1,0.1-0.1,0.3-0.1c0.2,0,0.3,0.1,0.3,0.3c0,0.1,0,0.1-0.1,0.2l-3.4,4.6c-0.1,0.1-0.2,0.1-0.3,0.1c-0.2,0-0.3-0.1-0.3-0.3
				C185.6,311.7,185.7,311.6,185.7,311.6z M188,310.8L188,310.8c0-0.7,0.5-1.3,1.2-1.3c0.7,0,1.2,0.6,1.2,1.3v0
				c0,0.7-0.5,1.3-1.2,1.3C188.5,312.1,188,311.5,188,310.8z M189.7,310.8L189.7,310.8c0-0.4-0.2-0.8-0.6-0.8
				c-0.3,0-0.6,0.3-0.6,0.7v0c0,0.4,0.2,0.8,0.6,0.8C189.5,311.5,189.7,311.2,189.7,310.8z"/>
		</g>
	</g>
	<g id="XMLID_741_">
		<path id="XMLID_274_" fill="#263238" d="M426.4,149.9c-3.9-7.4-12.8-11.1-22.3-11.5c-9.4-0.4-21.2,1.3-25.8,15.4
			c-3.7,11.4-2.7,23.7-5.9,36.7c-3.3,13-26.4,40.9-5.5,62.3c18.7,19.2,66.8,17.2,75.2-11c6.7-22.4-16.3-50-17.1-59.7
			C424.3,172.4,430.7,158,426.4,149.9z"/>
		<path id="XMLID_273_" fill="#263238" d="M427.3,163.7c-1.4,6.5-2.1,13.3-0.7,20.1c0.3,1.7,0.9,3.4,1.7,5c0.8,1.6,1.6,3.1,2.5,4.6
			c1.7,3,3.5,5.9,5,9c3.1,6,5.6,12.3,6.9,18.9c1.2,6.5,1.1,13.3-0.3,19.8c1.1-3.2,1.8-6.5,2.1-9.8c0.3-3.4,0.2-6.8-0.3-10.1
			c-0.9-6.8-3.4-13.3-6.6-19.5c-1.6-3.1-3.4-6.1-5.1-9c-1.8-3-3.6-5.8-4.4-9c-0.8-3.2-1.1-6.5-1.2-9.8
			C426.8,170.3,427,167,427.3,163.7z"/>
		<path id="XMLID_272_" fill="#263238" d="M376.6,163.8c-1.5,6.6-2.6,13.3-4.4,19.9c-0.9,3.2-1.9,6.5-3.3,9.6c-1.3,3.1-3.1,6-4.7,9
			c-1.6,3-3.2,6.1-4.5,9.3c-1.3,3.2-2.4,6.5-3.1,9.8c-0.6,3.4-0.9,6.9-0.5,10.3c0.5,3.5,1.8,6.8,3.7,9.8c-1.5-3.2-2.5-6.4-2.7-9.8
			c-0.2-3.4,0.2-6.7,1-9.9c1.7-6.5,4.7-12.6,7.9-18.6c1.6-3,3.4-6,4.7-9.2c1.3-3.2,2.3-6.5,3-9.9C375.2,177.3,376,170.6,376.6,163.8
			z"/>
	</g>
	<path id="XMLID_271_" fill="#C95F50" d="M502.1,684.5c-3.5,1.1-104.2-0.2-108-2.7c-1.5-0.9-2.1-15.6-2.4-33.4c0-0.2,0-0.4,0-0.6
		c-0.1-3.7-0.1-7.4-0.1-11.3c0-0.5,0-1.1,0-1.6c-0.1-25.6,0.3-52.2,0.3-52.2l67.4,0.7l-2,51.7l-0.1,2l-0.4,10.7l0,1.1
		c0,0,38.3,17.7,42.2,20.9C502.7,673.2,505.7,683.4,502.1,684.5z"/>
	<path id="XMLID_270_" fill="#FFC829" d="M471.9,656c-0.3-0.1-0.4-0.2-0.4-0.2C471.5,655.8,471.6,655.9,471.9,656z"/>
	<path id="XMLID_269_" fill="#2BB673" d="M502.1,684.5c-3.5,1.1-104.2-0.2-108-2.6c-1.3-0.8-2-12.5-2.3-27.6
		c18.5,3.9,90,18.3,91.9,12.2c0.8-2.4-5.3-6.6-9.2-8.9c10.6,5,22.3,10.8,24.3,12.5C502.7,673.2,505.7,683.4,502.1,684.5z"/>
	<path id="XMLID_268_" opacity="0.1" fill="#010101" d="M438.9,684.3c-22.7-0.5-43.1-1.4-44.8-2.5c-1.3-0.8-2-12.5-2.3-27.6
		c2.6,0.5,6.3,1.3,10.7,2.2L438.9,684.3z"/>
	<g id="XMLID_732_">
		<path id="XMLID_267_" fill="#37474F" d="M371.1,292.8c0,0,15.1,170.1,17.6,183.1c0.6,3,0.9,19,1.2,39.7
			c0.5,45.1,0.2,126.4,0.2,126.4h71c0,0-2.1-140.9-5.2-166.9c-3.1-26-23.2-182.4-23.2-182.4H371.1z"/>
		<g id="XMLID_733_">
			<path id="XMLID_266_" fill="#263238" d="M457.9,629.7c-11.1-0.2-7.9-0.3-19-0.4c-5.4-0.1-41-0.4-46.1,0.5c-0.1,0-0.1,0.2,0,0.2
				c5.1,0.8,40.7,0.5,46.1,0.5c11.1-0.1,7.9-0.2,19-0.4C458.1,630,458.1,629.7,457.9,629.7z"/>
			<path id="XMLID_265_" fill="#263238" d="M403.6,549.1c-0.1-10.3-0.2-20.6-0.2-30.9c-0.1-10-0.1-20-0.5-29.9
				c-1-20.2-5.1-40-8-59.9c-2.9-20-5.3-40-7.5-60c-2.5-22.5-4.6-45-7-67.5c0-0.2-0.3-0.1-0.2,0c3.3,40.2,7.1,80.3,12.6,120.3
				c1.4,9.9,2.9,19.8,4.5,29.7c1.7,10,3.3,20,4.1,30.2c0.8,9.9,0.9,19.9,1,29.8c0.1,10.3,0.2,20.6,0.3,30.9
				c0.2,22.9,0.4,58,0.7,80.9c0,0.4,0.7,0.4,0.7,0C403.9,602.2,403.7,569.5,403.6,549.1z"/>
		</g>
	</g>
	<path id="XMLID_264_" fill="#263238" d="M356.2,292.8c0,0,30.1,170.1,32.5,183.1c0.6,3,0.9,19,1.2,39.7l0,0.1l33.8-222.9H356.2z"/>
	<path id="XMLID_263_" fill="#C95F50" d="M322,690c-3.6-1-87.1-57.2-88.9-61.4c-0.7-1.6,6.8-14.2,16.3-29.2c0.1-0.2,0.2-0.3,0.3-0.5
		c1.9-3.1,4-6.3,6.1-9.5c0.3-0.4,0.6-0.9,0.8-1.3c13.9-21.5,28.8-43.5,28.8-43.5l56,37.5l-30,42.2l-1.2,1.7l-6.2,8.7l-0.6,0.9
		c0,0,22.3,35.8,23.8,40.6C328.6,680.8,325.5,690.9,322,690z"/>
	<path id="XMLID_262_" fill="#FFC829" d="M313.6,650.3c-0.2-0.2-0.2-0.3-0.2-0.4C313.4,649.9,313.5,650,313.6,650.3z"/>
	<path id="XMLID_261_" fill="#2BB673" d="M322,690c-3.6-1-87.1-57.2-88.9-61.4c-0.6-1.3,4.8-10.8,12.2-22.8
		c11.6,11,67.9,64,72.9,59.7c1.1-0.9,0.6-3.4-0.3-6.1c4.6,7.7,8.7,14.8,9.3,16.7C328.6,680.8,325.5,690.9,322,690z"/>
	<g id="XMLID_725_">
		<path id="XMLID_260_" fill="#37474F" d="M310.5,635.5l-60.6-43.6c0,0,78.3-104.6,78.7-114.1c0.5-14.2,7.4-72.9,13.1-120.4
			c0,0-10.9-25.7,9.5-64.6h81.5c0,0-5.5,37-14.8,60.4c0,0-7.1,2.2-18.1,8.3c0,0-6.7,116-8.8,129C385.6,525,310.5,635.5,310.5,635.5z
			"/>
		<path id="XMLID_259_" fill="#263238" d="M314.7,620.8c-8.9-6.5-6.3-4.8-15.3-11.2c-4.4-3.2-33.4-23.9-38-26.1
			c-0.1,0-0.2,0.1-0.1,0.2c3.7,3.6,33,23.8,37.5,26.8c9.1,6.3,6.6,4.4,15.8,10.5C314.7,621.1,314.9,620.9,314.7,620.8z"/>
	</g>
	<g id="XMLID_721_">
		<path id="XMLID_258_" fill="#263238" d="M420.9,351.6c-7.3,2.5-14.4,6.1-21.2,9.9c-0.3,0.1-0.1,0.6,0.2,0.4
			c7.1-3.1,14.4-6,21.4-9.5C421.9,352.1,421.5,351.4,420.9,351.6z"/>
		<path id="XMLID_257_" fill="#263238" d="M423.2,302.5c0-0.2-0.5-0.3-0.5,0c0.1,8.5-0.5,15.9-1.2,23.9c-0.3,3.7-3.3,24-9.7,22.5
			c-1.1-0.2-1.6-1.3-1.8-2.9c-0.2-1.9,0.5-4.3,0.8-6.2c0.7-4.3,1.3-8.5,1.6-12.8c0.7-8,0.7-16.1-0.3-24.1c0-0.3-0.4-0.2-0.4,0
			c0,11.1-0.3,22.2-1.9,33.2c-0.8,5.3-3.5,13.3,2.1,14.1c5.6,0.8,9.3-12.5,10-16.2C423.9,323.8,424,312.8,423.2,302.5z"/>
		<path id="XMLID_256_" fill="#263238" d="M412.1,349.5c-0.6,1.4-1,2.8-1.4,4.2c-0.3,1.1-0.7,2.3-0.6,3.5c0,0.2,0.3,0.2,0.4,0.1
			c0.7-0.9,1.1-2.2,1.5-3.4c0.5-1.3,1-2.6,1.4-3.9C413.7,349.1,412.4,348.6,412.1,349.5z"/>
	</g>
	<g id="XMLID_711_">
		<path id="XMLID_255_" fill="#C95F50" d="M403.5,217.1c9.7,12.9,36.2,50,55.2,48.8c16.3-1.1,49.3-12.3,56-15.5
			c12.4-5.9-7-41.3-14.6-38.6c-12.1,4.3-28.9,16.2-41.7,18c-5.2,0.7-16.7-10.4-45.9-22.9C401.2,202,396.7,208,403.5,217.1z"/>
		<g id="XMLID_712_">
			<path id="XMLID_254_" fill="#C95F50" d="M513.9,200.8c6.7-1.2,14.2-3.2,21.2-2c7,1.2,11.4,11.4,11,14s-5.6,18.8-12.6,17.7
				c-7-1.1-0.8-13.1-0.8-14.6c0-1.5,0-3.4-1.4-3.5c-1.3-0.1-26.2,7.3-26.2,7.3L513.9,200.8z"/>
			<g id="XMLID_716_">
				<path id="XMLID_253_" fill="#C95F50" d="M514.2,201.8c0.4,0.1,20.3-4.4,27.3-3.2c7,1.2,11.4,11.4,11,14
					c-0.4,2.7-5.6,18.8-12.6,17.7c-7-1.1-0.8-13.1-0.8-14.6c0-1.5,0-3.4-1.4-3.5c-1.3-0.1-26.2,7.3-26.2,7.3L514.2,201.8z"/>
				<path id="XMLID_252_" fill="#263238" d="M537.6,229.1c-0.7-1.2-0.6-2.9-0.5-4.3c0.1-1.5,0.4-3,1-4.4c0.5-1.2,1.2-2.4,1.5-3.7
					c0.2-1.2,0-2.7-0.4-3.9c-0.4-1.1-1.5-0.9-2.4-0.7c-1.4,0.3-2.7,0.7-4.1,1.1c-1.4,0.5-2.9,0.9-4.3,1.4c-1.5,0.5-3,0.9-4.4,1.6
					c-0.1,0.1-0.1,0.2,0.1,0.2c1.3-0.2,2.5-0.7,3.8-1c1.4-0.4,2.9-0.8,4.3-1.2c1.3-0.4,2.7-0.8,4-1.1c0.5-0.1,1.4-0.5,1.9-0.3
					c0.5,0.2,0.6,1.6,0.6,2c0.2,1.4-0.3,2.5-0.8,3.8c-0.6,1.2-1,2.4-1.3,3.7c-0.3,1.2-0.4,2.5-0.3,3.7c0.2,1.2,0.8,2.2,1.2,3.3
					C537.4,229.3,537.7,229.2,537.6,229.1z"/>
			</g>
			<g id="XMLID_713_">
				<path id="XMLID_251_" fill="#C95F50" d="M489.1,216.7c0,0,22.2-14.7,26.8-17.6c9.2-5.8,45.6-14.4,50.4-14.2
					c4.8,0.2,5,10.3-19.7,16.8c-13.1,3.4-16.3,10.1-16.7,14c-0.4,3.9,2.2,11.7,8.8,12.6c6.6,0.8,12.3-8,18.4-8.1
					c6.2-0.1,0.5,10.3-4.7,15.9c-5.2,5.7-13.7,9.7-19.7,11c-6,1.2-24.6,6-24.6,6L489.1,216.7z"/>
				<path id="XMLID_250_" fill="#263238" d="M547.4,225c-2.8,1.5-5.9,3.6-9.2,3.2c-3.4-0.4-5.2-2.9-6.3-5.9c-1.1-3-1.6-6.3-0.3-9.3
					c1.1-2.7,3.2-5,5.6-6.6c3-2.1,6.3-3.4,9.8-4.5c0.2,0,0.1-0.3-0.1-0.2c-3.2,0.9-13.2,3.2-16.3,11.2c-1.3,3.3-0.7,6.4,0.4,9.5
					c1,2.8,2.8,5.7,5.9,6.4c3.8,0.9,7.6-1.7,10.8-3.6C547.7,225.1,547.5,225,547.4,225z"/>
			</g>
		</g>
	</g>
	<path id="XMLID_249_" fill="#2BB673" d="M487.4,215.8l15.4,43.3c0,0-34.7,11.1-50.2,7.9c-15.5-3.1-39-35.4-49.4-49.2
		c-10.3-13.9-0.9-17.4,16.7-8.8c17.6,8.6,36.4,19.7,38,19.7C459.6,228.8,487.4,215.8,487.4,215.8z"/>
	<g id="XMLID_707_">
		<g id="XMLID_708_">
			<path id="XMLID_248_" fill="#263238" d="M479.9,220.5c0.3,1.8,0.9,3.5,1.4,5.2c0.5,1.7,0.9,3.5,1.5,5.2c1,3.3,2.1,6.6,3.2,9.9
				c2.2,6.6,4.6,13.2,7.5,19.5c0.1,0.1,0.3,0,0.2-0.1c-2.1-6.7-4.6-13.4-6.9-20c-1.1-3.3-2.2-6.6-3.4-9.9c-0.6-1.6-1.2-3.3-1.7-4.9
				c-0.5-1.6-1-3.4-1.7-5C480,220.4,479.9,220.4,479.9,220.5z"/>
		</g>
	</g>
	<path id="XMLID_247_" fill="#EBEBEB" d="M435.5,304.7c0,0-32.2,7.6-93.2,2.4c0,0,23.9-76.2,43.1-96.7c8.7-9.3,17.3-7.9,24.5-1.9
		c1.8,1.5,24.2,29.9,26.1,39.9c1.7,8.8-5.4,18.5-5.4,18.5L435.5,304.7z"/>
	<path id="XMLID_683_" fill="#C7C7C6" d="M410.9,237.4c0.1,1.1,0.2,2.2,0,3.3c-0.5-1-0.7-2.1-0.9-3.2c-0.1-1.1-0.2-2.2,0-3.3
		C410.5,235.3,410.8,236.3,410.9,237.4z M411.5,288.9c-0.2,1.1-0.1,2.2,0,3.3c0.2,1.1,0.4,2.2,0.9,3.2c0.2-1.1,0.1-2.2,0-3.3
		C412.2,291,412,289.9,411.5,288.9z M427.3,298.7c-0.2,1.1-0.1,2.2,0,3.3c0.2,1.1,0.4,2.2,0.9,3.2c0.2-1.1,0.1-2.2,0-3.3
		C428,300.8,427.8,299.8,427.3,298.7z M376.1,253.6c-0.2,1.1-0.1,2.2,0,3.3c0.2,1.1,0.4,2.2,0.9,3.2c0.2-1.1,0.1-2.2,0-3.3
		C376.8,255.7,376.6,254.6,376.1,253.6z M428.4,264.7c-0.2,1.1-0.1,2.2,0,3.3c0.2,1.1,0.4,2.2,0.9,3.2c0.2-1.1,0.1-2.2,0-3.3
		C429.1,266.8,428.9,265.8,428.4,264.7z M390.7,244.6c1.1,0.2,2.2,0.1,3.3,0c1.1-0.2,2.2-0.4,3.2-0.9c-1.1-0.2-2.2-0.1-3.3,0
		C392.8,243.9,391.7,244.1,390.7,244.6z M371.7,276.9c1.1,0.2,2.2,0.1,3.3,0c1.1-0.2,2.2-0.4,3.2-0.9c-1.1-0.2-2.2-0.1-3.3,0
		C373.8,276.1,372.7,276.4,371.7,276.9z M403.3,274.2c1.1,0.2,2.2,0.1,3.3,0c1.1-0.2,2.2-0.4,3.2-0.9c-1.1-0.2-2.2-0.1-3.3,0
		C405.4,273.5,404.4,273.7,403.3,274.2z M345.9,303.8c1.1,0.2,2.2,0.1,3.3,0c1.1-0.2,2.2-0.4,3.2-0.9c-1.1-0.2-2.2-0.1-3.3,0
		C348.1,303.1,347,303.3,345.9,303.8z M403.1,210.7c1.1,0.2,2.2,0.1,3.3,0c1.1-0.2,2.2-0.4,3.2-0.9c-1.1-0.2-2.2-0.1-3.3,0
		C405.2,210,404.1,210.3,403.1,210.7z M392.4,216.6c-0.9,0.7-1.6,1.5-2.3,2.4c-0.6,0.9-1.2,1.8-1.6,2.9c0.9-0.7,1.6-1.5,2.3-2.4
		C391.4,218.6,392,217.7,392.4,216.6z M363.6,257.7c-0.9,0.7-1.6,1.5-2.3,2.4c-0.6,0.9-1.2,1.8-1.6,2.9c0.9-0.7,1.6-1.5,2.3-2.4
		C362.6,259.7,363.2,258.8,363.6,257.7z M418.4,253.9c-0.9,0.7-1.6,1.5-2.3,2.4c-0.6,0.9-1.2,1.8-1.6,2.9c0.9-0.7,1.6-1.5,2.3-2.4
		C417.4,255.9,418,255,418.4,253.9z M391,284.6c-0.9,0.7-1.6,1.5-2.3,2.4c-0.6,0.9-1.2,1.8-1.6,2.9c0.9-0.7,1.6-1.5,2.3-2.4
		C390,286.6,390.6,285.6,391,284.6z M421.3,223c-0.2,0.3-0.4,0.5-0.7,0.8c-0.7,0.9-1.2,1.8-1.6,2.9c0.9-0.7,1.6-1.5,2.3-2.4
		c0.1-0.2,0.3-0.4,0.5-0.6C421.6,223.4,421.5,223.2,421.3,223z M429.3,246c-0.7-0.9-1.5-1.6-2.4-2.3c-0.9-0.6-1.8-1.2-2.9-1.6
		c0.7,0.9,1.5,1.6,2.4,2.3C427.3,245.1,428.2,245.6,429.3,246z M359.5,284.3c-0.7-0.9-1.5-1.6-2.4-2.3c-0.9-0.6-1.8-1.2-2.9-1.6
		c0.7,0.9,1.5,1.6,2.4,2.3C357.5,283.3,358.5,283.9,359.5,284.3z M430.8,285.5c-0.7-0.9-1.5-1.6-2.4-2.3c-0.9-0.6-1.8-1.2-2.9-1.6
		c0.7,0.9,1.5,1.6,2.4,2.3C428.8,284.5,429.7,285.1,430.8,285.5z M381.6,237.9c-0.7-0.9-1.5-1.6-2.4-2.3c-0.9-0.6-1.8-1.2-2.9-1.6
		c0.7,0.9,1.5,1.6,2.4,2.3C379.6,236.9,380.5,237.5,381.6,237.9z M401.8,306.1c-0.7-0.9-1.5-1.6-2.4-2.3c-0.9-0.6-1.8-1.2-2.9-1.6
		c0.7,0.9,1.5,1.6,2.4,2.3C399.8,305.1,400.7,305.7,401.8,306.1z M395.8,264.2c-0.7-0.9-1.5-1.6-2.4-2.3c-0.9-0.6-1.8-1.2-2.9-1.6
		c0.7,0.9,1.5,1.6,2.4,2.3C393.8,263.2,394.7,263.8,395.8,264.2z M372.9,297.9c-0.7-0.9-1.5-1.6-2.4-2.3c-0.9-0.6-1.8-1.2-2.9-1.6
		c0.7,0.9,1.5,1.6,2.4,2.3C370.9,296.9,371.8,297.5,372.9,297.9z"/>
	<path id="XMLID_224_" fill="#2BB673" d="M391.6,205.4L406.9,319h-70.3c0,0,16.8-72.5,42.4-103.9
		C386.1,206.4,391.6,205.4,391.6,205.4z"/>
	<path id="XMLID_223_" fill="#2BB673" d="M410.5,209.1c0,0,10.9,28.8,15,53.1c4.5,26.7,7,53.1,7,53.1l4.8-3.9l-6.7-44.6
		c0,0,6.5-7.7,5.5-19.1C435.4,238.6,410.5,209.1,410.5,209.1z"/>
	<path id="XMLID_222_" fill="#263238" d="M431.1,236.3c-1.3-2-2.7-4.1-4.2-6c-0.2-0.7-0.5-1.4-0.8-2.1c-0.4-1-0.9-2-1.5-2.9
		c0.3,1,0.7,2,1.1,3c0.1,0.3,0.2,0.5,0.4,0.8c-1.4-1.9-2.9-3.9-4.4-5.7c2.8,4.5,5.9,8.8,8.7,13.3c1.4,2.2,2.8,4.5,3.9,6.8
		c0.4,0.8,0.7,1.5,1,2.3c0.6,2,1.6,6.1-0.6,12.4c-0.7,2.1-1.3,4.3-2.4,6.2c-0.1,0.1,0.1,0.3,0.2,0.1c1.1-2,2-4.2,2.8-6.3
		c0.8-2,1.2-4.3,1.4-6.5C437.1,245.5,433.9,241.2,431.1,236.3z"/>
	<g id="XMLID_645_">
		<g id="XMLID_677_">
			<path id="XMLID_221_" fill="#C95F50" d="M392.2,206.3c0.4,1.6,8.1,12.4,15.6,12.1c2.4-0.1,2.5-13.5,2.5-13.5l0.2-1l3.2-13.8
				l-16.1-10.6l-2.3-1.4c0,0-0.6,3.8-1.4,8.6c0,0.2-0.1,0.4-0.1,0.7c0,0.3-0.1,0.5-0.1,0.8c-0.1,0.7-0.2,1.4-0.3,2.2
				c-0.1,0.6-0.2,1.1-0.2,1.7c-0.1,0.6-0.1,1.2-0.2,1.7C392.2,199.6,392,205.6,392.2,206.3z"/>
			<path id="XMLID_220_" fill="#263238" d="M393.9,186.8c3.8,11.1,12.6,15.6,16.6,17.2l3.2-13.8l-16.1-10.6l-2.3-1.4
				C395.3,178.2,394.7,182,393.9,186.8z"/>
		</g>
		<g id="XMLID_646_">
			<path id="XMLID_219_" fill="#C95F50" d="M432.4,164.8c5,24.4-9.1,30.1-14.3,31.2c-4.8,1-21.2,3.6-28.6-20.1
				c-7.5-23.7,2.3-33.8,13.1-36.5C413.3,136.5,427.4,140.4,432.4,164.8z"/>
			<g id="XMLID_657_">
				<path id="XMLID_218_" fill="#263238" d="M428.1,161.3c-0.6,0-1.1,0-1.7-0.1c-0.7,0-1.2,0-1.7-0.4c-0.3-0.2-0.4-0.8-0.2-1.1
					c0.4-0.7,1.2-0.9,2-0.9c0.9,0,1.5,0.2,2.2,0.8C429.3,160.2,428.9,161.2,428.1,161.3z"/>
				<path id="XMLID_217_" fill="#263238" d="M411.3,164.2c0.6-0.2,1.1-0.4,1.6-0.6c0.6-0.3,1.1-0.4,1.5-1c0.2-0.3,0.1-0.8-0.2-1.1
					c-0.7-0.5-1.5-0.4-2.2-0.1c-0.8,0.3-1.4,0.7-1.8,1.5C409.7,163.6,410.5,164.5,411.3,164.2z"/>
				<g id="XMLID_669_">
					<g id="XMLID_671_">
						<path id="XMLID_216_" fill="#263238" d="M416.2,169.6c0-0.1-0.1,0.1-0.1,0.2c0.4,1.6,0.6,3.6-0.8,4.5c0,0,0,0.1,0,0.1
							C417.1,173.6,416.9,171.1,416.2,169.6z"/>
						<path id="XMLID_215_" fill="#263238" d="M414.4,168.1c-2.7,0.3-1.8,5.7,0.7,5.4C417.6,173.2,416.7,167.8,414.4,168.1z"/>
					</g>
					<path id="XMLID_214_" fill="#263238" d="M413.4,168.6c-0.4,0.4-0.8,1-1.4,1.1c-0.6,0.2-1.2-0.3-1.8-0.8c-0.1,0-0.1,0-0.1,0.1
						c0.2,1,0.7,2,1.9,2c1,0,1.6-1.1,1.7-2.1C413.8,168.7,413.6,168.4,413.4,168.6z"/>
				</g>
				<g id="XMLID_664_">
					<g id="XMLID_666_">
						<path id="XMLID_213_" fill="#263238" d="M425.5,167.7c0-0.1,0.1,0.1,0.2,0.1c0.2,1.7,0.7,3.6,2.3,3.9c0,0,0.1,0.1,0,0.1
							C426.1,171.8,425.4,169.3,425.5,167.7z"/>
						<path id="XMLID_212_" fill="#263238" d="M426.7,165.7c2.7-0.6,3.7,4.7,1.3,5.3C425.5,171.6,424.5,166.2,426.7,165.7z"/>
					</g>
					<path id="XMLID_211_" fill="#263238" d="M427.9,165.8c0.5,0.2,1,0.6,1.5,0.6c0.6-0.1,0.9-0.7,1.2-1.4c0-0.1,0.1,0,0.1,0
						c0.2,1,0.1,2.2-0.8,2.5c-0.9,0.4-1.7-0.4-2.1-1.4C427.6,166.1,427.7,165.7,427.9,165.8z"/>
				</g>
				<path id="XMLID_210_" fill="#263238" d="M418.3,183.3c0.4,0.3,0.9,0.8,1.5,0.8c0.6,0,1.2-0.4,1.8-0.6c0.1,0,0.1,0,0.1,0.1
					c-0.4,0.7-1.2,1.2-2,1.2c-0.8,0-1.2-0.7-1.5-1.3C418.1,183.3,418.2,183.3,418.3,183.3z"/>
				<g id="XMLID_660_">
					<path id="XMLID_209_" fill="#263238" d="M424.3,179.4c0,0-0.8,1.8-2.2,2.7c-0.5,0.3-1.1,0.6-1.8,0.6c-1.4,0-1.7-1.2-1.7-2.3
						c0-0.9,0.2-1.7,0.2-1.7S421.1,180,424.3,179.4z"/>
					<path id="XMLID_208_" fill="#F49BBC" d="M422.1,182.2c-0.5,0.3-1.1,0.6-1.8,0.6c-1.4,0-1.7-1.2-1.7-2.3
						C420,180.2,421.6,180.8,422.1,182.2z"/>
				</g>
				<g id="XMLID_658_">
					<path id="XMLID_207_" fill="#263238" d="M424.2,176c0,0,0.8,2.4,1,3.6c0,0.1-0.3,0.2-0.7,0.3c0,0,0,0,0,0
						c-2,0.7-4.2,0.3-5.8-1.1c-0.1-0.1,0-0.2,0.1-0.2c1.8,0.9,3.5,0.9,5.4,0.6c0-0.3-1.5-4.1-1.3-4.2c0.6-0.2,2,0,2.8,0.1
						c-1.5-5.1-3.8-9.9-5.2-15.1c0-0.2,0.2-0.3,0.3-0.1c2.8,4.9,4.6,10.7,6.3,16C427.3,176.6,424.7,176.2,424.2,176z"/>
				</g>
			</g>
			<g id="XMLID_653_">
				<path id="XMLID_206_" fill="#263238" d="M416.1,143.4c0,0,1,3.7-0.3,6.4c-2.6,5.5-9.3,4.1-11.5,6.3c-2.1,2-1.4,6.3-3.3,8.3
					c-2.7,2.8-6.3,1.7-6.7,3.6c-0.4,1.9-1.7,8-4.1,8.7c-2.4,0.8-13.6-39.5,18.1-38.3c0,0,4.3-1.8,11.1,1.6c7.5,3.7,10.7,16,10.7,16
					s-0.2-0.2-1.2-1.1c-1.5-1.3-2.1-2.6-3.3-3.5c-1.8-1.4-2.7-0.8-4.6-2.2C418.2,147.2,416.1,143.4,416.1,143.4z"/>
				<path id="XMLID_205_" fill="#263238" d="M415.6,141.6c0.5,1.6,0.8,3.2,0.9,4.8c0.1,1.6,0,3.3-0.7,4.7c-0.7,1.4-2.2,2.3-3.6,2.8
					c-1.5,0.6-3.2,0.7-4.8,1.4c-0.8,0.4-1.6,0.8-2.1,1.6c-0.5,0.8-0.7,1.6-0.9,2.4c-0.3,1.6-0.7,3.2-1.7,4.4
					c-1.1,1.2-2.6,1.9-4.2,1.8c-1.6,0-3.4-0.4-4.9,0.3c1.6-0.6,3.2,0,4.9,0.1c1.7,0.2,3.5-0.5,4.7-1.8c1.3-1.3,1.6-3.1,2-4.6
					c0.2-0.8,0.4-1.6,0.8-2.2c0.4-0.6,1.1-1,1.8-1.3c1.4-0.6,3.1-0.8,4.7-1.4c0.8-0.3,1.6-0.7,2.3-1.2c0.7-0.5,1.3-1.2,1.7-2
					c0.7-1.6,0.7-3.4,0.5-5C416.7,144.8,416.2,143.2,415.6,141.6z"/>
				<path id="XMLID_204_" fill="#263238" d="M416.2,143.1c0.3,1.5,0.8,3,1.5,4.4c0.7,1.4,1.8,2.7,3.2,3.5c0.7,0.4,1.5,0.6,2.2,0.8
					c0.6,0.2,1.3,0.6,1.7,1.1c0.4,0.6,0.8,1.3,1.4,1.9c0.6,0.5,1.3,0.9,2,1.2c-0.7-0.4-1.3-0.8-1.7-1.4c-0.5-0.6-0.8-1.2-1.2-1.9
					c-0.5-0.8-1.2-1.2-2-1.5c-0.8-0.3-1.5-0.5-2.1-0.8c-1.3-0.7-2.2-1.8-3-3.1C417.5,145.9,416.9,144.5,416.2,143.1z"/>
			</g>
			<g id="XMLID_647_">
				<g id="XMLID_650_">
					<path id="XMLID_203_" fill="#C95F50" d="M391.2,184.8c0.4,0.1,0.8,0.2,1.2,0.2c0.4,0,0.8,0,1.2-0.1c0.6-0.1,1-0.3,1.4-0.6
						c0.3-0.2,0.6-0.5,0.9-0.8c0.6-0.8,0.8-1.5,0.8-1.5l-2.1-6.4c0,0-6.3-7.1-9.6-4.8C381.6,173.1,386.9,183.8,391.2,184.8z"/>
					<path id="XMLID_202_" fill="#263238" d="M386.5,173.8c-0.1,0-0.1,0.1,0,0.1c3,0.8,4.8,3.3,6.2,6c-1-1-2.2-1.4-3.5-0.2
						c-0.1,0.1,0,0.2,0.1,0.1c1.2-0.4,2-0.3,2.9,0.6c0.6,0.6,1.1,1.4,1.6,2.1c0.2,0.2,0.6,0.1,0.5-0.2c0,0,0,0,0-0.1
						C393.9,178.5,390.5,173.7,386.5,173.8z"/>
				</g>
				<circle id="XMLID_201_" fill="#FFFFFF" cx="392.5" cy="183.4" r="1.2"/>
				<circle id="XMLID_200_" fill="#FFFFFF" cx="389.7" cy="182.1" r="0.8"/>
			</g>
		</g>
	</g>
	<path id="XMLID_199_" fill="#C95F50" d="M379.7,217.4c-13.4,23.2-38,77.3-26.6,87.3c18.7,16.5,60.6,27.5,73.5,29.5
		c5.6,0.9,19.2-40.6,13.7-43.1c-6.6-3-51-11.3-51.3-15c-0.2-2.1,2.4-20,3.6-42.7C393.9,207.1,386.1,206.3,379.7,217.4z"/>
	<g id="XMLID_638_">
		<path id="XMLID_198_" fill="#C95F50" d="M420.4,291.1c0,0,15.6-7,26-11.1c5.8-2.3,16.1-5.3,21.2-5c7.5,0.4,38.8,6.9,37.4,14.6
			c-1.3,6.9-27.4-2.1-27.4-2.1s27.2,6.8,24.1,14.8c-3.1,8-31.3-6.1-31.3-6.1s27.8,7.6,23.3,15.3c-3.4,5.9-29.6-5.5-29.6-5.5
			s23.8,6.7,20.6,12.9c-3.6,6.8-28.4-2.1-28.4-2.1c-10.8,14.3-21.9,16.7-29.9,17.5C424.4,334.4,420.4,291.1,420.4,291.1z"/>
		<g id="XMLID_639_">
			<path id="XMLID_197_" fill="#263238" d="M468.3,284.4c3.2,0.7,6.5,1.3,9.6,2.3c3.2,1,6.3,2,9.3,3.3c7.5,3.1,11.7,6.2,11.4,6
				c-6.6-3.9-17.9-7.5-21-8.4c-3.1-1-6.2-2.1-9.4-3C468.2,284.5,468.3,284.4,468.3,284.4z"/>
			<path id="XMLID_196_" fill="#263238" d="M464.7,295.8c4.1,1,8.2,1.9,12.2,3.2c4,1.2,7.7,2.7,11.6,4.2c0.3,0.1,0.1,0.2-0.2,0.1
				c-4-1.3-7.8-2.3-11.7-3.6C472.6,298.4,468.6,297,464.7,295.8C464.6,295.8,464.6,295.7,464.7,295.8z"/>
			<path id="XMLID_195_" fill="#263238" d="M459.7,304.9c6.3,1.3,12.4,3.7,18.3,6.3c0.3,0.1,0.1,0.3-0.2,0.2c-6-2.2-10.8-4-18.1-6.2
				C459.6,305.1,459.6,304.9,459.7,304.9z"/>
		</g>
	</g>
	<path id="XMLID_194_" fill="#2BB673" d="M424.7,285.5l-6.5,49.6c0,0-63.6-19.2-68-33.1c-4.5-13.9,11.6-55.2,26.3-80.9
		c14.7-25.7,17.3-1.2,17.1,8.6c-0.2,9.8-3.4,44-3.4,44L424.7,285.5z"/>
	<g id="XMLID_631_">
		<g id="XMLID_634_">
			<g id="XMLID_635_">
				<path id="XMLID_193_" fill="#263238" d="M417,286.3c-0.6,1.7-0.9,3.5-1.2,5.3c-0.4,1.8-0.8,3.5-1.2,5.3
					c-0.7,3.4-1.3,6.8-1.9,10.2c-1.1,6.9-2.2,13.8-2.6,20.7c0,0.1,0.2,0.2,0.3,0c1.3-6.9,2.3-13.9,3.4-20.9
					c0.6-3.4,1.1-6.8,1.7-10.3c0.3-1.7,0.5-3.4,0.8-5.1c0.3-1.7,0.8-3.4,0.9-5.2C417.1,286.3,417,286.3,417,286.3z"/>
			</g>
		</g>
		<path id="XMLID_192_" fill="#263238" d="M410.7,280.7c-3.6-1-20.2-7.2-20.2-7.2c1.1-7.9,1.6-16,2.1-23.9c0.2-0.8,0.4-1.7,0.6-2.5
			c0.3-1.5,0.5-3,0.8-4.4c0,0,0-0.1-0.1,0c-0.4,1.4-0.8,2.9-1.1,4.3c0,0,0,0,0,0.1c0.1-2.5,0.3-5.1,0.4-7.6c0-0.1-0.2-0.1-0.2,0
			c-1.4,11.3-3.4,34.5-3.1,34.6c3.3,1.6,17.2,5.7,20.7,6.9C410.7,280.8,410.8,280.7,410.7,280.7z"/>
		<path id="XMLID_191_" fill="#263238" d="M374,318.9c-1.5-0.6-2.8-1.5-4.2-2.3c-1.4-0.8-2.7-1.6-4.1-2.5c-2.8-1.8-5.5-3.6-8.1-5.7
			c-2.5-2-4.9-4-6-7c-1.2-3.1-1.2-6.5-1-9.8c0.4-6.8,2.4-13.5,4.4-20.1c2-6.4,4.1-12.7,6.7-18.9c1.4-3.4,2.8-6.8,4.4-10.2
			c1.6-3.4,3.4-6.7,5-10.1c0.1-0.2-0.2-0.3-0.3-0.1c-1.9,2.9-3.4,6-5,9.1c-0.5,1-1,2-1.5,3c0.1-0.2,0.1-0.3,0.2-0.5
			c0.4-1.2,0.8-2.5,1.1-3.7c0-0.1-0.2-0.2-0.2-0.1c-0.7,2-1.3,3.9-1.9,5.9c0,0.1-0.1,0.3-0.2,0.6c-0.7,1.4-1.3,2.8-1.9,4.2
			c-2.7,6.2-5.2,12.6-7.3,19c-2.2,6.6-4.2,13.5-4.8,20.5c-0.3,3.3-0.3,6.8,0.6,10.1c0.8,3.1,2.6,5.5,5.1,7.5
			c2.8,2.3,5.8,4.4,8.9,6.3c1.6,1,3.3,1.9,4.9,2.7c1.7,0.9,3.6,1.5,5.3,2.4C374,319.1,374.1,318.9,374,318.9z"/>
	</g>
	<g id="XMLID_627_">
		<g id="XMLID_628_">
			<path id="XMLID_190_" fill="#EBEBEB" d="M410.5,204.4l-3.6,11.4l-14.8-12.9l-3.5,4.8c0,0,15.1,21.2,15.1,20.2l3.8-9.9l7.1,6.1
				l-1.8-16.6L410.5,204.4z"/>
			<path id="XMLID_189_" fill="#263238" d="M414.1,215.8c-0.4-2.7-0.7-5.5-1.2-8.2c0-0.1-0.2-0.1-0.2,0c-0.3,2.7,1.2,13.1,1.4,15.6
				c0,0,0,0,0,0c-0.3-0.3-6.5-5.4-6.6-5.3c-0.9,1.6-3.7,8.8-3.9,9.4c-2.4-3.4-11.5-15.6-14.3-18.7c-0.1-0.1-0.2,0-0.2,0.1
				c2.2,3.6,14.3,20,14.4,20c0.1,0.1,3.6-8.8,4-10.4c1.1,1.1,7.4,6.9,7.4,6.5C414.9,222.1,414.5,218.6,414.1,215.8z"/>
		</g>
	</g>
	<g id="XMLID_615_">
		<g id="XMLID_622_" opacity="0.5">
			<rect id="XMLID_188_" x="104.2" y="418" fill="#FFC829" width="308.8" height="161.3"/>
			<path id="XMLID_623_" fill="#EBEBEB" d="M413.1,579.3l-308.8,0.4l-0.4,0l0-0.4L103.7,418l0-0.6l0.6,0l308.8,0.2l0.4,0l0,0.4
				l-0.1,80.8L413.1,579.3z M413.1,579.3L412.7,418l0.4,0.4l-308.8,0.2l0.6-0.6l-0.2,161.3l-0.4-0.4L413.1,579.3z"/>
		</g>
		<g id="XMLID_616_">
			<rect id="XMLID_185_" x="104.2" y="406.4" fill="#455B65" width="308.8" height="11.6"/>
			<g id="XMLID_617_">
				<circle id="XMLID_184_" fill="#C7C7C6" cx="110.6" cy="412.2" r="2.9"/>
				<circle id="XMLID_183_" fill="#FFFFFF" cx="122.4" cy="412.2" r="2.9"/>
				<circle id="XMLID_182_" fill="#FFC829" cx="134.1" cy="412.2" r="2.9"/>
			</g>
		</g>
	</g>
	<g id="XMLID_595_">
		<path id="XMLID_181_" fill="#FFFFFF" d="M128,451.5c44.1-0.2,86-0.2,130.2-0.3c44.1,0.1,87.2,0,131.4,0.3
			c-44.1,0.2-87.2,0.2-131.4,0.3C214,451.7,172.1,451.7,128,451.5z"/>
		<path id="XMLID_180_" fill="#FFFFFF" d="M128,472.3c44.1-0.2,86-0.2,130.2-0.3c44.1,0.1,87.2,0,131.4,0.3
			c-44.1,0.2-87.2,0.2-131.4,0.3C214,472.5,172.1,472.5,128,472.3z"/>
		<path id="XMLID_179_" fill="#FFFFFF" d="M128,493.1c44.1-0.2,86-0.2,130.2-0.3c44.1,0.1,87.2,0,131.4,0.3
			c-44.1,0.2-87.2,0.2-131.4,0.3C214,493.3,172.1,493.3,128,493.1z"/>
		<path id="XMLID_178_" fill="#FFFFFF" d="M128,513.9c44.1-0.2,86-0.2,130.2-0.3c44.1,0.1,87.2,0,131.4,0.3
			c-44.1,0.2-87.2,0.2-131.4,0.3C214,514.1,172.1,514.1,128,513.9z"/>
		<path id="XMLID_177_" fill="#FFFFFF" d="M128,534.7c44.1-0.2,86-0.2,130.2-0.3c44.1,0.1,87.2,0,131.4,0.3
			c-44.1,0.2-87.2,0.2-131.4,0.3C214,534.9,172.1,534.9,128,534.7z"/>
		<path id="XMLID_176_" fill="#FFFFFF" d="M153.1,438c0.2,19.4,0.2,38.9,0.3,58.3c-0.1,19.4,0,38.9-0.3,58.3
			c-0.2-19.4-0.2-38.9-0.3-58.3C152.9,476.8,152.9,457.4,153.1,438z"/>
		<path id="XMLID_175_" fill="#FFFFFF" d="M175.7,438c0.2,19.4,0.2,38.9,0.3,58.3c-0.1,19.4,0,38.9-0.3,58.3
			c-0.2-19.4-0.2-38.9-0.3-58.3C175.5,476.8,175.5,457.4,175.7,438z"/>
		<path id="XMLID_174_" fill="#FFFFFF" d="M198.3,438c0.2,19.4,0.2,38.9,0.3,58.3c-0.1,19.4,0,38.9-0.3,58.3
			c-0.2-19.4-0.2-38.9-0.3-58.3C198.1,476.8,198.1,457.4,198.3,438z"/>
		<path id="XMLID_173_" fill="#FFFFFF" d="M220.9,438c0.2,19.4,0.2,38.9,0.3,58.3c-0.1,19.4,0,38.9-0.3,58.3
			c-0.2-19.4-0.2-38.9-0.3-58.3C220.7,476.8,220.7,457.4,220.9,438z"/>
		<path id="XMLID_172_" fill="#FFFFFF" d="M243.5,438c0.2,19.4,0.2,38.9,0.3,58.3c-0.1,19.4,0,38.9-0.3,58.3
			c-0.2-19.4-0.2-38.9-0.3-58.3C243.3,476.8,243.3,457.4,243.5,438z"/>
		<path id="XMLID_171_" fill="#FFFFFF" d="M266.1,438c0.2,19.4,0.2,38.9,0.3,58.3c-0.1,19.4,0,38.9-0.3,58.3
			c-0.2-19.4-0.2-38.9-0.3-58.3C266,476.8,265.9,457.4,266.1,438z"/>
		<path id="XMLID_170_" fill="#FFFFFF" d="M288.7,438c0.2,19.4,0.2,38.9,0.3,58.3c-0.1,19.4,0,38.9-0.3,58.3
			c-0.2-19.4-0.2-38.9-0.3-58.3C288.6,476.8,288.5,457.4,288.7,438z"/>
		<path id="XMLID_169_" fill="#FFFFFF" d="M311.3,438c0.2,19.4,0.2,38.9,0.3,58.3c-0.1,19.4,0,38.9-0.3,58.3
			c-0.2-19.4-0.2-38.9-0.3-58.3C311.2,476.8,311.1,457.4,311.3,438z"/>
		<path id="XMLID_154_" fill="#FFFFFF" d="M333.9,438c0.2,19.4,0.2,38.9,0.3,58.3c-0.1,19.4,0,38.9-0.3,58.3
			c-0.2-19.4-0.2-38.9-0.3-58.3C333.8,476.8,333.7,457.4,333.9,438z"/>
		<path id="XMLID_153_" fill="#FFFFFF" d="M356.5,438c0.2,19.4,0.2,38.9,0.3,58.3c-0.1,19.4,0,38.9-0.3,58.3
			c-0.2-19.4-0.2-38.9-0.3-58.3C356.4,476.8,356.3,457.4,356.5,438z"/>
		<path id="XMLID_152_" fill="#FFFFFF" d="M379.2,438c0.2,19.4,0.2,38.9,0.3,58.3c-0.1,19.4,0,38.9-0.3,58.3
			c-0.2-19.4-0.2-38.9-0.3-58.3C379,476.8,378.9,457.4,379.2,438z"/>
		<path id="XMLID_151_" fill="#FFFFFF" d="M390.5,554.6"/>
		<path id="XMLID_150_" fill="#FFFFFF" stroke="#FFC829" stroke-miterlimit="10" d="M129.5,554.6"/>
		<path id="XMLID_149_" fill="#FFFFFF" d="M127.6,439.2c0.3,19.2,0.5,38.5,0.6,57.7l0.3,57.7l-0.8-0.5l129,0.1l64.5,0.1l69.4,0.3
			l-69.4,0.3l-64.5,0.1l-129,0.1l-0.8,0l0-0.5l0.3-57.7C127.1,477.7,127.3,458.5,127.6,439.2z"/>
	</g>
	<g id="XMLID_589_" opacity="0.62">
		<g id="XMLID_592_">
			<path id="XMLID_148_" fill="#2BB673" d="M128,554.6c0,0,12.1-50.6,24.5-50.6c10.4,0,14.7,14.9,23.1,14.9
				c11.1,0,12.6-38.6,23.3-38.6c10.7,0,13,15.1,22.2,15.1c9.2,0,13.2-17.8,22.8-17.8c9.5,0,11.8,26.2,22,26.2
				c10.1,0,10.3-41.3,22.8-41.3s15.7,17.8,22.9,17.8c7.3,0,11.5-13,22.2-13c20.3,0,45.4,87.3,45.4,87.3L128,554.6L128,554.6z"/>
			<path id="XMLID_121_" fill="#2BB673" d="M379.2,480.3"/>
		</g>
		<g id="XMLID_590_" opacity="0.2">
			<path id="XMLID_120_" fill="#2BB673" d="M379.2,480.3"/>
		</g>
	</g>
	<g id="XMLID_585_" opacity="0.62">
		<g id="XMLID_586_">
			<g id="XMLID_587_">
				<path id="XMLID_119_" fill="#FFC829" d="M128,554.6c0,0,13.1-46.9,24.7-46.9c11.6,0,12.8,12.9,22.6,12.9c9.8,0,9.9-22.6,23-22.6
					c9,0,12.2,9.2,22.2,9.2c13.7,0,11.7-21.3,22.9-21.3c14.3,0,8.5,29.4,23.5,29.4c9.5,0,12-13.2,23.3-13.2c7.5,0,10.7,9.5,20.5,9.5
					c9.9,0,11.9-18.9,24.1-18.9c20,0,44.7,62,44.7,62H128L128,554.6z"/>
			</g>
		</g>
	</g>
	<path id="XMLID_118_" opacity="0.62" fill="#006838" d="M128,554.6c0,0,11.8-17.2,25.1-17.2c10,0,11.8,4.5,22.7,4.5
		c6.9,0,9.5-18.1,22.7-18.1c13.2,0,13.5,10.7,22.5,10.7c9.1,0,11.6-10.1,22.7-10.1c11.1,0,12.4,5.5,22.4,5.5
		c11.3,0,11-22.4,22.6-22.4c11.7,0,12.1,18.7,22.9,18.7c7.6,0,10.5-8,22.1-8c16.2,0,45.9,36.4,45.9,36.4H128z"/>
	<g id="XMLID_579_" opacity="0.5">
		<rect id="XMLID_117_" x="455.9" y="113.1" fill="#2BB673" width="236.5" height="187.3"/>
		<path id="XMLID_580_" fill="#2BB673" d="M692.4,300.4l-236.5,0.4l-0.4,0l0-0.4l-0.2-187.3l0-0.6l0.6,0l236.5,0.2l0.4,0l0,0.4
			L692.4,300.4z M692.4,300.4L692,113.1l0.4,0.4l-236.5,0.2l0.6-0.6l-0.2,187.3l-0.4-0.4L692.4,300.4z"/>
	</g>
	<g id="XMLID_573_">
		<rect id="XMLID_89_" x="455.9" y="99.6" fill="#455B65" width="236.5" height="13.5"/>
		<g id="XMLID_574_">
			<circle id="XMLID_88_" fill="#C7C7C6" cx="463.2" cy="106.4" r="3.3"/>
			<circle id="XMLID_87_" fill="#FFFFFF" cx="476.9" cy="106.4" r="3.3"/>
			<circle id="XMLID_86_" fill="#FFC829" cx="490.6" cy="106.4" r="3.3"/>
		</g>
	</g>
	<g id="XMLID_97_">
		<g id="XMLID_107_">
			<g id="XMLID_108_">
				<g id="XMLID_549_">
					<rect id="XMLID_85_" x="558.9" y="214.9" fill="#263238" width="61.1" height="0.4"/>
					<g id="XMLID_570_">
						<circle id="XMLID_84_" fill="#263238" cx="618.1" cy="215.1" r="2.3"/>
					</g>
					<g id="XMLID_550_">
						<g id="XMLID_559_">
							<path id="XMLID_568_" fill="#263238" d="M632.1,213.5l-1.8,4.3c-0.1,0.2-0.2,0.2-0.4,0.2c0,0-0.1,0-0.2,0
								c-0.2-0.1-0.3-0.3-0.2-0.5l1.6-3.7h-1.9c-0.2,0-0.4-0.2-0.4-0.4c0-0.2,0.2-0.4,0.4-0.4h2.5c0,0,0,0,0.1,0
								c0.1,0,0.1,0,0.2,0.1c0,0,0,0,0,0c0,0,0,0,0,0c0,0,0,0,0,0c0,0,0,0,0,0c0,0,0,0,0,0c0,0,0,0,0,0c0,0,0,0,0,0c0,0,0,0,0,0
								C632.2,213.3,632.2,213.4,632.1,213.5C632.1,213.4,632.1,213.5,632.1,213.5z"/>
							<path id="XMLID_566_" fill="#263238" d="M635.6,214.9c0.4,0.3,0.5,0.8,0.5,1.3c0,0.5-0.2,0.9-0.5,1.3
								c-0.3,0.4-0.8,0.5-1.3,0.5c0,0,0,0,0,0c-0.4,0-0.9-0.2-1.3-0.5c-0.2-0.2-0.2-0.4,0-0.6c0.2-0.2,0.4-0.2,0.6,0
								c0.2,0.2,0.4,0.3,0.7,0.3c0.2,0,0.5-0.1,0.7-0.3c0.2-0.2,0.3-0.4,0.3-0.7c0-0.3-0.1-0.5-0.3-0.7c-0.2-0.2-0.4-0.3-0.7-0.3
								c-0.2,0-0.5,0.1-0.7,0.3c-0.2,0.2-0.4,0.2-0.6,0c0,0-0.1-0.1-0.1-0.1c0,0,0,0,0,0c0,0,0,0,0,0c0,0,0,0,0-0.1c0,0,0,0,0,0
								c0,0,0-0.1,0-0.1l0.2-1.9c0-0.1,0.1-0.2,0.2-0.3c0,0,0,0,0,0c0,0,0,0,0,0c0.1,0,0.1,0,0.2,0h2.1c0.2,0,0.4,0.2,0.4,0.4
								c0,0.2-0.2,0.4-0.4,0.4H634l-0.1,0.7c0.2,0,0.3-0.1,0.5-0.1C634.8,214.4,635.3,214.6,635.6,214.9z"/>
							<path id="XMLID_560_" fill="#263238" d="M637.3,214.2L637.3,214.2c0-0.7,0.5-1.3,1.2-1.3c0.7,0,1.2,0.6,1.2,1.3v0
								c0,0.7-0.5,1.3-1.2,1.3C637.7,215.5,637.3,214.9,637.3,214.2z M639,214.2L639,214.2c0-0.4-0.2-0.8-0.6-0.8
								c-0.3,0-0.5,0.3-0.5,0.7v0c0,0.4,0.2,0.7,0.6,0.7C638.8,214.9,639,214.6,639,214.2z M638.1,217.6l3.3-4.5
								c0.1-0.1,0.1-0.1,0.2-0.1c0.2,0,0.3,0.1,0.3,0.3c0,0.1,0,0.1-0.1,0.2l-3.3,4.5c-0.1,0.1-0.2,0.1-0.3,0.1
								c-0.2,0-0.3-0.1-0.3-0.3C638,217.7,638.1,217.6,638.1,217.6z M640.3,216.8L640.3,216.8c0-0.7,0.5-1.3,1.2-1.3
								c0.7,0,1.2,0.6,1.2,1.3v0c0,0.7-0.5,1.3-1.2,1.3C640.8,218.1,640.3,217.5,640.3,216.8z M642.1,216.8L642.1,216.8
								c0-0.4-0.2-0.8-0.6-0.8c-0.3,0-0.5,0.3-0.5,0.7v0c0,0.4,0.2,0.7,0.6,0.7C641.9,217.5,642.1,217.2,642.1,216.8z"/>
						</g>
						<g id="XMLID_551_">
							<rect id="XMLID_72_" x="628.8" y="221.9" fill="#263238" width="26" height="0.6"/>
							<rect id="XMLID_71_" x="628.8" y="223.6" fill="#263238" width="26" height="0.6"/>
							<rect id="XMLID_70_" x="628.8" y="225.3" fill="#263238" width="26" height="0.6"/>
							<rect id="XMLID_69_" x="628.8" y="227" fill="#263238" width="26" height="0.6"/>
							<rect id="XMLID_68_" x="628.8" y="228.7" fill="#263238" width="26" height="0.6"/>
							<rect id="XMLID_67_" x="628.8" y="230.4" fill="#263238" width="26" height="0.6"/>
							<rect id="XMLID_66_" x="628.8" y="232.1" fill="#263238" width="26" height="0.6"/>
						</g>
					</g>
				</g>
				<g id="XMLID_454_">
					<polygon id="XMLID_65_" fill="#263238" points="620,253 597.4,253 597.3,253 558.9,215.2 559.2,215 597.5,252.6 620,252.6 
											"/>
					<g id="XMLID_532_">
						<circle id="XMLID_64_" fill="#455B65" cx="618.1" cy="252.8" r="2.3"/>
					</g>
					<g id="XMLID_455_">
						<g id="XMLID_465_">
							<path id="XMLID_528_" fill="#263238" d="M632.3,254c0,0.9-0.8,1.7-1.7,1.7c-1,0-1.7-0.8-1.7-1.7c0-0.6,0.3-1.1,0.8-1.4
								c-0.2-0.2-0.2-0.4-0.2-0.7c0-0.7,0.5-1.2,1.2-1.2c0.7,0,1.2,0.5,1.2,1.2c0,0.3-0.1,0.5-0.2,0.7
								C632,252.9,632.3,253.4,632.3,254z M631.5,254c0-0.5-0.4-0.9-0.9-0.9c-0.5,0-0.9,0.4-0.9,0.9c0,0.5,0.4,0.9,0.9,0.9
								C631.1,255,631.5,254.5,631.5,254z M630.1,251.9c0,0.2,0.2,0.4,0.4,0.4c0.2,0,0.4-0.2,0.4-0.4c0-0.2-0.2-0.4-0.4-0.4
								C630.3,251.5,630.1,251.7,630.1,251.9z"/>
							<path id="XMLID_526_" fill="#263238" d="M636.1,252.7c0.4,0.3,0.5,0.8,0.5,1.3c0,0.5-0.2,0.9-0.5,1.3
								c-0.3,0.4-0.8,0.5-1.3,0.5c0,0,0,0,0,0c-0.4,0-0.9-0.2-1.3-0.5c-0.2-0.2-0.2-0.4,0-0.6c0.2-0.2,0.4-0.2,0.6,0
								c0.2,0.2,0.4,0.3,0.7,0.3c0.2,0,0.5-0.1,0.7-0.3c0.2-0.2,0.3-0.4,0.3-0.7c0-0.3-0.1-0.5-0.3-0.7c-0.2-0.2-0.4-0.3-0.7-0.3
								c-0.2,0-0.5,0.1-0.7,0.3c-0.2,0.2-0.4,0.2-0.6,0c0,0-0.1-0.1-0.1-0.1c0,0,0,0,0,0c0,0,0,0,0,0c0,0,0,0,0-0.1c0,0,0,0,0,0
								c0,0,0-0.1,0-0.1l0.2-1.9c0-0.1,0.1-0.2,0.2-0.3c0,0,0,0,0,0c0,0,0,0,0,0c0.1,0,0.1,0,0.2,0h2.1c0.2,0,0.4,0.2,0.4,0.4
								c0,0.2-0.2,0.4-0.4,0.4h-1.8l-0.1,0.7c0.2,0,0.3-0.1,0.5-0.1C635.3,252.2,635.8,252.3,636.1,252.7z"/>
							<path id="XMLID_466_" fill="#263238" d="M637.8,251.9L637.8,251.9c0-0.7,0.5-1.3,1.2-1.3s1.2,0.6,1.2,1.3v0
								c0,0.7-0.5,1.3-1.2,1.3C638.2,253.2,637.8,252.6,637.8,251.9z M639.5,251.9L639.5,251.9c0-0.4-0.2-0.8-0.6-0.8
								c-0.3,0-0.5,0.3-0.5,0.7v0c0,0.4,0.2,0.7,0.6,0.7C639.3,252.7,639.5,252.3,639.5,251.9z M638.6,255.3l3.3-4.5
								c0.1-0.1,0.1-0.1,0.2-0.1c0.2,0,0.3,0.1,0.3,0.3c0,0.1,0,0.1-0.1,0.2l-3.3,4.5c-0.1,0.1-0.2,0.1-0.3,0.1
								c-0.2,0-0.3-0.1-0.3-0.3C638.5,255.4,638.6,255.4,638.6,255.3z M640.8,254.5L640.8,254.5c0-0.7,0.5-1.3,1.2-1.3
								c0.7,0,1.2,0.6,1.2,1.3v0c0,0.7-0.5,1.3-1.2,1.3C641.3,255.8,640.8,255.2,640.8,254.5z M642.6,254.5L642.6,254.5
								c0-0.4-0.2-0.8-0.6-0.8c-0.3,0-0.5,0.3-0.5,0.7v0c0,0.4,0.2,0.7,0.6,0.7C642.4,255.2,642.6,254.9,642.6,254.5z"/>
						</g>
						<g id="XMLID_456_">
							<rect id="XMLID_54_" x="628.8" y="259.6" fill="#263238" width="26" height="0.6"/>
							<rect id="XMLID_53_" x="628.8" y="261.3" fill="#263238" width="26" height="0.6"/>
							<rect id="XMLID_52_" x="628.8" y="263" fill="#263238" width="26" height="0.6"/>
							<rect id="XMLID_51_" x="628.8" y="264.7" fill="#263238" width="26" height="0.6"/>
							<rect id="XMLID_50_" x="628.8" y="266.4" fill="#263238" width="26" height="0.6"/>
							<rect id="XMLID_49_" x="628.8" y="268.1" fill="#263238" width="26" height="0.6"/>
							<rect id="XMLID_48_" x="628.8" y="269.8" fill="#263238" width="26" height="0.6"/>
						</g>
					</g>
				</g>
				<g id="XMLID_142_">
					<g id="XMLID_450_">
						<polygon id="XMLID_47_" fill="#263238" points="559.1,215.1 558.7,215.1 558.7,131.3 620,131.3 620,131.7 559.1,131.7 						
							"/>
						<g id="XMLID_451_">
							<circle id="XMLID_46_" fill="#37474F" cx="618.1" cy="131.5" r="2.3"/>
						</g>
					</g>
					<g id="XMLID_143_">
						<g id="XMLID_159_">
							<path id="XMLID_448_" fill="#263238" d="M631.6,131.3c0.4,0.3,0.5,0.8,0.5,1.3c0,0.5-0.2,0.9-0.5,1.3
								c-0.3,0.4-0.8,0.5-1.3,0.5c0,0,0,0,0,0c-0.4,0-0.9-0.2-1.3-0.5c-0.2-0.2-0.2-0.4,0-0.6c0.2-0.2,0.4-0.2,0.6,0
								c0.2,0.2,0.4,0.3,0.7,0.3c0.2,0,0.5-0.1,0.7-0.3c0.2-0.2,0.3-0.4,0.3-0.7c0-0.3-0.1-0.5-0.3-0.7c-0.2-0.2-0.4-0.3-0.7-0.3
								c-0.2,0-0.5,0.1-0.7,0.3c-0.2,0.2-0.4,0.2-0.6,0c0,0-0.1-0.1-0.1-0.1c0,0,0,0,0,0c0,0,0,0,0,0c0,0,0,0,0-0.1c0,0,0,0,0,0
								c0,0,0-0.1,0-0.1l0.2-1.9c0-0.1,0.1-0.2,0.2-0.3c0,0,0,0,0,0c0,0,0,0,0,0c0.1,0,0.1,0,0.2,0h2.1c0.2,0,0.4,0.2,0.4,0.4
								c0,0.2-0.2,0.4-0.4,0.4h-1.8l-0.1,0.7c0.2,0,0.3-0.1,0.5-0.1C630.8,130.8,631.2,131,631.6,131.3z"/>
							<path id="XMLID_166_" fill="#263238" d="M633.3,131.9c0-0.7,0.2-1.3,0.5-1.7c0.3-0.5,0.8-0.8,1.3-0.8c0.6,0,1,0.3,1.3,0.8
								c0.3,0.5,0.5,1.1,0.5,1.7c0,0.7-0.2,1.3-0.5,1.7c-0.3,0.5-0.8,0.8-1.3,0.8c-0.6,0-1-0.3-1.3-0.8
								C633.4,133.1,633.3,132.5,633.3,131.9z M636.1,131.9c0-0.5-0.1-1-0.3-1.3c-0.2-0.3-0.4-0.4-0.7-0.4c-0.2,0-0.5,0.1-0.7,0.4
								c-0.2,0.3-0.3,0.8-0.3,1.3c0,0.5,0.1,1,0.3,1.3c0.2,0.3,0.5,0.4,0.7,0.4s0.5-0.1,0.7-0.4C636,132.9,636.1,132.4,636.1,131.9z
								"/>
							<path id="XMLID_160_" fill="#263238" d="M638.3,130.6L638.3,130.6c0-0.7,0.5-1.3,1.2-1.3s1.2,0.6,1.2,1.3v0
								c0,0.7-0.5,1.3-1.2,1.3C638.8,131.9,638.3,131.3,638.3,130.6z M640.1,130.6L640.1,130.6c0-0.4-0.2-0.8-0.6-0.8
								c-0.3,0-0.5,0.3-0.5,0.7v0c0,0.4,0.2,0.7,0.6,0.7C639.9,131.3,640.1,131,640.1,130.6z M639.2,134l3.3-4.5
								c0.1-0.1,0.1-0.1,0.2-0.1c0.2,0,0.3,0.1,0.3,0.3c0,0.1,0,0.1-0.1,0.2l-3.3,4.5c-0.1,0.1-0.2,0.1-0.3,0.1
								c-0.2,0-0.3-0.1-0.3-0.3C639.1,134.1,639.1,134,639.2,134z M641.4,133.2L641.4,133.2c0-0.7,0.5-1.3,1.2-1.3
								c0.7,0,1.2,0.6,1.2,1.3v0c0,0.7-0.5,1.3-1.2,1.3C641.9,134.5,641.4,133.9,641.4,133.2z M643.1,133.2L643.1,133.2
								c0-0.4-0.2-0.8-0.6-0.8c-0.3,0-0.5,0.3-0.5,0.7v0c0,0.4,0.2,0.7,0.6,0.7C642.9,133.9,643.1,133.6,643.1,133.2z"/>
						</g>
						<g id="XMLID_144_">
							<rect id="XMLID_37_" x="628.8" y="138.3" fill="#263238" width="26" height="0.6"/>
							<rect id="XMLID_36_" x="628.8" y="140" fill="#263238" width="26" height="0.6"/>
							<rect id="XMLID_35_" x="628.8" y="141.7" fill="#263238" width="26" height="0.6"/>
							<rect id="XMLID_34_" x="628.8" y="143.4" fill="#263238" width="26" height="0.6"/>
							<rect id="XMLID_33_" x="628.8" y="145.1" fill="#263238" width="26" height="0.6"/>
							<rect id="XMLID_32_" x="628.8" y="146.8" fill="#263238" width="26" height="0.6"/>
							<rect id="XMLID_31_" x="628.8" y="148.5" fill="#263238" width="26" height="0.6"/>
						</g>
					</g>
				</g>
				<g id="XMLID_109_">
					<g id="XMLID_140_">
						<polygon id="XMLID_30_" fill="#263238" points="559.1,215.2 558.8,215 602.7,169.4 620,169.4 620,169.8 602.9,169.8 						"/>
					</g>
					<g id="XMLID_138_">
						<circle id="XMLID_29_" fill="#455B65" cx="618.1" cy="169.6" r="2.3"/>
					</g>
					<g id="XMLID_110_">
						<g id="XMLID_126_">
							<path id="XMLID_135_" fill="#263238" d="M632.4,170.7c0,1-0.8,1.7-1.8,1.7c-0.9,0-1.7-0.7-1.7-1.6c0,0,0,0,0,0
								c0-0.1,0-0.3,0-0.4c0-0.5,0.1-1,0.3-1.5c0.2-0.5,0.5-0.9,0.9-1.2c0.3-0.2,0.7-0.3,1.1-0.3c0.2,0,0.4,0.2,0.4,0.4
								c0,0.2-0.2,0.4-0.4,0.4c-0.3,0-0.5,0.1-0.7,0.2c-0.2,0.1-0.3,0.3-0.5,0.5c0,0.1-0.1,0.1-0.1,0.2c0.2-0.1,0.4-0.1,0.7-0.1
								C631.6,169,632.4,169.8,632.4,170.7z M631.6,170.7c0-0.5-0.4-1-1-1c-0.5,0-0.9,0.4-0.9,1c0,0.5,0.4,0.9,0.9,0.9
								C631.2,171.7,631.6,171.3,631.6,170.7z"/>
							<path id="XMLID_133_" fill="#263238" d="M636.2,169.4c0.4,0.3,0.5,0.8,0.5,1.3c0,0.5-0.2,0.9-0.5,1.3
								c-0.3,0.4-0.8,0.5-1.3,0.5c0,0,0,0,0,0c-0.4,0-0.9-0.2-1.3-0.5c-0.2-0.2-0.2-0.4,0-0.6c0.2-0.2,0.4-0.2,0.6,0
								c0.2,0.2,0.4,0.3,0.7,0.3c0.2,0,0.5-0.1,0.7-0.3c0.2-0.2,0.3-0.4,0.3-0.7c0-0.3-0.1-0.5-0.3-0.7c-0.2-0.2-0.4-0.3-0.7-0.3
								c-0.2,0-0.5,0.1-0.7,0.3c-0.2,0.2-0.4,0.2-0.6,0c0,0-0.1-0.1-0.1-0.1c0,0,0,0,0,0c0,0,0,0,0,0c0,0,0,0,0-0.1c0,0,0,0,0,0
								c0,0,0-0.1,0-0.1l0.2-1.9c0-0.1,0.1-0.2,0.2-0.3c0,0,0,0,0,0c0,0,0,0,0,0c0.1,0,0.1,0,0.2,0h2.1c0.2,0,0.4,0.2,0.4,0.4
								c0,0.2-0.2,0.4-0.4,0.4h-1.8l-0.1,0.7c0.2,0,0.3-0.1,0.5-0.1C635.4,168.9,635.9,169.1,636.2,169.4z"/>
							<path id="XMLID_127_" fill="#263238" d="M637.8,168.7L637.8,168.7c0-0.7,0.5-1.3,1.2-1.3c0.7,0,1.2,0.6,1.2,1.3v0
								c0,0.7-0.5,1.3-1.2,1.3C638.3,170,637.8,169.4,637.8,168.7z M639.6,168.7L639.6,168.7c0-0.4-0.2-0.8-0.6-0.8
								c-0.3,0-0.5,0.3-0.5,0.7v0c0,0.4,0.2,0.7,0.6,0.7C639.4,169.4,639.6,169.1,639.6,168.7z M638.7,172.1l3.3-4.5
								c0.1-0.1,0.1-0.1,0.2-0.1c0.2,0,0.3,0.1,0.3,0.3c0,0.1,0,0.1-0.1,0.2l-3.3,4.5c-0.1,0.1-0.2,0.1-0.3,0.1
								c-0.2,0-0.3-0.1-0.3-0.3C638.6,172.2,638.6,172.1,638.7,172.1z M640.9,171.3L640.9,171.3c0-0.7,0.5-1.3,1.2-1.3
								c0.7,0,1.2,0.6,1.2,1.3v0c0,0.7-0.5,1.3-1.2,1.3C641.4,172.6,640.9,172,640.9,171.3z M642.6,171.3L642.6,171.3
								c0-0.4-0.2-0.8-0.6-0.8c-0.3,0-0.5,0.3-0.5,0.7v0c0,0.4,0.2,0.7,0.6,0.7C642.4,172,642.6,171.7,642.6,171.3z"/>
						</g>
						<g id="XMLID_111_">
							<rect id="XMLID_20_" x="628.8" y="176.4" fill="#263238" width="26" height="0.6"/>
							<rect id="XMLID_19_" x="628.8" y="178.1" fill="#263238" width="26" height="0.6"/>
							<rect id="XMLID_18_" x="628.8" y="179.8" fill="#263238" width="26" height="0.6"/>
							<rect id="XMLID_17_" x="628.8" y="181.5" fill="#263238" width="26" height="0.6"/>
							<rect id="XMLID_16_" x="628.8" y="183.2" fill="#263238" width="26" height="0.6"/>
							<rect id="XMLID_15_" x="628.8" y="184.9" fill="#263238" width="26" height="0.6"/>
							<rect id="XMLID_14_" x="628.8" y="186.6" fill="#263238" width="26" height="0.6"/>
						</g>
					</g>
				</g>
			</g>
		</g>
		<g id="XMLID_98_" opacity="0.7">
			<g id="XMLID_102_">
				<path id="XMLID_13_" fill="#37474F" d="M493.4,215.1c0-36.2,29.3-65.5,65.5-65.5v130.9C522.7,280.6,493.4,251.3,493.4,215.1z"/>
				<path id="XMLID_12_" fill="#455B65" d="M502.6,215.1c0-31.1,25.2-56.2,56.2-56.2c15.1,0,28.9,6,39,15.7l-39,40.6v56.2
					C527.8,271.3,502.6,246.2,502.6,215.1z"/>
				<path id="XMLID_11_" fill="#263238" d="M511.7,215.1c0-26.1,21.1-47.2,47.2-47.2c26.1,0,47.2,21.1,47.2,47.2h-47.2v47.2
					C532.8,262.3,511.7,241.2,511.7,215.1z"/>
				<path id="XMLID_10_" fill="#455B65" d="M521.5,215.1c0-20.7,16.8-37.4,37.4-37.4c20.7,0,37.4,16.8,37.4,37.4
					c0,10.2-4.1,19.4-10.6,26.1l-26.8-26.1v37.4C538.2,252.5,521.5,235.8,521.5,215.1z"/>
			</g>
			<g id="XMLID_99_">
				<g id="XMLID_100_">
					<circle id="XMLID_9_" fill="#EBEBEB" cx="558.9" cy="215.1" r="28.8"/>
				</g>
			</g>
		</g>
	</g>
	<g id="XMLID_82_">
		<polygon id="XMLID_8_" fill="#263238" points="583.7,216.9 589.7,231.3 583.7,233.8 577.7,219.3 567.8,226.9 567.8,186.3 
			596.3,215 		"/>
		<g id="XMLID_83_">
			<path id="XMLID_7_" fill="#263238" d="M570.6,175.6c-0.6-2.1-0.7-4.2-0.8-6.3c0-2.1,0.2-4.2,0.8-6.3c0.6,2.1,0.7,4.2,0.8,6.3
				C571.3,171.3,571.2,173.4,570.6,175.6z"/>
			<path id="XMLID_6_" fill="#263238" d="M559.7,180.1c-1.9-1.1-3.5-2.5-5-3.9c-1.5-1.5-2.9-3.1-3.9-5c1.9,1.1,3.5,2.5,5,3.9
				C557.2,176.6,558.6,178.2,559.7,180.1z"/>
			<path id="XMLID_5_" fill="#263238" d="M555.2,191c-2.1,0.6-4.2,0.7-6.3,0.8c-2.1,0-4.2-0.2-6.3-0.8c2.1-0.6,4.2-0.7,6.3-0.8
				C550.9,190.2,553.1,190.4,555.2,191z"/>
			<path id="XMLID_4_" fill="#263238" d="M559.7,201.9c-1.1,1.9-2.5,3.5-3.9,5c-1.5,1.5-3.1,2.9-5,3.9c1.1-1.9,2.5-3.5,3.9-5
				C556.2,204.4,557.8,203,559.7,201.9z"/>
			<path id="XMLID_3_" fill="#263238" d="M586,191c2.1-0.6,4.2-0.7,6.3-0.8c2.1,0,4.2,0.2,6.3,0.8c-2.1,0.6-4.2,0.7-6.3,0.8
				C590.3,191.7,588.2,191.6,586,191z"/>
			<path id="XMLID_2_" fill="#263238" d="M581.5,180.1c1.1-1.9,2.5-3.5,3.9-5c1.5-1.5,3.1-2.9,5-3.9c-1.1,1.9-2.5,3.5-3.9,5
				C585,177.6,583.4,179,581.5,180.1z"/>
		</g>
	</g>
</g>
</svg>
