<?xml version="1.0" encoding="utf-8"?>
<!-- Generator: Adobe Illustrator 19.0.0, SVG Export Plug-In . SVG Version: 6.00 Build 0)  -->
<svg version="1.1" xmlns="http://www.w3.org/2000/svg" xmlns:xlink="http://www.w3.org/1999/xlink" x="0px" y="0px"
	 viewBox="0 0 750 500" enable-background="new 0 0 750 500" xml:space="preserve">
<g id="Background_Complete">
</g>
<g id="Background_Simple" display="none">
	<path id="XMLID_97_" display="inline" fill="#E0E0E0" d="M674.7,235c-10.1-47.7-48.6-90.6-97.3-94.1c-31.5-2.2-61.9,10.4-91.9,20.4
		c-30,10.1-63.4,17.6-92.6,5.5c-33.1-13.6-51.9-48.3-80.1-70.3c-38.6-30.1-95-33.4-138.5-11c-43.5,22.4-73.2,68.1-79.4,116.6
		c-6.2,48.5,9.9,98.8,40.4,137c0.3,0.4,0.6,0.8,0.9,1.1c41.3,51.5,102.5,83.1,168.4,87.5l125.1,8.4c98.6-1.7,141.4-27.9,182.6-54
		C653.5,356.1,688.1,298.7,674.7,235z"/>
</g>
<g id="Plant">
</g>
<g id="Credit_Card">
</g>
<g id="Wallet">
</g>
<g id="Money">
</g>
<g id="Floor">
</g>
<g id="Character">
	<g id="XMLID_13_">
		<g id="XMLID_2_">
			<g id="XMLID_3_">
				<g id="XMLID_4_">
					<g id="XMLID_5_">
						
							<ellipse transform="matrix(0.9896 -0.1438 0.1438 0.9896 -9.794 58.9712)" fill="#F5F5F5" cx="403" cy="97.2" rx="42" ry="41.9"/>
					</g>
				</g>
			</g>
			<g id="XMLID_6_">
				<g id="XMLID_7_">
					<g id="XMLID_8_">
						
							<ellipse transform="matrix(0.9896 -0.1438 0.1438 0.9896 -9.7942 58.9722)" fill="#EBEBEB" cx="403" cy="97.2" rx="32" ry="31.9"/>
					</g>
				</g>
			</g>
			<g id="XMLID_9_">
				<g id="XMLID_10_">
					<g id="XMLID_11_">
						<g id="XMLID_12_">
							<path fill="#E0E0E0" d="M434.5,91.6c-0.2,0-0.5-1.3-1.4-3.7c-0.9-2.3-2.3-5.7-5.1-9.2c-1.4-1.7-3-3.5-5-5.1
								c-2-1.6-4.3-3.1-7-4.3c-1.3-0.6-2.7-1.1-4.2-1.5c-1.5-0.4-3-0.8-4.5-1c-1.6-0.2-3.2-0.3-4.8-0.3c-1.6,0-3.3,0.2-4.9,0.5
								c-1.6,0.3-3.2,0.7-4.8,1.2c-1.5,0.5-3,1.2-4.4,1.9c-1.4,0.7-2.7,1.6-3.9,2.5c-1.2,0.9-2.3,1.9-3.4,2.9
								c-2.1,2-3.7,4.3-5.1,6.5c-1.3,2.2-2.3,4.5-2.9,6.6c-1.4,4.2-1.6,7.9-1.6,10.4c0,2.5,0.2,3.9,0,3.9c-0.1,0-0.6-1.3-0.9-3.9
								c-0.3-2.5-0.3-6.4,0.9-10.9c0.6-2.2,1.5-4.7,2.8-7.1c1.3-2.4,3.1-4.8,5.2-7.1c1.1-1.1,2.3-2.2,3.6-3.2c1.3-1,2.7-1.9,4.2-2.7
								c1.5-0.8,3.1-1.5,4.7-2.1c1.7-0.6,3.4-1,5.2-1.4c1.8-0.3,3.5-0.5,5.3-0.5c1.8,0,3.5,0.1,5.2,0.3c1.7,0.2,3.3,0.6,4.9,1.1
								c1.6,0.5,3,1.1,4.4,1.7c2.8,1.3,5.3,3,7.3,4.8c2.1,1.8,3.8,3.8,5.1,5.7c2.7,3.8,4,7.4,4.6,9.9
								C434.6,90.2,434.7,91.6,434.5,91.6z"/>
						</g>
					</g>
				</g>
			</g>
		</g>
		<g id="XMLID_19_">
			<g id="XMLID_20_">
				<path fill="#EBEBEB" d="M663.7,272c0,0-9.3-5.4-18.9,16.7c-9.6,22.1-13,34.7-13,34.7s-2.6,4.7-5.9,1.9c-3.3-2.7-8-10.8-13.1-9
					c-5.3,1.9-6.8,8.1-5.2,16.9c1.6,8.8,4.3,28.4,4.5,30.1c0.2,1.7-0.6,4.4-3.1,2.8s-17.4-16.2-23.9-8.7c-6.5,7.5,1.9,31.4,2.8,34
					c0.9,2.6,0.4,3.8-0.8,4.5c-1.2,0.7-5.8-4.7-10.2-8.7c-4.4-4-10.2-7.9-13.6-3.2c-3.4,4.6-3.5,23,15.7,51.6l9.7,12.7l16-1.9
					c33.9-6,47.1-18.8,48-24.5c1-5.7-5.8-7.2-11.8-7.6c-5.9-0.4-13,0.1-13.3-1.3c-0.3-1.4,0.2-2.5,2.7-3.7
					c2.5-1.2,25.6-11.7,26.4-21.6c0.8-9.9-20-10.4-22.9-11.2c-2.8-0.8-1.5-3.2-0.1-4.2c1.4-1.1,17.4-12.6,24.8-17.6
					c7.5-5,10.9-10.3,8.6-15.5c-2.3-5-11.3-2.8-15.6-3.2c-4.2-0.4-2.7-5.6-2.7-5.6s6.7-11.2,15.9-33.4c9.2-22.2-1.4-25.2-1.4-25.2"
					/>
			</g>
		</g>
		<g id="XMLID_21_">
			<g id="XMLID_22_">
				<g id="XMLID_23_">
					<path fill="#E0E0E0" d="M589.3,445c6.8-16.3,16.5-38.8,27.2-63.5c10.7-24.8,20.4-47.2,27.3-63.4c3.4-8.1,6.2-14.7,8.2-19.3
						c1-2.3,1.7-4,2.2-5.2c0.3-0.6,0.4-1,0.6-1.4c0.1-0.3,0.2-0.5,0.2-0.5s0,0.2-0.2,0.5c-0.1,0.3-0.3,0.8-0.5,1.4
						c-0.5,1.2-1.2,3-2.1,5.3c-1.9,4.6-4.6,11.2-8,19.3c-6.8,16.3-16.5,38.8-27.2,63.5c-10.7,24.8-20.4,47.2-27.3,63.5"/>
				</g>
			</g>
		</g>
		<g id="XMLID_24_">
			<g id="XMLID_25_">
				<g id="XMLID_26_">
					<path fill="#E0E0E0" d="M618.9,327.8c0,0,0.2,0.4,0.5,1.1c0.3,0.7,0.6,1.7,1.1,3c0.9,2.5,2,6,3.2,9.9c1.1,3.8,2.2,7.3,2.9,9.9
						c0.4,1.2,0.7,2.2,0.9,3c0.2,0.7,0.3,1.1,0.3,1.1c0,0-0.2-0.4-0.5-1.1c-0.3-0.7-0.6-1.7-1.1-3c-0.9-2.5-1.9-6-3.1-9.9
						c-1.2-3.8-2.2-7.3-3-9.9c-0.4-1.2-0.7-2.2-0.9-3C619,328.2,618.9,327.8,618.9,327.8z"/>
				</g>
			</g>
		</g>
		<g id="XMLID_27_">
			<g id="XMLID_28_">
				<g id="XMLID_29_">
					
						<ellipse transform="matrix(-0.9428 0.3335 -0.3335 -0.9428 1370.3077 465.404)" fill="#E0E0E0" cx="645.2" cy="350.3" rx="16.9" ry="0.3"/>
				</g>
			</g>
		</g>
		<g id="XMLID_30_">
			<g id="XMLID_31_">
				<g id="XMLID_32_">
					<path fill="#E0E0E0" d="M611.1,393.2c0,0,0.4-0.1,1.2-0.1c0.9-0.1,1.9-0.1,3.2-0.2c2.7-0.2,6.4-0.4,10.6-0.8
						c4.1-0.4,7.8-0.9,10.5-1.3c1.3-0.2,2.3-0.3,3.2-0.4c0.8-0.1,1.2-0.1,1.2-0.1c0,0-0.4,0.1-1.1,0.3c-0.7,0.2-1.8,0.4-3.2,0.6
						c-2.7,0.5-6.4,1-10.5,1.4c-4.1,0.4-7.9,0.6-10.6,0.6c-1.4,0-2.5,0-3.2,0C611.5,393.3,611.1,393.3,611.1,393.2z"/>
				</g>
			</g>
		</g>
		<g id="XMLID_33_">
			<g id="XMLID_34_">
				<g id="XMLID_35_">
					<path fill="#E0E0E0" d="M596.1,369.8c0,0,0.3,0.3,0.7,0.9c0.4,0.6,1,1.4,1.7,2.4c1.4,2.1,3.3,4.9,5.4,8.1
						c2.1,3.2,4,6.1,5.3,8.2c0.7,1.1,1.2,1.9,1.6,2.5c0.4,0.6,0.5,0.9,0.5,1c0,0-0.3-0.3-0.7-0.9c-0.4-0.6-1-1.4-1.7-2.4
						c-1.4-2.1-3.3-4.9-5.4-8.1c-2.1-3.2-4-6.1-5.3-8.2c-0.7-1.1-1.2-1.9-1.6-2.5C596.2,370.2,596.1,369.8,596.1,369.8z"/>
				</g>
			</g>
		</g>
		<g id="XMLID_36_">
			<g id="XMLID_37_">
				<g id="XMLID_38_">
					<path fill="#E0E0E0" d="M575.9,400.7c0,0,0.3,0.4,0.9,1.1c0.6,0.8,1.3,1.9,2.2,3.1c1.8,2.6,4.3,6.3,7.1,10.4
						c2.7,4.1,5.2,7.8,6.9,10.5c0.8,1.3,1.5,2.4,2,3.2c0.5,0.8,0.7,1.2,0.7,1.2c0,0-0.3-0.4-0.9-1.1c-0.6-0.8-1.3-1.9-2.2-3.1
						c-1.8-2.6-4.3-6.3-7.1-10.4c-2.7-4.1-5.2-7.8-6.9-10.5c-0.8-1.3-1.5-2.4-2-3.2C576.1,401.1,575.8,400.7,575.9,400.7z"/>
				</g>
			</g>
		</g>
		<g id="XMLID_39_">
			<g id="XMLID_40_">
				<g id="XMLID_41_">
					<path fill="#E0E0E0" d="M595.4,429.3c0,0,0.5-0.1,1.5-0.2c1.1-0.1,2.4-0.2,4.1-0.4c3.4-0.3,8.1-0.8,13.4-1.5
						c5.2-0.7,9.9-1.4,13.3-1.9c1.6-0.3,3-0.5,4-0.6c1-0.1,1.5-0.2,1.5-0.2c0,0-0.5,0.2-1.4,0.4c-0.9,0.2-2.3,0.5-4,0.8
						c-3.4,0.6-8.1,1.4-13.3,2.1c-5.2,0.7-10,1.1-13.4,1.3c-1.7,0.1-3.1,0.2-4.1,0.2C595.9,429.3,595.4,429.3,595.4,429.3z"/>
				</g>
			</g>
		</g>
		<g id="XMLID_43_">
			<g id="XMLID_44_">
				<g id="XMLID_45_">
					<g id="XMLID_46_">
						<g id="XMLID_47_">
							<path fill="#E0E0E0" d="M308.4,339.7l-190.6-59.3c-4.9-1.5-7.6-6.7-6.1-11.6L148.3,151c1.5-4.9,6.7-7.6,11.6-6.1l190.6,59.3
								c4.9,1.5,7.6,6.7,6.1,11.6L320,333.6C318.5,338.5,313.3,341.2,308.4,339.7z"/>
						</g>
					</g>
					<g id="XMLID_48_">
						<g id="XMLID_49_">
							<circle fill="#FFFFFF" cx="304.6" cy="224.4" r="15.1"/>
						</g>
					</g>
					<g id="XMLID_50_">
						<g id="XMLID_51_">
							<path fill="#FFFFFF" d="M320,245.4c-0.9-0.1-1.8-0.3-2.7-0.6c-8.3-2.6-12.9-11.4-10.3-19.6c2.6-8.3,11.4-12.9,19.6-10.3
								c8.3,2.6,12.9,11.4,10.3,19.6c-1.2,4-4,7.3-7.7,9.2C326.3,245.2,323.1,245.8,320,245.4z M323.7,215.5
								c-6.8-0.9-13.5,3.3-15.6,10c-2.4,7.6,1.9,15.7,9.5,18.1c3.7,1.1,7.6,0.8,11-1c3.4-1.8,5.9-4.8,7.1-8.5l0,0
								c2.4-7.6-1.9-15.7-9.5-18.1C325.3,215.8,324.5,215.6,323.7,215.5z"/>
						</g>
					</g>
					<g id="XMLID_52_">
						<g id="XMLID_53_">
							<path fill="#FFFFFF" d="M142.6,234.5l-3.6,11.6l-1.2-0.4l3.3-10.5l-2.7-0.8l0.3-1.1L142.6,234.5z"/>
						</g>
						<g id="XMLID_54_">
							<path fill="#FFFFFF" d="M151.2,248.7l-0.3,1.1l-8.1-2.5l0.3-0.8l6.3-3.2c1.7-0.9,2.2-1.6,2.4-2.4c0.4-1.3-0.3-2.5-2-3
								c-1.4-0.4-2.5-0.3-3.6,0.3l-0.6-1c1.2-0.8,2.8-0.9,4.6-0.4c2.3,0.7,3.5,2.4,2.9,4.3c-0.3,1.1-1,2-3,3l-5.1,2.6L151.2,248.7z"
								/>
						</g>
						<g id="XMLID_55_">
							<path fill="#FFFFFF" d="M164,250.5l-2.3-0.7l-0.9,3l-1.2-0.4l0.9-3l-6.5-2l0.3-0.9l8.5-5.8l1.3,0.4l-8.2,5.6l5,1.6l0.8-2.7
								l1.2,0.4l-0.8,2.7l2.3,0.7L164,250.5z"/>
						</g>
						<g id="XMLID_56_">
							<path fill="#FFFFFF" d="M181.7,256.1l-2.3-0.7l-0.9,3l-1.2-0.4l0.9-3l-6.5-2l0.3-0.9l8.5-5.8l1.3,0.4l-8.2,5.6l5,1.6l0.8-2.7
								l1.2,0.4l-0.8,2.7l2.3,0.7L181.7,256.1z"/>
						</g>
						<g id="XMLID_57_">
							<path fill="#FFFFFF" d="M191.9,258.8c-0.6,2-2.5,3.1-5.3,2.2c-1.7-0.5-3.1-1.6-3.7-2.8l0.9-0.8c0.5,1,1.6,2,3.1,2.4
								c2,0.6,3.3,0,3.7-1.4c0.5-1.5-0.2-2.7-3.1-3.6l-2.5-0.8l2.4-5.6l6.3,2l-0.3,1.1l-5.3-1.6l-1.5,3.6l1.5,0.5
								C191.7,255,192.6,256.8,191.9,258.8z"/>
						</g>
						<g id="XMLID_58_">
							<path fill="#FFFFFF" d="M203.4,262.4c-0.7,2.2-2.8,3-5.1,2.3c-3.1-1-4.1-3.6-2.9-7.3c1.2-3.9,4-5.3,7.1-4.3
								c1,0.3,2,0.8,2.5,1.5l-0.8,0.8c-0.5-0.6-1.2-1-2.1-1.2c-2.5-0.8-4.6,0.3-5.6,3.5c-0.1,0.3-0.2,0.6-0.2,1
								c1-1.1,2.5-1.4,4.2-0.9C202.9,258.4,204,260.2,203.4,262.4z M202.2,262c0.5-1.5-0.3-2.8-2.1-3.4c-1.8-0.5-3.3,0.2-3.8,1.6
								c-0.4,1.3,0.3,2.8,2.3,3.4C200.3,264.2,201.7,263.6,202.2,262z"/>
						</g>
						<g id="XMLID_59_">
							<path fill="#FFFFFF" d="M219.2,267.4c-0.6,1.9-2.5,3-5.3,2.1c-1.7-0.5-3.1-1.6-3.7-2.8l0.9-0.8c0.5,1,1.7,2,3.2,2.5
								c1.9,0.6,3.3,0,3.7-1.4c0.4-1.4-0.3-2.6-2.4-3.3l-0.8-0.3l0.3-0.9l4.5-3l-5.9-1.8l0.3-1.1l7.4,2.3l-0.3,0.8l-4.6,3.1
								C218.9,263.9,219.7,265.6,219.2,267.4z"/>
						</g>
						<g id="XMLID_60_">
							<path fill="#FFFFFF" d="M230.8,270.9c-0.7,2.2-2.8,3-5.1,2.3c-3.1-1-4.1-3.6-2.9-7.3c1.2-3.9,4-5.3,7.1-4.3
								c1,0.3,2,0.8,2.5,1.5l-0.8,0.8c-0.5-0.6-1.2-1-2.1-1.2c-2.5-0.8-4.6,0.3-5.6,3.5c-0.1,0.3-0.2,0.6-0.2,1
								c1-1.1,2.6-1.4,4.2-0.9C230.3,266.9,231.5,268.8,230.8,270.9z M229.6,270.6c0.5-1.5-0.3-2.8-2.1-3.4
								c-1.8-0.6-3.3,0.2-3.8,1.6c-0.4,1.3,0.3,2.8,2.3,3.4C227.7,272.7,229.1,272.1,229.6,270.6z"/>
						</g>
						<g id="XMLID_61_">
							<path fill="#FFFFFF" d="M244,266.1l-0.3,0.8l-8.2,9.2l-1.3-0.4l8-9l-5.9-1.9l-0.7,2.2l-1.2-0.4l1-3.2L244,266.1z"/>
						</g>
						<g id="XMLID_62_">
							<path fill="#FFFFFF" d="M260.5,271.2l-0.3,0.8l-8.2,9.2l-1.3-0.4l8-9l-5.9-1.9l-0.7,2.2l-1.2-0.4l1-3.2L260.5,271.2z"/>
						</g>
						<g id="XMLID_63_">
							<path fill="#FFFFFF" d="M269.3,283.1c-0.6,2-2.8,2.8-5.5,1.9c-2.8-0.9-4.1-2.7-3.4-4.7c0.4-1.4,1.5-2.1,3.1-2.1
								c-1-0.8-1.4-1.9-1-3.1c0.6-1.9,2.6-2.6,5-1.8c2.4,0.8,3.7,2.4,3.1,4.3c-0.4,1.2-1.3,1.9-2.6,2
								C269.2,280.5,269.7,281.7,269.3,283.1z M268.1,282.7c0.4-1.4-0.5-2.7-2.6-3.3c-2-0.6-3.5-0.1-4,1.3c-0.4,1.4,0.5,2.7,2.5,3.3
								C266.1,284.7,267.6,284.2,268.1,282.7z M265.8,278.4c1.8,0.6,3.1,0.1,3.5-1.2c0.4-1.3-0.5-2.5-2.2-3
								c-1.8-0.5-3.1-0.1-3.5,1.2C263.2,276.7,264,277.9,265.8,278.4z"/>
						</g>
						<g id="XMLID_64_">
							<path fill="#FFFFFF" d="M281.3,284c-1.2,3.9-4,5.3-7.1,4.3c-1-0.3-2-0.8-2.5-1.5l0.8-0.8c0.5,0.6,1.2,1,2.1,1.2
								c2.5,0.8,4.6-0.3,5.6-3.5c0.1-0.3,0.2-0.6,0.2-1c-1,1.1-2.6,1.4-4.2,0.9c-2.3-0.7-3.5-2.6-2.8-4.7c0.7-2.2,2.8-3,5.1-2.3
								C281.5,277.7,282.5,280.3,281.3,284z M280.4,281.1c0.4-1.3-0.3-2.8-2.3-3.4c-1.7-0.5-3.1,0.1-3.6,1.6
								c-0.5,1.5,0.3,2.8,2.1,3.4C278.4,283.3,280,282.6,280.4,281.1z"/>
						</g>
						<g id="XMLID_65_">
							<path fill="#FFFFFF" d="M294.8,281.9l-3.6,11.6l-1.2-0.4l3.3-10.5l-2.7-0.8l0.3-1.1L294.8,281.9z"/>
						</g>
						<g id="XMLID_66_">
							<path fill="#FFFFFF" d="M303.5,296.1l-0.3,1.1l-8.1-2.5l0.3-0.8l6.3-3.2c1.7-0.9,2.2-1.6,2.4-2.4c0.4-1.3-0.3-2.5-2-3
								c-1.4-0.4-2.5-0.3-3.6,0.3l-0.6-1c1.2-0.8,2.8-0.9,4.6-0.4c2.3,0.7,3.5,2.4,2.9,4.3c-0.3,1.1-1,2-3,3l-5.1,2.6L303.5,296.1z"
								/>
						</g>
						<g id="XMLID_67_">
							<path fill="#FFFFFF" d="M314.5,297.1c-0.6,1.9-2.5,3-5.3,2.1c-1.7-0.5-3.1-1.6-3.7-2.8l0.9-0.8c0.5,1,1.7,2,3.2,2.5
								c1.9,0.6,3.3,0,3.7-1.4c0.4-1.4-0.3-2.6-2.4-3.3l-0.8-0.3l0.3-0.9l4.5-3l-5.9-1.8l0.3-1.1l7.4,2.3l-0.3,0.8l-4.6,3.1
								C314.3,293.6,315.1,295.2,314.5,297.1z"/>
						</g>
					</g>
					<g id="XMLID_68_">
						<g id="XMLID_69_">
							
								<rect x="264.9" y="249.7" transform="matrix(0.2972 -0.9548 0.9548 0.2972 -96.7308 465.1006)" fill="#FFFFFF" width="5.3" height="97"/>
						</g>
					</g>
					<g id="XMLID_70_">
						<g id="XMLID_71_">
							
								<rect x="284.4" y="290.4" transform="matrix(0.2972 -0.9548 0.9548 0.2972 -99.3461 495.6506)" fill="#FFFFFF" width="5.3" height="49.8"/>
						</g>
					</g>
					<g id="XMLID_72_" opacity="0.5">
						<g id="XMLID_73_">
							<path fill="#EBEBEB" d="M172.8,233l-29.4-9.1c-2.6-0.8-4.1-3.6-3.3-6.2l6.1-19.6c0.8-2.6,3.6-4.1,6.2-3.3l29.4,9.1
								c2.6,0.8,4.1,3.6,3.3,6.2l-6.1,19.6C178.2,232.3,175.4,233.8,172.8,233z"/>
						</g>
					</g>
					<g id="XMLID_74_">
						<g id="XMLID_75_">
							<path fill="#E0E0E0" d="M141.1,214.3l0.6-1.9l20,6.2c2.3,0.7,4.8-0.6,5.5-2.9c0.7-2.3-0.6-4.8-2.9-5.5l-20-6.2l0.6-1.9
								l20,6.2c3.3,1,5.2,4.6,4.2,7.9c-1,3.3-4.6,5.2-7.9,4.2L141.1,214.3z"/>
						</g>
					</g>
					<g id="XMLID_76_">
						<g id="XMLID_77_">
							
								<rect x="174" y="211" transform="matrix(-0.2981 0.9545 -0.9545 -0.2981 435.4993 116.2302)" fill="#E0E0E0" width="2" height="14.4"/>
						</g>
					</g>
					<g id="XMLID_78_">
						<g id="XMLID_79_">
							
								<rect id="XMLID_723_" x="156" y="186.2" transform="matrix(0.9548 0.2973 -0.2973 0.9548 66.1088 -53.3098)" fill="#FFFFFF" width="104.7" height="9"/>
						</g>
					</g>
				</g>
			</g>
		</g>
		<g id="XMLID_81_">
			<g id="XMLID_82_">
				<g id="XMLID_83_">
					<g id="XMLID_84_">
						
							<ellipse transform="matrix(0.9896 -0.1438 0.1438 0.9896 -55.7183 27.8023)" fill="#F5F5F5" cx="164.5" cy="399.3" rx="26.6" ry="26.5"/>
					</g>
				</g>
			</g>
			<g id="XMLID_85_">
				<g id="XMLID_86_">
					<g id="XMLID_87_">
						
							<ellipse transform="matrix(0.9896 -0.1438 0.1438 0.9896 -55.7198 27.8032)" fill="#EBEBEB" cx="164.5" cy="399.3" rx="20.2" ry="20.2"/>
					</g>
				</g>
			</g>
			<g id="XMLID_88_">
				<g id="XMLID_89_">
					<g id="XMLID_90_">
						<g id="XMLID_91_">
							<path fill="#E0E0E0" d="M184.4,395.8c-0.1,0-0.3-0.8-0.9-2.3c-0.6-1.5-1.5-3.6-3.2-5.8c-0.9-1.1-1.9-2.2-3.2-3.3
								c-1.3-1-2.7-2-4.4-2.7c-0.8-0.4-1.7-0.7-2.6-1c-0.9-0.3-1.9-0.5-2.9-0.6c-1-0.1-2-0.2-3-0.2c-1,0-2.1,0.1-3.1,0.3
								c-1,0.2-2.1,0.5-3,0.8c-1,0.3-1.9,0.7-2.8,1.2c-0.9,0.5-1.7,1-2.5,1.6c-0.8,0.6-1.5,1.2-2.1,1.8c-1.3,1.3-2.4,2.7-3.2,4.1
								c-0.8,1.4-1.4,2.8-1.9,4.1c-0.9,2.7-1,5-1,6.5c0,1.6,0.1,2.5,0,2.5c-0.1,0-0.4-0.8-0.6-2.5c-0.2-1.6-0.2-4,0.6-6.9
								c0.4-1.4,1-2.9,1.8-4.5c0.8-1.5,1.9-3.1,3.3-4.5c0.7-0.7,1.4-1.4,2.3-2c0.8-0.6,1.7-1.2,2.7-1.7c0.9-0.5,1.9-1,3-1.3
								c1-0.4,2.1-0.7,3.3-0.9c1.1-0.2,2.2-0.3,3.4-0.3c1.1,0,2.2,0.1,3.3,0.2c1.1,0.1,2.1,0.4,3.1,0.7c1,0.3,1.9,0.7,2.8,1.1
								c1.8,0.8,3.3,1.9,4.6,3c1.3,1.1,2.4,2.4,3.2,3.6c1.7,2.4,2.5,4.7,2.9,6.3C184.5,394.9,184.5,395.8,184.4,395.8z"/>
						</g>
					</g>
				</g>
			</g>
		</g>
		<g id="XMLID_99_">
			<g id="XMLID_100_">
				<path id="XMLID_101_" fill="#E8505B" d="M587.4,406.5c-1.9,2.8-5.7,1.9-7.5,0.2c-1.7-1.7-2.5-4.1-3.2-6.5
					c-1.5-5.3-3.1-10.9-1.9-16.4c0.3-1.6,0.9-3.2,2.1-4.5c1.1-1.2,2.9-1.9,4.5-1.5c1.9,0.5,3.1,2.4,3.9,4.1c2.5,5.2,3.8,11,3.9,16.7
					C589.3,401.5,589,404.3,587.4,406.5"/>
			</g>
		</g>
		<g id="XMLID_102_">
			<g id="XMLID_103_">
				<path id="XMLID_104_" fill="#FBFE00" stroke="#000000" stroke-miterlimit="10" d="M587.4,406.5c-1.9,2.8-5.7,1.9-7.5,0.2
					c-1.7-1.7-2.5-4.1-3.2-6.5c-1.5-5.3-3.1-10.9-1.9-16.4c0.3-1.6,0.9-3.2,2.1-4.5c1.1-1.2,2.9-1.9,4.5-1.5
					c1.9,0.5,3.1,2.4,3.9,4.1c2.5,5.2,3.8,11,3.9,16.7C589.3,401.5,589,404.3,587.4,406.5"/>
			</g>
		</g>
		<g id="XMLID_105_">
			<g id="XMLID_106_">
				<path id="XMLID_107_" fill="#05685A" d="M580.2,420.6c-3.2-1.6-6.9-1.8-10.4-1.3c-1.9,0.3-3.9,0.9-5.1,2.3
					c-1.3,1.4-1.5,3.9-0.1,5.1c0.9,0.7,2.1,0.8,3.2,0.8c2.8,0,5.8-0.5,8,1.1c1.3,0.9,2.1,2.5,3.6,3c1.5,0.5,3.1-0.4,3.9-1.7
					c0.8-1.3,0.8-3,0.4-4.5C583.7,425.5,583.4,422.2,580.2,420.6z"/>
			</g>
		</g>
		<g id="XMLID_108_">
			<g id="XMLID_109_">
				<path id="XMLID_110_" fill="#04A08D" d="M592.8,410.5c-2.1-2.5-2.5-6.1-1.6-9.3c0.9-3.1,3.1-5.8,5.5-8c2.9-2.5,6.2-4.5,9.8-5.8
					c1.4-0.5,2.9-0.9,4.4-0.8c1.5,0.1,3,0.9,3.7,2.2c1,2,0,4.4-1,6.3c-1.9,3.4-4.1,6.7-6.5,9.8c-1.9,2.5-4.2,5-7.1,6.1
					c-3,1.1-6,1-7.6-1.1"/>
			</g>
		</g>
		<g id="XMLID_111_">
			<g id="XMLID_112_">
				<g id="XMLID_113_">
					<path id="XMLID_114_" fill="#263238" d="M587.6,448.3c0,0-0.1-0.4-0.2-1.3c-0.1-0.9-0.2-2.1-0.3-3.4c-0.2-1.4-0.4-3.2-0.8-5
						c-0.4-1.9-1-3.9-1.8-5.9c-0.8-2-1.8-3.9-3-5.4c-1.2-1.5-2.5-2.6-3.8-3.2c-1.3-0.6-2.4-0.9-3.2-1c-0.8-0.1-1.3-0.1-1.3-0.2
						c0,0,0.4,0,1.3,0c0.8,0.1,2,0.3,3.4,0.9c1.4,0.6,2.8,1.7,4,3.2c1.2,1.5,2.3,3.4,3.1,5.5c0.8,2.1,1.4,4.1,1.8,6
						c0.4,1.9,0.6,3.6,0.7,5.1c0.1,1.5,0.2,2.6,0.2,3.5C587.6,447.9,587.6,448.3,587.6,448.3z"/>
				</g>
			</g>
		</g>
		<g id="XMLID_115_">
			<g id="XMLID_116_">
				<g id="XMLID_117_">
					<path id="XMLID_118_" fill="#263238" d="M587.3,445.7c0,0,0-0.2,0-0.6c0-0.4,0-1,0-1.7c0-1.4,0-3.5-0.1-6.1
						c-0.1-5.2-0.6-12.3-1.4-20.2c-0.9-7.9-2-14.9-3.1-20c-0.2-1.3-0.5-2.4-0.7-3.4c-0.2-1-0.4-1.9-0.6-2.6
						c-0.2-0.7-0.3-1.2-0.4-1.6c-0.1-0.4-0.1-0.6-0.1-0.6c0,0,0.1,0.2,0.2,0.5c0.1,0.4,0.3,0.9,0.5,1.6c0.2,0.7,0.4,1.6,0.7,2.6
						c0.3,1,0.5,2.1,0.8,3.4c1.1,5.1,2.4,12.1,3.2,20c0.9,7.9,1.3,15,1.3,20.2c0,2.6,0,4.7-0.1,6.1c0,0.7-0.1,1.2-0.1,1.7
						C587.4,445.5,587.3,445.7,587.3,445.7z"/>
				</g>
			</g>
		</g>
		<g id="XMLID_119_">
			<g id="XMLID_120_">
				<g id="XMLID_121_">
					<path id="XMLID_122_" fill="#263238" d="M587.3,431.8c0,0,0-0.6,0-1.7c0.1-1.1,0.2-2.7,0.5-4.7c0.3-2,0.8-4.3,1.5-6.9
						c0.7-2.6,1.7-5.3,2.9-8.1c2.4-5.7,5.6-10.3,8.5-13.2c0.7-0.8,1.4-1.3,2-1.8c0.3-0.3,0.6-0.5,0.8-0.7c0.3-0.2,0.5-0.4,0.8-0.5
						c0.9-0.6,1.4-1,1.5-0.9c0.1,0.1-2.1,1.4-4.8,4.3c-2.7,2.9-5.9,7.5-8.2,13.1c-1.2,2.8-2.2,5.5-2.9,8.1c-0.8,2.5-1.3,4.9-1.6,6.8
						c-0.4,2-0.6,3.6-0.7,4.7C587.4,431.2,587.3,431.8,587.3,431.8z"/>
				</g>
			</g>
		</g>
		<g id="XMLID_124_">
			<g id="XMLID_125_">
				<path fill="#E8505B" d="M370,352.5L215.2,188.8c-1.6-1.7-1.6-4.4,0.2-6.1l101.6-96c1.7-1.6,4.4-1.6,6.1,0.2l154.8,163.7
					c1.6,1.7,1.6,4.4-0.2,6.1l-101.6,96C374.4,354.3,371.6,354.2,370,352.5z"/>
			</g>
		</g>
		<g id="XMLID_126_">
			<g id="XMLID_127_">
				<path fill="#04A08D" d="M370,352.5L215.2,188.8c-1.6-1.7-1.6-4.4,0.2-6.1l101.6-96c1.7-1.6,4.4-1.6,6.1,0.2l154.8,163.7
					c1.6,1.7,1.6,4.4-0.2,6.1l-101.6,96C374.4,354.3,371.6,354.2,370,352.5z"/>
			</g>
		</g>
		<g id="XMLID_128_">
			<g id="XMLID_129_">
				<g id="XMLID_130_">
					<path fill="#05685A" d="M476.7,249.4L324.2,88c-2.3-2.4-6-2.5-8.4-0.2l-28.9,27.3c-0.6,0.5-0.9,1.3-0.7,2.1
						c2.9,16.1,14.4,30.6,28.2,40.1c16.6,11.6,36.3,17.6,55,25.4c18.7,7.7,37.5,17.9,48.7,34.7c10.6,15.9,13.1,35.6,18.5,54
						c1.4,4.9,3.2,9.8,5.4,14.6c0.7,1.5,2.6,1.9,3.8,0.7l30.6-28.9C478.9,255.5,479,251.8,476.7,249.4z"/>
				</g>
			</g>
		</g>
		<g id="XMLID_131_">
			<g id="XMLID_132_">
				<path fill="#FFFFFF" d="M321.9,135c-1.4,1.3-3.2,1-5.2-1.1l-3.9-4.1l8-7.5l3.7,3.9c1.9,2,2,3.8,0.8,5c-0.8,0.8-1.8,0.9-2.8,0.6
					C323.1,132.8,322.9,134.1,321.9,135z M321.2,125.4l-1.9,1.8l1.7,1.8c0.9,0.9,1.6,1.1,2.3,0.5c0.6-0.6,0.5-1.4-0.4-2.3
					L321.2,125.4z M320.4,133c0.7-0.6,0.5-1.4-0.4-2.4l-2-2.2l-2,1.9l2,2.2C318.9,133.4,319.7,133.6,320.4,133z"/>
			</g>
			<g id="XMLID_133_">
				<path fill="#FFFFFF" d="M327.8,142.1l-3.5-3.7l-2.4,0.9l-1.8-1.9l11.3-4l1.7,1.8l-4.6,11.1l-1.8-1.9L327.8,142.1z M328.6,140.2
					l1.9-4.2l-4.3,1.6L328.6,140.2z"/>
			</g>
			<g id="XMLID_134_">
				<path fill="#FFFFFF" d="M344.2,147l-8,7.5l-1.4-1.5l1.1-8.6l-4.8,4.6l-1.7-1.8l8-7.5l1.4,1.5l-1.1,8.5l4.8-4.6L344.2,147z"/>
			</g>
			<g id="XMLID_135_">
				<path fill="#FFFFFF" d="M343.9,156.3l-2.1,0l-2,1.9l-1.7-1.8l8-7.5l1.7,1.8l-3.7,3.5l7.1,0l1.9,2.1l-6.7,0.1l-1.1,7.7l-2-2.2
					L343.9,156.3z"/>
			</g>
		</g>
		<g id="XMLID_136_">
			<g id="XMLID_137_">
				<path fill="#FFFFFF" d="M287.3,164.9l-1.4-1.5l-1.9,1.8l-0.7-0.8l1.9-1.8l-3.9-4.1l0.5-0.5l8.5-0.7l0.8,0.8l-8.3,0.7l3,3.2
					l1.7-1.6l0.7,0.7l-1.7,1.6l1.4,1.5L287.3,164.9z"/>
			</g>
			<g id="XMLID_138_">
				<path fill="#FFFFFF" d="M292.6,170.1c-1.2,1.2-3,1.2-4.7-0.6c-1-1.1-1.6-2.4-1.6-3.5l0.9-0.2c0,0.9,0.4,2.1,1.3,3.1
					c1.1,1.2,2.3,1.3,3.3,0.5c0.9-0.8,0.9-2-0.4-3.4l-0.5-0.5l0.6-0.5l4.5-0.4l-3.5-3.7l0.7-0.6l4.5,4.7l-0.5,0.5l-4.6,0.4
					C293.9,167.4,293.8,169,292.6,170.1z"/>
			</g>
			<g id="XMLID_139_">
				<path fill="#FFFFFF" d="M298.3,176c-1.2,1.2-3,1.2-4.7-0.6c-1-1.1-1.6-2.4-1.5-3.5l0.9-0.2c0,0.9,0.4,2.1,1.3,3.1
					c1.2,1.2,2.4,1.3,3.3,0.5c0.9-0.9,1-2-0.8-3.9l-1.5-1.6l4-3.1l3.8,4l-0.7,0.6l-3.2-3.3l-2.6,2l0.9,0.9
					C299.6,173.1,299.6,174.7,298.3,176z"/>
			</g>
			<g id="XMLID_140_">
				<path fill="#FFFFFF" d="M304.4,182.4c-1.4,1.3-3.3,1-4.6-0.4c-1.8-1.9-1.5-4.3,0.8-6.5c2.5-2.4,5.1-2.2,7-0.2
					c0.6,0.7,1.1,1.4,1.2,2.1l-0.9,0.3c-0.1-0.6-0.5-1.2-1-1.7c-1.5-1.6-3.5-1.6-5.5,0.2c-0.2,0.2-0.4,0.4-0.6,0.6
					c1.2-0.4,2.4,0,3.4,1.1C305.6,179.3,305.7,181.1,304.4,182.4z M303.7,181.7c1-0.9,0.9-2.2-0.2-3.3c-1.1-1.1-2.5-1.2-3.4-0.4
					c-0.8,0.8-0.9,2.2,0.3,3.4C301.4,182.4,302.7,182.6,303.7,181.7z"/>
			</g>
			<g id="XMLID_141_">
				<path fill="#FFFFFF" d="M317.2,200.3l0.7-3.9l-4,0.4l-0.8-0.8l4.9-0.5l0.7-4.6l0.8,0.8l-0.6,3.7l3.7-0.4l0.8,0.8l-4.6,0.5
					l-0.7,4.9L317.2,200.3z"/>
			</g>
			<g id="XMLID_142_">
				<path fill="#FFFFFF" d="M322.4,205.9l0.7-3.9l-4,0.4l-0.8-0.8l4.9-0.5l0.7-4.6l0.8,0.8l-0.6,3.7l3.7-0.4l0.8,0.8l-4.6,0.5
					l-0.7,4.9L322.4,205.9z"/>
			</g>
			<g id="XMLID_143_">
				<path fill="#FFFFFF" d="M327.7,211.5l0.7-3.9l-4,0.4l-0.8-0.8l4.9-0.5l0.7-4.6l0.8,0.8l-0.6,3.7l3.7-0.4l0.8,0.8l-4.6,0.5
					l-0.7,4.9L327.7,211.5z"/>
			</g>
			<g id="XMLID_144_">
				<path fill="#FFFFFF" d="M333,217l0.7-3.9l-4,0.4l-0.8-0.8l4.9-0.5l0.7-4.6l0.8,0.8l-0.6,3.7l3.7-0.4l0.8,0.8l-4.6,0.5l-0.7,4.9
					L333,217z"/>
			</g>
			<g id="XMLID_145_">
				<path fill="#FFFFFF" d="M351.3,236.3l0.7-3.9l-4,0.4l-0.8-0.8l4.9-0.5l0.7-4.6l0.8,0.8l-0.6,3.7l3.7-0.4l0.8,0.8l-4.6,0.5
					l-0.7,4.9L351.3,236.3z"/>
			</g>
			<g id="XMLID_146_">
				<path fill="#FFFFFF" d="M356.5,241.9l0.7-3.9l-4,0.4l-0.8-0.8l4.9-0.5l0.7-4.6l0.8,0.8l-0.6,3.7l3.7-0.4l0.8,0.8l-4.6,0.5
					l-0.7,4.9L356.5,241.9z"/>
			</g>
			<g id="XMLID_147_">
				<path fill="#FFFFFF" d="M361.8,247.5l0.7-3.9l-4,0.4l-0.8-0.8l4.9-0.5l0.7-4.6l0.8,0.8l-0.6,3.7l3.7-0.4l0.8,0.8l-4.6,0.5
					l-0.7,4.9L361.8,247.5z"/>
			</g>
			<g id="XMLID_148_">
				<path fill="#FFFFFF" d="M367.1,253.1l0.7-3.9l-4,0.4l-0.8-0.8l4.9-0.5l0.7-4.6l0.8,0.8l-0.6,3.7l3.7-0.4l0.8,0.8l-4.6,0.5
					l-0.7,4.9L367.1,253.1z"/>
			</g>
			<g id="XMLID_149_">
				<path fill="#FFFFFF" d="M390.8,263.5l-7.3,6.9l-0.7-0.8l6.7-6.3l-1.6-1.7l0.7-0.6L390.8,263.5z"/>
			</g>
			<g id="XMLID_150_">
				<path fill="#FFFFFF" d="M391.8,275c-1.2,1.2-3,1.2-4.7-0.6c-1-1.1-1.6-2.4-1.6-3.5l0.9-0.2c0,0.9,0.4,2.1,1.3,3.1
					c1.1,1.2,2.3,1.3,3.3,0.5c0.9-0.8,0.9-2-0.4-3.4l-0.5-0.5l0.6-0.5l4.5-0.4l-3.5-3.7l0.7-0.6l4.5,4.7l-0.5,0.5l-4.6,0.4
					C393.1,272.3,393,273.9,391.8,275z"/>
			</g>
			<g id="XMLID_151_">
				<path fill="#FFFFFF" d="M398.5,282.5l-1.4-1.5l-1.9,1.8l-0.7-0.8l1.9-1.8l-3.9-4.1l0.5-0.5l8.5-0.7l0.8,0.8l-8.3,0.7l3,3.2
					l1.7-1.6l0.7,0.7l-1.7,1.6l1.4,1.5L398.5,282.5z"/>
			</g>
			<g id="XMLID_152_">
				<path fill="#FFFFFF" d="M402.6,289.3l-0.7,0.6l-4.9-5.1l0.5-0.5l5.9,0.2c1.6,0.1,2.2-0.3,2.7-0.7c0.8-0.8,0.8-1.9-0.3-3
					c-0.8-0.9-1.7-1.3-2.7-1.2l0-1c1.2-0.1,2.4,0.5,3.5,1.6c1.4,1.5,1.5,3.1,0.3,4.3c-0.7,0.7-1.5,1-3.4,1l-4.8-0.2L402.6,289.3z"/>
			</g>
		</g>
		<g id="XMLID_153_">
			<g id="XMLID_154_">
				<path fill="#FFFFFF" d="M260.7,171c1.1-1,2.6-0.9,3.6,0.2c0.6,0.6,0.8,1.3,0.7,2l-1-0.1c0-0.5-0.1-0.9-0.4-1.3
					c-0.6-0.7-1.5-0.7-2.2-0.1c-0.7,0.6-0.7,1.5-0.1,2.2c0.3,0.3,0.7,0.5,1.2,0.5l0,1c-0.7,0.1-1.4-0.2-2-0.9
					C259.6,173.5,259.6,171.9,260.7,171z"/>
			</g>
			<g id="XMLID_155_">
				<path fill="#FFFFFF" d="M265.4,178l-1.5-1.6l-1,0.4l-0.8-0.8l5-1.7l0.8,0.8l-2,4.9L265,179L265.4,178z M265.8,177.2l0.8-1.8
					l-1.9,0.7L265.8,177.2z"/>
			</g>
			<g id="XMLID_156_">
				<path fill="#FFFFFF" d="M268.2,182.5l0.3-1.6l0,0l-0.7-0.7l-1,0.9l-0.8-0.8l3.5-3.3l1.4,1.5c0.9,0.9,1,2,0.2,2.7
					c-0.5,0.5-1.2,0.6-1.8,0.3l-0.4,1.8L268.2,182.5z M270.4,179l-0.6-0.7l-1.2,1.2l0.6,0.7c0.5,0.5,0.9,0.5,1.3,0.2
					C270.8,180,270.8,179.5,270.4,179z"/>
			</g>
			<g id="XMLID_157_">
				<path fill="#FFFFFF" d="M269.7,183.3l0.9-0.3c0.1,0.5,0.3,1.1,0.7,1.5c0.5,0.5,0.8,0.5,1,0.3c0.7-0.6-1.7-2.2-0.4-3.5
					c0.6-0.6,1.5-0.5,2.5,0.4c0.4,0.4,0.7,1,0.8,1.5l-0.8,0.3c-0.1-0.5-0.3-0.9-0.6-1.2c-0.5-0.5-0.8-0.5-1-0.3
					c-0.6,0.6,1.7,2.2,0.4,3.4c-0.6,0.6-1.5,0.5-2.5-0.5C270.1,184.6,269.7,183.9,269.7,183.3z"/>
			</g>
			<g id="XMLID_158_">
				<path fill="#FFFFFF" d="M280.5,188.4l-3.5,3.3l-0.8-0.8l1.4-1.4l-1.5-1.6l-1.4,1.4l-0.8-0.8l3.5-3.3l0.8,0.8l-1.4,1.3l1.5,1.6
					l1.4-1.3L280.5,188.4z"/>
			</g>
			<g id="XMLID_159_">
				<path fill="#FFFFFF" d="M279.3,190.7c1-1,2.6-0.9,3.6,0.2c1,1.1,1,2.6,0,3.6c-1,1-2.6,0.9-3.6-0.2
					C278.3,193.2,278.3,191.7,279.3,190.7z M282.2,193.7c0.7-0.6,0.7-1.5,0.1-2.1c-0.6-0.6-1.5-0.7-2.2,0c-0.7,0.6-0.7,1.5-0.1,2.2
					C280.6,194.3,281.5,194.3,282.2,193.7z"/>
			</g>
			<g id="XMLID_160_">
				<path fill="#FFFFFF" d="M285.3,193.5l0.8,0.8l-2.8,2.7l1.7,1.8l-0.7,0.6l-2.4-2.6L285.3,193.5z"/>
			</g>
			<g id="XMLID_161_">
				<path fill="#FFFFFF" d="M288.1,196.5l1.5,1.6c1.1,1.1,1.1,2.6,0.1,3.6c-1.1,1-2.5,0.9-3.6-0.3l-1.5-1.6L288.1,196.5z
					 M286.8,200.7c0.7,0.7,1.5,0.8,2.2,0.1c0.7-0.6,0.7-1.5,0-2.2l-0.7-0.7l-2.2,2L286.8,200.7z"/>
			</g>
			<g id="XMLID_162_">
				<path fill="#FFFFFF" d="M291.7,206l-0.6,0.6l-2.6-2.7l3.5-3.3l2.5,2.6l-0.6,0.6l-1.7-1.8l-0.8,0.7l1.5,1.6l-0.6,0.6l-1.5-1.6
					l-0.8,0.8L291.7,206z"/>
			</g>
			<g id="XMLID_163_">
				<path fill="#FFFFFF" d="M293.8,209.5l0.3-1.6l0,0l-0.7-0.7l-1,0.9l-0.8-0.8l3.5-3.3l1.4,1.5c0.9,0.9,1,2,0.2,2.7
					c-0.5,0.5-1.2,0.6-1.8,0.3l-0.4,1.8L293.8,209.5z M295.9,206.1l-0.6-0.7l-1.2,1.2l0.6,0.7c0.5,0.5,0.9,0.5,1.3,0.2
					C296.4,207,296.4,206.6,295.9,206.1z"/>
			</g>
		</g>
		<g id="XMLID_164_">
			<g id="XMLID_165_">
				<path fill="#FFFFFF" d="M246.7,183.5l1.9-0.1c-0.1,0.8,0,1.5,0.4,2c0.6,0.6,1.3,0.6,2-0.1l3.2-3l-2.2-2.4l1.3-1.2l3.7,3.9
					l-4.4,4.1c-1.7,1.6-3.3,1.5-4.8-0.1C246.9,185.7,246.5,184.6,246.7,183.5z"/>
			</g>
			<g id="XMLID_166_">
				<path fill="#FFFFFF" d="M252,189.1c0.6-0.5,1.3-0.5,1.8,0.1c0.5,0.5,0.5,1.3,0,1.8c-0.5,0.5-1.3,0.5-1.8,0
					C251.4,190.4,251.4,189.6,252,189.1z"/>
			</g>
			<g id="XMLID_167_">
				<path fill="#FFFFFF" d="M269.9,196.4l-8.8,4.2l-1.6-1.7l3.2-5.8l-6,2.8l-1.6-1.7l4.6-8.6l1.5,1.6l-3.3,6l6.2-2.9l1.4,1.4l-3.3,6
					l6.3-2.9L269.9,196.4z"/>
			</g>
			<g id="XMLID_168_">
				<path fill="#FFFFFF" d="M270.6,197c0.5-0.4,1.2-0.4,1.7,0.1c0.5,0.6,0.5,1.3,0.1,1.7c-0.5,0.5-1.2,0.4-1.7-0.1
					C270.1,198.2,270.1,197.5,270.6,197z M269.2,198.7l1.4,1.5l-5.2,4.9l-1.4-1.5L269.2,198.7z"/>
			</g>
			<g id="XMLID_169_">
				<path fill="#FFFFFF" d="M273.9,199.7l1.4,1.5l-7.1,6.7l-1.4-1.5L273.9,199.7z"/>
			</g>
			<g id="XMLID_170_">
				<path fill="#FFFFFF" d="M276.6,202.6l1.4,1.5l-7.1,6.7l-1.4-1.5L276.6,202.6z"/>
			</g>
			<g id="XMLID_171_">
				<path fill="#FFFFFF" d="M278.8,205.7c0.5-0.4,1.2-0.4,1.7,0.1c0.5,0.6,0.5,1.3,0.1,1.7c-0.5,0.5-1.2,0.4-1.7-0.1
					C278.3,206.9,278.3,206.2,278.8,205.7z M277.4,207.4l1.4,1.5l-5.2,4.9l-1.4-1.5L277.4,207.4z"/>
			</g>
			<g id="XMLID_172_">
				<path fill="#FFFFFF" d="M282.2,216.9l-3,2.8l-1.3-1.4l0.6-0.6c-0.7,0.2-1.5-0.1-2.2-0.9c-1.1-1.2-1.2-2.6-0.3-3.4
					c0.9-0.9,2.2-0.8,3.6,0.8l1.1,1.2c0.6-0.6,0.7-1.3-0.1-2.2c-0.5-0.5-1.2-0.9-1.9-1l0.5-1.5c0.9,0.2,2,0.8,2.7,1.6
					C283.7,213.9,283.8,215.5,282.2,216.9z M279.5,216.7l0.5-0.5l-1-1c-0.7-0.7-1.1-0.7-1.5-0.4c-0.4,0.4-0.3,0.9,0.2,1.4
					C278.2,216.8,278.9,217,279.5,216.7z"/>
			</g>
			<g id="XMLID_173_">
				<path fill="#FFFFFF" d="M291.8,227l-3,2.8l-1.4-1.5l2.7-2.6c0.8-0.8,0.9-1.5,0.3-2.1c-0.6-0.7-1.5-0.7-2.4,0.1l-2.6,2.5
					l-1.4-1.5l2.7-2.6c0.8-0.8,0.9-1.5,0.3-2.1c-0.6-0.7-1.5-0.7-2.4,0.1l-2.6,2.5l-1.4-1.5l5.2-4.9l1.4,1.4l-0.6,0.6
					c0.8,0,1.6,0.3,2.2,1c0.7,0.7,1,1.6,0.8,2.5c0.9-0.1,1.9,0.3,2.6,1.1C293.2,224,293.4,225.5,291.8,227z"/>
			</g>
			<g id="XMLID_174_">
				<path fill="#FFFFFF" d="M290.1,230.2l1.6-0.5c0.1,0.7,0.6,1.6,1.2,2.3c0.7,0.7,1.1,0.8,1.4,0.5c0.8-0.8-3-3.1-0.9-5.1
					c1-0.9,2.5-0.7,3.9,0.8c0.7,0.7,1.3,1.7,1.4,2.4l-1.5,0.5c-0.2-0.8-0.6-1.4-1-1.9c-0.6-0.7-1.1-0.8-1.4-0.5
					c-0.9,0.8,2.9,3.2,0.9,5.1c-1,0.9-2.5,0.7-4-0.9C290.8,232.1,290.2,231,290.1,230.2z"/>
			</g>
		</g>
		<g id="XMLID_175_">
			<g id="XMLID_176_">
				<path fill="#FFFFFF" d="M349.8,288c2.2-2.1,4.6-2.1,6.2-0.4c1.6,1.7,1.5,4.1-0.8,6.2c-2.2,2.1-4.6,2.1-6.2,0.4
					C347.5,292.6,347.6,290.1,349.8,288z M353.8,292.3c1.5-1.4,1.7-2.6,0.9-3.4c-0.7-0.8-1.9-0.7-3.4,0.7c-1.5,1.4-1.7,2.6-0.9,3.4
					C351.1,293.8,352.3,293.7,353.8,292.3z"/>
			</g>
			<g id="XMLID_177_">
				<path fill="#FFFFFF" d="M360,301.3c-1.4,1.3-3.3,1-4.7-0.4c-1.8-1.9-1.7-4.1,0.5-6.2c2.3-2.2,5-2,6.9,0c0.7,0.7,1.2,1.6,1.3,2.3
					l-1.7,0.5c-0.1-0.6-0.4-1.1-0.9-1.6c-1.1-1.1-2.4-1.2-3.7,0c0.8,0,1.5,0.4,2.2,1.1C361.2,298.3,361.3,300.1,360,301.3z
					 M358.5,299.9c0.6-0.6,0.6-1.4-0.1-2.1c-0.6-0.7-1.5-0.8-2.1-0.2c-0.6,0.5-0.6,1.4,0.1,2.1C357.1,300.4,357.9,300.4,358.5,299.9
					z"/>
			</g>
			<g id="XMLID_178_">
				<path fill="#FFFFFF" d="M369,298.8l1.3,1.3l-12.1,5.4l-1.3-1.3L369,298.8z"/>
			</g>
			<g id="XMLID_179_">
				<path fill="#FFFFFF" d="M368.1,311.6l-1.3,1.2l-4.8-5.1l1-1l4.9,0.3c1.1,0.1,1.6-0.2,1.9-0.5c0.5-0.5,0.5-1.2-0.2-1.9
					c-0.5-0.6-1.2-0.9-2-0.8l-0.3-1.8c1.3-0.2,2.6,0.3,3.8,1.5c1.4,1.5,1.6,3.2,0.4,4.4c-0.7,0.6-1.4,1-3.2,0.9l-2.9-0.2
					L368.1,311.6z"/>
			</g>
			<g id="XMLID_180_">
				<path fill="#FFFFFF" d="M374.6,318.1l-1-1.1l-1.4,1.3l-1.4-1.5l1.4-1.3l-3.4-3.6l1-1l7.3-0.9l1.5,1.6l-6.8,0.9l1.7,1.8l1.3-1.2
					l1.4,1.5l-1.3,1.2l1,1.1L374.6,318.1z"/>
			</g>
		</g>
		<g id="XMLID_181_">
			<g id="XMLID_182_">
				<g id="XMLID_183_">
					<path fill="#FBFE00" d="M406.2,234.9c3.8-5.8,2.3-13.6-2.8-18.3c-1.6-1.5-3.4-2.7-5.3-3.5c-4.9-2-11.3-0.5-13.9,4.1
						c-2.1,3.8-1.2,8.5,0.2,12.5c1.5,4.2,4,8.6,8.2,10.2c4,1.6,8.9,0.1,11.9-3C405.2,236.3,405.7,235.6,406.2,234.9z"/>
				</g>
			</g>
		</g>
		<g id="XMLID_186_">
			<path id="XMLID_187_" fill="#05685A" d="M516.4,254.7v176c0,9.6-7.8,17.4-17.4,17.4H243.2c-9.6,0-17.4-7.8-17.4-17.4v-176
				c0-9.6,7.8-17.4,17.4-17.4h255.7C508.6,237.3,516.4,245.1,516.4,254.7z"/>
		</g>
		<g id="XMLID_188_">
			<g id="XMLID_189_">
				<path id="XMLID_190_" fill="#263238" d="M516.4,254.7c0,0,0-0.2,0-0.6c0-0.4,0-1-0.2-1.9c-0.2-1.6-0.8-4.1-2.6-6.8
					c-0.9-1.3-2-2.8-3.6-4c-1.5-1.3-3.4-2.4-5.7-3.1c-0.6-0.2-1.1-0.3-1.7-0.5c-0.6-0.1-1.2-0.2-1.8-0.3c-0.6,0-1.3-0.1-1.9-0.1
					c-0.7,0-1.3,0-2,0c-2.7,0-5.6,0-8.7,0c-24.6,0-60.3,0-104.3,0.1c-22,0-46.1,0-72,0c-12.9,0-26.3,0-40.1,0c-6.9,0-13.9,0-21,0
					c-1.8,0-3.6,0-5.3,0c-1.8,0-3.6-0.1-5.3,0.3c-1.7,0.3-3.4,0.9-5,1.8c-1.6,0.9-3,2-4.2,3.2c-1.3,1.3-2.3,2.8-3.1,4.4
					c-0.8,1.6-1.3,3.4-1.6,5.2c-0.2,1.8-0.2,3.6-0.2,5.5c0,1.9,0,3.7,0,5.6c0,7.5,0,15,0,22.6c0,15.2,0,30.8,0,46.6
					c0,31.7,0,64.5,0,98c0,4.1,1.5,8.2,4.3,11.3c2.7,3.1,6.5,5.2,10.6,5.7c2,0.3,4.1,0.2,6.2,0.2c2.1,0,4.1,0,6.2,0
					c4.1,0,8.2,0,12.3,0c16.4,0,32.5,0,48.3,0c31.7,0,62.2,0,91.3,0c29.1,0,56.8,0,82.6,0c3.2,0,6.4,0,9.6,0c1.6,0,3.2,0,4.7-0.3
					c1.5-0.3,3-0.8,4.4-1.5c0.7-0.3,1.3-0.8,2-1.1c0.6-0.5,1.3-0.9,1.8-1.4c1.2-1,2.1-2.2,3-3.4c1.6-2.5,2.6-5.5,2.8-8.4
					c0.1-12,0-23.5,0.1-34.5c0-44,0.1-79.6,0.1-104.3c0-12.3,0-21.9,0-28.3c0-3.2,0-5.7,0-7.4C516.4,255.6,516.4,254.7,516.4,254.7
					s0,0.9,0,2.5c0,1.7,0,4.1,0,7.4c0,6.5,0,16,0,28.3c0,24.6,0,60.2,0.1,104.3c0,11,0.1,22.5,0,34.6c-0.1,3-1.2,6-2.8,8.6
					c-0.9,1.3-1.9,2.5-3.1,3.5c-0.6,0.6-1.2,1-1.8,1.5c-0.7,0.4-1.3,0.9-2.1,1.2c-1.4,0.7-2.9,1.2-4.5,1.5c-1.6,0.3-3.2,0.3-4.8,0.3
					c-3.2,0-6.4,0-9.6,0c-25.9,0-53.5,0-82.6,0c-29.1,0-59.7,0-91.3,0c-15.8,0-32,0-48.3,0c-4.1,0-8.2,0-12.3,0c-2.1,0-4.1,0-6.2,0
					c-2.1,0-4.1,0.1-6.2-0.2c-4.2-0.5-8.1-2.7-10.9-5.9c-2.8-3.2-4.4-7.4-4.4-11.7c0-33.6,0-66.4,0-98c0-15.8,0-31.4,0-46.6
					c0-7.6,0-15.2,0-22.6c0-1.9,0-3.7,0-5.6c0-1.8-0.1-3.7,0.2-5.6c0.2-1.9,0.8-3.7,1.6-5.3c0.8-1.7,1.9-3.2,3.2-4.5
					c1.3-1.3,2.8-2.4,4.4-3.3c1.6-0.9,3.4-1.5,5.2-1.8l1.3-0.2l1.4-0.1c0.9-0.1,1.8,0,2.7,0c1.8,0,3.6,0,5.3,0c7.1,0,14.1,0,21,0
					c13.8,0,27.2,0,40.1,0c25.9,0,50,0,72,0c44,0,79.6,0.1,104.3,0.1c3.1,0,6,0,8.7,0c0.7,0,1.4,0,2,0c0.7,0,1.3,0.1,2,0.1
					c0.6,0.1,1.3,0.2,1.9,0.3c0.6,0.2,1.2,0.3,1.8,0.5c2.3,0.7,4.2,1.9,5.7,3.2c1.5,1.3,2.7,2.7,3.6,4.1c1.7,2.8,2.3,5.2,2.5,6.9
					c0.2,0.8,0.1,1.5,0.2,1.9C516.4,254.5,516.4,254.7,516.4,254.7z"/>
			</g>
		</g>
		<g id="XMLID_185_">
			<g id="XMLID_191_">
				<g id="XMLID_192_">
					<ellipse id="XMLID_193_" fill="#263238" cx="509.2" cy="250.3" rx="3" ry="0.3"/>
				</g>
			</g>
			<g id="XMLID_194_">
				<g id="XMLID_195_">
					<ellipse id="XMLID_196_" fill="#263238" cx="487.8" cy="250.3" rx="6.1" ry="0.3"/>
				</g>
			</g>
			<g id="XMLID_197_">
				<g id="XMLID_198_">
					<ellipse id="XMLID_199_" fill="#263238" cx="463.4" cy="250.3" rx="6.1" ry="0.3"/>
				</g>
			</g>
			<g id="XMLID_200_">
				<g id="XMLID_201_">
					<ellipse id="XMLID_202_" fill="#263238" cx="438.9" cy="250.3" rx="6.1" ry="0.3"/>
				</g>
			</g>
			<g id="XMLID_203_">
				<g id="XMLID_204_">
					<ellipse id="XMLID_205_" fill="#263238" cx="414.4" cy="250.3" rx="6.1" ry="0.3"/>
				</g>
			</g>
			<g id="XMLID_206_">
				<g id="XMLID_207_">
					<ellipse id="XMLID_208_" fill="#263238" cx="389.9" cy="250.3" rx="6.1" ry="0.3"/>
				</g>
			</g>
			<g id="XMLID_209_">
				<g id="XMLID_210_">
					<ellipse id="XMLID_211_" fill="#263238" cx="365.5" cy="250.3" rx="6.1" ry="0.3"/>
				</g>
			</g>
			<g id="XMLID_212_">
				<g id="XMLID_213_">
					<ellipse id="XMLID_214_" fill="#263238" cx="341" cy="250.3" rx="6.1" ry="0.3"/>
				</g>
			</g>
			<g id="XMLID_215_">
				<g id="XMLID_216_">
					<ellipse id="XMLID_217_" fill="#263238" cx="316.5" cy="250.3" rx="6.1" ry="0.3"/>
				</g>
			</g>
			<g id="XMLID_218_">
				<g id="XMLID_219_">
					<ellipse id="XMLID_220_" fill="#263238" cx="292" cy="250.3" rx="6.1" ry="0.3"/>
				</g>
			</g>
			<g id="XMLID_221_">
				<g id="XMLID_222_">
					<ellipse id="XMLID_223_" fill="#263238" cx="267.6" cy="250.3" rx="6.1" ry="0.3"/>
				</g>
			</g>
			<g id="XMLID_224_">
				<g id="XMLID_225_">
					<path id="XMLID_226_" fill="#263238" d="M243.2,256.3c-0.1,0-0.3-2.7-0.3-6c0.5-0.5,0.1-0.1,0.3-0.3h0h0h0h0h0l0.1,0l0.2,0
						l0.3,0c0.2,0,0.4,0,0.6,0c0.4,0,0.8,0,1.1,0c0.7,0,1.3,0,1.9,0.1c1.1,0,1.8,0.1,1.8,0.2s-0.7,0.1-1.8,0.2c-0.6,0-1.3,0-1.9,0.1
						c-0.4,0-0.7,0-1.1,0c-0.2,0-0.4,0-0.6,0l-0.3,0l-0.2,0h-0.1h0h0h0h0h0c0.1-0.1-0.3,0.3,0.3-0.3
						C243.5,253.6,243.3,256.3,243.2,256.3z"/>
				</g>
			</g>
			<g id="XMLID_227_">
				<g id="XMLID_228_">
					<ellipse id="XMLID_229_" fill="#263238" cx="243.2" cy="273.1" rx="0.3" ry="5.6"/>
				</g>
			</g>
			<g id="XMLID_230_">
				<g id="XMLID_231_">
					<ellipse id="XMLID_232_" fill="#263238" cx="243.2" cy="295.5" rx="0.3" ry="5.6"/>
				</g>
			</g>
			<g id="XMLID_233_">
				<g id="XMLID_234_">
					<ellipse id="XMLID_235_" fill="#263238" cx="243.2" cy="317.9" rx="0.3" ry="5.6"/>
				</g>
			</g>
			<g id="XMLID_236_">
				<g id="XMLID_237_">
					<ellipse id="XMLID_238_" fill="#263238" cx="243.2" cy="340.4" rx="0.3" ry="5.6"/>
				</g>
			</g>
			<g id="XMLID_239_">
				<g id="XMLID_240_">
					<ellipse id="XMLID_241_" fill="#263238" cx="243.2" cy="362.8" rx="0.3" ry="5.6"/>
				</g>
			</g>
			<g id="XMLID_242_">
				<g id="XMLID_243_">
					<ellipse id="XMLID_244_" fill="#263238" cx="243.2" cy="385.2" rx="0.3" ry="5.6"/>
				</g>
			</g>
			<g id="XMLID_245_">
				<g id="XMLID_246_">
					<ellipse id="XMLID_247_" fill="#263238" cx="243.2" cy="407.7" rx="0.3" ry="5.6"/>
				</g>
			</g>
			<g id="XMLID_248_">
				<g id="XMLID_249_">
					<path id="XMLID_250_" fill="#263238" d="M249.2,430.5c0,0.1-2.7,0.3-6,0.3c-0.5-0.5-0.1-0.1-0.3-0.3v0v0v0v0l0,0v-0.1l0-0.2
						l0-0.3c0-0.2,0-0.4,0-0.6c0-0.4,0-0.8,0-1.1c0-0.7,0-1.3,0.1-1.9c0-1.1,0.1-1.8,0.2-1.8c0.1,0,0.1,0.7,0.2,1.8
						c0,0.6,0,1.3,0.1,1.9c0,0.4,0,0.7,0,1.1c0,0.2,0,0.4,0,0.6l0,0.3l0,0.2l0,0.1v0v0v0v0v0c-0.1-0.1,0.3,0.3-0.3-0.3
						C246.5,430.2,249.2,430.3,249.2,430.5z"/>
				</g>
			</g>
			<g id="XMLID_251_">
				<g id="XMLID_252_">
					<ellipse id="XMLID_253_" fill="#263238" cx="267.3" cy="430.5" rx="6" ry="0.3"/>
				</g>
			</g>
			<g id="XMLID_254_">
				<g id="XMLID_255_">
					<ellipse id="XMLID_256_" fill="#263238" cx="291.4" cy="430.5" rx="6" ry="0.3"/>
				</g>
			</g>
			<g id="XMLID_257_">
				<g id="XMLID_258_">
					<ellipse id="XMLID_259_" fill="#263238" cx="315.5" cy="430.5" rx="6" ry="0.3"/>
				</g>
			</g>
			<g id="XMLID_260_">
				<g id="XMLID_261_">
					<ellipse id="XMLID_262_" fill="#263238" cx="339.6" cy="430.5" rx="6" ry="0.3"/>
				</g>
			</g>
			<g id="XMLID_263_">
				<g id="XMLID_264_">
					<ellipse id="XMLID_265_" fill="#263238" cx="363.8" cy="430.5" rx="6" ry="0.3"/>
				</g>
			</g>
			<g id="XMLID_266_">
				<g id="XMLID_267_">
					<ellipse id="XMLID_268_" fill="#263238" cx="387.9" cy="430.5" rx="6" ry="0.3"/>
				</g>
			</g>
			<g id="XMLID_269_">
				<g id="XMLID_270_">
					<ellipse id="XMLID_271_" fill="#263238" cx="412" cy="430.5" rx="6" ry="0.3"/>
				</g>
			</g>
			<g id="XMLID_272_">
				<g id="XMLID_273_">
					<ellipse id="XMLID_274_" fill="#263238" cx="436.1" cy="430.5" rx="6" ry="0.3"/>
				</g>
			</g>
			<g id="XMLID_275_">
				<g id="XMLID_276_">
					<ellipse id="XMLID_277_" fill="#263238" cx="460.3" cy="430.5" rx="6" ry="0.3"/>
				</g>
			</g>
			<g id="XMLID_278_">
				<g id="XMLID_279_">
					<ellipse id="XMLID_280_" fill="#263238" cx="484.4" cy="430.5" rx="6" ry="0.3"/>
				</g>
			</g>
			<g id="XMLID_281_">
				<g id="XMLID_282_">
					<ellipse id="XMLID_283_" fill="#263238" cx="505.5" cy="430.5" rx="3" ry="0.3"/>
				</g>
			</g>
		</g>
		<g id="XMLID_284_" opacity="0.3">
			<path d="M326,354.2c0,0,0.1,10-3,16c-3,6-4,8.4-10.4,10.7c-6.4,2.3-86.9,11.2-86.9,11.2v-27.2L326,354.2z"/>
		</g>
		<g id="XMLID_285_" opacity="0.3">
			<path d="M324.6,316.5c0,0,0.9-10.2-24.7-14c-29.3-4.3-74.1-9.7-74.1-9.7v19.3L324.6,316.5z"/>
		</g>
		<g>
			<g id="XMLID_288_">
				<path id="XMLID_289_" fill="#04A08D" d="M228.4,373.2h83.3c7.9,0,14.3-6.4,14.3-14.3v-37.3c0-7.9-6.4-14.3-14.3-14.3h-83.3
					c-7.9,0-14.3,6.4-14.3,14.3v37.3C214.1,366.8,220.5,373.2,228.4,373.2z"/>
			</g>
			<g id="XMLID_290_">
				<g id="XMLID_291_">
					<path id="XMLID_292_" fill="#04A08D" d="M228.4,373.2c0,0-0.3,0-0.9,0c-0.6,0-1.4-0.1-2.5-0.3c-1.1-0.2-2.4-0.7-3.8-1.5
						c-1.4-0.8-2.9-2-4.2-3.6c-1.3-1.7-2.4-3.8-2.8-6.3c-0.3-1.3-0.2-2.6-0.2-4c0-1.4,0-2.8,0-4.3c0-6,0-12.7,0-20.2
						c0-3.7,0-7.7,0-11.8c0.1-4.1,2.1-8.4,5.7-11.1c1.8-1.3,3.9-2.3,6.2-2.7c1.1-0.2,2.3-0.3,3.5-0.2c1.2,0,2.3,0,3.5,0
						c4.7,0,9.5,0,14.5,0c19.8,0,41.6,0,64.4,0c1.5,0,2.9,0.2,4.3,0.6c1.4,0.4,2.7,1.1,3.9,1.9c1.2,0.8,2.2,1.8,3.2,2.9
						c0.9,1.1,1.6,2.4,2.2,3.7c0.5,1.3,0.8,2.7,1,4.1c0.1,1.4,0.1,2.8,0.1,4.2c0,2.7,0,5.5,0,8.2c0,5.4,0,10.7,0,15.9
						c0,2.6,0,5.2,0,7.7c0,1.3,0,2.5-0.1,3.8c0,0.6-0.2,1.3-0.2,1.9c-0.2,0.6-0.3,1.2-0.5,1.8c-1.6,4.8-5.8,8.4-10.4,9.5
						c-0.6,0.2-1.2,0.2-1.8,0.3c-0.6,0-1.2,0.1-1.8,0.1c-1.2,0-2.3,0-3.4,0c-2.3,0-4.5,0-6.7,0c-8.8,0-17,0-24.5,0
						c-15,0-27.1-0.1-35.5-0.1c-4.2,0-7.4,0-9.6,0c-1.1,0-1.9,0-2.5,0C228.7,373.2,228.4,373.2,228.4,373.2s0.3,0,0.9,0
						c0.6,0,1.4,0,2.5,0c2.2,0,5.5,0,9.6,0c8.4,0,20.5,0,35.5-0.1c7.5,0,15.7,0,24.5,0c2.2,0,4.4,0,6.7,0c2.3-0.1,4.6,0.2,6.8-0.4
						c4.5-1,8.5-4.5,10.1-9.2c0.9-2.3,0.7-4.8,0.7-7.4c0-2.5,0-5.1,0-7.7c0-5.2,0-10.5,0-15.9c0-2.7,0-5.4,0-8.2
						c0-1.4,0-2.8-0.1-4.1c-0.2-1.3-0.5-2.7-1-3.9c-0.5-1.3-1.2-2.5-2.1-3.5c-0.9-1.1-1.9-2-3-2.8c-1.2-0.8-2.4-1.4-3.7-1.8
						c-1.3-0.4-2.7-0.6-4.1-0.6c-22.9,0-44.6,0-64.4,0c-5,0-9.8,0-14.5,0c-1.2,0-2.3,0-3.5,0c-1.2,0-2.3,0-3.4,0.2
						c-2.2,0.4-4.3,1.3-6,2.6c-3.5,2.6-5.5,6.8-5.6,10.8c-0.1,4.1,0,8,0,11.7c0,7.5,0,14.3,0,20.2c0,1.5,0,2.9,0,4.3
						c0,1.4,0,2.7,0.2,4c0.4,2.5,1.5,4.6,2.8,6.3c1.3,1.7,2.7,2.8,4.1,3.6c1.4,0.8,2.7,1.3,3.8,1.5c1.1,0.3,1.9,0.4,2.5,0.4
						C228.1,373.2,228.4,373.2,228.4,373.2z"/>
				</g>
			</g>
		</g>
		<g id="XMLID_287_">
			<g id="XMLID_293_">
				<circle fill="#FBFE00" stroke="#000000" stroke-miterlimit="10" cx="292.3" cy="342.7" r="24"/>
			</g>
			<g id="XMLID_294_">
				<g id="XMLID_295_">
					<path id="XMLID_296_" fill="#FBFE00" stroke="#000000" stroke-miterlimit="10" d="M298.5,362.3c-0.1-0.1,2.5-0.6,5.7-3
						c1.6-1.2,3.3-2.8,4.8-5c1.5-2.2,2.7-4.9,3.2-7.8c0.5-3,0.2-5.9-0.6-8.4c-0.7-2.5-1.9-4.6-3.1-6.3c-2.4-3.2-4.6-4.5-4.5-4.6
						c0,0,0.1,0.1,0.4,0.2c0.2,0.2,0.6,0.4,1.1,0.8c0.9,0.7,2.1,1.8,3.3,3.4c1.2,1.6,2.4,3.8,3.2,6.3c0.8,2.6,1.1,5.6,0.6,8.7
						c-0.5,3.1-1.8,5.8-3.3,8c-1.5,2.2-3.3,3.9-5,5c-1.7,1.2-3.2,1.8-4.2,2.2c-0.5,0.2-1,0.3-1.2,0.4
						C298.6,362.3,298.5,362.3,298.5,362.3z"/>
				</g>
			</g>
		</g>
		<g id="XMLID_18_">
			<g id="XMLID_338_">
				<g id="XMLID_339_">
					<g id="XMLID_340_">
						
							<ellipse transform="matrix(0.9896 -0.1438 0.1438 0.9896 -44.8676 23.3233)" fill="#04A08D" cx="138.9" cy="322" rx="42" ry="41.9"/>
					</g>
				</g>
			</g>
			<g id="XMLID_341_">
				<g id="XMLID_342_">
					<g id="XMLID_343_">
						<g id="XMLID_344_" opacity="0.3">
							<path fill="#05685A" d="M170.4,316.4c-0.2,0-0.5-1.3-1.4-3.7c-0.9-2.3-2.3-5.7-5.1-9.2c-1.4-1.7-3-3.5-5-5.1
								c-2-1.6-4.3-3.1-7-4.3c-1.3-0.6-2.7-1.1-4.2-1.5c-1.5-0.4-3-0.8-4.5-1c-1.6-0.2-3.2-0.3-4.8-0.3c-1.6,0-3.3,0.2-4.9,0.5
								c-1.6,0.3-3.2,0.7-4.8,1.2c-1.5,0.5-3,1.2-4.4,1.9c-1.4,0.7-2.7,1.6-3.9,2.5c-1.2,0.9-2.3,1.9-3.4,2.9
								c-2.1,2-3.7,4.3-5.1,6.5c-1.3,2.2-2.3,4.5-2.9,6.6c-1.4,4.2-1.6,7.9-1.6,10.4c0,2.5,0.2,3.9,0,3.9c-0.1,0-0.6-1.3-0.9-3.9
								c-0.3-2.5-0.3-6.4,0.9-10.9c0.6-2.2,1.5-4.7,2.8-7.1c1.3-2.4,3.1-4.8,5.2-7.1c1.1-1.1,2.3-2.2,3.6-3.2c1.3-1,2.7-1.9,4.2-2.7
								c1.5-0.8,3.1-1.5,4.7-2.1c1.7-0.6,3.4-1,5.2-1.4c1.8-0.3,3.5-0.5,5.3-0.5c1.8,0,3.5,0.1,5.2,0.3c1.7,0.2,3.3,0.6,4.9,1.1
								c1.6,0.5,3,1.1,4.4,1.7c2.8,1.3,5.3,3,7.3,4.8c2.1,1.8,3.8,3.8,5.1,5.7c2.7,3.8,4,7.4,4.6,9.9
								C170.5,315,170.5,316.4,170.4,316.4z"/>
						</g>
					</g>
				</g>
			</g>
			<g id="XMLID_350_">
				<g id="XMLID_351_">
					<g id="XMLID_352_">
						<g id="XMLID_353_">
							<path id="XMLID_354_" fill="#05685A" d="M107.2,326.7c0,0,0,0.1,0.1,0.2c0,0.2,0.1,0.4,0.2,0.7c0.1,0.3,0.2,0.7,0.3,1.2
								c0.1,0.5,0.2,1,0.4,1.6c0.7,2.4,2,5.9,4.6,9.6c1.3,1.9,3,3.7,4.9,5.5c0.5,0.4,1,0.8,1.6,1.3c0.3,0.2,0.5,0.4,0.8,0.6
								c0.3,0.2,0.6,0.4,0.9,0.6c0.6,0.4,1.2,0.8,1.8,1.2c0.6,0.3,1.3,0.7,1.9,1c2.7,1.3,5.6,2.4,8.9,2.9c3.2,0.5,6.6,0.6,10,0.1
								c3.4-0.5,6.6-1.6,9.5-3c2.9-1.4,5.4-3.3,7.6-5.3c0.5-0.5,1-1,1.6-1.6c0.5-0.5,0.9-1.1,1.4-1.6c0.2-0.3,0.4-0.5,0.7-0.8
								c0.2-0.3,0.4-0.6,0.6-0.9c0.4-0.6,0.8-1.1,1.1-1.7c1.3-2.3,2.4-4.5,3.1-6.7c1.4-4.3,1.7-8,1.6-10.5c0-0.6,0-1.2-0.1-1.7
								c0-0.5-0.1-0.9-0.1-1.2c0-0.3,0-0.6,0-0.8c0-0.2,0-0.3,0-0.3c0,0,0,0.1,0.1,0.3c0,0.2,0.1,0.4,0.1,0.8c0,0.3,0.1,0.8,0.1,1.2
								c0.1,0.5,0.1,1,0.1,1.7c0.1,2.5-0.1,6.3-1.5,10.6c-0.7,2.2-1.7,4.5-3.1,6.8c-0.4,0.6-0.8,1.1-1.1,1.7
								c-0.2,0.3-0.4,0.6-0.6,0.9c-0.2,0.3-0.4,0.5-0.7,0.8c-0.5,0.5-0.9,1.1-1.4,1.7c-0.5,0.5-1,1.1-1.6,1.6c-2.2,2-4.8,4-7.7,5.4
								c-3,1.4-6.2,2.5-9.7,3.1c-3.5,0.5-6.9,0.4-10.2-0.1c-3.3-0.5-6.3-1.7-9-3c-0.7-0.4-1.3-0.7-2-1.1c-0.6-0.4-1.2-0.8-1.8-1.2
								c-0.3-0.2-0.6-0.4-0.9-0.6c-0.3-0.2-0.5-0.4-0.8-0.7c-0.5-0.4-1.1-0.9-1.6-1.3c-1.9-1.8-3.6-3.7-4.9-5.6
								c-2.6-3.8-3.9-7.3-4.5-9.8c-0.2-0.6-0.3-1.2-0.4-1.6c-0.1-0.5-0.2-0.9-0.2-1.2c-0.1-0.3-0.1-0.6-0.1-0.8
								C107.2,326.8,107.2,326.7,107.2,326.7z"/>
						</g>
					</g>
				</g>
			</g>
			
				<text id="XMLID_1_" transform="matrix(0.9639 -0.2661 0.2661 0.9639 125.6584 338.7079)" fill="#05685A" font-family="'MyriadPro-Regular'" font-size="40px">Rs</text>
		</g>
		
			<text id="XMLID_323_" transform="matrix(0.9639 -0.2661 0.2661 0.9639 387.8917 113.4979)" fill="#E0E0E0" font-family="'MyriadPro-Regular'" font-size="40px">Rs</text>
		<g id="XMLID_42_">
			<g id="XMLID_302_">
				<g id="XMLID_304_">
					<g id="XMLID_305_">
						
							<ellipse id="XMLID_307_" transform="matrix(0.8045 0.5939 -0.5939 0.8045 240.7923 -321.377)" fill="#04A08D" cx="608.6" cy="205.1" rx="42" ry="41.9"/>
					</g>
				</g>
			</g>
			<g id="XMLID_298_">
				<g id="XMLID_299_">
					<g id="XMLID_300_">
						<g id="XMLID_301_" opacity="0.3">
							<path id="XMLID_303_" fill="#05685A" d="M634.9,223.3c-0.2-0.1,0.6-1.3,1.6-3.6c1-2.3,2.3-5.7,2.9-10.1
								c0.3-2.2,0.3-4.6,0-7.2c-0.3-2.6-0.9-5.3-1.9-8c-0.5-1.4-1.1-2.7-1.9-4c-0.7-1.3-1.6-2.6-2.5-3.9c-1-1.2-2-2.5-3.2-3.6
								c-1.2-1.1-2.5-2.2-3.8-3.1c-1.4-0.9-2.8-1.8-4.3-2.5c-1.5-0.7-3-1.3-4.5-1.7c-1.5-0.5-3-0.8-4.5-1c-1.5-0.2-3-0.3-4.4-0.3
								c-2.9,0-5.7,0.4-8.2,1c-2.5,0.7-4.8,1.6-6.7,2.6c-3.9,2-6.7,4.5-8.4,6.2c-1.8,1.8-2.6,2.9-2.8,2.8c-0.1-0.1,0.5-1.4,2.1-3.4
								c1.6-2,4.2-4.8,8.3-7.1c2-1.2,4.4-2.2,7-3c2.6-0.8,5.6-1.3,8.7-1.3c1.6,0,3.2,0,4.8,0.3c1.6,0.2,3.3,0.5,4.9,1
								c1.6,0.5,3.3,1.1,4.8,1.8c1.6,0.8,3.1,1.6,4.6,2.7c1.5,1,2.9,2.2,4.1,3.4c1.3,1.2,2.4,2.5,3.4,3.9c1,1.3,1.9,2.8,2.7,4.2
								c0.8,1.4,1.4,2.9,1.9,4.4c1.1,2.9,1.6,5.8,1.8,8.6c0.2,2.7,0,5.3-0.4,7.6c-0.8,4.6-2.4,8.1-3.7,10.3
								C636,222.3,635,223.4,634.9,223.3z"/>
						</g>
					</g>
				</g>
			</g>
			<g id="XMLID_98_">
				<g id="XMLID_123_">
					<g id="XMLID_184_">
						<g id="XMLID_286_">
							<path id="XMLID_297_" fill="#05685A" d="M582.8,186.2c0,0,0,0.1-0.1,0.2c-0.1,0.2-0.2,0.4-0.4,0.6c-0.2,0.3-0.4,0.6-0.7,1
								c-0.3,0.4-0.6,0.9-0.8,1.5c-1.2,2.2-2.7,5.6-3.5,10.1c-0.4,2.2-0.5,4.7-0.4,7.4c0.1,0.7,0.1,1.3,0.2,2c0,0.3,0.1,0.7,0.1,1
								c0.1,0.3,0.1,0.7,0.2,1c0.2,0.7,0.3,1.4,0.5,2.1c0.2,0.7,0.4,1.4,0.6,2.1c1,2.8,2.3,5.7,4.3,8.3c1.9,2.6,4.3,5,7,7.1
								c2.8,2,5.8,3.5,8.9,4.6c3.1,1.1,6.2,1.5,9.2,1.6c0.7,0,1.5,0,2.2,0c0.7,0,1.4-0.1,2.1-0.2c0.4,0,0.7-0.1,1-0.1
								c0.3,0,0.7-0.1,1-0.2c0.7-0.1,1.3-0.3,2-0.4c2.6-0.7,4.9-1.5,6.9-2.6c4-2.1,6.8-4.5,8.6-6.3c0.5-0.4,0.8-0.9,1.1-1.2
								c0.3-0.4,0.6-0.7,0.8-0.9c0.2-0.2,0.4-0.4,0.5-0.6c0.1-0.1,0.2-0.2,0.2-0.2c0,0,0,0.1-0.1,0.2c-0.1,0.2-0.3,0.4-0.5,0.6
								c-0.2,0.3-0.5,0.6-0.8,1c-0.3,0.4-0.6,0.8-1.1,1.3c-1.7,1.9-4.5,4.4-8.5,6.5c-2,1.1-4.4,2-7,2.7c-0.7,0.1-1.3,0.3-2,0.4
								c-0.3,0.1-0.7,0.2-1,0.2c-0.4,0-0.7,0.1-1.1,0.1c-0.7,0.1-1.4,0.2-2.2,0.2c-0.7,0-1.5,0-2.2,0c-3-0.1-6.2-0.5-9.3-1.6
								c-3.1-1.1-6.2-2.6-9-4.6c-2.8-2.1-5.2-4.6-7.1-7.2c-1.9-2.7-3.3-5.6-4.3-8.4c-0.2-0.7-0.4-1.4-0.6-2.1
								c-0.2-0.7-0.3-1.4-0.5-2.1c-0.1-0.4-0.1-0.7-0.2-1c-0.1-0.3-0.1-0.7-0.1-1c-0.1-0.7-0.1-1.4-0.2-2c-0.1-2.7,0-5.2,0.5-7.4
								c0.8-4.5,2.4-7.9,3.7-10.1c0.3-0.6,0.6-1,0.9-1.4c0.3-0.4,0.5-0.7,0.7-1c0.2-0.3,0.3-0.5,0.4-0.6
								C582.7,186.2,582.8,186.2,582.8,186.2z"/>
						</g>
					</g>
				</g>
			</g>
			
				<text id="XMLID_80_" transform="matrix(0.8723 0.4889 -0.4889 0.8723 587.4423 207.6477)" fill="#05685A" font-family="'MyriadPro-Regular'" font-size="40px">Rs</text>
		</g>
		<g id="XMLID_306_">
			<g id="XMLID_319_">
				<g id="XMLID_320_">
					<g id="XMLID_321_">
						
							<ellipse id="XMLID_322_" transform="matrix(0.8045 0.5939 -0.5939 0.8045 300.0811 -283.2667)" fill="#04A08D" cx="580.3" cy="314.2" rx="22.9" ry="22.9"/>
					</g>
				</g>
			</g>
			<g id="XMLID_314_">
				<g id="XMLID_315_">
					<g id="XMLID_316_">
						<g id="XMLID_317_" opacity="0.3">
							<path id="XMLID_318_" fill="#05685A" d="M594.7,324.1c-0.1-0.1,0.3-0.7,0.9-2c0.6-1.2,1.3-3.1,1.6-5.5c0.1-1.2,0.2-2.5,0-3.9
								c-0.2-1.4-0.5-2.9-1.1-4.4c-0.3-0.7-0.6-1.5-1-2.2c-0.4-0.7-0.9-1.4-1.4-2.1c-0.5-0.7-1.1-1.3-1.7-1.9
								c-0.6-0.6-1.3-1.2-2.1-1.7c-0.8-0.5-1.5-1-2.3-1.4c-0.8-0.4-1.6-0.7-2.4-0.9c-0.8-0.3-1.7-0.4-2.5-0.6
								c-0.8-0.1-1.6-0.2-2.4-0.2c-1.6,0-3.1,0.2-4.5,0.6c-1.4,0.4-2.6,0.9-3.7,1.4c-2.1,1.1-3.6,2.4-4.6,3.4c-1,1-1.4,1.6-1.5,1.5
								c-0.1,0,0.3-0.8,1.1-1.9c0.9-1.1,2.3-2.6,4.5-3.9c1.1-0.6,2.4-1.2,3.8-1.7c1.4-0.4,3-0.7,4.7-0.7c0.8,0,1.7,0,2.6,0.1
								c0.9,0.1,1.8,0.3,2.7,0.6c0.9,0.3,1.8,0.6,2.6,1c0.9,0.4,1.7,0.9,2.5,1.5c0.8,0.6,1.6,1.2,2.3,1.8c0.7,0.7,1.3,1.4,1.9,2.1
								c0.6,0.7,1,1.5,1.5,2.3c0.4,0.8,0.8,1.6,1.1,2.4c0.6,1.6,0.9,3.2,1,4.7c0.1,1.5,0,2.9-0.2,4.2c-0.4,2.5-1.3,4.4-2,5.6
								C595.3,323.6,594.8,324.2,594.7,324.1z"/>
						</g>
					</g>
				</g>
			</g>
			<g id="XMLID_309_">
				<g id="XMLID_310_">
					<g id="XMLID_311_">
						<g id="XMLID_312_">
							<path id="XMLID_313_" fill="#05685A" d="M566.3,303.9c0,0,0,0-0.1,0.1c-0.1,0.1-0.1,0.2-0.2,0.4c-0.1,0.2-0.2,0.3-0.4,0.6
								c-0.1,0.2-0.3,0.5-0.5,0.8c-0.7,1.2-1.5,3.1-1.9,5.5c-0.2,1.2-0.3,2.6-0.2,4c0,0.4,0.1,0.7,0.1,1.1c0,0.2,0,0.4,0.1,0.6
								c0,0.2,0.1,0.4,0.1,0.6c0.1,0.4,0.1,0.8,0.3,1.1c0.1,0.4,0.2,0.8,0.4,1.2c0.6,1.5,1.3,3.1,2.3,4.5c1,1.4,2.3,2.7,3.8,3.9
								c1.5,1.1,3.2,1.9,4.9,2.5c1.7,0.6,3.4,0.8,5,0.9c0.4,0,0.8,0,1.2,0c0.4,0,0.8-0.1,1.2-0.1c0.2,0,0.4,0,0.6-0.1
								c0.2,0,0.4-0.1,0.6-0.1c0.4-0.1,0.7-0.1,1.1-0.2c1.4-0.4,2.7-0.8,3.8-1.4c2.2-1.1,3.7-2.5,4.7-3.5c0.3-0.2,0.4-0.5,0.6-0.7
								c0.2-0.2,0.3-0.4,0.4-0.5c0.1-0.1,0.2-0.2,0.3-0.3c0.1-0.1,0.1-0.1,0.1-0.1c0,0,0,0-0.1,0.1c-0.1,0.1-0.1,0.2-0.3,0.3
								c-0.1,0.1-0.3,0.3-0.4,0.5c-0.2,0.2-0.3,0.5-0.6,0.7c-0.9,1-2.5,2.4-4.7,3.6c-1.1,0.6-2.4,1.1-3.8,1.5
								c-0.4,0.1-0.7,0.1-1.1,0.2c-0.2,0-0.4,0.1-0.6,0.1c-0.2,0-0.4,0-0.6,0.1c-0.4,0-0.8,0.1-1.2,0.1c-0.4,0-0.8,0-1.2,0
								c-1.6-0.1-3.4-0.3-5.1-0.9c-1.7-0.6-3.4-1.4-4.9-2.5c-1.5-1.1-2.8-2.5-3.9-3.9c-1.1-1.5-1.8-3-2.3-4.6
								c-0.1-0.4-0.2-0.8-0.4-1.2c-0.1-0.4-0.2-0.8-0.2-1.2c0-0.2-0.1-0.4-0.1-0.6c0-0.2,0-0.4-0.1-0.6c0-0.4-0.1-0.7-0.1-1.1
								c0-1.5,0-2.8,0.3-4.1c0.5-2.5,1.3-4.3,2-5.5c0.2-0.3,0.3-0.6,0.5-0.8c0.1-0.2,0.3-0.4,0.4-0.6c0.1-0.1,0.2-0.2,0.2-0.3
								C566.2,303.9,566.3,303.9,566.3,303.9z"/>
						</g>
					</g>
				</g>
			</g>
			
				<text id="XMLID_308_" transform="matrix(0.8723 0.4889 -0.4889 0.8723 568.7939 315.6075)" fill="#05685A" font-family="'MyriadPro-Regular'" font-size="21.8433px">Rs</text>
		</g>
		
			<text id="XMLID_92_" transform="matrix(0.9639 -0.2661 0.2661 0.9639 155.2489 411.3643)" fill="#E0E0E0" font-family="'MyriadPro-Regular'" font-size="27.7111px">Rs</text>
		<g id="XMLID_355_">
			<path id="XMLID_356_" fill="#263238" d="M708.5,448.2c0,0.1-149.3,0.3-333.5,0.3c-184.2,0-333.5-0.1-333.5-0.3
				s149.3-0.3,333.5-0.3C559.2,447.9,708.5,448.1,708.5,448.2z"/>
		</g>
		<g id="XMLID_358_">
			<g id="XMLID_359_">
				<g id="XMLID_360_">
					<g id="XMLID_361_">
						<path fill="#FFBE9D" d="M553,260.3c0,0-0.1-6.7-0.4-6.7l-13.7,3c-0.1,0.9-1.9,11.8-1.6,12.8l15.4,4.3
							C552.8,273.8,553,260.7,553,260.3z"/>
					</g>
				</g>
				<g id="XMLID_362_">
					<g id="XMLID_363_">
						<g id="XMLID_364_">
							<g id="XMLID_365_">
								<g id="XMLID_366_">
									<g id="XMLID_367_">
										<g id="XMLID_368_">
											<path fill="#FFBE9D" d="M553,272.8c0,0,0-0.1,0.1-0.3c0.2-1.5,0.1-8-0.7-8.3c-0.9-0.3-3.1,0.2-3.3,1.1
												c-0.2,0.9,0.4,8.2,0.4,8.2s0.2,1.2,2.1,1.4C552.7,275,553,272.8,553,272.8z"/>
										</g>
									</g>
								</g>
								<g id="XMLID_369_">
									<g id="XMLID_370_">
										<g id="XMLID_371_">
											<path fill="#FFBE9D" d="M549.1,275.1c0,0,0-0.1,0.1-0.3c0.2-1.5,0.1-8-0.7-8.3c-0.9-0.3-3.1,0.2-3.3,1.1
												c-0.2,0.9,0.4,8.2,0.4,8.2s0.2,1.2,2.1,1.4C548.8,277.4,549.1,275.1,549.1,275.1z"/>
										</g>
									</g>
								</g>
								<g id="XMLID_372_">
									<g id="XMLID_373_">
										<g id="XMLID_374_">
											<path fill="#FFBE9D" d="M545.3,276.3c0,0,0-0.1,0.1-0.3c0.2-1.5,0.1-8-0.7-8.3c-0.9-0.3-3.1,0.2-3.3,1.1
												c-0.2,0.9,0.4,8.2,0.4,8.2s0.2,1.2,2.1,1.4C545,278.5,545.3,276.3,545.3,276.3z"/>
										</g>
									</g>
								</g>
								<g id="XMLID_375_">
									<g id="XMLID_376_">
										<g id="XMLID_377_">
											<path fill="#FFBE9D" d="M541.5,277.4c0,0,0-0.1,0.1-0.3c0.2-1.5,0.1-8-0.7-8.3c-0.9-0.3-3.1,0.2-3.3,1.1
												c-0.2,0.9,0.4,8.2,0.4,8.2s0.2,1.2,2.1,1.4C541.2,279.6,541.5,277.4,541.5,277.4z"/>
										</g>
									</g>
								</g>
								<g id="XMLID_378_">
									<g id="XMLID_379_">
										<g id="XMLID_380_">
											<g id="XMLID_381_">
												<path fill="#EB996E" d="M549.1,267.2c0.1,0,0.2,1.4,0.3,3.2c0.1,1.7,0,3.1-0.1,3.1c-0.1,0-0.2-1.4-0.3-3.2
													C548.9,268.6,548.9,267.2,549.1,267.2z"/>
											</g>
										</g>
									</g>
								</g>
								<g id="XMLID_382_">
									<g id="XMLID_383_">
										<g id="XMLID_384_">
											<g id="XMLID_385_">
												
													<ellipse transform="matrix(-3.544825e-002 -0.9994 0.9994 -3.544825e-002 293.2392 826.3189)" fill="#EB996E" cx="545.4" cy="271.6" rx="4.5" ry="0.2"/>
											</g>
										</g>
									</g>
								</g>
								<g id="XMLID_386_" opacity="0.78">
									<g id="XMLID_387_">
										<g id="XMLID_388_">
											<g id="XMLID_389_">
												
													<ellipse transform="matrix(-3.546023e-002 -0.9994 0.9994 -3.546023e-002 288.8898 822.7626)" fill="#EB996E" cx="541.5" cy="272" rx="4.5" ry="0.2"/>
											</g>
										</g>
									</g>
								</g>
							</g>
						</g>
						<g id="XMLID_390_">
							<g id="XMLID_391_">
								<path fill="#FFBE9D" d="M538.9,257c0,0-5.4,12.3-4.6,13.1c0.8,0.8,3.3,1.9,3.3,1.9L538.9,257z"/>
							</g>
						</g>
					</g>
				</g>
			</g>
		</g>
		<g>
			<g id="XMLID_393_">
				<g id="XMLID_394_">
					<g id="XMLID_395_">
						<g id="XMLID_396_">
							<g id="XMLID_397_">
								<g id="XMLID_398_">
									<g id="XMLID_399_">
										<g id="XMLID_400_">
											<g id="XMLID_401_">
												<g id="XMLID_402_">
													<g id="XMLID_403_">
														<g id="XMLID_404_">
															<g id="XMLID_405_">
																<g id="XMLID_406_">
																	<g id="XMLID_407_">
																		<g id="XMLID_408_">
																			<path fill="#FFBE9D" d="M508.9,92.1l-4,46l-23-1.8c-0.1-2.7,0-13.1,0-13.1s-9.6-1.5-9.7-11.1
																				c-0.1-4.7,0.6-14.3,1.3-22.9c0.8-9.6,9.1-16.8,18.7-16.3h0C502.3,73.4,509.8,82.1,508.9,92.1z"/>
																		</g>
																	</g>
																</g>
															</g>
														</g>
													</g>
												</g>
											</g>
										</g>
									</g>
								</g>
							</g>
							<g id="XMLID_409_">
								<g id="XMLID_410_">
									<g id="XMLID_411_">
										<g id="XMLID_412_">
											<g id="XMLID_413_">
												<g id="XMLID_414_">
													<g id="XMLID_415_">
														<g id="XMLID_416_">
															<g id="XMLID_417_">
																<g id="XMLID_418_">
																	<g id="XMLID_419_">
																		<g id="XMLID_420_">
																			<path fill="#EB996E" d="M482,123c0,0,6.1,0.5,12.5-3.6c0,0-3,6.9-12.5,6L482,123z"/>
																		</g>
																	</g>
																</g>
															</g>
														</g>
													</g>
												</g>
											</g>
										</g>
									</g>
								</g>
							</g>
						</g>
					</g>
				</g>
				<g id="XMLID_421_">
					<g id="XMLID_422_">
						<g id="XMLID_423_">
							<g id="XMLID_424_">
								<g id="XMLID_425_">
									<g id="XMLID_426_">
										<g id="XMLID_427_">
											<g id="XMLID_428_">
												<g id="XMLID_429_">
													<g id="XMLID_430_">
														<g id="XMLID_431_">
															<g id="XMLID_432_">
																<g id="XMLID_433_">
																	<g id="XMLID_434_">
																		<g id="XMLID_435_">
																			<g id="XMLID_436_">
																				<g id="XMLID_437_">
																					<g id="XMLID_438_">
																						<path fill="#263238" d="M476.2,95.8c0,0.7,0.6,1.3,1.3,1.4c0.8,0,1.4-0.5,1.4-1.2c0-0.7-0.6-1.3-1.3-1.4
																							C476.8,94.6,476.2,95.1,476.2,95.8z"/>
																					</g>
																				</g>
																			</g>
																		</g>
																	</g>
																</g>
															</g>
														</g>
													</g>
												</g>
											</g>
										</g>
										<g id="XMLID_439_">
											<g id="XMLID_440_">
												<g id="XMLID_441_">
													<g id="XMLID_442_">
														<g id="XMLID_443_">
															<g id="XMLID_444_">
																<g id="XMLID_445_">
																	<g id="XMLID_446_">
																		<g id="XMLID_447_">
																			<g id="XMLID_448_">
																				<g id="XMLID_449_">
																					<g id="XMLID_450_">
																						<g id="XMLID_451_">
																							<path fill="#263238" d="M475.6,94c0.2,0.2,1.2-0.6,2.7-0.6c1.5,0,2.6,0.7,2.7,0.6c0.1-0.1-0.1-0.4-0.6-0.7
																								c-0.5-0.3-1.3-0.7-2.2-0.7c-0.9,0-1.7,0.3-2.1,0.7C475.7,93.6,475.6,93.9,475.6,94z"/>
																						</g>
																					</g>
																				</g>
																			</g>
																		</g>
																	</g>
																</g>
															</g>
														</g>
													</g>
												</g>
											</g>
										</g>
									</g>
									<g id="XMLID_452_">
										<g id="XMLID_453_">
											<g id="XMLID_454_">
												<g id="XMLID_455_">
													<g id="XMLID_456_">
														<g id="XMLID_457_">
															<g id="XMLID_458_">
																<g id="XMLID_459_">
																	<g id="XMLID_460_">
																		<g id="XMLID_461_">
																			<g id="XMLID_462_">
																				<g id="XMLID_463_">
																					<g id="XMLID_464_">
																						<path fill="#263238" d="M490.7,95.8c0,0.7,0.6,1.3,1.3,1.4c0.8,0,1.4-0.5,1.4-1.2c0-0.7-0.6-1.3-1.3-1.4
																							C491.3,94.6,490.7,95.1,490.7,95.8z"/>
																					</g>
																				</g>
																			</g>
																		</g>
																	</g>
																</g>
															</g>
														</g>
													</g>
												</g>
											</g>
										</g>
										<g id="XMLID_465_">
											<g id="XMLID_466_">
												<g id="XMLID_467_">
													<g id="XMLID_468_">
														<g id="XMLID_469_">
															<g id="XMLID_470_">
																<g id="XMLID_471_">
																	<g id="XMLID_472_">
																		<g id="XMLID_473_">
																			<g id="XMLID_474_">
																				<g id="XMLID_475_">
																					<g id="XMLID_476_">
																						<g id="XMLID_477_">
																							<path fill="#263238" d="M490.1,94.2c0.2,0.2,1.2-0.6,2.7-0.6c1.5,0,2.6,0.7,2.7,0.6c0.1-0.1-0.1-0.4-0.6-0.7
																								c-0.5-0.3-1.3-0.7-2.2-0.7c-0.9,0-1.7,0.3-2.1,0.7C490.2,93.8,490,94.2,490.1,94.2z"/>
																						</g>
																					</g>
																				</g>
																			</g>
																		</g>
																	</g>
																</g>
															</g>
														</g>
													</g>
												</g>
											</g>
										</g>
									</g>
									<g id="XMLID_478_">
										<g id="XMLID_479_">
											<g id="XMLID_480_">
												<g id="XMLID_481_">
													<g id="XMLID_482_">
														<g id="XMLID_483_">
															<g id="XMLID_484_">
																<g id="XMLID_485_">
																	<g id="XMLID_486_">
																		<g id="XMLID_487_">
																			<g id="XMLID_488_">
																				<g id="XMLID_489_">
																					<g id="XMLID_490_">
																						<path fill="#263238" d="M484.8,105.2c0-0.1-0.9-0.2-2.4-0.4c-0.4,0-0.7-0.1-0.8-0.4c-0.1-0.3,0.1-0.7,0.3-1.1
																							c0.4-0.9,0.7-1.9,1.1-2.9c1.5-4.1,2.7-7.4,2.5-7.5c-0.2-0.1-1.6,3.2-3.1,7.3c-0.4,1-0.7,2-1.1,2.9
																							c-0.1,0.4-0.4,0.9-0.2,1.5c0.1,0.3,0.4,0.5,0.6,0.5c0.2,0.1,0.5,0.1,0.6,0.1
																							C483.8,105.2,484.8,105.2,484.8,105.2z"/>
																					</g>
																				</g>
																			</g>
																		</g>
																	</g>
																</g>
															</g>
														</g>
													</g>
												</g>
											</g>
										</g>
									</g>
									<g id="XMLID_491_">
										<g id="XMLID_492_">
											<g id="XMLID_493_">
												<g id="XMLID_494_">
													<g id="XMLID_495_">
														<g id="XMLID_496_">
															<g id="XMLID_497_">
																<g id="XMLID_498_">
																	<g id="XMLID_499_">
																		<g id="XMLID_500_">
																			<g id="XMLID_501_">
																				<g id="XMLID_502_">
																					<g id="XMLID_503_">
																						<path fill="#263238" d="M489.1,106.2c-0.2,0-0.2,1.6-1.6,2.7c-1.4,1.1-3.1,1-3.1,1.2c0,0.1,0.4,0.3,1.1,0.3
																							c0.7,0,1.7-0.2,2.6-0.9c0.8-0.7,1.2-1.6,1.2-2.3C489.4,106.6,489.2,106.2,489.1,106.2z"/>
																					</g>
																				</g>
																			</g>
																		</g>
																	</g>
																</g>
															</g>
														</g>
													</g>
												</g>
											</g>
										</g>
									</g>
								</g>
							</g>
						</g>
						<g id="XMLID_504_">
							<g id="XMLID_505_">
								<g id="XMLID_506_">
									<g id="XMLID_507_">
										<g id="XMLID_508_">
											<g id="XMLID_509_">
												<g id="XMLID_510_">
													<g id="XMLID_511_">
														<g id="XMLID_512_">
															<g id="XMLID_513_">
																<g id="XMLID_514_">
																	<g id="XMLID_515_">
																		<path fill="#263238" d="M489.7,88.5c0.1,0.4,1.6,0.2,3.3,0.4c1.7,0.2,3.1,0.7,3.4,0.3c0.1-0.2-0.1-0.5-0.7-0.9
																			c-0.6-0.4-1.4-0.8-2.5-0.9c-1-0.1-2,0.1-2.6,0.3C490,88,489.7,88.3,489.7,88.5z"/>
																	</g>
																</g>
															</g>
														</g>
													</g>
												</g>
											</g>
										</g>
									</g>
								</g>
							</g>
						</g>
						<g id="XMLID_516_">
							<g id="XMLID_517_">
								<g id="XMLID_518_">
									<g id="XMLID_519_">
										<g id="XMLID_520_">
											<g id="XMLID_521_">
												<g id="XMLID_522_">
													<g id="XMLID_523_">
														<g id="XMLID_524_">
															<g id="XMLID_525_">
																<g id="XMLID_526_">
																	<g id="XMLID_527_">
																		<path fill="#263238" d="M476.2,89.7c0.3,0.3,1.3,0,2.5,0c1.2-0.1,2.3,0.2,2.5-0.1c0.1-0.2-0.1-0.5-0.5-0.8
																			c-0.4-0.3-1.2-0.6-2-0.5c-0.8,0-1.6,0.3-2,0.7C476.2,89.2,476.1,89.5,476.2,89.7z"/>
																	</g>
																</g>
															</g>
														</g>
													</g>
												</g>
											</g>
										</g>
									</g>
								</g>
							</g>
						</g>
					</g>
				</g>
			</g>
			<g id="XMLID_528_">
				<g id="XMLID_529_">
					<g id="XMLID_530_">
						<path fill="#263238" d="M511,86.2c-0.5,4.7-1.8,10.5-2.2,15.3c0,0.4-0.1,0.9-0.3,1.3c-0.7,0.9-2.3,2.9-3.1,2.1
							c-2-1.9-2.8-7.1-3.2-9.9c-0.4-2.7-0.3-5.5-0.7-8.2c0-0.1,0-0.1,0-0.2c-0.3-1.9-1.3-3.7-2.8-4.9c-0.4-0.2-0.7-0.5-1.1-0.6
							c-2.8-1-7.5,0.8-10.3,1.9c-1.4,0.5-2.8,1.2-4.3,1.8c-3.2,1.5-7,1.2-9.9-0.8c-1.7-1.2-1.9-5.1-1.1-7.6c2-6.7,10.4-9,21.2-6.4
							C503.8,72.4,512.1,76.6,511,86.2z"/>
					</g>
				</g>
			</g>
			<g id="XMLID_531_">
				<g id="XMLID_532_">
					<g id="XMLID_533_">
						<g id="XMLID_534_">
							<g id="XMLID_535_">
								<g id="XMLID_536_">
									<g id="XMLID_537_">
										<g id="XMLID_538_">
											<g id="XMLID_539_">
												<g id="XMLID_540_">
													<g id="XMLID_541_">
														<g id="XMLID_542_">
															<g id="XMLID_543_">
																<path fill="#FFBE9D" d="M505.7,96.4c0.2-0.1,6.6-1.9,6.4,4.6c-0.2,6.6-6.7,5-6.7,4.8
																	C505.3,105.6,505.7,96.4,505.7,96.4z"/>
															</g>
														</g>
													</g>
												</g>
											</g>
										</g>
									</g>
								</g>
							</g>
						</g>
					</g>
				</g>
				<g id="XMLID_544_">
					<g id="XMLID_545_">
						<g id="XMLID_546_">
							<g id="XMLID_547_">
								<g id="XMLID_548_">
									<g id="XMLID_549_">
										<g id="XMLID_550_">
											<g id="XMLID_551_">
												<g id="XMLID_552_">
													<g id="XMLID_553_">
														<g id="XMLID_554_">
															<g id="XMLID_555_">
																<g id="XMLID_556_">
																	<path fill="#EB996E" d="M507.4,103.4c0,0,0.1,0.1,0.3,0.2c0.2,0.1,0.5,0.2,0.9,0c0.7-0.2,1.3-1.3,1.4-2.5
																		c0-0.6-0.1-1.2-0.3-1.6c-0.2-0.5-0.5-0.8-0.8-0.9c-0.3-0.1-0.6,0.1-0.7,0.3c-0.1,0.2-0.1,0.3-0.1,0.3
																		c0,0-0.1-0.1-0.1-0.4c0-0.1,0.1-0.3,0.3-0.4c0.2-0.1,0.4-0.2,0.6-0.1c0.5,0.1,0.9,0.5,1.2,1.1
																		c0.2,0.5,0.4,1.2,0.3,1.8c-0.1,1.3-0.8,2.5-1.8,2.8c-0.5,0.1-0.8,0-1-0.2C507.4,103.6,507.4,103.4,507.4,103.4z"/>
																</g>
															</g>
														</g>
													</g>
												</g>
											</g>
										</g>
									</g>
								</g>
							</g>
						</g>
					</g>
				</g>
			</g>
			<g id="XMLID_557_">
				<g id="XMLID_558_">
					<path id="XMLID_559_" fill="#455A64" d="M510.9,86.6c0.1,0.1-1.9,1.2-4.7,1.2c-2.8,0.1-4.8-1-4.7-1.1c0.1-0.2,2.1,0.6,4.7,0.6
						C508.8,87.3,510.8,86.5,510.9,86.6z"/>
				</g>
			</g>
			<g id="XMLID_560_">
				<g id="XMLID_561_">
					<path id="XMLID_562_" fill="#455A64" d="M510.7,88.5c0.1,0.1-1.8,1.2-4.5,1.2c-2.7,0.1-4.6-1-4.5-1.1c0.1-0.2,2,0.6,4.5,0.6
						C508.7,89.2,510.6,88.3,510.7,88.5z"/>
				</g>
			</g>
		</g>
		<g id="XMLID_564_">
			<g id="XMLID_565_">
				<g id="XMLID_566_">
					<g id="XMLID_567_">
						<g id="XMLID_568_">
							<g id="XMLID_569_">
								<path fill="#263238" d="M465.1,414.9l4.3,19.6c0,0-18.5,10.9-18.1,14.6l38.3-6.9l-5.4-30.8L465.1,414.9z"/>
							</g>
						</g>
					</g>
				</g>
			</g>
		</g>
		<g id="XMLID_570_">
			<g id="XMLID_571_">
				<g id="XMLID_572_">
					<g id="XMLID_573_">
						<g id="XMLID_574_">
							<g id="XMLID_575_">
								<path fill="#04A08D" d="M489.6,442.2l-0.7-3.1l-36.5,7.8c0,0-1.6,1-1.2,2.2L489.6,442.2z"/>
							</g>
						</g>
					</g>
				</g>
			</g>
		</g>
		<g id="XMLID_578_">
			<g id="XMLID_579_">
				<g id="XMLID_580_">
					<g id="XMLID_581_">
						<g id="XMLID_582_">
							<g id="XMLID_583_">
								<path fill="#263238" d="M508.6,417l0.6,20c0,0-20.2,7.4-20.4,11.1l38.9,0.2l0.3-31.3L508.6,417z"/>
							</g>
						</g>
					</g>
				</g>
			</g>
		</g>
		<g id="XMLID_584_">
			<g id="XMLID_585_">
				<g id="XMLID_586_">
					<g id="XMLID_587_">
						<g id="XMLID_588_">
							<g id="XMLID_589_">
								<path fill="#04A08D" d="M527.8,448.3l-0.1-3.2l-37.3,1c0,0-1.7,0.7-1.5,2L527.8,448.3z"/>
							</g>
						</g>
					</g>
				</g>
			</g>
		</g>
		<g>
			<g id="XMLID_591_">
				<g id="XMLID_592_">
					<g id="XMLID_593_">
						<path fill="#263238" d="M463,431.7c0,0-20-97.9-20-99.8l35.6-18.8l13.8,114.9L463,431.7z"/>
					</g>
				</g>
			</g>
			<g id="XMLID_594_">
				<g id="XMLID_595_">
					<g id="XMLID_596_">
						<path fill="#263238" d="M507.9,434.9l-27.6-169.6v-36.6l37.6,3.5c0.5,1.4,12.8,202.9,12.8,202.9l-3.9-0.2H507.9"/>
					</g>
				</g>
			</g>
			<g id="XMLID_597_">
				<g id="XMLID_598_">
					<g id="XMLID_599_">
						<polygon fill="#263238" points="458.6,226.2 443,331.8 477.9,323.4 492.2,229.6 						"/>
					</g>
				</g>
			</g>
			<g id="XMLID_600_">
				<g id="XMLID_601_">
					<g id="XMLID_602_">
						<g id="XMLID_603_">
							<path fill="#455A64" d="M491,235.1c0,0,0,0.2,0,0.5c0,0.4,0.1,0.9,0.2,1.5c0.2,1.4,0.4,3.3,0.7,5.8
								c0.6,5.1,1.5,12.4,2.7,21.4c2.3,18.1,5.9,43,9.7,70.5c1.9,13.8,3.6,26.9,5.1,38.8c0.4,3,0.7,5.9,1.1,8.7
								c0.4,2.8,0.9,5.6,1.3,8.2c0.8,5.3,1.5,10.2,2.2,14.7c1.4,9,2.4,16.3,3.1,21.3c0.4,2.5,0.6,4.5,0.8,5.8
								c0.1,0.7,0.1,1.2,0.2,1.5c0,0.2,0,0.3,0,0.4c0,0.1-0.1,0-0.1,0c0,0,0,0,0,0c0,0,0.1,0,0.1,0c0-0.1,0-0.2,0-0.4
								c0-0.3,0-0.9-0.1-1.5c-0.1-1.3-0.4-3.3-0.7-5.8c-0.6-5.1-1.7-12.3-3-21.4c-0.7-4.5-1.4-9.4-2.2-14.7
								c-0.4-2.6-0.8-5.4-1.2-8.2c-0.4-2.8-0.7-5.7-1.1-8.7c-1.5-11.9-3.2-25.1-5.1-38.8c-3.8-27.5-7.4-52.4-9.8-70.4
								c-1.2-9-2.2-16.3-2.8-21.4c-0.3-2.5-0.6-4.5-0.8-5.8c-0.1-0.7-0.2-1.2-0.2-1.5C491,235.3,491,235.1,491,235.1z"/>
						</g>
					</g>
				</g>
			</g>
			<g id="XMLID_604_">
				<g id="XMLID_605_">
					<g id="XMLID_606_">
						<g id="XMLID_607_">
							<path fill="#455A64" d="M469.9,430.8c0,0,0-0.2-0.1-0.5c-0.1-0.3-0.1-0.8-0.2-1.5c-0.2-1.3-0.5-3.2-1-5.6
								c-0.9-4.9-2.1-12-3.6-20.7c-3.1-17.5-7.4-41.6-12.1-68.2c-0.3-1.6-0.5-3.3-0.3-4.9c0.2-1.6,0.5-3.3,0.7-4.9
								c0.5-3.3,1-6.5,1.5-9.6c1-6.3,2-12.4,2.9-18.2c1.9-11.6,3.8-22,5.4-30.7c1.7-8.7,3.1-15.7,4.2-20.6c0.5-2.4,1-4.3,1.3-5.6
								c0.1-0.6,0.3-1.1,0.3-1.4c0.1-0.3,0.1-0.5,0.1-0.5s-0.1,0.2-0.1,0.5c-0.1,0.3-0.2,0.8-0.4,1.4c-0.3,1.3-0.8,3.1-1.4,5.5
								c-1.2,4.8-2.7,11.8-4.4,20.5c-1.7,8.7-3.6,19.1-5.5,30.7c-1,5.8-2,11.9-3,18.2c-0.5,3.2-1,6.4-1.5,9.6
								c-0.2,1.6-0.5,3.3-0.7,4.9c-0.2,1.7-0.1,3.4,0.3,5.1c4.8,26.6,9.1,50.7,12.3,68.2c1.6,8.7,2.9,15.8,3.8,20.7
								c0.5,2.4,0.8,4.3,1.1,5.6c0.1,0.6,0.2,1.1,0.3,1.5C469.9,430.6,469.9,430.8,469.9,430.8z"/>
						</g>
					</g>
				</g>
			</g>
			<g id="XMLID_608_">
				<g id="XMLID_609_">
					<g id="XMLID_610_">
						<g id="XMLID_611_">
							
								<ellipse transform="matrix(-0.1565 -0.9877 0.9877 -0.1565 274.9602 811.9456)" fill="#455A64" cx="484.2" cy="288.6" rx="24.7" ry="0.2"/>
						</g>
					</g>
				</g>
			</g>
			<g id="XMLID_612_">
				<g id="XMLID_613_">
					<g id="XMLID_614_">
						<g id="XMLID_615_">
							<path fill="#455A64" d="M507.5,434.6c0,0,0.3,0.1,0.9,0.2c0.6,0.1,1.4,0.2,2.5,0.2c2.1,0.2,5,0.3,8.2,0.4
								c3.2,0.1,6.1,0,8.2-0.1c1,0,1.9-0.1,2.5-0.2c0.6-0.1,0.9-0.1,0.9-0.1c0-0.1-1.3-0.1-3.4-0.1c-2.1,0-5,0-8.2,0
								c-3.2-0.1-6.1-0.2-8.2-0.2C508.8,434.6,507.5,434.6,507.5,434.6z"/>
						</g>
					</g>
				</g>
			</g>
			<g id="XMLID_616_">
				<g id="XMLID_617_">
					<g id="XMLID_618_">
						<g id="XMLID_619_">
							<path fill="#455A64" d="M463,431.7c0,0,0.4,0,1.2-0.1c0.8-0.1,1.9-0.2,3.2-0.3c2.7-0.3,6.4-0.8,10.4-1.3
								c4.1-0.5,7.7-1,10.4-1.4c1.3-0.2,2.3-0.4,3.1-0.5c0.7-0.1,1.2-0.2,1.1-0.2c0,0-0.4,0-1.2,0c-0.7,0.1-1.8,0.2-3.2,0.3
								c-2.7,0.3-6.4,0.8-10.4,1.3c-4.1,0.5-7.7,1-10.4,1.4c-1.3,0.2-2.3,0.4-3.1,0.5C463.4,431.6,463,431.6,463,431.7z"/>
						</g>
					</g>
				</g>
			</g>
		</g>
		<g id="XMLID_621_">
			<g id="XMLID_622_">
				<path fill="#04A08D" d="M410.5,163.7l22.5,17.1c0,0,20.9-35.7,22.8-37.9c1.8-2.2,6.5-4.6,6.5-4.6l-2.6,45.7
					c0,0-11.3,28.9-26.8,27.3c-11.9-1.2-32.4-32.6-32.4-32.6L410.5,163.7z"/>
			</g>
		</g>
		<g id="XMLID_623_" opacity="0.2">
			<g id="XMLID_624_">
				<g id="XMLID_625_">
					<path d="M432.6,180.2c-3.1,4.8-4,11-2.3,16.4c0.2,0.6,0.4,1.1,0.9,1.4c0.8,0.4,1.8,0,2.3-0.8c0.5-0.7,0.5-1.7,0.6-2.5
						c0.4,0.8,0.9,1.7,1.7,2.2c0.8,0.5,1.9,0.6,2.5-0.1c0.7-0.8,0.3-2.1-0.1-3.1c-1.9-4.3-3.8-8.7-5.7-13"/>
				</g>
			</g>
		</g>
		<g id="XMLID_626_">
			<g id="XMLID_627_">
				<g id="XMLID_628_">
					
						<ellipse transform="matrix(0.5383 -0.8428 0.8428 0.5383 40.2775 428.0309)" fill="#263238" cx="410.8" cy="177.3" rx="10" ry="0.3"/>
				</g>
			</g>
		</g>
		<g id="XMLID_629_">
			<g id="XMLID_630_">
				<g id="XMLID_631_">
					<path fill="#263238" d="M410.5,168.2c-0.1-0.1,0.2-0.3,0.7-0.2c0.2,0.1,0.5,0.3,0.6,0.7c0.1,0.4-0.2,0.9-0.5,1
						c-0.4,0.2-0.9,0.2-1.2-0.1c-0.3-0.3-0.3-0.6-0.2-0.9C410,168.2,410.4,168.1,410.5,168.2c0,0.1-0.2,0.3-0.2,0.6
						c0,0.3,0.3,0.7,0.7,0.4c0.4-0.2,0.3-0.6,0-0.8C410.8,168.2,410.5,168.3,410.5,168.2z"/>
				</g>
			</g>
		</g>
		<g id="XMLID_632_">
			<g id="XMLID_633_">
				<g id="XMLID_634_">
					<path fill="#263238" d="M433,191.6c-0.1,0.1-1-2.3-1-5.4c-0.1-3.1,0.7-5.5,0.9-5.4c0.2,0-0.3,2.4-0.2,5.4
						C432.7,189.2,433.2,191.6,433,191.6z"/>
				</g>
			</g>
		</g>
		<g id="XMLID_635_">
			<g id="XMLID_636_">
				<g id="XMLID_637_">
					<path fill="#263238" d="M437.4,191.4c-0.1,0.1-1.6-2.1-2.9-5.1c-1.3-3-1.8-5.5-1.7-5.6c0.2,0,1,2.4,2.3,5.3
						C436.3,189.1,437.5,191.4,437.4,191.4z"/>
				</g>
			</g>
		</g>
		<g id="XMLID_639_">
			<g id="XMLID_640_">
				<path fill="#04A08D" d="M509.3,134l-3.4-6.7h-24.6l-3.9,7.6l-15.2,3.4l-6.5,97.9c0,1.2,0.3,2.5,0.9,3.6l0,0l59.7,2.3l2.4,1
					c2.1-1.3,0.8-6.8,0.8-9.3l0.8-48.5l11.8-38.7L509.3,134z"/>
			</g>
		</g>
		<g id="XMLID_641_" opacity="0.2">
			<g id="XMLID_642_">
				<g id="XMLID_643_">
					<path d="M483.8,137.4c1.4-1.4,2.9-2.9,4.3-4.3c1.6,3.9,3.3,7.8,4.9,11.8c5.6-3.3,11-7,16-11.2c-5.5,1.8-11,3.5-16.5,5.3
						c-1.4-3.7-2.8-7.4-4.2-11.1c-1,3.4-2.4,6.6-4.2,9.6"/>
				</g>
			</g>
		</g>
		<g id="XMLID_644_">
			<g id="XMLID_645_">
				<g id="XMLID_646_">
					<path fill="#04A08D" d="M553.1,256.7l-16.1,0.8l0-46.2l-16.6-26.2l11.8-38.7c2.4,1,20.8,47,25.4,59.5c0.7,1.8,1,3.7,0.9,5.6
						L553.1,256.7z"/>
				</g>
			</g>
		</g>
		<g id="XMLID_647_">
			<g id="XMLID_648_">
				<g id="XMLID_649_">
					
						<ellipse transform="matrix(9.829615e-002 -0.9952 0.9952 9.829615e-002 236.2257 619.9596)" fill="#263238" cx="460.2" cy="179.6" rx="21.2" ry="0.3"/>
				</g>
			</g>
		</g>
		<g id="XMLID_650_">
			<g id="XMLID_651_">
				<g id="XMLID_652_">
					<path fill="#263238" d="M488.3,127.8c0.2,0.1-1.2,3.6-2.9,7.9c-0.1,0.3-0.2,0.5-0.3,0.8c-0.1,0.3-0.2,0.6-0.5,0.8
						c-0.3,0.3-0.8,0.2-1.1,0.1c-0.3-0.1-0.5-0.3-0.7-0.4c-0.8-0.5-1.5-1-2.2-1.5c-1.2-0.9-2-1.4-2-1.5c0-0.1,0.9,0.4,2.2,1.1
						c0.7,0.4,1.5,0.9,2.3,1.4c0.4,0.3,0.9,0.6,1.1,0.4c0.3-0.2,0.4-0.9,0.7-1.4C486.6,131.2,488.2,127.7,488.3,127.8z"/>
				</g>
			</g>
		</g>
		<g id="XMLID_653_">
			<g id="XMLID_654_">
				<g id="XMLID_655_">
					<path fill="#263238" d="M507.9,133.8c0,0.1-1.4,0.7-3.8,1.5c-2.3,0.9-5.6,2-9.2,3.2c-0.7,0.2-1.3,0.5-2,0.7l-0.3,0.1l-0.1-0.3
						c-1.3-3.1-2.4-5.8-3.1-7.7c-0.8-2-1.2-3.2-1.1-3.2c0.1,0,0.6,1.1,1.5,3c0.9,1.9,2,4.6,3.3,7.7l-0.4-0.2c0.6-0.2,1.3-0.4,2-0.7
						c3.6-1.2,6.9-2.3,9.3-3.1C506.3,134.2,507.8,133.7,507.9,133.8z"/>
				</g>
			</g>
		</g>
		<g id="XMLID_656_">
			<g id="XMLID_657_">
				<g id="XMLID_658_">
					<path fill="#263238" d="M529.6,147.9c0,0.2-3.4,1.1-7.4,2.9c-4,1.8-7,3.7-7.1,3.6c0-0.1,0.7-0.6,1.9-1.4c1.2-0.8,3-1.8,5-2.7
						c2-0.9,3.9-1.5,5.4-1.9C528.7,147.9,529.6,147.8,529.6,147.9z"/>
				</g>
			</g>
		</g>
		<g id="XMLID_659_">
			<g id="XMLID_660_">
				<g id="XMLID_661_">
					<path fill="#263238" d="M488.3,127.8c0,0,0,0.1,0,0.3c0,0.2,0,0.5,0,0.9c0,0.8,0.1,1.9,0.1,3.3c0,2.9,0,7-0.2,12.2
						c-0.4,10.3-1.7,24.4-3.7,40c-1,7.8-2.1,15.2-2.8,21.9c-0.7,6.7-1.1,12.8-1,18c0.1,5.1,0.5,9.3,1,12.1c0.2,1.4,0.4,2.5,0.5,3.3
						c0.1,0.3,0.1,0.6,0.1,0.9c0,0.2,0,0.3,0,0.3c0,0,0-0.1-0.1-0.3c-0.1-0.2-0.1-0.5-0.2-0.8c-0.1-0.7-0.4-1.8-0.6-3.2
						c-0.5-2.8-1-7-1.2-12.1c-0.2-5.1,0.1-11.3,0.8-18c0.7-6.8,1.8-14.1,2.8-21.9c2-15.5,3.4-29.6,3.9-39.9
						c0.3-5.1,0.3-9.3,0.4-12.1c0-1.4,0-2.5,0-3.3c0-0.3,0-0.6,0-0.9C488.3,127.9,488.3,127.8,488.3,127.8z"/>
				</g>
			</g>
		</g>
		<g id="XMLID_662_">
			<g id="XMLID_663_">
				<g id="XMLID_664_">
					
						<ellipse transform="matrix(0.9988 4.897195e-002 -4.897195e-002 0.9988 12.8596 -26.4137)" fill="#263238" cx="545.5" cy="249.2" rx="8.5" ry="0.3"/>
				</g>
			</g>
		</g>
		<g id="XMLID_665_">
			<g id="XMLID_666_">
				<g id="XMLID_667_">
					<path fill="#263238" d="M539.7,251.4c0.1,0.1,0,0.2,0.1,0.4c0.1,0.2,0.3,0.3,0.5,0.2c0.2-0.2,0.1-0.4-0.1-0.5
						C540,251.4,539.8,251.5,539.7,251.4c0-0.1,0.1-0.4,0.6-0.3c0.2,0,0.5,0.2,0.6,0.5c0.1,0.3,0,0.7-0.3,0.9
						c-0.3,0.2-0.7,0.3-1,0.1c-0.3-0.2-0.3-0.5-0.3-0.7C539.4,251.5,539.7,251.4,539.7,251.4z"/>
				</g>
			</g>
		</g>
		<g id="XMLID_668_" opacity="0.2">
			<g id="XMLID_669_">
				<g id="XMLID_670_">
					<path d="M520.6,185.1c-1.7-3.2-3.5-6.3-5.2-9.5c-2.1,16.7-0.9,33.7,3.5,49.9c0.5-13.4,1.1-26.8,1.6-40.3"/>
				</g>
			</g>
		</g>
		<g id="XMLID_671_">
			<g id="XMLID_672_">
				<g id="XMLID_673_">
					<path fill="#263238" d="M494,167.7c0,0,0.3,0,0.9-0.1c0.7,0,1.7,0,2.8-0.1c2.4,0,5.9-0.1,10.2-0.1l0.3,0l0,0.3
						c-0.3,3.7-0.6,8-0.9,12.5l0,0.2l-0.1,0.1c-0.2,0.1-0.4,0.2-0.6,0.3c-2.4,1.2-4.6,2.4-6.8,3.6l-0.2,0.1l-0.1-0.1
						c-2.3-1.9-4.4-3.6-6.3-5.2l-0.1-0.1l0-0.1c0.3-3.4,0.5-6.2,0.7-8.3c0.1-0.9,0.2-1.7,0.2-2.3C493.9,167.9,493.9,167.7,494,167.7
						s0,0.3,0,0.9c0,0.6-0.1,1.4-0.1,2.3c-0.1,2.1-0.3,4.8-0.5,8.2l-0.1-0.2c1.9,1.5,4.1,3.2,6.4,5.1l-0.3,0
						c2.1-1.1,4.4-2.3,6.8-3.6c0.2-0.1,0.4-0.2,0.6-0.3l-0.2,0.2c0.4-4.6,0.7-8.8,1-12.5l0.3,0.3c-4.1,0-7.5-0.1-10-0.1
						c-1.2,0-2.1-0.1-2.9-0.1C494.3,167.7,494,167.7,494,167.7z"/>
				</g>
			</g>
		</g>
		<g id="XMLID_674_">
			<g id="XMLID_675_">
				<g id="XMLID_676_">
					<path fill="#263238" d="M464.4,240.2c0,0.2-1.3-0.1-2.1-1.3c-0.8-1.2-0.6-2.4-0.4-2.4c0.2,0,0.2,1,0.9,2.1
						C463.6,239.6,464.5,240.1,464.4,240.2z"/>
				</g>
			</g>
		</g>
		<g id="XMLID_677_">
			<g id="XMLID_678_">
				<g id="XMLID_679_">
					<path fill="#263238" d="M466,239.6c-0.1,0.1-1.2-1-1.7-2.8c-0.5-1.8,0-3.3,0.2-3.2c0.2,0,0,1.4,0.4,3.1
						C465.3,238.3,466.1,239.5,466,239.6z"/>
				</g>
			</g>
		</g>
		<g id="XMLID_680_">
			<g id="XMLID_681_">
				<g id="XMLID_682_">
					<path fill="#263238" d="M511.1,232.9c0.2,0,0.3,2.4-0.9,4.9c-1.2,2.6-3.1,4-3.2,3.9c-0.1-0.1,1.5-1.7,2.7-4.1
						C510.7,235.1,510.9,232.8,511.1,232.9z"/>
				</g>
			</g>
		</g>
		<g id="XMLID_683_">
			<path fill="#FFBE9D" d="M409.3,165.6c0,0-18.2-13.8-20.7-14.7c-4.2-1.5-5.2-1.1-5.2-1.1l10,10.7c0,0-10.5,3.6-11.3,4
				c-0.8,0.5-1.1,2.7,1.4,2.7c2.1,0,12.2,0.2,12.2,0.2l8.3,6.1L409.3,165.6z"/>
		</g>
	</g>
</g>
<g id="Speech_Bubble">
</g>
</svg>
