<?xml version="1.0" encoding="utf-8"?>
<!-- Generator: Adobe Illustrator 19.0.0, SVG Export Plug-In . SVG Version: 6.00 Build 0)  -->
<svg version="1.1" id="Layer_1" xmlns="http://www.w3.org/2000/svg" xmlns:xlink="http://www.w3.org/1999/xlink" x="0px" y="0px"
	 viewBox="0 0 681 429" enable-background="new 0 0 681 429" xml:space="preserve">
<g>
	<g>
		<line fill="none" stroke="#DED8D5" stroke-width="1.9678" stroke-miterlimit="10" x1="92" y1="136.7" x2="591.3" y2="136.7"/>
		<path id="XMLID_3_" fill="none" stroke="#DED8D5" stroke-width="1.9678" stroke-miterlimit="10" d="M584.8,412.9H98.5
			c-3.6,0-6.5-2.9-6.5-6.5V110.5c0-3.6,2.9-6.5,6.5-6.5h486.3c3.6,0,6.5,2.9,6.5,6.5v295.9C591.3,410,588.4,412.9,584.8,412.9z"/>
		<g>
			<circle fill="#F8AFA5" cx="120.3" cy="120.6" r="4.6"/>
			<circle fill="#EBD255" cx="138.1" cy="120.6" r="4.6"/>
			<circle fill="#05867C" cx="155.8" cy="120.6" r="4.6"/>
		</g>
	</g>
</g>
<g>
	<g>
		<g>
			<path fill="#EDEDED" d="M656.2,246.9H538.9c-3.3,0-6-2.7-6-6V132.4c0-3.3,2.7-6,6-6h117.4c3.3,0,6,2.7,6,6v108.5
				C662.2,244.3,659.5,246.9,656.2,246.9z"/>
			<path fill="none" stroke="#DED8D5" stroke-width="1.9678" stroke-miterlimit="10" d="M656.2,246.9H538.9c-3.3,0-6-2.7-6-6V132.4
				c0-3.3,2.7-6,6-6h117.4c3.3,0,6,2.7,6,6v108.5C662.2,244.3,659.5,246.9,656.2,246.9z"/>
		</g>
	</g>
</g>
<g>
	<g>
		<g>
			<path fill="#39B54A" d="M567.2,215.6h61c3.3,0,6-2.7,6-6v-50c0-3.3-2.7-6-6-6h-61c-3.3,0-6,2.7-6,6v50
				C561.2,212.9,563.9,215.6,567.2,215.6z"/>
		</g>
	</g>
</g>
<g>
	
		<polygon fill="none" stroke="#FFFFFF" stroke-width="1.6466" stroke-linecap="round" stroke-linejoin="round" stroke-miterlimit="10" points="
		614.4,194.9 585.8,194.9 580.7,194.9 580.7,172.3 614.4,172.3 614.4,177.9 	"/>
	
		<polyline fill="none" stroke="#FFFFFF" stroke-width="1.6466" stroke-linecap="round" stroke-linejoin="round" stroke-miterlimit="10" points="
		580.7,172.3 597.5,185.6 614.4,172.3 	"/>
</g>
<g>
	<g>
		<g>
			<path fill="#EDEDED" d="M139.7,337.8H27.8c-3.2,0-5.7-2.6-5.7-5.7v-97.6c0-3.2,2.6-5.7,5.7-5.7h111.9c3.2,0,5.7,2.6,5.7,5.7v97.6
				C145.5,335.3,142.9,337.8,139.7,337.8z"/>
			<path fill="none" stroke="#DED8D5" stroke-width="1.9678" stroke-miterlimit="10" d="M139.7,337.8H27.8c-3.2,0-5.7-2.6-5.7-5.7
				v-97.6c0-3.2,2.6-5.7,5.7-5.7h111.9c3.2,0,5.7,2.6,5.7,5.7v97.6C145.5,335.3,142.9,337.8,139.7,337.8z"/>
		</g>
	</g>
</g>
<path id="XMLID_2_" fill="#FFF200" d="M112.5,316.8h-58c-3.7,0-6.6-3-6.6-6.6v-56.1c0-3.7,3-6.6,6.6-6.6h58c3.7,0,6.6,3,6.6,6.6
	v56.1C119.2,313.9,116.2,316.8,112.5,316.8z"/>
<g>
	<path fill="#FFFFFF" d="M69.7,268.5c-7.8,7.8-7.8,20.7,0,28.5c7.8,7.8,20.7,7.8,28.5,0c7.8-7.8,7.8-20.7,0-28.5
		C90.4,260.7,77.5,260.7,69.7,268.5z M98.1,271.4h-6.4c-0.6-2-1.5-4-2.5-6.1C92.8,266.5,95.9,268.6,98.1,271.4z M76.5,281.6
		c0-2.6,0.3-5.2,1-7.8h12.9c0.6,2.6,1,5.2,1,7.8H76.5z M91.3,284c-0.2,2.6-0.6,5.2-1.4,7.8H78c-0.7-2.6-1.2-5.2-1.4-7.8H91.3z
		 M83.9,264.6c1,0,1.9,0.1,2.8,0.2c1.2,2.2,2.2,4.4,2.9,6.6H78.2c0.7-2.2,1.7-4.4,2.9-6.6C82,264.7,83,264.6,83.9,264.6z
		 M78.6,265.4c-1,2-1.9,4-2.5,6.1h-6.4C72,268.6,75.1,266.5,78.6,265.4z M68.1,273.8h7.4c-0.6,2.6-1,5.2-1,7.8h-8.7
		C66,278.8,66.8,276.1,68.1,273.8z M68.1,291.8c-1.3-2.3-2.2-5-2.3-7.8h8.7c0.1,2.6,0.5,5.2,1.2,7.8H68.1z M69.7,294.2h6.7
		c0.7,2,1.5,4.1,2.5,6.1C75.2,299.2,72,297.1,69.7,294.2z M83.9,301c-0.8,0-1.6-0.1-2.4-0.2c-1.1-2.2-2.1-4.5-2.8-6.7h10.4
		c-0.8,2.2-1.7,4.5-2.8,6.7C85.5,300.9,84.7,301,83.9,301z M89,300.3c1-2,1.8-4.1,2.5-6.1h6.7C95.8,297.1,92.6,299.2,89,300.3z
		 M99.7,291.8h-7.6c0.7-2.6,1.1-5.2,1.2-7.8h8.7C101.9,286.8,101.1,289.5,99.7,291.8z M102.1,281.6h-8.7c0-2.6-0.4-5.2-1-7.8h7.4
		C101.1,276.1,101.9,278.8,102.1,281.6z"/>
</g>
<path fill="#2BB673" d="M133.1,75.4H31.7c-2.1,0-3.8-1.7-3.8-3.8l0,0c0-2.1,1.7-3.8,3.8-3.8h101.4c2.1,0,3.8,1.7,3.8,3.8l0,0
	C136.9,73.7,135.2,75.4,133.1,75.4z"/>
<path fill="#6ECCDE" d="M660.3,323.1h-49.2c-2.1,0-3.8-1.7-3.8-3.8l0,0c0-2.1,1.7-3.8,3.8-3.8h49.2c2.1,0,3.8,1.7,3.8,3.8l0,0
	C664.1,321.4,662.4,323.1,660.3,323.1z"/>
<path fill="#FFF200" d="M625.9,367h-6c-1.6,0-2.9-1.3-2.9-2.9v-5.6c0-1.6,1.3-2.9,2.9-2.9h6c1.6,0,2.9,1.3,2.9,2.9v5.6
	C628.7,365.7,627.5,367,625.9,367z"/>
<path fill="#00A79D" d="M55.8,393.3h-6c-1.6,0-2.9-1.3-2.9-2.9v-5.6c0-1.6,1.3-2.9,2.9-2.9h6c1.6,0,2.9,1.3,2.9,2.9v5.6
	C58.7,392,57.4,393.3,55.8,393.3z"/>
<g>
	<g>
		<path fill="#00A79D" d="M516.1,71.5H416c-1.7,0-3-1.3-3-3V44.1c0-1.7,1.3-3,3-3h100.1c1.7,0,3,1.3,3,3v24.4
			C519.1,70.2,517.8,71.5,516.1,71.5z"/>
		<g>
			
				<line fill="#00A79D" stroke="#FFFFFF" stroke-width="1.1803" stroke-miterlimit="10" x1="427.5" y1="51.9" x2="498.6" y2="51.9"/>
			
				<line fill="#00A79D" stroke="#FFFFFF" stroke-width="1.1803" stroke-miterlimit="10" x1="427.5" y1="59.2" x2="456.5" y2="59.2"/>
		</g>
	</g>
	<polygon fill="#00A79D" points="424.6,68.1 424.6,79.9 439.5,68.1 	"/>
</g>
<g>
	<g>
		<g>
			<g>
				<g>
					<path fill="#FFF200" d="M270.2,73.3h-48.4c-4.7,0-8.5-3.8-8.5-8.5v-45c0-3.6,2.9-6.5,6.5-6.5h50.5c3.6,0,6.5,2.9,6.5,6.5v47.1
						C276.7,70.4,273.8,73.3,270.2,73.3z"/>
				</g>
			</g>
		</g>
	</g>
</g>
<g>
	<path fill="#FFFFFF" d="M259.8,47.8l-3.6-3.6c-0.6-0.7-1.5-1.1-2.3-1.1c-0.8,0-1.7,0.4-2.3,1l-2.1,2.1c-0.1-0.1-0.3-0.1-0.4-0.2
		c-0.3-0.1-0.5-0.2-0.6-0.3c-1.9-1.2-3.7-2.8-5.4-4.9c-0.8-1-1.4-1.9-1.7-2.6c0.5-0.5,1-1,1.4-1.4c0.2-0.2,0.4-0.4,0.6-0.6
		c0.7-0.7,1.1-1.5,1.1-2.4c0-0.8-0.4-1.7-1.1-2.4l-1.8-1.8c-0.2-0.2-0.4-0.4-0.6-0.6c-0.4-0.4-0.8-0.8-1.2-1.2c-0.6-0.6-1.5-1-2.3-1
		c-0.8,0-1.6,0.3-2.3,1l-2.3,2.3c-0.8,0.8-1.4,1.9-1.5,3.2c-0.1,1.9,0.4,3.7,0.8,4.9c1,3,2.6,5.6,5,8.4c2.9,3.4,6.3,6.1,10.3,8.1
		c1.5,0.7,3.5,1.5,5.8,1.7c0.1,0,0.3,0,0.5,0c1.5,0,2.8-0.6,3.9-1.7c0,0,0,0,0.1-0.1c0.3-0.4,0.7-0.8,1.2-1.2
		c0.3-0.3,0.6-0.6,0.8-0.8C261.1,51,261.1,49.1,259.8,47.8z M258.3,51.1c-0.3,0.3-0.5,0.5-0.8,0.8c-0.5,0.4-0.8,0.8-1.3,1.3
		c-0.6,0.6-1.4,1-2.3,1c-0.1,0-0.2,0-0.3,0c-1.9-0.1-3.7-0.9-5-1.5c-3.7-1.8-6.9-4.3-9.6-7.5c-2.2-2.6-3.7-5.2-4.7-7.8
		c-0.6-1.5-0.9-2.8-0.8-4c0.1-0.7,0.3-1.4,0.9-1.9l2.2-2.2c0.2-0.2,0.5-0.5,0.9-0.5c0.4,0,0.6,0.2,0.9,0.5c0.4,0.4,0.8,0.8,1.2,1.2
		c0.2,0.2,0.4,0.5,0.6,0.6l1.8,1.8c0.2,0.2,0.5,0.6,0.5,0.9c0,0.4-0.3,0.7-0.5,0.9c-0.2,0.2-0.4,0.4-0.6,0.6
		c-0.6,0.6-1.1,1.1-1.6,1.6c0,0,0,0-0.1,0.1c-0.6,0.6-0.5,1.2-0.4,1.6v0.1c0.5,1.2,1.2,2.2,2.1,3.5c1.8,2.3,3.7,4,5.9,5.4
		c0.3,0.2,0.6,0.3,0.8,0.5c0.3,0.1,0.5,0.2,0.6,0.3l0.1,0.1c0.6,0.3,1.3,0.2,1.8-0.3l2.3-2.3c0.2-0.2,0.5-0.5,0.9-0.5
		c0.3,0,0.6,0.3,0.8,0.5l3.6,3.6C258.9,49.8,258.9,50.5,258.3,51.1z"/>
</g>
<g>
	<defs>
		<rect id="SVGID_1_" x="138" y="79.4" width="459.3" height="332.7"/>
	</defs>
	<clipPath id="SVGID_2_">
		<use xlink:href="#SVGID_1_"  overflow="visible"/>
	</clipPath>
	<path clip-path="url(#SVGID_2_)" fill="#2BB673" d="M481,300.6l-36.5-4.9l0.3,3.6l-31.2,4.2c0,0-20.1,50.5-2.4,161.5h25.4
		l9.1-112.5h3.2l8.8,112.5h25.4C500.9,354,481,300.6,481,300.6z"/>
	
		<line clip-path="url(#SVGID_2_)" fill="none" stroke="#282828" stroke-width="1.2333" stroke-linecap="round" stroke-linejoin="round" stroke-miterlimit="10" x1="434.1" y1="352.4" x2="460.6" y2="352.4"/>
	<g clip-path="url(#SVGID_2_)">
		<g>
			<g>
				<path fill="#F8AFA5" d="M502.3,247.3c-3.1-5-20.7-4.8-21.6-4.9c-4.7-0.6,3,37.2,12.9,70.2c1.9,6.3,8.8,9.6,14.9,7
					c0.1,0,0.1-0.1,0.2-0.1c4.8-2,7.5-7.1,6.6-12.3C510.6,282.4,505.9,253.1,502.3,247.3z"/>
			</g>
			<polygon fill="#F3988F" points="506.5,261 484.1,269.7 482,259.1 505.2,253.3 			"/>
			<path fill="#F3988F" d="M510.7,282.2c0,0-10.6,14.2-10.1,13.6c0.5-0.7,8.3-23,8.3-23L510.7,282.2z"/>
		</g>
		<g>
			<path fill="#F8AFA5" d="M525.9,263.1l-30.4,39.4c-4,5.2-2.7,12.7,2.8,16.2h0c5.5,3.6,12.8,1.7,15.9-4.1l25.3-46.7L525.9,263.1z"
				/>
			<g>
				<circle fill="#F8AFA5" cx="537.6" cy="261.3" r="12.5"/>
				<path fill="#F8AFA5" d="M546.7,253.7c0,0,3.4-3.6-2.7-6.1c-6.1-2.5-13.6-1.9-18.4,9.7L546.7,253.7z"/>
			</g>
			<g>
				<path fill="#37305F" d="M553,228.8l12.7,5.5c0.7,0.3,1,1.1,0.6,1.9l-16.8,31.3c-0.4,0.7-1.3,1.1-2,0.8l-12.7-5.5
					c-0.7-0.3-1-1.1-0.6-1.9l16.8-31.3C551.4,228.9,552.3,228.5,553,228.8z"/>
				<path fill="#261C43" d="M551.8,228.3l12.7,5.5c0.7,0.3,1,1.1,0.6,1.9L548.4,267c-0.4,0.7-1.3,1.1-2,0.8l-12.7-5.5
					c-0.7-0.3-1-1.1-0.6-1.9l16.8-31.3C550.2,228.3,551.1,228,551.8,228.3z"/>
				<polygon fill="#E6E6E5" points="550.4,231.5 561.6,236.3 547.9,261.8 536.7,257 				"/>
				<polygon fill="#FFFFFF" points="561.6,236.3 536.7,257 550.4,231.5 				"/>
			</g>
			<path fill="#F8AFA5" d="M540.4,246.6c0,0,2.8,0.6,5.4,2c1.1,0.6,1.7,1.9,1.4,3.2l0,0c-0.3,1.1-1.2,2-2.4,2.1l-6.6,0.8
				c0,0-3.5,6-8,6.6l4.1-10.5L540.4,246.6z"/>
		</g>
	</g>
	<path clip-path="url(#SVGID_2_)" fill="#FFF200" d="M455.9,197.7c-0.7,0,46.9,6.6,54.8,61l-24.7,3.8l-5,41h-69l-13.7-75.8
		c0,0,15.3-21.9,43.7-30H455.9z"/>
	
		<line clip-path="url(#SVGID_2_)" fill="none" stroke="#282828" stroke-width="1.2333" stroke-linecap="round" stroke-linejoin="round" stroke-miterlimit="10" x1="486" y1="262.5" x2="488.1" y2="238.7"/>
	<path clip-path="url(#SVGID_2_)" fill="#F8AFA5" d="M460.4,198.5v-18.9h-22.1v19.1c-1.1,0.3-3,1-5.9,2.4l17.3,10.3l17.6-10.3
		C467.2,201.1,464.4,199.5,460.4,198.5z"/>
	<path clip-path="url(#SVGID_2_)" fill="#282828" d="M438.1,181.9c0,0,4,10.6,14.6,9.6c9.7-0.8,8.2-15.5,8.2-15.5L438.1,181.9z"/>
	<g clip-path="url(#SVGID_2_)">
		<path fill="#F3988F" d="M428.4,167.9c-3.5,3.1-11.2-8.8-7.9-12.1c3.4-3.3,5.9,1.9,5.9,1.9l1.5,3.6l1.1,4.8l0.3,1.3L428.4,167.9z"
			/>
		<g>
			<g>
				
					<path fill="none" stroke="#282828" stroke-width="0.9928" stroke-linecap="round" stroke-linejoin="round" stroke-miterlimit="10" d="
					M422.2,160c0,0,2.6-1.2,5,2.6"/>
			</g>
		</g>
	</g>
	<g clip-path="url(#SVGID_2_)">
		<path fill="#F3988F" d="M469.4,167.5c3.2,3.4,11.9-7.8,8.9-11.4c-3.1-3.6-6,1.4-6,1.4l-1.8,3.4l-1.5,4.7l-0.4,1.2L469.4,167.5z"/>
		<g>
			<g>
				
					<path fill="none" stroke="#282828" stroke-width="0.9928" stroke-linecap="round" stroke-linejoin="round" stroke-miterlimit="10" d="
					M476.3,160.2c0,0-2.5-1.4-5.2,2.2"/>
			</g>
		</g>
	</g>
	<g clip-path="url(#SVGID_2_)">
		<path fill="#282828" d="M422.3,144.4c0,15.8,12,23.3,26.9,23.3s26.9-7.5,26.9-23.3c0-15.8-12-26.5-26.9-26.5
			S422.3,128.6,422.3,144.4z"/>
	</g>
	<path clip-path="url(#SVGID_2_)" fill="#F8AFA5" d="M426,145.5c0,9.7,1.4,18.1,2.7,24c1.3,5.8,5.1,9.9,10.4,13.1l1,0.6
		c5.6,3.5,12.9,3.5,18.6,0.2l0,0c5.8-3.4,9.8-7.8,11.1-14c2.3-11.3,2.5-23.9,2.5-23.9s2.2-24.5-22.8-24
		C424.5,121.9,426,145.5,426,145.5z"/>
	
		<path clip-path="url(#SVGID_2_)" fill="none" stroke="#282828" stroke-width="1.2316" stroke-linecap="round" stroke-linejoin="round" stroke-miterlimit="10" d="
		M447.6,159.4v3.4c0,0.2,0,0.4,0.1,0.6c0.3,0.7,1.1,1,1.8,0.8l1.6-0.4"/>
	<path clip-path="url(#SVGID_2_)" fill="#282828" d="M443.7,146.3l-12.4,2.9c0,0,0.6-3.2,5.6-4.3C442,143.8,443.7,146.3,443.7,146.3
		z"/>
	<path clip-path="url(#SVGID_2_)" fill="#282828" d="M454.7,146.3l12,2.9c0,0-0.5-3.2-5.4-4.3C456.3,143.8,454.7,146.3,454.7,146.3z
		"/>
	<ellipse clip-path="url(#SVGID_2_)" fill="#282828" cx="439" cy="155.4" rx="2.1" ry="2.1"/>
	<ellipse clip-path="url(#SVGID_2_)" fill="#282828" cx="458.8" cy="155.4" rx="2.1" ry="2.1"/>
	<path clip-path="url(#SVGID_2_)" fill="#FFFFFF" d="M441.1,168.2h16.1C457.2,168.2,450,176.9,441.1,168.2z"/>
	<g clip-path="url(#SVGID_2_)">
		<circle fill="none" stroke="#2BB673" stroke-width="1.3423" stroke-miterlimit="10" cx="438.1" cy="156.2" r="8.9"/>
		<circle fill="none" stroke="#2BB673" stroke-width="1.3423" stroke-miterlimit="10" cx="460" cy="156.2" r="8.9"/>
		<path fill="none" stroke="#2BB673" stroke-width="1.3423" stroke-miterlimit="10" d="M447,156.2c0,0,2.1-2,4.1,0"/>
		<line fill="none" stroke="#2BB673" stroke-width="1.3423" stroke-miterlimit="10" x1="429.2" y1="156.2" x2="426.4" y2="156.2"/>
		<line fill="none" stroke="#2BB673" stroke-width="1.3423" stroke-miterlimit="10" x1="468.9" y1="156.2" x2="471.7" y2="156.2"/>
	</g>
	<path clip-path="url(#SVGID_2_)" fill="#282828" d="M472,153.6c0,0-10-13.5-7.7-27.2c0,0,7.4,3.7,9.3,13.4
		C475.6,149.4,472,153.6,472,153.6z"/>
	<path clip-path="url(#SVGID_2_)" fill="#282828" d="M426,154.5c0,0,11.6-15.3,9.3-29c0,0-8,4.6-10,14.3
		C423.4,149.4,426,154.5,426,154.5z"/>
	<path clip-path="url(#SVGID_2_)" fill="#282828" d="M471.2,131.8c0,0-12.8,14-47.9,11.6c0,0,5.4-20.6,22.4-22.8
		C445.6,120.6,465.3,118.3,471.2,131.8z"/>
	<circle clip-path="url(#SVGID_2_)" fill="#282828" cx="470.3" cy="115.4" r="16.8"/>
	<path clip-path="url(#SVGID_2_)" fill="#2BB673" d="M265.7,300.5l-31.2-4.2l0.3-3.6l-36.5,4.9c0,0-19.9,53.4-2.2,164.4h25.4
		l8.8-112.5h3.2l9.1,112.5h25.4C285.8,351,265.7,300.5,265.7,300.5z"/>
	<g clip-path="url(#SVGID_2_)">
		<path fill="#282828" d="M263.2,148.7c-4.2-5-7.6-10.8-10.5-18.9c-3.1-8.7-13.2-5.2-13.2-5.2s-8.4-10.8-21.1-7.1
			c-12.7,3.8-17.1,12.8-17.3,23.5c-0.3,10.7-8.7,12.4-15.2,24.8c-11.5,21.9,7.8,40.3,43,35.2l0-0.3c3.5,1.1,7.7,1.5,12.9,1.2
			C284,199.4,280,168.4,263.2,148.7z"/>
		<g>
			<path fill="#F3988F" d="M249.4,164.9c3.5,3.1,11.2-8.8,7.9-12.1c-3.4-3.3-5.9,1.9-5.9,1.9l-1.5,3.6l-1.1,4.8l-0.3,1.3
				L249.4,164.9z"/>
			<g>
				<g>
					
						<path fill="none" stroke="#282828" stroke-width="0.9928" stroke-linecap="round" stroke-linejoin="round" stroke-miterlimit="10" d="
						M255.7,157c0,0-2.6-1.2-5,2.6"/>
				</g>
			</g>
		</g>
		<g>
			<path fill="#F3988F" d="M208.4,164.6c-3.2,3.4-11.9-7.8-8.9-11.4c3.1-3.6,6,1.4,6,1.4l1.8,3.4l1.5,4.7l0.4,1.2L208.4,164.6z"/>
			<g>
				<g>
					
						<path fill="none" stroke="#282828" stroke-width="0.9928" stroke-linecap="round" stroke-linejoin="round" stroke-miterlimit="10" d="
						M201.5,157.2c0,0,2.5-1.4,5.2,2.2"/>
				</g>
			</g>
		</g>
		<g>
			<path fill="#282828" d="M255.5,141.4c0,15.8-12,23.3-26.9,23.3s-26.9-7.5-26.9-23.3s12-26.5,26.9-26.5S255.5,125.6,255.5,141.4z"
				/>
		</g>
		<rect x="217.4" y="176.7" fill="#F8AFA5" width="22.1" height="28.7"/>
		<path fill="#282828" d="M214.2,174.9c0,0,6.2,12.3,13.7,14.2c2,0.5,4.2,0.3,6.1-0.4c2.9-1,6.5-5.3,7.1-10l0.3-2.7
			C241.5,176.1,228,183.4,214.2,174.9z"/>
		<path fill="#F8AFA5" d="M251.8,142.5c0,9.7-1.4,18.1-2.7,24c-1.3,5.8-5.1,9.9-10.4,13.1l-1,0.6c-5.6,3.5-12.9,3.5-18.6,0.2v0
			c-5.8-3.4-9.8-7.8-11.1-14c-2.3-11.3-2.5-23.9-2.5-23.9s-2.2-24.5,22.8-24C253.3,119,251.8,142.5,251.8,142.5z"/>
		<g>
			
				<path fill="none" stroke="#282828" stroke-width="1.2298" stroke-linecap="round" stroke-linejoin="round" stroke-miterlimit="10" d="
				M226.9,157.8v2c0,0.2,0,0.4,0.1,0.6c0.3,0.7,1.1,1,1.8,0.8l1.6-0.4"/>
			<path fill="#282828" d="M232.1,144.5l13.3,3.1c0,0-0.6-3.4-6-4.7S232.1,144.5,232.1,144.5z"/>
			<path fill="#282828" d="M225.2,144.5l-13.5,3.1c0,0,0.6-3.4,6.1-4.7C223.3,141.8,225.2,144.5,225.2,144.5z"/>
			<ellipse fill="#282828" cx="218.2" cy="152.8" rx="2.1" ry="2.1"/>
			<ellipse fill="#282828" cx="238.1" cy="152.8" rx="2.1" ry="2.1"/>
			<path fill="#FFFFFF" d="M219,164.7h18.4c0,0-1.3,5-9.6,5C221.4,169.7,219,164.7,219,164.7z"/>
		</g>
		<path fill="#282828" d="M205.8,150.6c0,0,10-13.5,7.7-27.2c0,0-7.4,3.7-9.3,13.4C202.2,146.4,205.8,150.6,205.8,150.6z"/>
		<path fill="#282828" d="M251.9,150.2c0,0-11.6-14-9.3-27.7c0,0,8,4.6,10,14.3C254.5,146.4,251.9,150.2,251.9,150.2z"/>
		<path fill="#282828" d="M206.7,128.8c0,0,11.5,15.4,46.6,13c0,0-4-22-21-24.2C232.2,117.7,212.6,115.3,206.7,128.8z"/>
	</g>
	<g clip-path="url(#SVGID_2_)">
		<g>
			<path fill="#F8AFA5" d="M174.7,368.3c-0.5,0.8,29.2-129.3,20.4-127.3c-0.8,0.2-16.3,1.6-18.6,6.3
				c-6.7,13.5-11.4,120.1-11.4,120.1L174.7,368.3z"/>
			<path fill="#F8AFA5" d="M165.1,367.3c0,0-4.8,22.2,13.3,24.7c1.2,0.2,2.3-0.5,2.7-1.7l0.1-0.2c0.4-1.3-0.2-2.6-1.4-3.1
				c-3-1.3-7.5-4.7-5.3-12.2c0,0,2.6-0.3,4.1,4.6c0.4,1.3,1.8,1.9,3,1.3l0,0c0.8-0.4,1.2-1.3,1.1-2.1c-0.4-3.4-2.2-11.7-8.8-13.9
				L165.1,367.3z"/>
		</g>
		<path fill="#F3988F" d="M171.2,278.5c0,0,17.1,24.1,17.2,23.6c0.1-0.5,6-33.9,6-33.9l-20.8-9L171.2,278.5z"/>
	</g>
	<path clip-path="url(#SVGID_2_)" fill="#FFF200" d="M218.8,200.6c0.7,0-42.3,0.8-50.2,55.1l24.7,3.8l5,41h69l13.7-75.8
		c0,0-9.7-16.4-38.1-24.5L218.8,200.6z"/>
	<path clip-path="url(#SVGID_2_)" fill="#F8AFA5" d="M197.7,207.2c0,0,6.1,8.1,31,8.1c24.7,0,31-8.5,31-8.5s-14.6-8.1-31.5-10.8
		C228.3,196,213.2,198.7,197.7,207.2z"/>
	<g clip-path="url(#SVGID_2_)">
		<polygon fill="#FFF200" points="282.4,379.4 282.5,487.8 336.1,487.8 340.2,379.4 		"/>
		<polygon fill="#FFF200" points="398.9,379.4 398.8,487.8 345.2,487.8 341,379.4 		"/>
		<rect x="314.1" y="379.4" fill="#FFF200" width="55.4" height="37.7"/>
	</g>
	
		<line clip-path="url(#SVGID_2_)" fill="none" stroke="#282828" stroke-width="1.3968" stroke-linecap="round" stroke-linejoin="round" stroke-miterlimit="10" x1="321.9" y1="417" x2="360.1" y2="417"/>
	<g clip-path="url(#SVGID_2_)">
		<path fill="#F8AFA5" d="M432.7,284.8c3.3,36.7-0.2,63.5,0.8,131.1l-32,1.3l-4.8-126.5L432.7,284.8z"/>
		<path fill="#F3988F" d="M400.7,313.4c0,0,19.8-1.8,33.4-10.8l-0.4-7.9l-33,4.5L400.7,313.4z"/>
	</g>
	<path clip-path="url(#SVGID_2_)" fill="#00A79D" d="M368.9,200.2c0,0,63,15.8,74.4,95.7c0,0-30.8,13.4-61.7,7.6l6.9-26.7
		L368.9,200.2z"/>
	<g clip-path="url(#SVGID_2_)">
		<path fill="#F8AFA5" d="M180.8,233.4l46.9,55.4l-14.3,40.4c0,0-35.6-49.5-51.6-87.8L180.8,233.4z"/>
		<g>
			<g>
				<g>
					<path fill="#F8AFA5" d="M182.4,235.4c0,0-16.5,9.3-20.6,5.9c-7.3-5.9-13.4-27.4-13.4-27.4s30.8-11.6,30.5-11.2
						C178.6,203.3,182.4,235.4,182.4,235.4z"/>
					<path fill="#F8AFA5" d="M182.4,235.4c-0.3-1.7,6.1-19.5,8.3-26.2c0.5-1.6-0.6-3.4-2.3-3.7l0,0c-1.1-0.2-3-0.1-3.8,1.6
						l-7.7,13.2L182.4,235.4z"/>
					<path fill="#F8AFA5" d="M181.8,216.1l-5.3-26.4c-0.3-1.8-2.1-3-3.8-2.6l0,0c-1.5,0.3-2.5,1.6-2.3,3.2l2.3,19.6L181.8,216.1z"/>
					<path fill="#F8AFA5" d="M171.3,206.4l-7.2-18.8c-0.6-1.6-2.5-2.6-4.1-2l0,0c-1.4,0.5-2.2,1.9-1.9,3.4l5.3,21.8L171.3,206.4z"/>
					<path fill="#F8AFA5" d="M163.5,211.9l-9.1-18.5c-0.8-1.7-2.9-2.5-4.6-1.8l0,0c-1.6,0.7-2.3,2.5-1.6,4.2l7.3,17.5L163.5,211.9z"
						/>
					<path fill="#F8AFA5" d="M148.4,214l-7.1-11.3c-0.6-1.3,0-2.8,1.2-3.4l0,0c1.2-0.6,2.8-0.1,3.6,1l9.4,13L148.4,214z"/>
				</g>
			</g>
			
				<path fill="none" stroke="#282828" stroke-width="1.5317" stroke-linecap="round" stroke-linejoin="round" stroke-miterlimit="10" d="
				M180.4,214.1c0,0-10.7-1.1-11.8,13.2"/>
		</g>
	</g>
	<g clip-path="url(#SVGID_2_)">
		<path fill="#F8AFA5" d="M203.9,310.3c0,0,8.8,30.5,26.4,26.5s45-41.6,45-41.6l-6.1-64.1l-49.3,60.7L203.9,310.3z"/>
		<path fill="#F3988F" d="M235.1,272.9c0,0,16.6,25.1,30.9,34l9.3-11.7l-35.9-27.7L235.1,272.9z"/>
	</g>
	<path clip-path="url(#SVGID_2_)" fill="#00A79D" d="M307.9,198.8c0,0-48.9,11-74.9,67.8c0,0,15.7,23.7,41,34.3l16.9-20.7
		L307.9,198.8z"/>
	<path clip-path="url(#SVGID_2_)" fill="#00A79D" d="M307.9,198.6c-19.1,9.8-31.1,22.8-31.1,22.8l3.8,166.1h120.3l-0.4-165.2
		c0,0-15.2-14.8-31.6-22.1C354.9,194,321.5,191.7,307.9,198.6z"/>
	
		<path id="XMLID_1_" clip-path="url(#SVGID_2_)" fill="none" stroke="#282828" stroke-width="1.3968" stroke-linecap="round" stroke-linejoin="round" stroke-miterlimit="10" d="
		M364.8,279.5L364.8,279.5c-9.2,0-16.7-7.5-16.7-16.7v-16.7h33.5v16.7C381.6,272.1,374.1,279.5,364.8,279.5z"/>
	
		<line clip-path="url(#SVGID_2_)" fill="none" stroke="#282828" stroke-width="1.3968" stroke-linecap="round" stroke-linejoin="round" stroke-miterlimit="10" x1="400.7" y1="304.2" x2="402.3" y2="249.8"/>
	
		<line clip-path="url(#SVGID_2_)" fill="none" stroke="#282828" stroke-width="1.3968" stroke-linecap="round" stroke-linejoin="round" stroke-miterlimit="10" x1="278.6" y1="295.1" x2="276" y2="248"/>
	<g clip-path="url(#SVGID_2_)">
		<path fill="#282828" d="M309.3,138l-5-24.8c-0.3-2-1.1-5.1-0.1-8.1c1.6-4.8,7.4-14.2,17.4-9.9l2.2,9.8c0,0-10.4,2.1-14.5,15.6
			L309.3,138z"/>
		<path fill="#282828" d="M320.9,100.3c-0.2,3.3-3.1,17.5-13.2,22.7C307.7,123,298.8,104,320.9,100.3z"/>
		<path fill="#F8AFA5" d="M356.3,194.1L356.3,194.1v-42.1h-38.8v42.1l-11.6,5.3c0,0,2.7,17.5,31.4,17.9c28.7,0.4,31.6-17,31.6-17
			L356.3,194.1z"/>
		<path fill="#282828" d="M321.6,95.2c0,0,7.1-18.8,29.1-8.8c13.3,6.1,17,14.2,18.6,19.9c0.5,1.9,0.7,4.9,0.6,6.7l-5.3,25
			l-20.8-34.6l-20.1,1.6L321.6,95.2z"/>
		<g>
			<path fill="#F3988F" d="M364.6,138c0,0,2.6-4.2,8-2.1c5.4,2,3,15.2-5.1,16.8c0,0-2.9,0.6-5.2-1.4
				C362.3,151.3,364.3,141.7,364.6,138z"/>
			<g>
				<g>
					
						<path fill="none" stroke="#282828" stroke-width="1.3968" stroke-linecap="round" stroke-linejoin="round" stroke-miterlimit="10" d="
						M371.5,140.5c0,0-4.5-1.5-7.7,5.2"/>
				</g>
			</g>
		</g>
		<g>
			<path fill="#F3988F" d="M309.3,138c0,0-2.6-4.2-8-2.1c-5.4,2-3,15.2,5.1,16.8c0,0,2.9,0.6,5.2-1.4
				C311.6,151.3,309.6,141.7,309.3,138z"/>
			<g>
				<g>
					
						<path fill="none" stroke="#282828" stroke-width="1.3968" stroke-linecap="round" stroke-linejoin="round" stroke-miterlimit="10" d="
						M302.4,140.5c0,0,4.5-1.5,7.7,5.2"/>
				</g>
			</g>
		</g>
		<path fill="#F8AFA5" d="M365.1,125.5c0,7.9-0.8,24.5-5.6,34.3c-4.6,9.2-12.1,14.2-22,14.5c-9.9,0.3-17.3-3.5-23.2-15.5
			c-5.9-12-5.6-33.1-5.6-33.1s0-28.2,27.9-28.2C366,97.4,365.1,125.5,365.1,125.5z"/>
		<path fill="#282828" d="M317.8,164.7c0,0,3.3,16.5,17.6,18.4c16.5,2.2,20.9-18,20.9-18s-7.3,9.2-18.9,9.2
			C324.6,174.3,317.8,164.7,317.8,164.7z"/>
		<g>
			
				<path fill="none" stroke="#282828" stroke-width="1.3968" stroke-linecap="round" stroke-linejoin="round" stroke-miterlimit="10" d="
				M334.9,137.3v6.5c0,0.3,0.1,0.5,0.2,0.8c0.4,1,1.5,1.4,2.5,1.2l2.2-0.6"/>
			<circle fill="#282828" cx="324.1" cy="134.1" r="2.5"/>
			<circle fill="#282828" cx="348" cy="134.1" r="2.5"/>
			<path fill="#282828" d="M341.5,121.5l17.1,4.4c0,0-0.8-4.8-7.8-6.5C343.8,117.6,341.5,121.5,341.5,121.5z"/>
			<path fill="#282828" d="M330.8,121.5l-17.1,4.4c0,0,0.8-4.8,7.8-6.5C328.5,117.6,330.8,121.5,330.8,121.5z"/>
			
				<path fill="none" stroke="#282828" stroke-width="1.3968" stroke-linecap="round" stroke-linejoin="round" stroke-miterlimit="10" d="
				M327.4,150.4c0,0,2.5,1.9,9.2,1.9c6,0,9.8-1.9,9.8-1.9"/>
			<g>
				<circle fill="none" stroke="#FFFFFF" stroke-width="1.9514" stroke-miterlimit="10" cx="323.4" cy="134.9" r="10.8"/>
				<circle fill="none" stroke="#FFFFFF" stroke-width="1.9514" stroke-miterlimit="10" cx="350" cy="134.9" r="10.8"/>
				<path fill="none" stroke="#FFFFFF" stroke-width="1.9514" stroke-miterlimit="10" d="M334.2,134.9c0,0,2.6-2.4,4.9,0"/>
				<line fill="none" stroke="#FFFFFF" stroke-width="1.9514" stroke-miterlimit="10" x1="312.6" y1="134.9" x2="309" y2="134.8"/>
				
					<line fill="none" stroke="#FFFFFF" stroke-width="1.9514" stroke-miterlimit="10" x1="360.8" y1="134.9" x2="364.8" y2="134.8"/>
			</g>
		</g>
		<path fill="#282828" d="M317.8,101c0,0,5.2,14.7,28.6,14.3c15.9-0.3,19.7,11.2,19.7,11.2s-2.8-25.7-3.5-25.5
			c-0.7,0.2-24.2-6.3-24.2-6.3L317.8,101z"/>
	</g>
</g>
</svg>
