<?xml version="1.0" encoding="utf-8"?>
<!-- Generator: Adobe Illustrator 19.0.0, SVG Export Plug-In . SVG Version: 6.00 Build 0)  -->
<svg version="1.1" xmlns="http://www.w3.org/2000/svg" xmlns:xlink="http://www.w3.org/1999/xlink" x="0px" y="0px"
	 viewBox="0 0 700 500" enable-background="new 0 0 700 500" xml:space="preserve">
<g id="BACKGROUND">
</g>
<g id="OBJECTS">
	<g>
		<path fill-rule="evenodd" clip-rule="evenodd" fill="#C2FFFD" d="M641.2,445.1l-610.5,5.4c0,0,21.5-29.5,38.2-39
			c25.5-14.5,76.1-34.9,89.6-59.3c26.1-47.1,8.8-113.7,44.7-168.2c11.7-17.7,30.4-36.1,50.6-33.3c21.1,2.9,38.9,22.9,55.2,37.4
			c23,20.3,50.1,37,79.4,35.7c39.1-1.8,65.9-53.5,107.6-41c48.6,14.6,55,88.1,69.8,134.9c7.7,24.2,19.8,45.8,32.8,66.3
			c10.4,16.4,21.4,31.7,32.7,47.2C632.5,432.3,641.2,445.1,641.2,445.1z"/>
		<path fill-rule="evenodd" clip-rule="evenodd" fill="#006E6E" d="M140.1,239.5c-2.3-1.1-4.8-2.9-6.1-5.2c-1.2-2.2-1.5-4.7-2.1-7.1
			c-0.6-2.4-1.2-4.8-1.5-7.2c-0.3-2.3-0.5-4.6-0.5-6.9c0-0.7,0-1.3,0.1-1.9c0,0,0.1-0.5,0.1-0.5c0.8,0.1,1.6,1.1,2.1,1.5
			c1.7,1.5,3.4,2.8,4.8,4.6c1.8,2.4,3.6,5,4.5,7.8c1.1,3.3,1.2,7,0.7,10.4c-0.2,1.5-0.4,3.5-1.1,5L140.1,239.5z M151.5,258.6
			c-1.4-1.9-2.8-3.9-3.5-6.2c-1.8-6,0.8-12.2,3.1-17.6c0.7-1.7,0.8-3.5,1.3-5.2c0.1-0.5,0.3-1.4,1-1.5c0.9,0,1.5,1,1.9,1.6
			c1.3,2,2.4,4.2,2.9,6.5c1.6,6.7-0.3,12.7-3.1,18.7c-0.9,1.8-1.8,4.5-3.3,5.9L151.5,258.6z M159.8,274.1c-2.8,1.6-6.8,0.8-9.8,0.3
			c-9.7-1.5-17.7-6.3-23.8-13.9c-2.3-2.9-4.1-6-5.8-9.2c-0.4-0.8-0.8-1.5-1.2-2.3c-0.1-0.2-0.4-0.6-0.2-0.7c0.5-0.5,1.8,0.2,2.2,0.4
			c2.7,1.2,5.3,2.6,8.1,3.6c9.9,3.5,19.2,8,25.9,16.2c1.1,1.3,2.4,2.5,3.2,4L159.8,274.1z M170.6,290.4c-4.2-6.5-6.6-15-6.5-22.8
			c0.1-3.9,1-7.8,2.1-11.5c0.9-3.2,2.1-6.4,3.5-9.5c0.4-0.8,0.7-1.7,1-2.5c0-0.1,0.2-0.6,0.3-0.5c1.2,0.7,1.8,2.6,2.3,3.8
			c1.1,2.7,1.8,5.6,2.5,8.4c0.6,2.6,1,5.3,1.3,8c0.7,7,0.4,14.3-2.3,20.9c-0.9,2.2-1.9,4.7-3.7,6.3L170.6,290.4z M185.7,309.5
			c-4.3,1.9-9.3,1-13.8,0.1c-9.3-1.7-18-5-25.3-11.1c-3.2-2.6-5.8-5.8-8.1-9.2c-0.8-1.3-1.6-2.6-2.4-3.9c-0.3-0.5-0.6-1-0.9-1.5
			c-0.2-0.2-0.8-0.7-0.5-0.7c1.3,0,2.9,0.9,4.1,1.3c2.5,0.8,5.1,1.3,7.6,1.9c10.3,2.4,21.2,5.8,29.4,12.8c1.7,1.5,2.9,3.3,4.4,4.9
			c0.8,0.9,1.8,1.7,2.5,2.7L185.7,309.5z M197.7,324.7c-4.2-4.3-6.7-10.1-8.2-15.8c-1.1-4.1-2.2-8.3-2.4-12.6
			c-0.2-4,0.4-8.1,0.8-12.2c0.1-1.6,0.2-3.1,0.2-4.7c0-0.5,0-1-0.1-1.4c0-0.2-0.2-0.6,0-0.5c0.9,0.8,1.6,2,2.3,2.9
			c1.4,2.1,2.8,4.2,4.1,6.3c5.5,8.6,8.7,19.2,8.1,29.4c-0.2,3.5-0.7,8.4-3.2,11.3L197.7,324.7z M222.2,349.9l-1.4-2.3
			c-2.2-2-3.8-4.6-5.3-7.2c-4-6.9-6.6-14.8-5.8-22.8c0.4-3.5,0.8-7,1.1-10.6c0.1-1.1,0.2-2.1,0.2-3.2c0-0.6,0-0.6,0-1.2
			c0-0.3-0.3-0.9-0.1-0.7c1,0.7,1.6,2.1,2.2,3.1c1.5,2.3,2.9,4.5,4,7c4.2,8.9,7.1,18.8,7.1,28.7c0,2.1-0.2,4.2-0.5,6.4
			c-0.1,1.1-0.3,2.4-0.8,3.3c0.7,0.5,1.4,1.1,2,1.7l3.5,2c-14.3,1-28.8-0.8-41-8.7c-4.4-2.8-8.2-6.3-11.6-10.2c-1-1.1-2-2.2-3.2-3.2
			c-0.5-0.4-0.6-0.5-1-0.8c-0.3-0.2-1.1-0.6-0.8-0.5c8.2,2.4,16.8,3.3,25.1,5.5c4.7,1.3,9.7,2.8,14,5.2c3,1.7,5.7,3.8,8.5,5.8
			C219.5,348.1,220.9,349,222.2,349.9z M245.5,370.1l0-0.3c-2.1-3.2-4.5-6.1-6.5-9.3c-4-6.5-7.7-14.2-9.2-21.8
			c-1.4-7.2-1.4-15.4-0.3-22.6c0.7-4.6,2.1-9.1,3.1-13.6c0.4-1.7,0.3-3.5,0.7-5.1c0.1-0.4,0.4,0.6,0.6,0.9c0.4,0.8,0.6,1.1,1,2
			c0.9,1.8,1.8,3.6,2.7,5.4c2.5,4.8,4.8,9.5,6.5,14.6c2.6,7.8,5.2,15.7,5.6,23.9c0.2,3.6-0.1,7.3-0.4,10.9c-0.4,5-1.2,10.6-3.7,15.1
			l0.2,0.1c-5.3,4.5-14.2,4.3-20.7,4.1c-11.5-0.4-22.8-2.1-32.6-8.7c-4.8-3.3-8.6-7.8-13-11.6c-0.3-0.2,0.7,0.1,1,0.2
			c0.4,0.1,0.7,0.1,1.1,0.2c1.7,0.2,3.5,0.3,5.2,0.3c5.1,0.1,10.2,0.3,15.3,1c14.8,1.9,28.9,8.2,42.3,14.3L245.5,370.1z"/>
		<path fill-rule="evenodd" clip-rule="evenodd" fill="#FBFA00" d="M283.9,398.4c-59.8-36.3-115.6-95.5-144.6-159.5
			c-0.3-0.6,0-1.4,0.6-1.7c0.6-0.3,1.4,0,1.7,0.6c28.9,63.6,84.3,122.4,143.7,158.4c0.6,0.4,0.8,1.1,0.4,1.7
			C285.3,398.6,284.5,398.7,283.9,398.4z"/>
		<path fill-rule="evenodd" clip-rule="evenodd" fill="#EADE03" d="M576,343.9c2.1-1.8,4.6-3,7-4.3c5.8-3.3,12.5-6,19.3-5.5
			c2.7,0.2,7.2,0.6,8.7,3.3c1.2,2.3-1.8,4.6-3.5,5.5c-5.6,2.8-12,3.3-18.2,3.2c-4.9-0.1-9.9-0.2-14.7-1L576,343.9z M567.4,350.9
			c0.1-5.2,2.2-10.6,3.9-15.5c2.8-7.9,5.9-15.2,11.1-21.8c2-2.5,4-5.6,7.2-6.6c1.4-0.5,3.3-0.9,4.6,0.2c1.6,1.3,1.7,3.6,1.5,5.4
			c-0.4,3.2-1.4,6.3-2.7,9.3c-2.8,6.4-7.2,12.1-12.2,17c-1.8,1.7-3.8,3.1-5.6,4.8c-2.1,2.1-4.1,4.3-6.3,6.2L567.4,350.9z
			 M539.2,368.7c-0.7,0.5-1.3,1.1-2,1.6l-3.2,0.7c4.2-7.5,5.8-16.3,9.5-24.1c3.3-7.1,9.2-13.5,15.7-18.1c3-2.1,7.9-3.9,8.6,1.2
			c0.7,4.9-2.6,10.7-5.1,14.7c-5.5,8.8-13.4,15.9-21.4,22.4l1.4-0.8c2.9-1.2,6.7-2.7,9.4-4.3c3-1.8,6.3-3,9.6-4.2
			c6.2-2.3,12.7-3.4,19.3-3.4c2,0,4.6-0.3,6.6,0.5c2.6,1.1,2.2,4.6,1.1,6.6c-2.2,3.8-6.6,6.7-10.6,8.3c-7.5,3.2-17.3,3.8-25.3,2.5
			C548.1,371.4,543.7,369.7,539.2,368.7z M510,383.9c4.4-2.1,9.5-3.3,14.1-4.5c10.6-2.9,21.6-5.2,32.7-4c1.8,0.2,2.1,0.2,3.9,0.5
			c1.7,0.3,1.9,0.3,3.6,0.6c2.8,0.6,10.8,3.2,8.4,7.8c-3.1,6-12.2,8-18.3,8.5c-15.7,1.3-31.2-4.9-46.2-8.6L510,383.9z M493.4,390.5
			c0.1-6,3.7-11.6,6.2-16.9c5.7-11.7,11.7-24,20.2-34c0.8-1,1.7-2,2.7-2.9c3.1-3.1,10-9.2,14.8-5.1c1.5,1.3,1.8,3.5,1.7,5.4
			c-0.3,4.5-2.7,8.9-4.9,12.6c-6.1,10.2-13.9,18.8-22.3,27.2c-4.1,4.1-8.3,9-13.5,11.7L493.4,390.5z M466.1,400.1l-0.5,0.4
			c-1.4-5.4,1.5-11.3,3.2-16.2c4.2-12.3,9.7-24.3,17.1-35c0.6-0.9,1.7-2.4,2.4-3.2c2.5-3.3,8.5-11.2,13.7-8.3
			c2.2,1.2,2.6,3.9,2.7,6.2c0.1,5.1-1.7,10-3.7,14.5c-6.4,14.3-17.2,24.8-28.4,35.3c-1.9,1.8-3.5,3.9-5.5,5.7l-0.4,0.3l2.5-0.3
			c2.2-1.6,5.1-2,7.8-2.5c3.2-0.6,6.4-1,9.5-1.4c11.4-1.4,23.1-2.1,34.6-1.3c5.9,0.4,12.3,1.2,16.9,5.3c0.8,0.7,1.5,1.6,2,2.6
			c2.1,4.4-0.2,8.3-4,10.7c-7.5,4.7-17.2,4.3-25.6,2.8c-6.2-1.1-12.4-2.6-18.4-4.5c-5-1.6-9.7-3.8-14.6-5.8
			C473.6,403.6,469.7,402.1,466.1,400.1z"/>
		<path fill-rule="evenodd" clip-rule="evenodd" fill="#535CC7" d="M427.7,410.3c61.1-10.6,126.4-41.5,171.1-84.9
			c0.4-0.4,0.5-1.1,0-1.6c-0.4-0.4-1.1-0.5-1.6,0c-44.4,43.2-109.3,73.8-169.9,84.3c-0.6,0.1-1,0.7-0.9,1.3
			C426.5,410,427,410.4,427.7,410.3z"/>
		<path fill-rule="evenodd" clip-rule="evenodd" fill="#FFF800" d="M453.6,353.5c4.4-17.1,12-34,19.3-50.2
			c3.1-6.8,5.9-15.1,11.3-20.5c5.7-5.8,10.4,1.5,16.2,1.8c4.3,0.2,7.4-4.2,9.3-7.5c8-14,10.9-30.2,17.8-44.7
			c2.5-5.3,6.4-13.9,12.3-16.4c8.3-3.4,8.8,12.6,16.2,10.3c3-1,4.9-3.6,6.4-6.2c1.4-2.3,2.6-4.6,3.8-7c0.9-1.8,1.8-3.5,2.8-5.3
			c2.9-5.1,11.2-17.4,18.4-10.1c3.8,3.9,2.3,9.8,0.4,14.2c-4.7,10.7-14.2,18.5-17,30.2c-2.3,9.2,7.6,11.6,3.5,21.7
			c-4.9,12-18.1,18.1-28.5,24.5c-4.2,2.6-9.4,5.3-12.3,9.5c-2.9,4.3,3.3,7.2,4.8,10.5c2.9,6.4-4,13.3-8.8,16.4
			C507.4,338.9,479.9,343.8,453.6,353.5z"/>
		<path fill-rule="evenodd" clip-rule="evenodd" fill="#006E6E" d="M429.6,367.7c13.7-4.4,26.6-14.6,38.1-22.9
			c25.5-18.3,48.7-39.2,68.2-63.9c7-8.9,13.5-17.7,19.5-27.3c2.9-4.7,6.1-9.9,7.8-15.5c0.2-0.6-0.1-1.1-0.7-1.3
			c-0.6-0.2-1.1,0.1-1.3,0.7c-1.7,5.4-4.8,10.5-7.6,15c-5.9,9.6-12.4,18.3-19.4,27.1c-19.3,24.5-42.4,45.4-67.8,63.5
			c-11.3,8.1-23.9,18.2-37.5,22.6c-0.6,0.2-0.9,0.8-0.7,1.3C428.4,367.6,429,367.9,429.6,367.7z"/>
		<path fill-rule="evenodd" clip-rule="evenodd" fill="#FFF800" d="M262.3,414.5c-9.4-13.8-21.5-26.4-33-38.5
			c-4.9-5.1-10-11.5-16.5-14.6c-6.9-3.3-8.8,4.6-13.8,6.7c-3.7,1.6-7.9-1.4-10.6-3.7c-11.5-9.9-19.3-23.4-30-34.1
			c-3.9-3.9-10.1-10.4-16.1-10.7c-8.5-0.4-3.9,14-11.1,14.3c-3,0.1-5.5-1.7-7.7-3.5c-1.9-1.6-3.7-3.3-5.6-5
			c-1.4-1.3-2.8-2.6-4.2-3.8c-4.2-3.6-15.5-11.9-19.5-3.1c-2.2,4.7,1,9.4,4.1,12.7c7.6,8,18.4,11.9,24.7,21.4
			c4.9,7.5-3.1,12.7,3.7,20.4c8.2,9.1,21.8,10.3,33,12.7c4.5,1,10.1,1.7,13.9,4.5c4,2.9-0.7,7.4-0.9,10.9c-0.5,6.6,7.8,10.6,13,11.8
			C210,418.6,235.9,414.2,262.3,414.5z"/>
		<path fill-rule="evenodd" clip-rule="evenodd" fill="#006E6E" d="M288.2,419.5c-13.6,0.4-28.2-4.6-41.1-8.3
			c-28.4-8.2-55.7-19.4-80.8-35.2c-9-5.7-17.6-11.4-26-18.1c-4-3.2-8.5-6.9-11.9-11.3c-0.3-0.4-0.2-1.1,0.2-1.4
			c0.4-0.3,1.1-0.2,1.4,0.2c3.2,4.3,7.6,7.8,11.5,10.9c8.3,6.6,16.8,12.3,25.8,18c24.9,15.7,52.1,26.9,80.3,35
			c12.6,3.6,27,8.6,40.4,8.2c0.5,0,1,0.4,1,1C289.2,419,288.8,419.5,288.2,419.5z"/>
		<rect x="202.4" y="439.1" fill-rule="evenodd" clip-rule="evenodd" fill="#006E6E" width="296.3" height="6.8"/>
		<rect x="231.9" y="246" fill-rule="evenodd" clip-rule="evenodd" fill="#006E6E" width="237.2" height="148.6"/>
		<polygon fill-rule="evenodd" clip-rule="evenodd" fill="#00605D" points="498.6,439.2 202.4,439.2 232,394.6 469,394.6 		"/>
		<path fill-rule="evenodd" clip-rule="evenodd" fill="#FBFA00" d="M457.8,402.7h5.9l3.6,5.4h-9.4V402.7z M400.4,408.1h54.4v-5.4
			h-54.4V408.1z M385.5,408.1h12.1v-5.4h-12.1V408.1z M370.5,408.1h12.1v-5.4h-12.1V408.1z M355.5,408.1h12.1v-5.4h-12.1V408.1z
			 M340.5,408.1h12.1v-5.4h-12.1V408.1z M324.6,408.1h12.9v-5.4h-12.9V408.1z M309.7,408.1h12.1v-5.4h-12.1V408.1z M294.7,408.1
			h12.1v-5.4h-12.1V408.1z M279.7,408.1h12.1v-5.4h-12.1V408.1z M276.7,402.7v5.4h-40.9l3.6-5.4H276.7z M457.8,410.7h11.2l4.2,6.4
			h-15.4V410.7z M400.4,417.1h54.4v-6.4h-54.4V417.1z M385.5,417.1h12.1v-6.4h-12.1V417.1z M370.5,417.1h12.1v-6.4h-12.1V417.1z
			 M355.5,417.1h12.1v-6.4h-12.1V417.1z M340.5,417.1h12.1v-6.4h-12.1V417.1z M324.6,417.1h12.9v-6.4h-12.9V417.1z M309.7,417.1
			h12.1v-6.4h-12.1V417.1z M294.7,417.1h12.1v-6.4h-12.1V417.1z M279.7,417.1h12.1v-6.4h-12.1V417.1z M276.7,410.7v6.4h-46.8
			l4.2-6.4H276.7z M400.4,420.9h75.3l6.2,9.4h-81.5V420.9z M385.5,430.3h12.1v-9.4h-12.1V430.3z M370.5,430.3h12.1v-9.4h-12.1V430.3
			z M355.5,430.3h12.1v-9.4h-12.1V430.3z M340.5,430.3h12.1v-9.4h-12.1V430.3z M337.6,420.9v9.4H221.1l6.2-9.4H337.6z"/>
		<rect x="241.3" y="256.7" fill-rule="evenodd" clip-rule="evenodd" fill="#D3D7FD" width="218.5" height="127.9"/>
		<rect x="256.3" y="326.8" fill-rule="evenodd" clip-rule="evenodd" fill="#F2F4FF" width="187.4" height="49.8"/>
		<rect x="256.3" y="326.8" fill-rule="evenodd" clip-rule="evenodd" fill="#006E6E" width="187.4" height="5.5"/>
		<g>
			<defs>
				<rect id="SVGID_1_" x="256.3" y="326.8" width="187.4" height="49.8"/>
			</defs>
			<clipPath id="SVGID_2_">
				<use xlink:href="#SVGID_1_"  overflow="visible"/>
			</clipPath>
			<g clip-path="url(#SVGID_2_)">
				<rect x="265.1" y="340.1" fill="#E4E8F7" width="49.3" height="41.2"/>
				<rect x="320.4" y="340.1" fill="#E4E8F7" width="64.1" height="16.9"/>
				<rect x="320.4" y="361.7" fill="#E4E8F7" width="64.1" height="22.9"/>
				<rect x="390.2" y="340.1" fill="#E4E8F7" width="43.6" height="43.6"/>
			</g>
		</g>
		<g>
			<defs>
				<rect id="SVGID_3_" x="241.3" y="256.7" width="218.5" height="127.9"/>
			</defs>
			<clipPath id="SVGID_4_">
				<use xlink:href="#SVGID_3_"  overflow="visible"/>
			</clipPath>
			
				<rect x="293.7" y="157.4" transform="matrix(0.7071 0.7071 -0.7071 0.7071 310.8589 -130.3546)" opacity="0.1921" clip-path="url(#SVGID_4_)" fill-rule="evenodd" clip-rule="evenodd" fill="#FFFFFF" width="38.2" height="305.2"/>
			
				<rect x="334.5" y="189.2" transform="matrix(0.7071 0.7071 -0.7071 0.7071 342.6743 -143.5287)" opacity="0.1921" clip-path="url(#SVGID_4_)" fill-rule="evenodd" clip-rule="evenodd" fill="#FFFFFF" width="20.3" height="305.2"/>
			
				<rect x="377.5" y="226.4" transform="matrix(0.7071 0.7071 -0.7071 0.7071 380.6118 -160.7668)" opacity="0.1921" clip-path="url(#SVGID_4_)" fill-rule="evenodd" clip-rule="evenodd" fill="#FFFFFF" width="13.8" height="305.2"/>
		</g>
		<path fill-rule="evenodd" clip-rule="evenodd" fill="#006E6E" d="M215.3,306.1l31.4,24.6l-1.1-34.5c0-0.4,0.1-0.7,0.1-1.1V97.7
			c0-6-4.9-10.9-10.9-10.9H71c-6,0-10.9,4.9-10.9,10.9v197.4c0,6,4.9,10.9,10.9,10.9H215.3z"/>
		<path fill-rule="evenodd" clip-rule="evenodd" fill="#FFFFFF" d="M238.4,101.2c0-3.5-2.8-6.3-6.3-6.3H73.6c-3.5,0-6.3,2.8-6.3,6.3
			v191.1c0,3.5,2.8,6.3,6.3,6.3H232c3.5,0,6.3-2.8,6.3-6.3V101.2z"/>
		<path fill-rule="evenodd" clip-rule="evenodd" fill="#FBFF00" d="M152.1,108.2c11.9,0,21.6,9.7,21.6,21.6
			c0,11.9-9.7,21.6-21.6,21.6c-11.9,0-21.6-9.7-21.6-21.6C130.5,117.9,140.2,108.2,152.1,108.2z"/>
		<path fill-rule="evenodd" clip-rule="evenodd" fill="#FBFF00" d="M106.7,196.5c2-23.3,21.6-41.6,45.4-41.6
			c23.8,0,43.4,18.3,45.4,41.6c-13.6,3.1-29.1,4.9-45.4,4.9C135.7,201.4,120.3,199.6,106.7,196.5z"/>
		<g>
			<rect x="98.4" y="212.6" fill-rule="evenodd" clip-rule="evenodd" fill="#C8CDFC" width="107.4" height="2.3"/>
			<rect x="98.4" y="224.4" fill-rule="evenodd" clip-rule="evenodd" fill="#C8CDFC" width="107.4" height="2.3"/>
		</g>
		<path fill-rule="evenodd" clip-rule="evenodd" fill="#FBFA00" d="M263.9,313.9v-58c0-47.4,38.5-85.9,85.9-85.9
			c47.4,0,85.9,38.5,85.9,85.9v58h-14.8v-58c0-39.2-31.9-71.1-71.1-71.1c-39.2,0-71.1,31.9-71.1,71.1v58H263.9z"/>
		<path fill-rule="evenodd" clip-rule="evenodd" fill="#FBFA00" d="M421.3,316c0,0-2.5,15.6-10.8,27.7c-4.7,6.9-11.1,13.7-20.3,15.2
			c-10.9,1.9-21.5,1.2-29-0.3c-5.7-1.2-17.4-2.9-11.7-11.2c2.3-3.4-6.5-4.8-10.1-2.8c-3.6,2-4.8,6.5-2.8,10.1
			c4.9,8.6,12.4,13.3,22.7,15.4c8.5,1.7,19.1,1.6,31.6,1c13.4-0.7,23.7-9.4,31-20c9.7-14.3,13.9-31.7,13.9-31.7c0.9-4-1.5-8-5.5-8.9
			C426.3,309.5,422.3,312,421.3,316z"/>
		<path fill-rule="evenodd" clip-rule="evenodd" fill="#00605D" d="M442.7,251.4l-26.7-0.2c0,0-9.3,40.8,0.9,69.9l25.8,0.7
			L442.7,251.4z"/>
		<path fill-rule="evenodd" clip-rule="evenodd" fill="#006E6E" d="M442.6,251.3c4.2,0,7.5,15.8,7.5,35.2c0,19.4-3.4,35.2-7.5,35.2
			c-4.2,0-7.5-15.8-7.5-35.2C435.1,267.1,438.5,251.3,442.6,251.3z"/>
		<path fill-rule="evenodd" clip-rule="evenodd" fill="#00605D" d="M257.5,251.4l26.7-0.2c0,0,9.3,40.8-0.9,69.9l-25.8,0.7
			L257.5,251.4z"/>
		<path fill-rule="evenodd" clip-rule="evenodd" fill="#006E6E" d="M257.6,251.3c-4.2,0-7.5,15.8-7.5,35.2c0,19.4,3.4,35.2,7.5,35.2
			c4.2,0,7.5-15.8,7.5-35.2C265.1,267.1,261.8,251.3,257.6,251.3z"/>
		<path fill-rule="evenodd" clip-rule="evenodd" fill="#00605D" d="M358.8,343.3c0-2.4-2-4.4-4.4-4.4h-23.3c-2.4,0-4.4,2-4.4,4.4
			v8.9c0,2.4,2,4.4,4.4,4.4h23.3c2.4,0,4.4-2,4.4-4.4V343.3z"/>
		<path fill-rule="evenodd" clip-rule="evenodd" fill="#00605D" d="M386,193.2c-1.4,2.3-4.4,3.3-6.8,2.1
			c-8.7-3.8-29.7-10.6-52.8-2.5c-2.7,1-5.7-0.4-6.8-3c-1.3-3-2.8-6.9-4-9.9c-1.1-2.7,0.1-5.7,2.7-6.9c10.7-4.7,38.9-13.7,71,3.9
			c1.3,0.7,2.2,1.9,2.6,3.3c0.4,1.4,0.2,2.9-0.6,4.2C389.6,187.1,387.6,190.5,386,193.2z"/>
		<g>
			<path fill-rule="evenodd" clip-rule="evenodd" fill="#FBFF00" d="M280.1,159.2c0-2.5-2-4.5-4.5-4.5c-2.5,0-4.5,2-4.5,4.5v24.3
				c0,2.5,2,4.5,4.5,4.5c2.5,0,4.5-2,4.5-4.5V159.2z"/>
			<path fill-rule="evenodd" clip-rule="evenodd" fill="#FBFF00" d="M271.3,137.4c-4.6,1.7-7.9,6.2-7.9,11.4v0.6
				c0,6.7,5.5,12.2,12.2,12.2c6.7,0,12.2-5.5,12.2-12.2v-0.6c0-5.2-3.3-9.7-7.9-11.4v11c0,2.4-1.9,4.3-4.3,4.3
				c-2.4,0-4.3-1.9-4.3-4.3V137.4z"/>
		</g>
		<path fill-rule="evenodd" clip-rule="evenodd" fill="none" stroke="#006E6E" stroke-width="4" stroke-miterlimit="10" d="
			M630.7,127.8c11.9-21.6,3.3-49.2-19.3-61.6c-22.5-12.4-50.5-5-62.4,16.5c-6.4,11.6-7.1,25.7-1.8,38.2l-10.4,16.5l20-2
			c3.4,3.5,7.2,6.5,11.5,8.8C590.9,156.8,618.8,149.4,630.7,127.8z"/>
		<path fill-rule="evenodd" clip-rule="evenodd" fill="#FBFF00" d="M589.6,113.7c-4.9,0-8.8-3.9-8.8-8.8c0-4.9,3.9-8.8,8.8-8.8
			c4.9,0,8.8,3.9,8.8,8.8C598.4,109.7,594.4,113.7,589.6,113.7z M585.8,127.3c2.5,0.4,5,0.4,7.5,0l0.6-6c2.1-0.5,4-1.5,5.7-2.8
			l5.1,3.3c1.9-1.7,3.5-3.7,4.7-5.9l-4.3-4.2c0.9-2,1.3-4.1,1.4-6.2l5.7-1.9c-0.1-2.5-0.7-5-1.7-7.3l-6,0.8c-1-1.9-2.3-3.6-4-5
			l2.1-5.7c-2.1-1.5-4.3-2.6-6.8-3.3l-3.2,5.2c-2.1-0.4-4.3-0.4-6.4,0l-3.2-5.2c-2.4,0.7-4.7,1.8-6.8,3.3l2.1,5.7
			c-1.6,1.4-3,3.1-4,5l-6-0.8c-1,2.3-1.5,4.8-1.7,7.3l5.7,1.9c0.1,2.1,0.6,4.2,1.4,6.2l-4.3,4.2c1.2,2.2,2.8,4.2,4.7,5.9l5.1-3.3
			c1.7,1.3,3.7,2.2,5.7,2.8L585.8,127.3z"/>
		<path fill-rule="evenodd" clip-rule="evenodd" fill="#EADE03" d="M554.7,170c0-7.8-6.3-14.2-14.2-14.2h-61.1
			c-7.8,0-14.2,6.3-14.2,14.2v41.3c0,7.8,6.3,14.1,14.2,14.1h4.9l-3.7,15.2l24.4-15.2h35.5c7.8,0,14.2-6.3,14.2-14.1V170z"/>
		<path fill-rule="evenodd" clip-rule="evenodd" fill="#FFFFFF" d="M504,175.5c5.4,0,9.7,4.4,9.7,9.7c0,5.4-4.4,9.7-9.7,9.7
			c-5.4,0-9.7-4.4-9.7-9.7C494.2,179.9,498.6,175.5,504,175.5z M504,169c8.9,0,16.2,7.3,16.2,16.2c0,8.9-7.3,16.2-16.2,16.2
			c-8.9,0-16.2-7.3-16.2-16.2C487.7,176.3,495,169,504,169z"/>
		<path fill-rule="evenodd" clip-rule="evenodd" fill="#FFFFFF" d="M517.5,193.5c-1.4-1.4-3.7-1.4-5.1,0c-1.4,1.4-1.4,3.7,0,5.1
			l12.4,12.4c1.4,1.4,3.7,1.4,5.1,0c1.4-1.4,1.4-3.7,0-5.1L517.5,193.5z"/>
		<path fill-rule="evenodd" clip-rule="evenodd" fill="#FBFA00" d="M319.4,118.2c0-5.2,4.2-9.4,9.4-9.4h61.4c5.2,0,9.4,4.2,9.4,9.4
			v27.4c0,5.2-4.2,9.4-9.4,9.4l6.5,9.7l-21.2-9.7h-46.7c-5.2,0-9.4-4.2-9.4-9.4V118.2z"/>
		<circle fill-rule="evenodd" clip-rule="evenodd" fill="#FFFFFF" cx="341.5" cy="131.4" r="4.8"/>
		<circle fill-rule="evenodd" clip-rule="evenodd" fill="#FFFFFF" cx="359.9" cy="131.4" r="4.8"/>
		<circle fill-rule="evenodd" clip-rule="evenodd" fill="#FFFFFF" cx="378.3" cy="131.4" r="4.8"/>
		<path fill-rule="evenodd" clip-rule="evenodd" fill="#006E6E" d="M399.8,61.8c0-5.5-4.5-9.9-9.9-9.9H272.4c-5.5,0-9.9,4.5-9.9,9.9
			v29.1c0,5.5,4.5,9.9,9.9,9.9h7L273,111l18.7-10.3h98.1c5.5,0,9.9-4.5,9.9-9.9V61.8z"/>
		<rect x="278.5" y="68.7" fill-rule="evenodd" clip-rule="evenodd" fill="#FFFFFF" width="106.9" height="2.6"/>
		<rect x="278.5" y="81.1" fill-rule="evenodd" clip-rule="evenodd" fill="#FFFFFF" width="106.9" height="2.6"/>
		<path fill-rule="evenodd" clip-rule="evenodd" fill="#CED5EA" d="M550.7,424.8c24.9,0,45.1,3.3,45.1,7.4c0,4.1-20.2,7.4-45.1,7.4
			c-24.9,0-45.1-3.3-45.1-7.4C505.6,428.2,525.8,424.8,550.7,424.8z"/>
		<path fill-rule="evenodd" clip-rule="evenodd" fill="#006E6E" d="M580.8,403.9v-17.2c1.3-0.7,2.8-1,4.4-1c5.4,0,9.8,4.3,9.8,9.7
			c0,5.3-4.4,9.7-9.8,9.7C583.6,404.9,582.1,404.5,580.8,403.9z M580.8,414.1v14.9c0,2.2-1.8,4-4,4h-54.1c-2.2,0-4-1.8-4-4v-67.7
			c0-2.2,1.8-4,4-4h54.1c2.2,0,4,1.8,4,4v15.2c1.4-0.3,2.9-0.5,4.4-0.5c10.8,0,19.6,8.7,19.6,19.3c0,10.7-8.8,19.3-19.6,19.3
			C583.7,414.6,582.2,414.4,580.8,414.1z"/>
		<path fill-rule="evenodd" clip-rule="evenodd" fill="#FFF800" d="M575.8,363.3c0-1.5-1.2-2.7-2.7-2.7h-46.5
			c-1.5,0-2.7,1.2-2.7,2.7c0,1.5,1.2,2.7,2.7,2.7H573C574.5,366,575.8,364.8,575.8,363.3z"/>
		<linearGradient id="SVGID_5_" gradientUnits="userSpaceOnUse" x1="555.2344" y1="366.0628" x2="555.2344" y2="263.2146">
			<stop  offset="0" style="stop-color:#F2F4FF"/>
			<stop  offset="0.7838" style="stop-color:#F2F4FF;stop-opacity:0"/>
		</linearGradient>
		<path fill-rule="evenodd" clip-rule="evenodd" fill="url(#SVGID_5_)" d="M570.6,366c0,0.1-36.9,0.1-37,0c-3.6-5.7-4.9-13-8.5-18.7
			c-3.2-5.1-7.4-9.5-9.2-15.4c-1.3-4.1-1.7-8.9-1.5-13.1c0.3-5.7,1.9-11.2-0.4-16.8c-3.7-9-13-14.4-16.5-23.5
			c-1.7-4.4-1.1-9.6,0.3-14c0.3-0.9,1.5-1.2,2.3-1.3c2.6-0.3,5.2,0.5,7.6,1.3c6.3,2.3,12.1,5.5,18.4,8c3.7,1.5,7.8,2.9,11.9,2.7
			c11.2-0.6,21.4-7.2,32.9-6.5c8.9,0.6,15.9,7.2,24.5,8.9c4.6,0.9,9.2-0.8,13.9-0.3c0.9,0.1,4.1,0.4,4.6,1.3c0.2,0.4-2,1.5-2.2,1.6
			c-2.5,1.2-4.8,2.4-7,4.1c-6.4,5.1-11.7,9.6-14.9,17.3c-1.9,4.6-3.4,10.3-3.2,15.3c0.3,4.8,2.2,9.4,0.4,14.2
			c-1.4,3.8-5.6,6.3-8.5,8.8c-3.6,3.1-6.9,7.2-8.2,11.9C569,356.8,569.3,361.5,570.6,366z"/>
		<g>
			<polygon fill-rule="evenodd" clip-rule="evenodd" fill="#FBFF00" points="319.4,213.3 323.3,221.3 332.1,222.4 325.6,228.6 
				327.3,237.3 319.4,233 311.6,237.3 313.3,228.6 306.8,222.4 315.6,221.3 			"/>
			<polygon fill-rule="evenodd" clip-rule="evenodd" fill="#FBFF00" points="350.5,213.3 354.3,221.3 363.1,222.4 356.7,228.6 
				358.3,237.3 350.5,233 342.7,237.3 344.3,228.6 337.9,222.4 346.7,221.3 			"/>
			<polygon fill-rule="evenodd" clip-rule="evenodd" fill="#FBFF00" points="381.1,213.3 384.9,221.3 393.7,222.4 387.2,228.6 
				388.9,237.3 381.1,233 373.3,237.3 374.9,228.6 368.4,222.4 377.2,221.3 			"/>
		</g>
		<g>
			<path fill-rule="evenodd" clip-rule="evenodd" fill="#006E6E" d="M136,43.7l4.4,7.1l-8.3,0.3L136,43.7z M142.9,52.1l-7-11.3
				l-6.2,11.8L142.9,52.1z"/>
			<polygon fill-rule="evenodd" clip-rule="evenodd" fill="#006E6E" points="590.3,247.5 594.2,243.3 595.2,244.2 591.3,248.5 
				595.5,252.4 594.6,253.4 590.3,249.5 586.4,253.7 585.4,252.7 589.3,248.5 585.1,244.6 586.1,243.6 			"/>
			<path fill-rule="evenodd" clip-rule="evenodd" fill="#006E6E" d="M533.7,69.2c2.3-0.1,4.3,1.8,4.4,4.1c0.1,2.4-1.8,4.3-4.1,4.4
				c-2.4,0.1-4.3-1.8-4.4-4.1S531.4,69.2,533.7,69.2z M533.7,67.7c-3.1,0.1-5.6,2.7-5.5,5.9c0.1,3.1,2.7,5.6,5.9,5.5
				c3.1-0.1,5.6-2.7,5.5-5.9C539.5,70.1,536.8,67.6,533.7,67.7z"/>
			<polygon fill-rule="evenodd" clip-rule="evenodd" fill="#006E6E" points="382.4,28.8 386.4,24.6 387.4,25.6 383.5,29.8 
				387.7,33.7 386.7,34.7 382.5,30.8 378.6,35 377.6,34 381.5,29.8 377.3,25.9 378.2,24.9 			"/>
			<path fill-rule="evenodd" clip-rule="evenodd" fill="#006E6E" d="M49,343.8l4.4,7.1l-8.3,0.3L49,343.8z M55.9,352.2l-7-11.3
				l-6.2,11.8L55.9,352.2z"/>
			<path fill-rule="evenodd" clip-rule="evenodd" fill="#006E6E" d="M259.5,109.3c2.3-0.1,4.3,1.8,4.4,4.1c0.1,2.4-1.8,4.3-4.1,4.4
				c-2.4,0.1-4.3-1.8-4.4-4.1S257.1,109.4,259.5,109.3z M259.4,107.9c-3.1,0.1-5.6,2.7-5.5,5.9c0.1,3.1,2.7,5.6,5.9,5.5
				c3.1-0.1,5.6-2.7,5.5-5.9C265.2,110.2,262.6,107.7,259.4,107.9z"/>
		</g>
		<rect x="305.5" y="272.3" fill-rule="evenodd" clip-rule="evenodd" fill="#00BFBA" width="88.9" height="23.2"/>
		<g>
			<rect x="98.6" y="240.4" fill-rule="evenodd" clip-rule="evenodd" fill="#C8CDFC" width="107.4" height="2.3"/>
			<rect x="98.6" y="252.3" fill-rule="evenodd" clip-rule="evenodd" fill="#C8CDFC" width="107.4" height="2.3"/>
		</g>
		<rect x="305.5" y="297.1" fill-rule="evenodd" clip-rule="evenodd" fill="#00BFBA" width="88.9" height="18.5"/>
		<text transform="matrix(1 0 0 1 311.4263 290.1807)"><tspan x="0" y="0" fill="#FBFF00" font-family="'Righteous-Regular'" font-size="17.2711px">Customer</tspan><tspan x="5.4" y="20.7" fill="#FBFF00" font-family="'Righteous-Regular'" font-size="17.2711px">Support</tspan></text>
	</g>
</g>
</svg>
