<?xml version="1.0" encoding="utf-8"?>
<!-- Generator: Adobe Illustrator 19.0.0, SVG Export Plug-In . SVG Version: 6.00 Build 0)  -->
<svg version="1.1" id="Layer_1" xmlns="http://www.w3.org/2000/svg" xmlns:xlink="http://www.w3.org/1999/xlink" x="0px" y="0px"
	 viewBox="0 0 612 792" enable-background="new 0 0 612 792" xml:space="preserve">
<g id="XMLID_1_">
	<g id="XMLID_426_">
		<rect id="XMLID_203_" x="9.9" y="568.9" fill="#EBEBEB" width="594.4" height="0.3"/>
		<rect id="XMLID_202_" x="72.2" y="580.6" fill="#EBEBEB" width="39.4" height="0.3"/>
		<rect id="XMLID_201_" x="213.3" y="577.2" fill="#EBEBEB" width="65.9" height="0.3"/>
		<rect id="XMLID_200_" x="118.1" y="587.8" fill="#EBEBEB" width="22.8" height="0.3"/>
		<rect id="XMLID_199_" x="468.1" y="580.4" fill="#EBEBEB" width="51.4" height="0.3"/>
		<rect id="XMLID_198_" x="530.1" y="580.4" fill="#EBEBEB" width="7.5" height="0.3"/>
		<rect id="XMLID_197_" x="339.4" y="584.7" fill="#EBEBEB" width="55.7" height="0.3"/>
		<path id="XMLID_430_" fill="#EBEBEB" d="M291.6,514.3H62.1c-3.7,0-6.8-3.1-6.8-7V174.8c0-3.9,3-7,6.8-7h229.6c3.7,0,6.8,3.1,6.8,7
			v332.5C298.4,511.1,295.4,514.3,291.6,514.3z M62.1,168.1c-3.6,0-6.5,3-6.5,6.7v332.5c0,3.7,2.9,6.7,6.5,6.7h229.6
			c3.6,0,6.5-3,6.5-6.7V174.8c0-3.7-2.9-6.7-6.5-6.7H62.1z"/>
		<path id="XMLID_427_" fill="#EBEBEB" d="M548.8,514.3H319.2c-3.7,0-6.8-3.1-6.8-7V174.8c0-3.9,3-7,6.8-7h229.6
			c3.7,0,6.8,3.1,6.8,7v332.5C555.6,511.1,552.5,514.3,548.8,514.3z M319.2,168.1c-3.6,0-6.5,3-6.5,6.7v332.5c0,3.7,2.9,6.7,6.5,6.7
			h229.6c3.6,0,6.5-3,6.5-6.7V174.8c0-3.7-2.9-6.7-6.5-6.7H319.2z"/>
	</g>
	<g id="XMLID_388_">
		<g id="XMLID_409_">
			<g id="XMLID_413_">
				<rect id="XMLID_192_" x="134.4" y="191.6" fill="#FAFBFB" width="229.5" height="169.8"/>
				<polygon id="XMLID_191_" fill="#FFFFFF" points="350.9,361.4 292.5,191.6 248.7,191.6 307.1,361.4 				"/>
				<polygon id="XMLID_190_" fill="#FFFFFF" points="233.1,361.4 174.7,191.6 158.7,191.6 217.1,361.4 				"/>
				<g id="XMLID_414_">
					<path id="XMLID_189_" fill="#E0E0E0" d="M123.5,185.8h251.4c0.6,0,1,0.5,1,1.1l0,0c0,0.6-0.5,1.1-1,1.1H123.5
						c-0.6,0-1-0.5-1-1.1l0,0C122.5,186.2,122.9,185.8,123.5,185.8z"/>
					<rect id="XMLID_188_" x="247.8" y="191.2" fill="#F1F0F0" width="2.7" height="170.5"/>
					<rect id="XMLID_187_" x="246.5" y="191.2" fill="#E0E0E0" width="1.4" height="170.5"/>
					<rect id="XMLID_186_" x="132.9" y="275.1" fill="#F1F0F0" width="232.7" height="2.8"/>
					<path id="XMLID_416_" fill="#F1F0F0" d="M132.9,360.2L132.9,360.2V192.8V190h2.7h227.2h2.7v2.8v167.4h0v2.8h0l0,0h-2.7l0,0
						H135.6l0,0h-2.7l0,0l0,0V360.2z M362.8,360.2V192.8H135.6v167.4H362.8z"/>
					<rect id="XMLID_183_" x="131.5" y="190" fill="#E0E0E0" width="1.4" height="173"/>
				</g>
			</g>
			<g id="XMLID_410_">
				<polygon id="XMLID_182_" opacity="0.5" fill="#EBEBEB" points="166.6,183.2 166.6,382.6 117.5,382.6 126.5,183.2 				"/>
				<polygon id="XMLID_181_" opacity="0.5" fill="#EBEBEB" points="330.4,183.2 330.4,382.6 379.6,382.6 370.6,183.2 				"/>
			</g>
		</g>
		<g id="XMLID_393_">
			<g id="XMLID_394_">
				<g id="XMLID_395_">
					<rect id="XMLID_180_" x="83.5" y="406.5" fill="#F1F0F0" width="18.7" height="156.6"/>
					<rect id="XMLID_179_" x="87.1" y="563" fill="#F1F0F0" width="206.4" height="5.9"/>
					<rect id="XMLID_178_" x="102.2" y="406.5" fill="#F5F5F5" width="194.9" height="156.6"/>
					<rect id="XMLID_177_" x="81.1" y="401.3" fill="#F1F0F0" width="19.1" height="5.1"/>
					<rect id="XMLID_176_" x="100.3" y="401.3" fill="#FAFBFB" width="199.2" height="5.1"/>
					<path id="XMLID_401_" fill="#E0E0E0" d="M290.4,494.6H109v-77.4h181.4V494.6z M110.2,493.3h178.9v-74.8H110.2V493.3z"/>
					<path id="XMLID_398_" fill="#E0E0E0" d="M290.4,552.3H109v-50h181.4V552.3z M110.2,551h178.9v-47.4H110.2V551z"/>
					<path id="XMLID_171_" fill="#E0E0E0" d="M265,422H134.3c-0.5,0-0.9-0.4-0.9-0.9v-2.3c0-0.5,0.4-0.9,0.9-0.9H265
						c0.5,0,0.9,0.4,0.9,0.9v2.3C265.9,421.6,265.5,422,265,422z"/>
					<path id="XMLID_170_" fill="#E0E0E0" d="M265,507.1H134.3c-0.5,0-0.9-0.4-0.9-0.9v-2.3c0-0.5,0.4-0.9,0.9-0.9H265
						c0.5,0,0.9,0.4,0.9,0.9v2.3C265.9,506.7,265.5,507.1,265,507.1z"/>
				</g>
			</g>
		</g>
		<g id="XMLID_389_">
			<rect id="XMLID_169_" x="423.4" y="218.7" fill="#F1F0F0" width="109" height="342.6"/>
			<rect id="XMLID_168_" x="420" y="218.7" fill="#E0E0E0" width="3.5" height="342.6"/>
			<rect id="XMLID_167_" x="441.1" y="231.8" fill="#FAFBFB" width="73.6" height="316.5"/>
		</g>
	</g>
	<ellipse id="_x3C_Path_x3E__291_" fill="#F5F5F5" cx="307.1" cy="610.3" rx="230.5" ry="13.9"/>
	<polygon id="XMLID_166_" fill="#B65C53" points="180.3,599.7 189.6,596 183.9,572.9 174.6,576.5 	"/>
	<polygon id="XMLID_165_" fill="#B65C53" points="110.4,599.9 120.3,599.9 121.8,576.1 111.8,576.1 	"/>
	<path id="XMLID_164_" fill="#263238" d="M121.3,598.7h-12.1c-0.4,0-0.7,0.3-0.8,0.7l-1.5,9.1c-0.2,0.9,0.6,1.8,1.5,1.8
		c3.9-0.1,6.7-0.3,11.7-0.3c3,0,12.2,0.3,16.3,0.3c4.1,0,4.5-4.3,2.8-4.6c-7.8-1.7-13.6-4.1-16.2-6.4
		C122.5,598.9,121.9,598.7,121.3,598.7z"/>
	<path id="XMLID_163_" fill="#263238" d="M189.1,595l-10.2,4c-0.4,0.1-0.6,0.5-0.6,1l1.3,9.2c0.1,1,1.1,1.5,2,1.2
		c3.6-1.5,6.7-3.4,11.4-5.1c5.4-2,10.8-4.2,15.2-7c3.4-2.3,2-6.5,0.4-5.9c-7.4,3.1-9.2,4.1-17,2.5
		C190.8,594.7,189.9,594.6,189.1,595z"/>
	<path id="XMLID_162_" fill="#B75C53" d="M162.9,287.3c3.1,5.7,6.4,11.6,9.8,17.3c3.3,5.7,6.7,11.4,10.4,16.7
		c0.9,1.3,1.9,2.6,2.7,3.9c0.4,0.6,0.5,0.7,0.8,0.9c0.3,0.2,0.9,0.4,1.8,0.3c0.9-0.1,2.1-0.3,3.3-0.8c2.5-0.9,5.1-2.4,7.7-4.1
		c1.3-0.9,2.6-1.8,3.9-2.7c1.3-0.9,2.6-2,3.7-2.9l5.6,5.1c-1.1,1.6-2.1,3-3.3,4.4c-1.1,1.4-2.3,2.8-3.6,4.1
		c-1.3,1.3-2.6,2.6-4.1,3.8c-1.5,1.2-3,2.3-4.8,3.4c-1.8,1-3.7,1.9-6,2.5c-2.3,0.6-5.1,0.8-8,0c-2.9-0.8-5.6-2.7-7.3-4.8
		c-1.2-1.4-2.4-2.8-3.4-4.2c-4.4-5.6-8.3-11.3-12-17.2c-3.7-5.9-7.1-11.8-10.3-18.1L162.9,287.3z"/>
	<g id="XMLID_380_">
		<path id="XMLID_161_" fill="#2BB673" d="M145.2,287.7c-2.7,9.4,16.2,35.1,16.2,35.1l19.1-12.6c0,0-5.6-13.1-13.2-23.1
			C159.5,276.9,148.2,277.4,145.2,287.7z"/>
		<path id="XMLID_160_" opacity="0.2" fill="#2BB673" d="M145.2,287.7c-2.7,9.4,16.2,35.1,16.2,35.1l19.1-12.6
			c0,0-5.6-13.1-13.2-23.1C159.5,276.9,148.2,277.4,145.2,287.7z"/>
	</g>
	<path id="XMLID_159_" opacity="0.2" d="M156.8,298.8c3.9,1.7,9.7,11.5,12.7,18.7l-8.1,5.4c0,0-7.3-9.9-12.2-19.6
		C151.8,300.3,154.8,297.9,156.8,298.8z"/>
	<path id="XMLID_158_" fill="#B65C53" d="M205.7,318.9l3.5-10.1l9.9,4.9c0,0-2.1,9-9.3,9L205.7,318.9z"/>
	<polygon id="XMLID_157_" fill="#B65C53" points="218,302.2 222.2,307 219.1,313.7 209.2,308.8 	"/>
	<polygon id="XMLID_156_" opacity="0.2" points="183.9,572.9 186.8,584.8 177.5,588.5 174.6,576.5 	"/>
	<polygon id="XMLID_155_" opacity="0.2" points="111.8,576.1 121.8,576.1 121,588.4 111.1,588.4 	"/>
	<g id="XMLID_372_">
		<path id="XMLID_154_" fill="#2BB673" d="M100.8,283.6c10.7,39,9,80.3,9.6,88.7c7.8-0.3,37.2-1.4,53.2-2.1
			c9-58.1-7.2-90.4-7.2-90.4s-3.4-0.7-8.1-1.2c-1.5-0.2-3-0.3-4.7-0.4c-0.9-0.1-1.8-0.1-2.8-0.1c-6-0.1-15.8,0.9-22.6,1.7
			c-1.4,0.2-2.9,0.4-4.2,0.6c-1.3,0.2-2.6,0.5-3.8,0.7C105,282.4,100.8,283.6,100.8,283.6z"/>
		<path id="XMLID_153_" opacity="0.2" fill="#2BB673" d="M100.8,283.6c10.7,39,9,80.3,9.6,88.7c7.8-0.3,37.2-1.4,53.2-2.1
			c9-58.1-7.2-90.4-7.2-90.4s-3.4-0.7-8.1-1.2c-1.5-0.2-3-0.3-4.7-0.4c-0.9-0.1-1.8-0.1-2.8-0.1c-6-0.1-15.8,0.9-22.6,1.7
			c-1.4,0.2-2.9,0.4-4.2,0.6c-1.3,0.2-2.6,0.5-3.8,0.7C105,282.4,100.8,283.6,100.8,283.6z"/>
	</g>
	<path id="XMLID_152_" opacity="0.2" d="M112.2,300.3c1,3.8-0.1,21-4,25.2c-0.5-5.5-1.2-11.3-2.1-17.1L112.2,300.3z"/>
	<path id="XMLID_151_" fill="#B65C53" d="M118.8,253.5c2,7.4,4.4,21-0.3,26.4c4.2,3.7,9.7,8,18.4,7.7c8.6-0.3,6.7-6.3,4.2-9.4
		c-8.2-1.4-8.5-7.6-7.5-13.5L118.8,253.5z"/>
	<g id="XMLID_365_">
		<polygon id="XMLID_150_" fill="#5274B8" points="137,286.3 138.6,287.4 132.9,289.1 134.4,286.4 		"/>
		<polygon id="XMLID_149_" fill="#5274B8" points="139.2,285.7 138.6,287.4 144.4,289.1 144,285.9 		"/>
		<path id="XMLID_148_" fill="#FFFFFF" d="M115,279.3l2.3-1.2c0.7-0.4,1.6-0.3,2.3,0.2c2.4,1.8,8.7,6.1,17.5,7.9
			c-4.5,2.2-3.4,8.2-3.4,8.2s-14.4-4.9-19.1-13.8C114.3,280.2,114.5,279.6,115,279.3z"/>
		<path id="XMLID_147_" fill="#FFFFFF" d="M143.5,277.8l-3.3-0.5c-0.4-0.1-0.6,0.4-0.4,0.7c1.2,1.7,3.1,5.4-0.6,7.7
			c4.5,2.2,6,7.7,6,7.7s5.9-6.6-1-15.3C144,278,143.8,277.8,143.5,277.8z"/>
	</g>
	<path id="XMLID_146_" opacity="0.2" d="M124.8,258.1l8.7,6.6c-0.2,1.4-0.4,2.8-0.4,4.2c-3.1-0.2-7.6-3.4-8.2-6.7
		C124.6,260.5,124.6,258.9,124.8,258.1z"/>
	<path id="XMLID_145_" fill="#263238" d="M144,238.4c-0.4,3.6-3.7,6.6-5.9,7.4l-2.7-15.5C141.5,225.9,144.6,233.4,144,238.4z"/>
	<path id="XMLID_144_" fill="#B65C53" d="M115.8,242.7c1.7,10,2.2,16,7.8,20.6c8.3,6.9,19.9,0.9,21.1-9.5c1.1-9.3-1.9-24.1-12-27
		C122.8,223.9,114.1,232.7,115.8,242.7z"/>
	<path id="XMLID_143_" fill="#263238" d="M117.6,249.4c4.5,2.5,6.5-3.1,6.5-5.3c0.1-3.6-1.4-7.5-3.2-8.9c8.7-0.1,25.9-0.4,21.6-9
		c-4.3-8.5-13-7.6-19.6-2.9c-3.5,2.5-14.7,0.3-11.9,7C105.2,233.5,110.2,245.4,117.6,249.4z"/>
	<path id="XMLID_142_" fill="#263238" d="M112,229.7c0,0-1.9,0.2-4.3-1.5c0.7,3.2,3.8,3.2,3.8,3.2L112,229.7z"/>
	<path id="XMLID_141_" fill="#B65C53" d="M112.1,250.9c1.2,2.5,3.3,4.1,5.4,4.8c3.1,1,3.9-1.9,3.1-5c-0.7-2.8-2.2-6.6-5.4-6.3
		C112.1,244.7,110.8,248.1,112.1,250.9z"/>
	<path id="XMLID_140_" fill="#FFFFFF" d="M175.3,478.7c-4-31-11.6-108.4-11.6-108.4l-35,1.4c0,0,16.5,77.4,22.5,108.7
		c6,31.4,22.6,107.1,22.6,107.1l15.8-6.2C189.5,581.2,179.5,510.9,175.3,478.7z"/>
	<path id="XMLID_139_" opacity="0.2" d="M141.8,392.4c-2.2,0.6-5.6,1.9-7.8,4.1c3.3,15.6,7.6,36.2,11.3,54.4
		C147.8,435.2,147.9,405.5,141.8,392.4z"/>
	<path id="XMLID_138_" fill="#FFFFFF" d="M144.8,371c0,0-7.4,84-10.8,113.8c-3.7,32.7-8.4,101.2-8.4,101.2h-18.2
		c0,0-0.8-60.6,1.6-92.6c2.7-36.4,1.5-121.1,1.5-121.1L144.8,371z"/>
	<polygon id="XMLID_137_" fill="#006838" points="128,586.4 106.6,586.4 106.1,579.8 130.1,579.4 	"/>
	<polygon id="XMLID_136_" fill="#006838" points="191.6,580.8 172.9,588.2 170.5,581.9 191.4,573.4 	"/>
	<path id="XMLID_135_" fill="#263238" d="M131,243.7c0.1,0.8,0.6,1.4,1.1,1.4c0.5-0.1,0.9-0.8,0.8-1.6c-0.1-0.8-0.6-1.4-1.1-1.4
		C131.2,242.2,130.9,242.9,131,243.7z"/>
	<path id="XMLID_134_" fill="#263238" d="M140,242.7c0.1,0.8,0.6,1.4,1.1,1.4c0.5-0.1,0.9-0.8,0.8-1.6c-0.1-0.8-0.6-1.4-1.1-1.4
		C140.2,241.1,139.9,241.9,140,242.7z"/>
	<path id="XMLID_133_" fill="#A12924" d="M137.2,243.4c0,0,2.3,4.5,4.6,6.6c-1.3,1.5-3.7,1.2-3.7,1.2L137.2,243.4z"/>
	<path id="XMLID_132_" fill="#263238" d="M134.9,253.8c-3.1-0.1-4.7-2.1-4.8-2.2c-0.1-0.1-0.1-0.3,0-0.3c0.1-0.1,0.2-0.1,0.3,0
		c0,0,1.9,2.3,5.4,1.9c0.1,0,0.2,0.1,0.3,0.2c0,0.1-0.1,0.3-0.2,0.3C135.6,253.8,135.2,253.8,134.9,253.8z"/>
	<path id="XMLID_131_" fill="#263238" d="M127.8,241.1c-0.1,0-0.2,0-0.2-0.1c-0.2-0.1-0.3-0.4-0.2-0.7c1.3-2.3,3.5-2.4,3.6-2.4
		c0.3,0,0.5,0.2,0.5,0.5c0,0.3-0.2,0.5-0.4,0.5l0,0c-0.1,0-1.8,0.1-2.8,2C128.2,241,128,241.1,127.8,241.1z"/>
	<path id="XMLID_130_" fill="#263238" d="M143.5,239c-0.2,0-0.3-0.1-0.4-0.2c-1.1-1.8-2.8-1.9-2.9-1.9c-0.3,0-0.5-0.2-0.5-0.5
		c0-0.3,0.2-0.5,0.5-0.5c0.1,0,2.3,0.1,3.7,2.3c0.1,0.2,0.1,0.5-0.1,0.7C143.7,239,143.6,239,143.5,239z"/>
	<g id="XMLID_334_">
		<path id="XMLID_345_" fill="#5274B8" d="M124.7,600.5c-0.9,0-1.9-0.2-2.6-0.4c-0.1,0-0.2-0.1-0.2-0.2c0-0.1,0-0.2,0.1-0.2
			c0.4-0.2,3.5-2.3,4.6-1.7c0.2,0.1,0.4,0.3,0.4,0.7c0.1,0.5-0.1,1-0.4,1.3C126.1,600.3,125.4,600.5,124.7,600.5z M122.7,599.8
			c1.7,0.3,3,0.3,3.5-0.2c0.2-0.2,0.3-0.5,0.3-0.9c0-0.2-0.1-0.3-0.2-0.3C125.8,598.1,124,599,122.7,599.8z"/>
		<path id="XMLID_342_" fill="#5274B8" d="M122.1,600.1c0,0-0.1,0-0.1,0c-0.1,0-0.1-0.1-0.1-0.2c0-0.1,0.1-3.1,1.2-4.1
			c0.3-0.3,0.6-0.4,1-0.3c0,0,0,0,0,0c0.6,0.1,0.7,0.4,0.8,0.6c0.3,1.1-1.6,3.4-2.6,4C122.2,600.1,122.2,600.1,122.1,600.1z
			 M123.9,595.9c-0.2,0-0.4,0.1-0.5,0.2c-0.7,0.6-0.9,2.3-1,3.2c1-0.8,2.2-2.5,2-3.2c0-0.1,0-0.2-0.4-0.2l0,0
			C124,596,124,595.9,123.9,595.9z"/>
		<path id="XMLID_339_" fill="#5274B8" d="M190.5,595.9c-0.1,0-0.2,0-0.2-0.1c0-0.1,0-0.2,0-0.3c0.3-0.4,3.4-3.8,4.7-3.6
			c0.3,0,0.5,0.2,0.6,0.5c0,0,0,0,0,0c0.2,0.4,0.2,0.9,0,1.3C195,595,192.2,595.6,190.5,595.9C190.6,595.9,190.5,595.9,190.5,595.9z
			 M194.9,592.4c-0.8,0-2.5,1.6-3.7,2.9c2.2-0.5,3.7-1.1,4.1-1.9c0.1-0.3,0.1-0.5,0-0.8C195.2,592.5,195.1,592.4,194.9,592.4
			C195,592.4,195,592.4,194.9,592.4z"/>
		<path id="XMLID_335_" fill="#5274B8" d="M190.5,595.9C190.5,595.9,190.5,595.9,190.5,595.9c-0.1,0-0.2-0.1-0.2-0.2
			c0-0.1-0.7-2.8,0.1-4.3c0.2-0.4,0.6-0.7,1.1-0.9l0,0c0.6-0.2,0.9,0.1,1.1,0.3c0.6,1-0.9,4-1.8,4.9
			C190.6,595.9,190.6,595.9,190.5,595.9z M191.8,591c-0.1,0-0.1,0-0.2,0c0,0,0,0,0,0c-0.3,0.1-0.6,0.3-0.8,0.6
			c-0.5,1-0.3,2.6-0.1,3.4c0.9-1.2,1.8-3.4,1.5-4C192.1,591.1,192,591,191.8,591z M191.5,590.9L191.5,590.9L191.5,590.9z"/>
	</g>
	<path id="XMLID_120_" fill="#B75C53" d="M111.8,298.1c-3,6.3-6,12.9-9,19.3c-1.5,3.2-2.9,6.5-4.3,9.7l-2.1,4.9l-1,2.4l-0.2,0.6
		l-0.2,0.5c-0.1,0.3-0.2,0.6-0.3,0.9c-0.7,2.3-0.9,4.8-0.4,7.5c0.5,2.7,1.6,5.4,3.1,8.1c1.5,2.7,3.5,5.4,5.7,7.9
		c1.1,1.3,2.2,2.5,3.4,3.7c0.6,0.6,1.2,1.2,1.8,1.8c0.6,0.6,1.3,1.2,1.8,1.7l-4,6.5c-1.8-1-3.4-1.9-5-3c-1.6-1.1-3.1-2.2-4.6-3.4
		c-3-2.5-5.8-5.3-8.3-8.5c-2.5-3.3-4.7-7.1-6-11.5c-1.3-4.4-1.7-9.5-0.6-14.2c0.1-0.6,0.3-1.2,0.4-1.7l0.5-1.5l0.8-2.7
		c0.6-1.8,1.2-3.6,1.8-5.3c1.2-3.5,2.6-7,4-10.4c2.8-6.9,5.8-13.5,9.2-20.2L111.8,298.1z"/>
	<g id="XMLID_330_">
		<path id="XMLID_119_" fill="#2BB673" d="M100.8,283.6c-9.1,2.9-18,34.7-18,34.7l21,9.5c0,0,6.8-15.3,10.7-27.4
			C118.8,287.3,111.8,280,100.8,283.6z"/>
		<path id="XMLID_118_" opacity="0.2" fill="#2BB673" d="M100.8,283.6c-9.1,2.9-18,34.7-18,34.7l21,9.5c0,0,6.8-15.3,10.7-27.4
			C118.8,287.3,111.8,280,100.8,283.6z"/>
	</g>
	<path id="XMLID_117_" fill="#B65C53" d="M107.9,365l8.7,5.3l-8.5,8.7c0,0-7.3-5.8-5.2-10.4L107.9,365z"/>
	<polygon id="XMLID_116_" fill="#B65C53" points="122.4,378.8 113.7,385.1 108.1,379 116.6,370.3 	"/>
	<polygon id="XMLID_115_" fill="#5274B8" points="543.7,368.7 542.5,368.6 542.9,362.7 544.1,362.8 	"/>
	<polygon id="XMLID_114_" fill="#5274B8" points="544.5,357.5 543.3,357.5 544.5,340.3 545.7,340.4 	"/>
	<path id="XMLID_113_" fill="#006838" d="M511.9,532.8H220.8c-8.9,0-15.7-7.5-15-16.7l15.4-221.5c0.6-9.2,8.4-16.7,17.3-16.7h291.2
		c8.9,0,15.7,7.5,15,16.7l-15.4,221.5C528.6,525.3,520.8,532.8,511.9,532.8z"/>
	<polygon id="XMLID_112_" fill="#006838" points="444.2,610.3 349.7,610.3 332.8,490 427.4,490 	"/>
	<polygon id="XMLID_111_" fill="#2BB673" points="429.2,603.2 327,603.2 324.9,610.3 427.2,610.3 	"/>
	<polygon id="XMLID_110_" fill="#263238" points="432.3,547.9 340.2,542.7 332.8,490 424.2,490 	"/>
	<path id="XMLID_109_" fill="#FFFFFF" d="M508.7,532.8H217.5c-8.9,0-15.7-7.5-15-16.7l15.4-221.5c0.6-9.2,8.4-16.7,17.3-16.7h291.2
		c8.9,0,15.7,7.5,15,16.7L526,516.2C525.4,525.3,517.6,532.8,508.7,532.8z"/>
	<polygon id="XMLID_108_" fill="#FFFFFF" points="533,424 531.8,423.9 540.7,296.8 541.8,296.9 	"/>
	<polygon id="XMLID_107_" fill="#FFFFFF" points="529.1,479 528,478.9 531.1,434.9 532.2,435 	"/>
	<path id="XMLID_106_" fill="#FFFFFF" d="M508,528.7H218.7c-6.9,0-12.2-5.8-11.7-13l15.3-220.6c0.5-7.1,6.6-13,13.5-13h289.4
		c6.9,0,12.2,5.8,11.7,13l-15.3,220.6C521,522.8,515,528.7,508,528.7z"/>
	<path id="XMLID_105_" opacity="0.2" fill="#2BB673" d="M508,528.7H218.7c-6.9,0-12.2-5.8-11.7-13l15.3-220.6
		c0.5-7.1,6.6-13,13.5-13h289.4c6.9,0,12.2,5.8,11.7,13l-15.3,220.6C521,522.8,515,528.7,508,528.7z"/>
	<path id="XMLID_104_" opacity="0.5" fill="#FFFFFF" d="M292.9,518.9h-67.6c-3.3,0-5.9-2.8-5.6-6.3l14.9-214.4
		c0.2-3.4,3.2-6.3,6.5-6.3h67.6c3.3,0,5.9,2.8,5.6,6.3l-14.9,214.4C299.2,516.1,296.2,518.9,292.9,518.9z"/>
	<path id="XMLID_103_" opacity="0.4" fill="#2BB673" d="M290.3,322.2h-35c-3,0-5.3-2.5-5.1-5.6l0.4-5.5c0.2-3.1,2.9-5.6,5.9-5.6h35
		c3,0,5.3,2.5,5.1,5.6l-0.4,5.5C295.9,319.6,293.3,322.2,290.3,322.2z"/>
	<path id="XMLID_102_" fill="#009444" d="M268,408.9h-53.4c-5.3,0-9.3-4.4-8.9-9.9l3.8-55c0.4-5.4,5-9.9,10.2-9.9h53.4
		c5.3,0,9.3,4.4,8.9,9.9l-3.8,55C277.9,404.5,273.3,408.9,268,408.9z"/>
	<path id="XMLID_101_" fill="#FFFFFF" d="M275.7,363.8c-2,0-3.8,1.7-3.9,3.8l-0.6,8c-0.1,2.1,1.4,3.8,3.4,3.8h5.4
		c0.5,0,0.9-0.4,1-0.9l0.9-13.6c0-0.5-0.3-0.9-0.8-0.9H275.7z"/>
	<path id="XMLID_100_" fill="#FFFFFF" d="M255.1,348.2h-33.7c-0.8,0-1.4-0.7-1.4-1.5l0,0c0.1-0.8,0.8-1.5,1.6-1.5h33.7
		c0.8,0,1.4,0.7,1.4,1.5l0,0C256.6,347.5,255.9,348.2,255.1,348.2z"/>
	<path id="XMLID_99_" fill="#FFFFFF" d="M254.5,355.9h-33.7c-0.8,0-1.4-0.7-1.4-1.5l0,0c0.1-0.8,0.8-1.5,1.6-1.5h33.7
		c0.8,0,1.4,0.7,1.4,1.5l0,0C256.1,355.2,255.4,355.9,254.5,355.9z"/>
	<path id="XMLID_98_" fill="#FFFFFF" d="M242.4,363.5h-22c-0.8,0-1.4-0.7-1.4-1.5l0,0c0.1-0.8,0.8-1.5,1.6-1.5h22
		c0.8,0,1.4,0.7,1.4,1.5l0,0C243.9,362.8,243.2,363.5,242.4,363.5z"/>
	<path id="XMLID_97_" opacity="0.5" fill="#FFFFFF" d="M255.2,400h-32.6c-3.4,0-6-2.9-5.8-6.4L218,376c0.2-3.5,3.3-6.4,6.7-6.4h32.6
		c3.4,0,6,2.9,5.8,6.4l-1.2,17.6C261.6,397.1,258.6,400,255.2,400z"/>
	<path id="XMLID_96_" opacity="0.4" fill="#2BB673" d="M285.6,429.5h-40.5c-1.5,0-2.6-1.3-2.5-2.8l0,0c0.1-1.5,1.4-2.8,2.9-2.8H286
		c1.5,0,2.6,1.3,2.5,2.8l0,0C288.4,428.3,287.1,429.5,285.6,429.5z"/>
	<path id="XMLID_95_" opacity="0.8" fill="#FFFFFF" d="M277.4,440.5h-25.7c-1.5,0-2.6-1.3-2.5-2.8l0,0c0.1-1.5,1.4-2.8,2.9-2.8h25.7
		c1.5,0,2.6,1.3,2.5,2.8l0,0C280.2,439.2,278.9,440.5,277.4,440.5z"/>
	<path id="XMLID_94_" opacity="0.4" fill="#2BB673" d="M283.5,459.8h-40.5c-1.5,0-2.6-1.3-2.5-2.8l0,0c0.1-1.5,1.4-2.8,2.9-2.8h40.5
		c1.5,0,2.6,1.3,2.5,2.8l0,0C286.3,458.5,285,459.8,283.5,459.8z"/>
	<path id="XMLID_93_" opacity="0.8" fill="#FFFFFF" d="M275.3,470.7h-25.7c-1.5,0-2.6-1.3-2.5-2.8l0,0c0.1-1.5,1.4-2.8,2.9-2.8h25.7
		c1.5,0,2.6,1.3,2.5,2.8l0,0C278.1,469.5,276.8,470.7,275.3,470.7z"/>
	<path id="XMLID_92_" opacity="0.4" fill="#2BB673" d="M281.4,490h-40.5c-1.5,0-2.6-1.3-2.5-2.8l0,0c0.1-1.5,1.4-2.8,2.9-2.8h40.5
		c1.5,0,2.6,1.3,2.5,2.8l0,0C284.2,488.7,282.9,490,281.4,490z"/>
	<path id="XMLID_91_" opacity="0.8" fill="#FFFFFF" d="M273.2,501h-25.7c-1.5,0-2.6-1.3-2.5-2.8v0c0.1-1.5,1.4-2.8,2.9-2.8h25.7
		c1.5,0,2.6,1.3,2.5,2.8v0C276,499.7,274.7,501,273.2,501z"/>
	<path id="XMLID_90_" opacity="0.5" fill="#009444" d="M511.2,456c1.8-2.8,5.8-1.6,5.6,1.6l-3.9,56c-0.2,2.9-2.3,5.2-4.7,5.2h-196
		c-2.4,0-4.2-2.3-4-5.2l2.3-33.3c0.3-4.5,4.7-7.7,8.8-6.4c11,3.5,20.5,1.5,29.3-3c18.8-9.6,34.6-30.3,56.2-30.3c0.8,0,1.6,0,2.4,0.1
		c32.2,2,42,43.2,66.9,43.2c7.4,0,14.1-3.3,19.9-7.9C501.2,470.3,507.1,462.5,511.2,456z"/>
	<path id="XMLID_89_" opacity="0.5" fill="#2BB673" d="M515.2,479.1l-2.4,34.6c-0.2,2.9-2.3,5.2-4.7,5.2h-196c-2.4,0-4.2-2.3-4-5.2
		l4.8-68.7c0.3-4.7,6.3-6.7,8.7-2.9c6.3,9.8,15.9,22.5,26.9,28.8c4.2,2.4,8.7,3.9,13.2,3.9c15.8,0,29.3-19.4,45.4-34.1
		c9.9-9,20.7-16.3,33.7-16.3c27.1,0,31.1,45.3,53.2,51.5c4.3,1.2,9.2,0.9,15.1-1.4C512.3,473.3,515.5,475.7,515.2,479.1z"/>
	<g id="XMLID_241_" opacity="0.8">
		<path id="XMLID_88_" fill="#FFF200" d="M516.2,465.7c-0.1,0-0.2,0-0.3-0.1c0,0-0.1-0.1-0.1-0.1c0,0,0-0.1,0-0.2
			c0-0.1,0-0.2,0.1-0.3c0.1-0.2,0.4-0.2,0.6,0c0.1,0.1,0.1,0.2,0.1,0.3c0,0,0,0.1,0,0.2c0,0-0.1,0.1-0.1,0.1
			C516.4,465.7,516.3,465.7,516.2,465.7z"/>
		<path id="XMLID_243_" fill="#FFF200" d="M325.7,494.4c-0.2,0-0.4-0.2-0.4-0.4l0,0c0-0.2,0.2-0.4,0.4-0.4v0c0.2,0,0.4,0.2,0.4,0.4
			l0,0C326.1,494.2,325.9,494.4,325.7,494.4L325.7,494.4C325.7,494.4,325.7,494.4,325.7,494.4z M321.6,494.2
			C321.6,494.2,321.6,494.2,321.6,494.2L321.6,494.2c-0.2,0-0.4-0.2-0.4-0.5l0,0c0-0.2,0.2-0.4,0.5-0.4l0,0c0.2,0,0.4,0.2,0.4,0.5
			l0,0C322,494,321.8,494.2,321.6,494.2L321.6,494.2C321.6,494.2,321.6,494.2,321.6,494.2z M329.3,493.8c0-0.2,0.1-0.4,0.4-0.5l0,0
			c0.2,0,0.4,0.1,0.5,0.4l0,0c0,0.2-0.1,0.4-0.4,0.5l0,0c0,0,0,0,0,0l0,0C329.5,494.2,329.3,494,329.3,493.8z M317.6,493.6
			c-0.2,0-0.4-0.3-0.3-0.5l0,0c0-0.2,0.3-0.4,0.5-0.3l0,0c0.2,0,0.4,0.3,0.3,0.5l0,0C318,493.4,317.8,493.6,317.6,493.6L317.6,493.6
			C317.6,493.6,317.6,493.6,317.6,493.6z M333.3,493.1c-0.1-0.2,0.1-0.5,0.3-0.5l0,0c0.2,0,0.4,0.1,0.5,0.3l0,0
			c0.1,0.2-0.1,0.5-0.3,0.5l0,0c0,0,0,0,0,0l0,0c0,0-0.1,0-0.1,0l0,0C333.5,493.4,333.3,493.3,333.3,493.1z M463.3,493.3
			c-0.2,0-0.4-0.2-0.4-0.4l0,0c0-0.2,0.2-0.4,0.4-0.4l0,0c0.2,0,0.4,0.2,0.4,0.4l0,0C463.7,493.1,463.5,493.3,463.3,493.3
			L463.3,493.3L463.3,493.3z M466.9,492.7c0-0.2,0.1-0.4,0.4-0.5l0,0c0.2,0,0.4,0.1,0.5,0.4l0,0c0,0.2-0.1,0.4-0.4,0.5l0,0
			c0,0,0,0,0,0l0,0C467.1,493.1,466.9,492.9,466.9,492.7z M459.2,493.1c-0.2,0-0.4-0.2-0.3-0.5l0,0c0-0.2,0.2-0.4,0.5-0.4l0,0
			c0.2,0,0.4,0.2,0.4,0.5l0,0C459.6,492.9,459.5,493.1,459.2,493.1L459.2,493.1C459.2,493.1,459.2,493.1,459.2,493.1z M313.6,492.6
			c-0.2-0.1-0.3-0.3-0.3-0.5l0,0c0.1-0.2,0.3-0.4,0.5-0.3l0,0c0.2,0.1,0.3,0.3,0.3,0.5l0,0c0,0.2-0.2,0.3-0.4,0.3l0,0
			C313.7,492.6,313.7,492.6,313.6,492.6z M470.9,492.1c0-0.2,0.1-0.5,0.3-0.5l0,0c0.2,0,0.4,0.1,0.5,0.3l0,0c0,0.2-0.1,0.4-0.3,0.5
			l0,0l0,0l0,0c0,0,0,0-0.1,0l0,0C471.1,492.5,470.9,492.3,470.9,492.1z M455.2,492.3c-0.2,0-0.4-0.3-0.3-0.5l0,0
			c0-0.2,0.3-0.4,0.5-0.3l0,0c0.2,0,0.3,0.3,0.3,0.5l0,0C455.7,492.2,455.5,492.3,455.2,492.3L455.2,492.3
			C455.3,492.3,455.2,492.3,455.2,492.3z M337.1,492c-0.1-0.2,0-0.5,0.2-0.5l0,0c0.2-0.1,0.4,0,0.5,0.2l0,0c0.1,0.2,0,0.5-0.2,0.5
			l0,0c0,0-0.1,0-0.1,0l0,0C337.3,492.2,337.2,492.1,337.1,492z M474.8,491.2c-0.1-0.2,0.1-0.5,0.3-0.5l0,0c0.2-0.1,0.4,0.1,0.5,0.3
			l0,0c0.1,0.2-0.1,0.5-0.3,0.5l0,0l0,0l0,0c0,0-0.1,0-0.1,0l0,0C475,491.5,474.9,491.4,474.8,491.2z M451.3,491.1L451.3,491.1
			L451.3,491.1c-0.2-0.1-0.3-0.3-0.2-0.5l0,0c0.1-0.2,0.3-0.3,0.5-0.3l0,0c0.2,0.1,0.3,0.3,0.2,0.5l0,0c-0.1,0.2-0.2,0.3-0.4,0.3
			l0,0C451.4,491.1,451.4,491.1,451.3,491.1z M340.8,490.3c-0.1-0.2,0-0.5,0.2-0.6l0,0c0.2-0.1,0.4,0,0.5,0.2l0,0
			c0.1,0.2,0,0.5-0.2,0.6l0,0l0,0l0,0c-0.1,0-0.1,0-0.2,0l0,0C341,490.5,340.9,490.4,340.8,490.3z M478.7,490
			c-0.1-0.2,0-0.5,0.2-0.5l0,0c0.2-0.1,0.4,0,0.5,0.3l0,0c0.1,0.2,0,0.5-0.2,0.5l0,0c0,0-0.1,0-0.1,0l0,0
			C478.9,490.3,478.8,490.2,478.7,490z M447.6,489.5L447.6,489.5L447.6,489.5c-0.2-0.1-0.3-0.3-0.2-0.6l0,0c0.1-0.2,0.3-0.3,0.5-0.2
			l0,0c0.2,0.1,0.3,0.3,0.2,0.6l0,0c-0.1,0.1-0.2,0.2-0.4,0.2l0,0C447.7,489.5,447.6,489.5,447.6,489.5z M482.5,488.5
			c-0.1-0.2,0-0.5,0.2-0.5l0,0c0.2-0.1,0.4,0,0.5,0.2l0,0c0.1,0.2,0,0.5-0.2,0.6l0,0l0,0l0,0c0,0-0.1,0-0.2,0l0,0
			C482.7,488.8,482.5,488.7,482.5,488.5z M344.3,488.3c-0.1-0.2-0.1-0.5,0.1-0.6l0,0c0.2-0.1,0.4-0.1,0.6,0.1l0,0
			c0.1,0.2,0.1,0.5-0.1,0.6l0,0l0,0l0,0c-0.1,0-0.1,0.1-0.2,0.1l0,0C344.5,488.5,344.4,488.4,344.3,488.3z M443.9,487.6L443.9,487.6
			L443.9,487.6c-0.2-0.1-0.3-0.4-0.2-0.6l0,0c0.1-0.2,0.4-0.3,0.6-0.2l0,0c0.2,0.1,0.3,0.4,0.2,0.6l0,0c-0.1,0.1-0.2,0.2-0.4,0.2
			l0,0C444.1,487.7,444,487.6,443.9,487.6z M486.2,486.9c-0.1-0.2,0-0.5,0.2-0.6l0,0c0.2-0.1,0.5,0,0.5,0.2l0,0
			c0.1,0.2,0,0.5-0.2,0.6l0,0c0,0,0,0,0,0l0,0c-0.1,0-0.1,0-0.2,0l0,0C486.4,487.1,486.2,487,486.2,486.9z M347.7,486
			c-0.1-0.2-0.1-0.5,0.1-0.6l0,0c0.2-0.1,0.4-0.1,0.6,0.1l0,0c0.1,0.2,0.1,0.5-0.1,0.6l0,0c-0.1,0-0.2,0.1-0.2,0.1l0,0
			C347.9,486.2,347.8,486.1,347.7,486z M440.4,485.5C440.4,485.5,440.4,485.5,440.4,485.5L440.4,485.5c-0.2-0.1-0.2-0.4-0.1-0.6l0,0
			c0.1-0.2,0.4-0.3,0.5-0.1l0,0c0.2,0.1,0.3,0.4,0.1,0.6l0,0c-0.1,0.1-0.2,0.2-0.3,0.2l0,0C440.6,485.6,440.5,485.6,440.4,485.5z
			 M489.8,485c-0.1-0.2,0-0.5,0.2-0.6l0,0c0.2-0.1,0.4,0,0.5,0.2l0,0c0.1,0.2,0,0.5-0.2,0.6l0,0c-0.1,0-0.1,0-0.2,0l0,0
			C490,485.2,489.8,485.1,489.8,485z M350.9,483.5c-0.1-0.2-0.1-0.4,0.1-0.6l0,0c0.2-0.1,0.4-0.1,0.6,0.1l0,0
			c0.1,0.2,0.1,0.5-0.1,0.6l0,0c-0.1,0.1-0.2,0.1-0.3,0.1l0,0C351.1,483.6,351,483.6,350.9,483.5z M437,483.3
			C437,483.3,437,483.3,437,483.3L437,483.3c-0.2-0.1-0.2-0.4-0.1-0.6l0,0c0.1-0.2,0.4-0.2,0.6-0.1l0,0c0.2,0.1,0.2,0.4,0.1,0.6l0,0
			c-0.1,0.1-0.2,0.2-0.3,0.2l0,0C437.1,483.4,437.1,483.3,437,483.3z M493.3,483c-0.1-0.2,0-0.5,0.1-0.6l0,0c0.2-0.1,0.4,0,0.6,0.1
			l0,0c0.1,0.2,0,0.5-0.1,0.6l0,0c-0.1,0-0.1,0.1-0.2,0.1l0,0C493.5,483.2,493.4,483.1,493.3,483z M433.6,481
			c-0.2-0.1-0.2-0.4-0.1-0.6l0,0c0.1-0.2,0.4-0.2,0.6-0.1l0,0c0.2,0.1,0.2,0.4,0.1,0.6l0,0c-0.1,0.1-0.2,0.2-0.3,0.2l0,0
			C433.8,481.1,433.7,481,433.6,481z M496.8,480.8c-0.1-0.2-0.1-0.5,0.1-0.6l0,0c0.2-0.1,0.4-0.1,0.6,0.1l0,0
			c0.1,0.2,0.1,0.5-0.1,0.6l0,0l0,0l0,0c-0.1,0-0.1,0.1-0.2,0.1l0,0C497,481,496.8,481,496.8,480.8z M354,480.9
			c-0.1-0.2-0.1-0.4,0-0.6l0,0c0.2-0.1,0.4-0.1,0.6,0l0,0c0.1,0.2,0.1,0.4-0.1,0.6l0,0c-0.1,0.1-0.2,0.1-0.3,0.1l0,0
			C354.2,481,354.1,481,354,480.9z M500.1,478.6c-0.1-0.2-0.1-0.5,0.1-0.6l0,0c0.2-0.1,0.4-0.1,0.6,0.1l0,0c0.1,0.2,0.1,0.5-0.1,0.6
			l0,0c-0.1,0-0.2,0.1-0.2,0.1l0,0C500.3,478.7,500.2,478.7,500.1,478.6z M430.3,478.6c-0.2-0.1-0.2-0.4-0.1-0.6l0,0
			c0.1-0.2,0.4-0.2,0.6-0.1l0,0c0.2,0.1,0.2,0.4,0.1,0.6l0,0c-0.1,0.1-0.2,0.2-0.3,0.2l0,0C430.5,478.7,430.4,478.7,430.3,478.6z
			 M357.1,478.2c-0.2-0.2-0.1-0.4,0-0.6l0,0c0.2-0.1,0.4-0.1,0.6,0l0,0c0.1,0.2,0.1,0.4,0,0.6l0,0l0,0l0,0c-0.1,0.1-0.2,0.1-0.3,0.1
			l0,0C357.3,478.3,357.2,478.3,357.1,478.2z M426.9,476.3c-0.2-0.1-0.2-0.4-0.1-0.6l0,0c0.1-0.2,0.4-0.3,0.6-0.1l0,0
			c0.2,0.1,0.2,0.4,0.1,0.6l0,0c-0.1,0.1-0.2,0.2-0.3,0.2l0,0C427.1,476.4,427,476.4,426.9,476.3z M503.4,476.2
			c-0.1-0.2-0.1-0.4,0.1-0.6l0,0c0.2-0.1,0.4-0.1,0.6,0.1l0,0c0.1,0.2,0.1,0.5-0.1,0.6l0,0c-0.1,0-0.2,0.1-0.2,0.1l0,0
			C503.7,476.3,503.5,476.3,503.4,476.2z M360.2,475.5c-0.1-0.2-0.1-0.4,0.1-0.6l0,0c0.2-0.1,0.4-0.1,0.6,0.1l0,0
			c0.1,0.2,0.1,0.5-0.1,0.6l0,0c-0.1,0.1-0.2,0.1-0.3,0.1l0,0C360.4,475.7,360.3,475.6,360.2,475.5z M423.6,474.1
			c-0.2-0.1-0.2-0.4-0.1-0.6l0,0c0.1-0.2,0.4-0.3,0.6-0.1l0,0c0.2,0.1,0.2,0.4,0.1,0.6l0,0c-0.1,0.1-0.2,0.2-0.3,0.2l0,0
			C423.7,474.2,423.6,474.2,423.6,474.1z M506.7,473.7c-0.1-0.2-0.1-0.5,0.1-0.6l0,0c0.2-0.1,0.4-0.1,0.6,0.1l0,0
			c0.1,0.2,0.1,0.4-0.1,0.6l0,0c0,0,0,0,0,0l0,0c-0.1,0.1-0.2,0.1-0.2,0.1l0,0C506.9,473.8,506.8,473.8,506.7,473.7z M363.4,473
			c-0.1-0.2-0.1-0.5,0.1-0.6l0,0c0.2-0.1,0.4-0.1,0.6,0.1l0,0c0.1,0.2,0.1,0.4-0.1,0.6l0,0c-0.1,0-0.2,0.1-0.2,0.1l0,0
			C363.6,473.1,363.5,473.1,363.4,473z M420.1,472c-0.2-0.1-0.3-0.4-0.1-0.6l0,0c0.1-0.2,0.4-0.3,0.5-0.1l0,0
			c0.2,0.1,0.3,0.4,0.2,0.6l0,0c-0.1,0.1-0.2,0.2-0.4,0.2l0,0C420.2,472,420.2,472,420.1,472z M509.8,471.1
			c-0.1-0.2-0.1-0.4,0.1-0.6l0,0c0.2-0.1,0.4-0.1,0.6,0.1l0,0c0.1,0.2,0.1,0.4,0,0.6l0,0c-0.1,0.1-0.2,0.1-0.3,0.1l0,0
			C510,471.2,509.9,471.2,509.8,471.1z M366.7,470.5c-0.1-0.2-0.1-0.5,0.1-0.6l0,0c0.2-0.1,0.4-0.1,0.6,0.1l0,0
			c0.1,0.2,0.1,0.5-0.1,0.6l0,0c-0.1,0-0.1,0.1-0.2,0.1l0,0C366.9,470.7,366.8,470.6,366.7,470.5z M416.6,470
			c-0.2-0.1-0.3-0.4-0.2-0.6l0,0c0.1-0.2,0.3-0.3,0.5-0.2l0,0c0.2,0.1,0.3,0.4,0.2,0.6l0,0c-0.1,0.1-0.2,0.2-0.4,0.2l0,0
			C416.7,470.1,416.6,470.1,416.6,470z M512.9,468.4c-0.1-0.2-0.1-0.4,0-0.6h0c0.2-0.1,0.4-0.1,0.6,0l0,0c0.1,0.2,0.1,0.4,0,0.6l0,0
			c-0.1,0.1-0.2,0.1-0.3,0.1l0,0C513.1,468.5,513,468.5,512.9,468.4z M370.1,468.3c-0.1-0.2,0-0.5,0.2-0.6l0,0
			c0.2-0.1,0.4,0,0.5,0.2l0,0c0.1,0.2,0,0.5-0.2,0.6l0,0c0,0,0,0,0,0l0,0c-0.1,0-0.1,0-0.2,0l0,0
			C370.3,468.5,370.2,468.4,370.1,468.3z M413,468.2L413,468.2L413,468.2c-0.2-0.1-0.3-0.3-0.2-0.6l0,0c0.1-0.2,0.3-0.3,0.5-0.2l0,0
			c0.2,0.1,0.3,0.3,0.2,0.6l0,0c-0.1,0.1-0.2,0.2-0.4,0.2l0,0C413.1,468.3,413,468.3,413,468.2z M409.2,466.7
			c-0.2-0.1-0.3-0.3-0.2-0.5l0,0c0.1-0.2,0.3-0.3,0.5-0.2l0,0c0.2,0.1,0.3,0.3,0.2,0.5l0,0c-0.1,0.2-0.2,0.3-0.4,0.3l0,0
			C409.3,466.7,409.3,466.7,409.2,466.7z M373.7,466.4c-0.1-0.2,0-0.5,0.2-0.6l0,0c0.2-0.1,0.5,0,0.5,0.2l0,0c0.1,0.2,0,0.5-0.2,0.6
			l0,0c0,0-0.1,0-0.2,0l0,0C373.9,466.6,373.7,466.5,373.7,466.4z M405.4,465.4c-0.2-0.1-0.3-0.3-0.3-0.5l0,0
			c0.1-0.2,0.3-0.3,0.5-0.3l0,0c0.2,0.1,0.3,0.3,0.3,0.5l0,0c-0.1,0.2-0.2,0.3-0.4,0.3l0,0C405.5,465.4,405.5,465.4,405.4,465.4z
			 M377.4,464.8c-0.1-0.2,0-0.5,0.3-0.5l0,0c0.2-0.1,0.4,0,0.5,0.3l0,0c0.1,0.2,0,0.5-0.3,0.5l0,0c0,0-0.1,0-0.1,0l0,0
			C377.6,465.1,377.5,465,377.4,464.8z M401.6,464.4c-0.2,0-0.4-0.3-0.3-0.5l0,0c0-0.2,0.3-0.4,0.5-0.3l0,0c0.2,0,0.4,0.3,0.3,0.5
			l0,0C402,464.3,401.8,464.4,401.6,464.4L401.6,464.4C401.6,464.4,401.6,464.4,401.6,464.4z M381.3,463.7c0-0.2,0.1-0.5,0.3-0.5
			l0,0c0.2,0,0.4,0.1,0.5,0.3l0,0c0,0.2-0.1,0.5-0.3,0.5l0,0c0,0-0.1,0-0.1,0l0,0C381.5,464,381.3,463.9,381.3,463.7z M397.6,463.7
			L397.6,463.7L397.6,463.7c-0.2,0-0.4-0.2-0.3-0.5l0,0c0-0.2,0.2-0.4,0.5-0.4h0c0.2,0,0.4,0.2,0.3,0.5l0,0
			C398.1,463.5,397.9,463.7,397.6,463.7L397.6,463.7C397.7,463.7,397.7,463.7,397.6,463.7z M385.2,463c0-0.2,0.1-0.4,0.4-0.5l0,0
			c0.2,0,0.4,0.1,0.5,0.4l0,0c0,0.2-0.1,0.4-0.4,0.5l0,0c0,0,0,0,0,0l0,0C385.4,463.4,385.3,463.2,385.2,463z M393.6,463.2
			C393.6,463.2,393.6,463.2,393.6,463.2L393.6,463.2c-0.2,0-0.4-0.2-0.4-0.4l0,0c0-0.2,0.2-0.4,0.4-0.4l0,0c0.2,0,0.4,0.2,0.4,0.5
			l0,0C394.1,463.1,393.9,463.3,393.6,463.2L393.6,463.2C393.7,463.3,393.7,463.2,393.6,463.2z M389.2,462.7c0-0.2,0.2-0.4,0.4-0.4
			l0,0c0.2,0,0.4,0.2,0.4,0.4l0,0c0,0.2-0.2,0.4-0.4,0.4l0,0l0,0l0,0C389.4,463.1,389.2,462.9,389.2,462.7z"/>
		<path id="XMLID_31_" fill="#FFF200" d="M309.8,491.2c0,0-0.1,0-0.2,0c0,0-0.1,0-0.1-0.1c0,0-0.1-0.1-0.1-0.1c0,0,0-0.1,0-0.2
			c0-0.1,0-0.2,0.1-0.3c0,0,0.1-0.1,0.1-0.1c0.1,0,0.2,0,0.3,0c0.1,0,0.1,0,0.1,0.1c0.1,0.1,0.1,0.2,0.1,0.3c0,0.1,0,0.1,0,0.2
			c0,0.1,0,0.1-0.1,0.1c0,0-0.1,0.1-0.1,0.1C309.9,491.2,309.8,491.2,309.8,491.2z"/>
	</g>
	<path id="XMLID_30_" fill="#FFFFFF" d="M374.9,365.8L374.9,365.8l-2.8-3.1c-4.9,4.7-11.5,7.7-18.5,7.7c-11.8,0-21.1-8.2-23.2-19.4
		l-4.2,1.1c0,0,0,0,0,0l-3.8,1c1.1,5.9,3.7,11.2,7.6,15.5c12.1,13.4,33.5,13.4,47.4,0L374.9,365.8z"/>
	<path id="XMLID_29_" fill="#006838" d="M380.9,319.8l-3.6,3.5c0,0,0,0,0,0l-2.5,2.4c4.3,4.7,6.7,11.3,6.2,18.5
		c-0.5,7.2-3.8,13.8-8.7,18.5l2.2,2.4l0,0l3.1,3.5c6.7-6.5,10.9-15.3,11.5-24.4C389.6,335.1,386.7,326.3,380.9,319.8z"/>
	<path id="XMLID_28_" fill="#2BB673" d="M380.9,319.8c-12.1-13.4-33.5-13.4-47.4,0c-9.1,8.7-13.3,21.4-11,33.3l4.7-1.3c0,0,0,0,0,0
		l3.3-0.9c-0.4-2.2-0.5-4.4-0.4-6.8c1-14.5,13.2-26.2,27.2-26.2c7,0,13.2,2.9,17.4,7.7l3.2-3.1c0,0,0,0,0,0L380.9,319.8z"/>
	<path id="XMLID_27_" fill="#FFFFFF" d="M415,365.8L415,365.8l3.2-3.1c-4.3-4.7-6.7-11.3-6.2-18.5c0.8-12.1,9.5-22.3,20.6-25.3
		l-0.8-4.2c0,0,0,0,0,0l-0.7-3.8c-5.8,1.6-11.2,4.7-15.6,8.9c-13.9,13.4-15.5,35.4-3.4,48.8L415,365.8z"/>
	<path id="XMLID_26_" fill="#006838" d="M459.5,368.6l-3.1-3.5c0,0,0,0,0,0l-2.2-2.4c-4.9,4.7-11.5,7.7-18.5,7.7
		c-7,0-13.2-2.9-17.4-7.7l-2.5,2.4h0l-3.6,3.5c5.8,6.5,14.1,10.1,23,10.1C444,378.7,452.7,375.1,459.5,368.6z"/>
	<path id="XMLID_25_" fill="#8DC63F" d="M459.5,368.6c13.9-13.4,15.5-35.4,3.4-48.8c-7.9-8.7-20-12.1-31.7-8.9l0.9,4.8c0,0,0,0,0,0
		l0.6,3.3c2.1-0.6,4.4-0.9,6.6-0.9c14,0,24.6,11.7,23.6,26.2c-0.5,7.2-3.8,13.8-8.7,18.5l2.8,3.1c0,0,0,0,0,0L459.5,368.6z"/>
	<path id="XMLID_232_" opacity="0.3" fill="#FFF200" d="M515.6,312.8c0.7,0,1.3,0.3,1.7,0.8c0.4,0.5,0.7,1.2,0.6,1.9l-1.5,21.1
		c-0.1,1.5-1.4,2.8-2.9,2.8h-20.5c-0.7,0-1.3-0.3-1.7-0.8c-0.4-0.5-0.7-1.2-0.6-1.9l1.5-21.1c0.1-1.5,1.4-2.8,2.9-2.8H515.6
		 M515.6,311.7h-20.5c-2,0-3.8,1.7-3.9,3.8l-1.5,21.1c-0.1,2.1,1.4,3.8,3.4,3.8h20.5c2,0,3.8-1.7,3.9-3.8l1.5-21.1
		C519.2,313.4,517.6,311.7,515.6,311.7L515.6,311.7z"/>
	<path id="XMLID_229_" opacity="0.3" fill="#FFF200" d="M513.1,349.1c0.7,0,1.3,0.3,1.7,0.8c0.4,0.5,0.7,1.2,0.6,1.9l-1.5,21.1
		c-0.1,1.5-1.4,2.8-2.9,2.8h-20.5c-0.7,0-1.3-0.3-1.7-0.8c-0.4-0.5-0.7-1.2-0.6-1.9l1.5-21.1c0.1-1.5,1.4-2.8,2.9-2.8H513.1
		 M513.1,348h-20.5c-2,0-3.8,1.7-3.9,3.8l-1.5,21.1c-0.1,2.1,1.4,3.8,3.4,3.8h20.5c2,0,3.8-1.7,3.9-3.8l1.5-21.1
		C516.6,349.7,515.1,348,513.1,348L513.1,348z"/>
	<path id="XMLID_226_" fill="#FFF200" d="M483.1,466c0.6,0,1.1,0.2,1.5,0.6c0.4,0.4,0.6,1,0.5,1.6c-0.1,1.3-1.2,2.4-2.5,2.4
		c-0.6,0-1.1-0.2-1.5-0.6c-0.4-0.4-0.6-1-0.5-1.6C480.7,467.1,481.8,466,483.1,466 M483.1,465c-1.8,0-3.4,1.5-3.5,3.4
		c-0.1,1.9,1.2,3.4,3,3.4c1.8,0,3.4-1.5,3.5-3.4C486.2,466.5,484.9,465,483.1,465L483.1,465z"/>
	<g id="XMLID_211_">
		
			<rect id="XMLID_18_" x="482.9" y="463.9" transform="matrix(0.9973 7.296710e-002 -7.296710e-002 0.9973 35.1746 -34.0134)" fill="#FFF200" width="0.5" height="1.1"/>
		<path id="XMLID_213_" fill="#FFF200" d="M483.6,461.7l-0.5,0l0.2-2.2l0.5,0L483.6,461.7z M483.9,457.3l-0.5,0l0.2-2.2l0.5,0
			L483.9,457.3z M484.2,452.8l-0.5,0l0.2-2.2l0.5,0L484.2,452.8z M484.5,448.4l-0.5,0l0.2-2.2l0.5,0L484.5,448.4z M484.8,444l-0.5,0
			l0.2-2.2l0.5,0L484.8,444z M485.1,439.6l-0.5,0l0.2-2.2l0.5,0L485.1,439.6z M485.4,435.1l-0.5,0l0.2-2.2l0.5,0L485.4,435.1z
			 M485.7,430.7l-0.5,0l0.2-2.2l0.5,0L485.7,430.7z M486,426.3l-0.5,0l0.2-2.2l0.5,0L486,426.3z M486.3,421.9l-0.5,0l0.2-2.2l0.5,0
			L486.3,421.9z M486.6,417.4l-0.5,0l0.2-2.2l0.5,0L486.6,417.4z"/>
		
			<rect id="XMLID_6_" x="486.5" y="411.9" transform="matrix(0.9973 7.296710e-002 -7.296710e-002 0.9973 31.3931 -34.4156)" fill="#FFF200" width="0.5" height="1.1"/>
	</g>
	<path id="XMLID_208_" fill="#FFF200" d="M508.9,412.5H320.7c-1.1,0-2-0.4-2.7-1.2c-0.7-0.8-1.1-1.8-1-2.9l0.9-13.4
		c0.2-2.2,2-4,4.2-4h188.3c1.1,0,2,0.4,2.7,1.2c0.7,0.8,1.1,1.8,1,2.9l-0.9,13.4C513,410.7,511.1,412.5,508.9,412.5z M322.1,392.1
		c-1.6,0-3,1.3-3.1,3l-0.9,13.4c-0.1,0.8,0.2,1.5,0.7,2c0.5,0.5,1.2,0.8,1.9,0.8h188.3c1.6,0,3-1.3,3.1-3l0.9-13.4
		c0.1-0.8-0.2-1.5-0.7-2c-0.5-0.5-1.2-0.8-1.9-0.8H322.1z"/>
	<path id="XMLID_3_" opacity="0.8" fill-rule="evenodd" clip-rule="evenodd" fill="#FFFFFF" d="M504.9,399.6H326.4
		c-1,0-1.7-0.8-1.6-1.8l0,0c0.1-1,0.9-1.8,1.9-1.8h178.4c1,0,1.7,0.8,1.6,1.8l0,0C506.7,398.8,505.9,399.6,504.9,399.6z"/>
	<path id="XMLID_2_" opacity="0.8" fill-rule="evenodd" clip-rule="evenodd" fill="#FFFFFF" d="M475.1,407.2H325.9
		c-1,0-1.7-0.8-1.6-1.8l0,0c0.1-1,0.9-1.8,1.9-1.8h149.2c1,0,1.7,0.8,1.6,1.8l0,0C477,406.4,476.1,407.2,475.1,407.2z"/>
</g>
</svg>
