<?xml version="1.0" encoding="utf-8"?>
<!-- Generator: Adobe Illustrator 19.0.0, SVG Export Plug-In . SVG Version: 6.00 Build 0)  -->
<svg version="1.1" id="Layer_1" xmlns="http://www.w3.org/2000/svg" xmlns:xlink="http://www.w3.org/1999/xlink" x="0px" y="0px"
	 viewBox="0 0 792 612" enable-background="new 0 0 792 612" xml:space="preserve">
<g id="XMLID_413_">
	<path id="XMLID_414_" fill="#FFF200" d="M617.7,361.6L617.7,361.6l-2,0.6l-4.9,1.5c-2.2-7.3-5.8-14.3-10.9-20.6l5.7-4.6
		c-5.6-6.9-12.4-12.5-19.8-16.5l-3.5,6.4c-6.9-3.8-14.5-6.1-22.3-6.9l0.7-7.2c-5-0.5-10-0.5-15,0.2c-3.6,0.4-7.1,1.2-10.6,2.2l2.1,7
		c-7.3,2.2-14.3,5.8-20.6,10.9l-4.6-5.6c-6.9,5.6-12.5,12.4-16.5,19.8l6.4,3.5c-3.8,6.9-6.1,14.5-6.9,22.3l-7.2-0.7
		c-0.9,8.6-0.1,17.3,2.4,25.6l0.1,0l4.6-1.4l2.3-0.7c2.2,7.3,5.8,14.4,10.9,20.6l-5.7,4.6c5.6,6.9,12.4,12.4,19.8,16.5l3.5-6.4
		c7,3.8,14.6,6.1,22.3,6.9l-0.7,7.2c1.4,0.1,2.8,0.2,4.2,0.3c7.2,0.3,14.4-0.6,21.4-2.6l-0.4-1.6l-1.6-5.4
		c7.3-2.2,14.4-5.8,20.7-10.9l4.6,5.6c6.9-5.6,12.4-12.4,16.4-19.8l-6.4-3.5c3.8-6.9,6.1-14.6,6.9-22.3l7.2,0.7
		C620.9,378.7,620.1,370,617.7,361.6z M540.9,391c-5.8-7.1-4.7-17.6,2.4-23.4c2.4-1.9,5.1-3.1,8-3.5c5.6-0.9,11.6,1.2,15.4,5.9
		c2.8,3.4,4,7.5,3.7,11.6c-0.3,4.5-2.4,8.8-6.1,11.9C557.2,399.2,546.7,398.1,540.9,391z"/>
</g>
<g id="XMLID_408_">
	<path id="XMLID_409_" fill="none" stroke="#2BB673" stroke-width="2.4056" stroke-miterlimit="10" d="M167.1,232.5
		c2.3,2.8,5.1,5.1,8.1,6.7l1.4-2.6c2.8,1.6,6,2.5,9.1,2.8l-0.3,3c3.5,0.4,7,0.1,10.5-1l-0.2-0.6l-0.7-2.2c3-0.9,5.9-2.4,8.4-4.5
		l1.9,2.3c2.8-2.3,5.1-5.1,6.7-8.1l-2.6-1.4c1.6-2.8,2.5-5.9,2.8-9.1l3,0.3c0.4-3.5,0-7.1-1-10.5l0,0l-0.8,0.2l-2,0.6
		c-0.9-3-2.4-5.9-4.4-8.4l2.3-1.9c-2.3-2.8-5.1-5.1-8.1-6.7l-1.4,2.6c-2.8-1.6-5.9-2.5-9.1-2.8l0.3-3c-3.5-0.4-7.1,0-10.5,1l0.8,2.9
		c-3,0.9-5.9,2.4-8.4,4.4l-1.9-2.3c-2.8,2.3-5.1,5.1-6.7,8.1l2.6,1.4c-1.6,2.8-2.5,5.9-2.8,9.1l-3-0.3c-0.4,3.5,0,7.1,1,10.5l0,0
		l1.9-0.6l1-0.3c0.9,3,2.4,5.9,4.4,8.4L167.1,232.5z M179,222.8c-4.2-5.1-3.4-12.6,1.7-16.8c5.1-4.2,12.6-3.4,16.8,1.7
		c4.2,5.1,3.4,12.6-1.7,16.8C190.7,228.7,183.1,228,179,222.8z"/>
</g>
<g id="XMLID_390_">
	<g id="XMLID_405_">
		<path id="XMLID_406_" fill="#52C0A8" d="M294,115.4c0.8,2.9,2,5.5,3.7,7.7l1.9-1.5c1.6,2.1,3.6,3.9,5.8,5.2l-1.2,2.1
			c2.5,1.5,5.2,2.4,8.1,2.8l0.1-0.5l0.3-1.9c2.5,0.4,5.2,0.2,7.8-0.5l0.6,2.4c2.9-0.8,5.5-2,7.7-3.7l-1.5-1.9
			c2.1-1.6,3.9-3.6,5.2-5.8l2.1,1.2c1.5-2.5,2.4-5.2,2.8-8.1l0,0l-0.7-0.1l-1.7-0.2c0.4-2.5,0.2-5.2-0.5-7.8l2.4-0.6
			c-0.8-2.9-2-5.5-3.7-7.8l-1.9,1.5c-1.6-2.1-3.6-3.9-5.8-5.2l1.2-2.1c-2.5-1.5-5.2-2.4-8.1-2.8l-0.3,2.4c-2.5-0.4-5.2-0.2-7.8,0.4
			l-0.6-2.4c-2.9,0.8-5.5,2-7.8,3.7l1.5,1.9c-2.1,1.6-3.9,3.6-5.2,5.8l-2.1-1.2c-1.5,2.5-2.4,5.2-2.8,8.1l0,0l1.6,0.2l0.8,0.1
			c-0.4,2.5-0.2,5.2,0.4,7.8L294,115.4z"/>
	</g>
	<g id="XMLID_391_">
		<g id="XMLID_397_">
			<g id="XMLID_398_">
				<g id="XMLID_399_">
					<path id="XMLID_153_" fill="#DEF2F6" d="M324.3,102L324.3,102C324.3,102,324.3,102,324.3,102C324.3,102,324.3,102,324.3,102z"
						/>
					<path id="XMLID_152_" fill="#DEF2F6" d="M324.3,102L324.3,102C324.3,102,324.3,102,324.3,102C324.3,102,324.3,102,324.3,102z"
						/>
					<path id="XMLID_151_" fill="#DEF2F6" d="M306.2,102.2C306.2,102.2,306.2,102.2,306.2,102.2
						C306.2,102.2,306.2,102.2,306.2,102.2L306.2,102.2z"/>
					<path id="XMLID_150_" fill="#DEF2F6" d="M306.2,102.2C306.2,102.2,306.2,102.2,306.2,102.2
						C306.2,102.2,306.2,102.2,306.2,102.2L306.2,102.2z"/>
					<path id="XMLID_149_" fill="#FFFFFF" d="M306.2,102.8c0,0.8,0,2.7,0.1,7.2c0.1,8.2,8,12.1,9.2,12.6c1.2-0.6,9-4.7,8.9-12.8
						c0-4.1-0.1-6.1-0.1-7l-9-3.7L306.2,102.8z"/>
				</g>
			</g>
		</g>
		<g id="XMLID_392_">
			<path id="XMLID_394_" fill="#52C0A8" d="M311.6,108.7l0,5.4c0,0.6,7.3,0.5,7.3,0l0-5.4L311.6,108.7z M314.4,110.7
				c0-0.5,0.4-0.9,0.9-0.9c0.5,0,0.9,0.4,0.9,0.9c0,0.4-0.2,0.7-0.5,0.8l0,1.5c0,0.2-0.2,0.4-0.4,0.4c-0.2,0-0.4-0.2-0.4-0.4l0-1.5
				C314.6,111.4,314.4,111.1,314.4,110.7z"/>
			<path id="XMLID_146_" fill="#52C0A8" d="M312.3,108.3l0.7,0l0-0.4c0-1.3,1-2.3,2.3-2.3c1.3,0,2.3,1,2.3,2.3l0,0.4l0.7,0l0-0.4
				c0-1.7-1.4-3-3-3c-1.7,0-3,1.4-3,3L312.3,108.3z"/>
		</g>
	</g>
</g>
<g id="cloud_4_">
	<path id="XMLID_145_" fill="#CDECF7" d="M303,125.2c0.2-1.5,0.4-3.1,0.4-4.7c0-19-15.4-34.5-34.5-34.5c-14.3,0-26.5,8.7-31.8,21.1
		c-4.3-3.8-9.9-6.1-16-6.1c-13.3,0-24.1,10.8-24.1,24.1h-4.5c-12.8,0-23.3,10.5-23.3,23.3v0c0,12.8,10.5,23.3,23.3,23.3h108.8
		c12.8,0,23.3-10.5,23.3-23.3v0C324.6,136.1,315,126.1,303,125.2z"/>
</g>
<rect id="XMLID_144_" x="238.9" y="117.7" fill="#453C74" width="48.8" height="44.2"/>
<rect id="XMLID_143_" x="236.8" y="117.7" fill="#FFF200" width="53" height="13.3"/>
<g id="XMLID_383_">
	<rect id="XMLID_142_" x="282.3" y="121.1" fill="#453C74" width="5.2" height="7.1"/>
	<rect id="XMLID_141_" x="274.4" y="121.1" fill="#453C74" width="5.2" height="7.1"/>
	<rect id="XMLID_140_" x="266.6" y="121.1" fill="#453C74" width="5.2" height="7.1"/>
</g>
<rect id="XMLID_139_" x="236.8" y="133.5" fill="#FFF200" width="53" height="13.3"/>
<g id="XMLID_377_">
	<rect id="XMLID_138_" x="282.3" y="136.9" fill="#453C74" width="5.2" height="7.1"/>
	<rect id="XMLID_137_" x="274.4" y="136.9" fill="#453C74" width="5.2" height="7.1"/>
	<rect id="XMLID_136_" x="266.6" y="136.9" fill="#453C74" width="5.2" height="7.1"/>
</g>
<rect id="XMLID_135_" x="236.8" y="149.4" fill="#FFF200" width="53" height="13.3"/>
<g id="XMLID_371_">
	<rect id="XMLID_134_" x="282.3" y="152.8" fill="#453C74" width="5.2" height="7.1"/>
	<rect id="XMLID_133_" x="274.4" y="152.8" fill="#453C74" width="5.2" height="7.1"/>
	<rect id="XMLID_132_" x="266.6" y="152.8" fill="#453C74" width="5.2" height="7.1"/>
</g>
<g id="XMLID_362_">
	<g id="XMLID_366_">
		<rect id="XMLID_131_" x="217.9" y="133.9" fill="#2BB673" width="8.2" height="15.6"/>
		<polygon id="XMLID_130_" fill="#2BB673" points="222,155 214.8,146.4 229.1,146.4 		"/>
	</g>
	<g id="XMLID_363_">
		<rect id="XMLID_129_" x="205.1" y="139.5" fill="#2BB673" width="8.2" height="15.6"/>
		<polygon id="XMLID_128_" fill="#2BB673" points="209.1,134 216.3,142.6 202,142.6 		"/>
	</g>
</g>
<g id="cloud_3_">
	<path id="XMLID_127_" fill="#CDECF7" d="M399.1,133.9c0.1-0.4,0.1-0.9,0.1-1.3c0-5.5-4.5-10-10-10c-4.1,0-7.7,2.5-9.2,6.1
		c-1.2-1.1-2.9-1.8-4.6-1.8c-3.9,0-7,3.1-7,7H367c-3.7,0-6.7,3-6.7,6.7v0c0,3.7,3,6.7,6.7,6.7h31.5c3.7,0,6.7-3,6.7-6.7v0
		C405.3,137.1,402.5,134.2,399.1,133.9z"/>
</g>
<path id="XMLID_352_" fill="#00A79D" d="M545.4,381.5l-5.8-0.6l-14.2-1.5c2.2-21.1,0.3-43-6.3-64.6l19.4-5.9
	c-7.2-23.8-18.9-45.1-33.7-63.3L489,258.5c-13.9-17.1-31-31-50.1-41.3l9.5-17.8c-21.1-11.2-44.4-18.5-68.5-20.9l-2.1,20.1
	c-12.2-1.3-24.7-1.1-37.2,0.4c-9.1,1.2-18.3,3.1-27.4,5.9l-5.9-19.4c-4,1.2-8,2.6-11.9,4.1c-19.1,7.2-36.3,17.3-51.4,29.7l12.8,15.7
	c-16.6,13.4-30.2,29.9-40.3,48.3c-0.3,0.6-0.7,1.2-1,1.8l-3.3-1.8l-14.5-7.7c-1.4,2.5-2.7,5.1-3.9,7.7c-9.1,19-14.8,39.6-17,60.8
	l0.2,0l13.2,1.4l6.7,0.7c-0.4,3.9-0.7,7.9-0.8,11.8c-0.3,8.6,0.2,17.2,1.3,25.9c1.2,9,3.1,18,5.8,26.9l-14.3,4.3l-5.1,1.6
	c1.5,5,3.2,9.9,5.1,14.6c2.9,7.4,6.3,14.6,10.1,21.4c5.4,9.7,11.5,18.8,18.4,27.2l15.7-12.8c13.9,17.1,31.1,31.1,50.2,41.3
	l-9.5,17.8c21.1,11.2,44.3,18.5,68.5,20.9l0.5-4.5l1.6-15.6c21.1,2.2,43.1,0.2,64.7-6.3l5.9,19.4c23.8-7.2,45.1-18.8,63.2-33.7
	l-12.8-15.7c17.1-13.9,31.1-31,41.3-50.1l17.8,9.5C535.8,429,543,405.7,545.4,381.5L545.4,381.5z M444.6,395.5
	c-9.7,24.6-30.1,44.8-57.4,53.1c-47.3,14.4-97.3-12.3-111.7-59.7c-1.9-6.3-3.1-12.5-3.6-18.8c-3.4-41.1,22.2-80.4,63.2-92.9
	c11.7-3.6,23.6-4.6,35-3.5c14.8,1.5,28.9,6.6,41,14.8c16.5,11.1,29.4,27.7,35.7,48.2C453,356.8,451.7,377.3,444.6,395.5z
	 M545.4,381.5l-5.8-0.6l-14.2-1.5c2.2-21.1,0.3-43-6.3-64.6l19.4-5.9c-7.2-23.8-18.9-45.1-33.7-63.3L489,258.5
	c-13.9-17.1-31-31-50.1-41.3l9.5-17.8c-21.1-11.2-44.4-18.5-68.5-20.9l-2.1,20.1c-12.2-1.3-24.7-1.1-37.2,0.4
	c-9.1,1.2-18.3,3.1-27.4,5.9l-5.9-19.4c-4,1.2-8,2.6-11.9,4.1c-19.1,7.2-36.3,17.3-51.4,29.7l12.8,15.7
	c-16.6,13.4-30.2,29.9-40.3,48.3c-0.3,0.6-0.7,1.2-1,1.8l-3.3-1.8l-14.5-7.7c-1.4,2.5-2.7,5.1-3.9,7.7c-9.1,19-14.8,39.6-17,60.8
	l0.2,0l13.2,1.4l6.7,0.7c-0.4,3.9-0.7,7.9-0.8,11.8c-0.3,8.6,0.2,17.2,1.3,25.9c1.2,9,3.1,18,5.8,26.9l-14.3,4.3l-5.1,1.6
	c1.5,5,3.2,9.9,5.1,14.6c2.9,7.4,6.3,14.6,10.1,21.4c5.4,9.7,11.5,18.8,18.4,27.2l15.7-12.8c13.9,17.1,31.1,31.1,50.2,41.3
	l-9.5,17.8c21.1,11.2,44.3,18.5,68.5,20.9l0.5-4.5l1.6-15.6c21.1,2.2,43.1,0.2,64.7-6.3l5.9,19.4c23.8-7.2,45.1-18.8,63.2-33.7
	l-12.8-15.7c17.1-13.9,31.1-31,41.3-50.1l17.8,9.5C535.8,429,543,405.7,545.4,381.5L545.4,381.5z M444.6,395.5
	c-9.7,24.6-30.1,44.8-57.4,53.1c-47.3,14.4-97.3-12.3-111.7-59.7c-1.9-6.3-3.1-12.5-3.6-18.8c-3.4-41.1,22.2-80.4,63.2-92.9
	c11.7-3.6,23.6-4.6,35-3.5c14.8,1.5,28.9,6.6,41,14.8c16.5,11.1,29.4,27.7,35.7,48.2C453,356.8,451.7,377.3,444.6,395.5z"/>
<path id="XMLID_348_" fill="none" stroke="#FFFFFF" stroke-width="1.3238" stroke-miterlimit="10" d="M517.2,386l0.8-7.3
	c0.5-5.3,0.8-10.6,0.8-15.9c0-15.4-2.3-30.9-6.8-45.8l-2.1-7l19.3-5.9c-6.1-17.4-14.6-33.5-25.6-48l-15.6,12.7l-4.6-5.7
	c-13-16.1-29.1-29.4-47.9-39.4l-6.5-3.5l9.4-17.7c-16.5-8-33.9-13.3-52-15.8l-2.1,20l-7.3-0.8c-5.3-0.5-10.6-0.8-15.9-0.8
	c-6.5,0-13.1,0.4-19.6,1.2c0,0,0,0,0,0c-8.8,1.1-17.6,3-26.2,5.6l-7,2.1l-5.9-19.3c-1.5,0.5-3,1.1-4.4,1.6c-0.5,0.2-1.1,0.4-1.6,0.6
	c-15.1,5.9-29.2,13.7-41.9,23.3l12.7,15.6l-5.7,4.6c-14.6,11.8-26.8,26.1-36.5,42.6c-1,1.7-2,3.5-3,5.3l-3.5,6.5l-17.7-9.4
	c-7.9,16.4-13.3,33.8-15.8,52l6,0.6l14,1.4l-0.8,7.3c-0.4,3.7-0.6,7.4-0.7,11.1c-0.1,1.6-0.1,3.2-0.1,4.8c0,6.7,0.4,13.4,1.3,20.1
	c1.1,8.7,3,17.3,5.5,25.7l2.1,7l-19.2,5.8c0.8,2.4,1.7,4.7,2.6,7.1c2.8,7,6.1,13.9,9.7,20.5c3.9,7,8.3,13.8,13.1,20.3l15.6-12.7
	l4.6,5.7c13.2,16.2,29.3,29.5,48,39.5l6.5,3.5l-9.4,17.7c16.5,8,33.9,13.3,51.9,15.9l2-20l7.3,0.8c5.2,0.5,10.6,0.8,15.9,0.8
	c15.5,0,30.9-2.3,45.9-6.9l7-2.1l5.9,19.3c17.3-6,33.4-14.6,47.9-25.5L455,489.6l5.7-4.6c16.2-13.1,29.5-29.2,39.5-47.9l3.5-6.5
	l17.7,9.4c8-16.5,13.3-33.9,15.8-52L517.2,386z M451.4,398.1c-10.9,27.8-33.5,48.7-62.1,57.4c-9.2,2.8-18.7,4.2-28.2,4.2
	c-42.9,0-80.2-27.7-92.7-68.8c-2-6.6-3.3-13.5-3.9-20.3c-0.1-1.1-0.2-2.3-0.2-3.4c-0.1-1.5-0.1-3-0.1-4.4
	c0-42.9,27.6-80.2,68.7-92.7c9.2-2.8,18.7-4.2,28.3-4.2c0.3,0,0.5,0,0.8,0c2.9,0,5.9,0.2,8.8,0.5c15.8,1.6,31.2,7.1,44.4,16
	c1.7,1.1,3.4,2.3,5,3.6c15.9,12.2,27.7,29.3,33.6,48.6c2.8,9.2,4.2,18.7,4.2,28.3c0,11.1-1.9,22.1-5.7,32.6
	C452.1,396.4,451.8,397.2,451.4,398.1z"/>
<path id="XMLID_120_" fill="#00A79D" d="M370.1,273.7c-11.5-1.1-23.3-0.1-35,3.5c-41.1,12.5-66.6,51.8-63.2,92.9
	c-7.4-2.4-12.6-4.9-14.7-7.3c-16.2-18.8,15.8-97.8,22.9-107.9c7.1-10.2,33.5-15.4,33.5-15.4s0-6-0.8-17.7
	c-5.3,0-10.9-13.5-10.9-13.5l-5.3-9l-1.3-9.5c3.9-1.5,7.9-2.8,11.9-4.1l5.9,19.4c9.1-2.8,18.3-4.7,27.4-5.9l6.9,52.7L370.1,273.7z"
	/>
<path id="XMLID_119_" fill="#00A79D" d="M485,386.4c-2.1,1.9-20.3,10.3-40.4,9.1c7.1-18.1,8.4-38.6,2.3-58.7
	c-6.2-20.5-19.2-37.1-35.7-48.2l48.6-13.4c0,0,34.6-0.4,39.1,6.4C503.4,288.2,493.3,378.8,485,386.4z"/>
<g id="XMLID_287_">
	<defs>
		<path id="XMLID_76_" d="M519.8,73.6H220.9v310.2h54.2c9.4,38.7,44.4,67.5,86,67.5c41.7,0,76.6-28.8,86-67.5h72.6V73.6z"/>
	</defs>
	<clipPath id="XMLID_3_">
		<use xlink:href="#XMLID_76_"  overflow="visible"/>
	</clipPath>
	<path id="XMLID_118_" clip-path="url(#XMLID_3_)" fill="#F8A694" d="M386.4,251.7l48.9,26.6l24.9-61.5L473,220
		c0,0-8.3,71.5-21.6,84.6c-13.3,13.1-81.2-15.7-81.2-15.7C353.6,278.1,368.7,244.4,386.4,251.7z"/>
	<g id="XMLID_337_" clip-path="url(#XMLID_3_)">
		<path id="XMLID_117_" fill="#F8A694" d="M459.3,225.7c0,0-4.2-13.7-3.2-17.3c1-3.5,14.7-7,15.2-5.3c0.5,1.7,1.5,5.7-7.4,7.3
			C469.3,216.4,474.9,227.7,459.3,225.7z"/>
		<g id="XMLID_338_">
			<path id="XMLID_116_" fill="#F8A694" d="M458.6,226.3c0,0,0-12,2.4-16.6c3.2-6.2,11.2-9.6,11.2-9.6s12.5,11.8,12.7,13.8
				c0.2,1.9-12.1,12.6-12.1,12.6S463.7,233.6,458.6,226.3z"/>
			<path id="XMLID_115_" fill="#F8A694" d="M461.6,210.8c0,0,6-29.4,10.7-28.1c2.1,0.6-3.5,28.7-3.5,28.7L461.6,210.8z"/>
			<path id="XMLID_114_" fill="#E6836F" d="M458.2,221.9C458.2,221.9,458.2,221.9,458.2,221.9c0.2,0,0.2-0.1,0.2-0.2
				c-1-4-2.7-11.1-2.1-13.1c0.8-2.7,9.8-5.6,13.6-5.6c1.1,0,1.3,0.2,1.3,0.3c0.3,1.1,0.6,2.4-0.2,3.7c-1,1.6-3.4,2.8-7,3.4l-0.3,0.1
				l0.2,0.2c2.2,2.5,4.8,6.2,5.4,9.5c0,0.1,0.1,0.1,0.2,0.1c0.1,0,0.1-0.1,0.1-0.2c-0.6-3.2-3-6.9-5.2-9.4c3.6-0.7,6-1.9,7-3.5
				c1-1.6,0.5-3.2,0.3-3.9c-0.1-0.4-0.6-0.6-1.6-0.5c-3.8,0-13.1,2.9-13.9,5.9c-0.6,2.1,1,9.3,2.1,13.3
				C458.1,221.8,458.1,221.8,458.2,221.9z"/>
			<path id="XMLID_113_" fill="#E6836F" d="M474.9,217.7c0,0,0.1,0,0.1,0l0.1,0l0.1-0.1c2.2-2.8,6.9-3.6,6.9-3.6
				c0.1,0,0.1-0.1,0.1-0.2c0-0.1-0.1-0.1-0.2-0.1c-0.2,0-4.7,0.8-7,3.7c0,0,0,0,0,0c-2.8-1.1-6.2-8.2-6.2-8.3c0-0.1-0.1-0.1-0.2-0.1
				c-0.1,0-0.1,0.1-0.1,0.2C468.6,209.5,472,216.6,474.9,217.7z"/>
		</g>
	</g>
	<path id="XMLID_112_" clip-path="url(#XMLID_3_)" fill="#009444" d="M377.5,248.5c0,0,10.2,1.4,34.8,17.1
		c-2.7,10.6-10.9,38.3-10.9,38.3s-37.6-11.6-42.7-24.2C353.6,267,359.1,243.4,377.5,248.5z"/>
	<g id="XMLID_331_" clip-path="url(#XMLID_3_)">
		<g id="XMLID_333_">
			<path id="XMLID_111_" fill="#FFF200" d="M257.5,679.2h38.8c0.8-0.5,1.4-1,1.7-1.6c2-28.9,4.9-42.8,4.9-42.8l-27-1.1l-6.1,21.5
				C260.7,661.4,249.9,674.7,257.5,679.2z"/>
			<path id="XMLID_110_" fill="#FFF200" d="M299.3,679.7h-46c-1.2,0-0.8-6.4,0.4-6.4l45.8,0.3C300.6,673.5,300.5,679.7,299.3,679.7z
				"/>
		</g>
		<path id="XMLID_109_" fill="#FFF200" d="M315.3,371.6c-13.5,20.8-23.4,121.4-42.1,272.8l27.6,1.5c8.3-40.3,17.6-60.8,27.1-118.9
			c22.7-51.3,34.5-99.9,40.5-150C374.3,339.2,328,319.4,315.3,371.6z"/>
	</g>
	<g id="XMLID_327_" clip-path="url(#XMLID_3_)">
		<path id="XMLID_108_" fill="#FFF200" d="M347.9,378.8c1.9,73.6,15.1,136.2,15.1,136.2c3,61.7,7.1,59.6,12.8,131.5l24.9-0.3
			c2.1-30.8,18.7-174.3,5.8-266.5C400.2,338.1,343.9,324.4,347.9,378.8z"/>
		<path id="XMLID_107_" fill="#FFF200" d="M375.8,646.4c-2.2,11.9-3.8,21.2-2.9,32l60.3,1.2c0,0,6-5.8-1.5-14.5
			c-7.5-8.7-21.8-3.7-31-18.9L375.8,646.4z"/>
		<path id="XMLID_106_" fill="#FFF200" d="M435.9,679.7h-64.1c-1.2,0-0.9-6.4,0.3-6.4l63.8,0.3C437.2,673.5,437.1,679.7,435.9,679.7
			z"/>
	</g>
	<path id="XMLID_105_" clip-path="url(#XMLID_3_)" fill="#2BB673" d="M404.6,375.3c0,12.7-90.4,9-90.4-3.7
		c-5.2-111.1-32-99.8-25.2-110.9c11.8-19.3,71.7-18.2,93.2-9.9c8.6,3.3,20,16.7,23.7,38.1c1.9,11-6.2,23.8-7.5,32.7
		C395.5,342.1,404,372.3,404.6,375.3z"/>
	<path id="XMLID_104_" clip-path="url(#XMLID_3_)" fill="#F8A694" d="M348.3,259.5c-15.3,2.2-24.8-8.4-27-12.9l1.1-30.9l17.5-1.7
		c5.1,0.4,10.2,1.6,14.5,3.4l3.9,20.3l0.9,4.4C361.1,246.5,363.5,257.3,348.3,259.5z"/>
	<path id="XMLID_103_" clip-path="url(#XMLID_3_)" fill="#E6836F" d="M328.2,222.7c2.7,4.2,14.2,15,30.1,15l-3.4-17.6L328.2,222.7z"
		/>
	<g id="XMLID_319_" clip-path="url(#XMLID_3_)">
		<g id="XMLID_320_">
			<path id="XMLID_102_" fill="#F8A694" d="M367,182c1.4,6.1,4.2,19.4,3.7,25.6c-0.7,9.4-9.5,19.8-17.1,21.1
				c-8.8,0.9-20.7-1.7-27.2-7.3c-3.6-4.2-10.6-14.2-13.8-23c-6.7-18.3,6.2-34.3,22.6-38C351.6,156.8,362.7,163,367,182z"/>
			<path id="XMLID_101_" fill="#74392B" d="M318.1,210.5c-3.4-6,1.1-8.4,6.1-3.8c-0.9-4.5-6-17.8-1.4-22.2
				c5.2-5.1,27.9-2.9,40.2-15.6c0,0-9.1-20-39-8.2C290.1,178.6,318.1,210.5,318.1,210.5z"/>
			<path id="XMLID_100_" fill="#F8A694" d="M322.3,204.8c2.6,3.1,2.7,7.3,0.2,9.3c-2.5,2-6.5,1.1-9.1-2.1s-2.7-7.3-0.2-9.3
				C315.7,200.8,319.8,201.7,322.3,204.8z"/>
		</g>
	</g>
	<path id="XMLID_99_" clip-path="url(#XMLID_3_)" fill="#2BB673" d="M295.2,254.4c10.2-1.2,20.1,47.9,13.1,61.3c0,1,0,2-0.1,3
		c-0.1,3.8-0.2,7.8-0.3,11.8c-0.1,1.8-0.1,3.5-0.2,5.3c-0.1,3.9-0.3,7.9-0.4,11.8c-1.2,30.3-3.1,58.6-3.1,58.6h105.9
		c-0.8-20.8-3.9-42.1-6-58.6c-0.5-4.3-1-8.3-1.4-11.8c-0.2-1.9-0.3-3.7-0.5-5.3c-0.3-3.9-0.3-7.1,0.1-9.2c0.1-0.7,0.2-1.6,0.2-2.6
		c0.5-15.5-9.6-60.5-17.2-68.6c-10.6-4.9-22.4-3.7-22.4-3.7c0.7,22.1-8,41.9-8,41.9s-22.4-19.2-34.7-42.1
		C309.8,247.9,300,250,295.2,254.4z"/>
	<path id="XMLID_98_" clip-path="url(#XMLID_3_)" fill="#FFFFFF" d="M402.4,330.5c-0.3-3.9-0.3-7.1,0.1-9.2c0.1-0.7,0.2-1.6,0.2-2.6
		h-94.4c-0.1,3.8-0.2,7.8-0.3,11.8H402.4z"/>
	<path id="XMLID_97_" clip-path="url(#XMLID_3_)" fill="#FFFFFF" d="M307.4,347.6h96.8c-0.5-4.3-1-8.3-1.4-11.8h-95
		C307.7,339.8,307.6,343.7,307.4,347.6z"/>
	<path id="XMLID_93_" clip-path="url(#XMLID_3_)" fill="#F69784" d="M309.9,310.5l-13,36.1l55.9,35.5l-1.1,12.6
		c0,0-75.2-15.6-82.1-33c-7-17.4,16.3-91.8,16.3-91.8C293.9,250.9,307.6,294.6,309.9,310.5z"/>
	<path id="XMLID_92_" clip-path="url(#XMLID_3_)" fill="#F69784" d="M352.7,382.9l29.4,0.7c0,0-9,14.5-29.6,11.8
		C325.4,392,336.1,381.8,352.7,382.9z"/>
	<path id="XMLID_91_" clip-path="url(#XMLID_3_)" fill="#5E509A" d="M472.3,379.6v1.5c0,0.1,0,0.2,0,0.2c-0.2,1-1.3,1.8-2.8,1.8
		H340.9c-1.4,0-2.6-0.8-2.8-1.8c0-0.1,0-0.2,0-0.2v-1.5H472.3z"/>
	<path id="XMLID_90_" clip-path="url(#XMLID_3_)" fill="#251F3C" d="M472.3,381.3c-0.2,1-1.3,1.8-2.8,1.8H340.9
		c-1.4,0-2.6-0.8-2.8-1.8H472.3z"/>
	<g id="XMLID_306_" clip-path="url(#XMLID_3_)">
		<polygon id="XMLID_89_" fill="#251F3C" points="487.3,291.6 488,292.3 487.6,292.9 486.6,291.6 		"/>
		<path id="XMLID_88_" fill="#5E509A" d="M470.5,379.3H366.1c-1.8,0-3-1.4-2.7-3.2l13.8-82c0.3-1.8,2-3.2,3.8-3.2h104.3
			c1.8,0,3,1.4,2.7,3.2l-13.8,82C473.9,377.9,472.2,379.3,470.5,379.3z"/>
	</g>
	<path id="XMLID_87_" clip-path="url(#XMLID_3_)" fill="#251F3C" d="M471.2,380.1H366.9c-1.8,0-3-1.4-2.7-3.2l13.8-82
		c0.3-1.8,2-3.2,3.8-3.2h104.3c1.8,0,3,1.4,2.7,3.2l-13.8,82C474.7,378.6,473,380.1,471.2,380.1z"/>
	
		<ellipse id="XMLID_86_" transform="matrix(-0.9934 -0.1144 0.1144 -0.9934 813.7837 722.8566)" clip-path="url(#XMLID_3_)" fill="#F9ED32" cx="427.6" cy="338.1" rx="13.8" ry="14.3"/>
	<path id="XMLID_85_" clip-path="url(#XMLID_3_)" fill="#2BB673" d="M311.1,313.9l-36-17.8c0,0,10-35.5,21.4-42.3
		c5.5,3.3,11.1,11.3,14.1,25C313.1,290.6,313.2,302.7,311.1,313.9z"/>
	<path id="XMLID_84_" clip-path="url(#XMLID_3_)" fill="#74392B" d="M355,204.9C355,204.9,355,204.9,355,204.9
		c0.2,0,3.9-0.8,5.1-2.8c1.2-1.9-6.5-9.6-8.9-12c-0.1-0.1-0.4-0.1-0.5,0c-0.1,0.1-0.1,0.4,0,0.5c4.7,4.6,9.4,10.1,8.8,11.1
		c-1,1.7-4.5,2.4-4.6,2.4c-0.2,0-0.3,0.2-0.3,0.4C354.7,204.8,354.8,204.9,355,204.9z"/>
	<path id="XMLID_83_" clip-path="url(#XMLID_3_)" fill="#74392B" d="M349,213.4c6.1,0,11.3-2.1,11.4-2.1c0.2-0.1,0.3-0.3,0.2-0.5
		c-0.1-0.2-0.3-0.3-0.5-0.2c-0.1,0.1-13.2,5.4-22.2-1.2c-0.2-0.1-0.4-0.1-0.5,0.1s-0.1,0.4,0.1,0.5C341,212.6,345.2,213.4,349,213.4
		z"/>
	
		<ellipse id="XMLID_82_" transform="matrix(-0.9744 0.2247 -0.2247 -0.9744 751.896 288.4184)" clip-path="url(#XMLID_3_)" fill="#5D2E23" cx="359.5" cy="187" rx="1.5" ry="2.7"/>
	
		<ellipse id="XMLID_81_" transform="matrix(-0.9504 0.311 -0.311 -0.9504 716.2144 272.1195)" clip-path="url(#XMLID_3_)" fill="#5D2E23" cx="336.4" cy="193.2" rx="1.6" ry="2.9"/>
	<g id="XMLID_289_" clip-path="url(#XMLID_3_)">
		<g id="XMLID_290_">
			<path id="XMLID_80_" fill="#009444" d="M476.6,176.9c-1.7,1-3.9,0.4-4.9-1.3c-1-1.7-0.4-3.9,1.3-4.9c1.7-1,3.9-0.4,4.9,1.3
				C478.9,173.7,478.4,175.9,476.6,176.9z"/>
			<g id="XMLID_291_">
				<path id="XMLID_79_" fill="#009444" d="M491.1,165.6L491.1,165.6c0.5-0.3,0.7-1,0.3-1.6c-6.1-9.4-18.1-12.3-27.8-6.7
					c-0.5,0.3-0.7,1-0.4,1.5l0,0c0.3,0.6,1,0.8,1.6,0.5c8.6-4.8,19.2-2.3,24.7,6C489.8,165.8,490.5,165.9,491.1,165.6z"/>
				<path id="XMLID_78_" fill="#009444" d="M487,168.2L487,168.2c0.5-0.4,0.7-1.1,0.3-1.6c-4.8-7.1-13.9-9.2-21.4-5.2
					c-0.6,0.3-0.8,1-0.5,1.6l0,0c0.3,0.5,1,0.8,1.6,0.5c6.4-3.4,14.2-1.5,18.3,4.4C485.8,168.5,486.5,168.6,487,168.2z"/>
				<path id="XMLID_77_" fill="#009444" d="M483.1,170.8L483.1,170.8c0.6-0.4,0.7-1.1,0.3-1.6c-3.5-4.8-9.8-6.3-15.1-3.7
					c-0.6,0.3-0.8,1-0.5,1.6l0,0c0.3,0.5,1,0.7,1.5,0.5c4.3-2.1,9.3-0.8,12.2,3C481.9,171,482.6,171.2,483.1,170.8z"/>
			</g>
		</g>
	</g>
</g>
<path id="XMLID_75_" fill="#00A79D" d="M261.7,388.5V448c0,2.6-2.1,4.6-4.6,4.6h-57.9c-3.8-6.8-7.2-14-10.1-21.4v-16.2l14.3-4.3
	c-2.7-8.9-4.6-17.9-5.8-26.9H257C259.6,383.9,261.7,385.9,261.7,388.5z"/>
<path id="XMLID_74_" fill="#00A79D" d="M243.2,290.7v59.9c0,4.1-3.3,7.4-7.4,7.4h-39.7c0.1-4,0.4-7.9,0.8-11.8l-6.7-0.7l-13.2-1.4
	l-0.2,0c2.2-21.3,7.9-41.8,17-60.8h42C239.9,283.3,243.2,286.6,243.2,290.7z"/>
<path id="XMLID_2_" fill="#F9ED32" d="M211.7,349.3h-60c-9.8,0-17.7-7.9-17.7-17.7v-39.3c0-9.8,7.9-17.7,17.7-17.7h60
	c9.8,0,17.7,7.9,17.7,17.7v39.3C229.4,341.3,221.5,349.3,211.7,349.3z"/>
<path id="XMLID_73_" fill="#FFFFFF" d="M218.6,295.9h-73.1c-0.1,0-0.2-0.1-0.2-0.2s0.1-0.2,0.2-0.2h73.1c0.1,0,0.2,0.1,0.2,0.2
	S218.7,295.9,218.6,295.9z"/>
<path id="XMLID_72_" fill="#FFFFFF" d="M218.6,321h-73.1c-0.1,0-0.2-0.1-0.2-0.2c0-0.1,0.1-0.2,0.2-0.2h73.1c0.1,0,0.2,0.1,0.2,0.2
	C218.8,320.9,218.7,321,218.6,321z"/>
<path id="XMLID_71_" fill="#FFFFFF" d="M218.6,308.8h-73.1c-0.1,0-0.2-0.1-0.2-0.2c0-0.1,0.1-0.2,0.2-0.2h73.1
	c0.1,0,0.2,0.1,0.2,0.2C218.8,308.7,218.7,308.8,218.6,308.8z"/>
<path id="XMLID_70_" fill="#7363AC" d="M218.6,333.6h-73.4l-0.1-44.7c0-0.2,0.2-0.3,0.3-0.3c0,0,0,0,0,0c0.2,0,0.3,0.2,0.3,0.3
	l0.1,44h72.7c0.2,0,0.3,0.2,0.3,0.3C219,333.5,218.8,333.6,218.6,333.6z"/>
<path id="XMLID_69_" fill="#2BB673" d="M206.5,300.3l-26.9,25.8l-13.9-12.3L145.3,333c-0.1,0.1-0.1,0.4,0,0.5
	c0.1,0.1,0.2,0.1,0.3,0.1c0.1,0,0.2,0,0.2-0.1l20-18.7l13.9,12.3l26.9-25.8V300.3z"/>
<circle id="XMLID_68_" fill="#006838" cx="165.8" cy="314.4" r="1.9"/>
<circle id="XMLID_67_" fill="#006838" cx="179.9" cy="326.5" r="1.9"/>
<circle id="XMLID_66_" fill="#006838" cx="206.7" cy="300.5" r="1.9"/>
<g id="XMLID_266_">
	<path id="XMLID_65_" fill="#4FC3C4" d="M190.5,444.7H241c6.1,0,11.1-5,11.1-11.1v-46.6c0-6.1-5-11.1-11.1-11.1h-50.4
		c-6.1,0-11.1,5-11.1,11.1v46.6C179.4,439.7,184.4,444.7,190.5,444.7z"/>
	<rect id="XMLID_64_" x="232.2" y="413.3" fill="#FDFEFF" width="6.9" height="19.9"/>
	<rect id="XMLID_63_" x="222.6" y="410.3" fill="#FDFEFF" width="6.9" height="22.9"/>
	<rect id="XMLID_62_" x="213" y="404.2" fill="#FDFEFF" width="6.9" height="28.9"/>
	<rect id="XMLID_61_" x="203.5" y="400" fill="#FDFEFF" width="6.9" height="33.2"/>
	<rect id="XMLID_60_" x="193.9" y="390.8" fill="#FDFEFF" width="6.9" height="42.3"/>
	<path id="XMLID_59_" fill="#26807E" d="M242.9,433.9h-55.6c-0.3,0-0.5-0.2-0.5-0.5c0-0.3,0.2-0.5,0.5-0.5h55.6
		c0.3,0,0.5,0.2,0.5,0.5C243.4,433.7,243.2,433.9,242.9,433.9z"/>
</g>
<path id="XMLID_58_" fill="#CDECF7" d="M150.3,405.6h-30.5c-5.2,0-9.5-4.2-9.5-9.5v-25.7c0-5.2,4.2-9.5,9.5-9.5h30.5
	c5.2,0,9.5,4.2,9.5,9.5v25.7C159.8,401.4,155.6,405.6,150.3,405.6z"/>
<g id="XMLID_260_">
	<path id="XMLID_57_" fill="#4FC3C4" d="M123.8,381h-5.1c-0.4,0-0.7-0.3-0.7-0.7l0,0c0-0.4,0.3-0.7,0.7-0.7h5.1
		c0.4,0,0.7,0.3,0.7,0.7l0,0C124.5,380.7,124.2,381,123.8,381z"/>
	<path id="XMLID_56_" fill="#4FC3C4" d="M123.8,383.6h-5.1c-0.4,0-0.7-0.3-0.7-0.7l0,0c0-0.4,0.3-0.7,0.7-0.7h5.1
		c0.4,0,0.7,0.3,0.7,0.7l0,0C124.5,383.3,124.2,383.6,123.8,383.6z"/>
	<path id="XMLID_55_" fill="#4FC3C4" d="M123.8,386.3h-5.1c-0.4,0-0.7-0.3-0.7-0.7l0,0c0-0.4,0.3-0.7,0.7-0.7h5.1
		c0.4,0,0.7,0.3,0.7,0.7l0,0C124.5,385.9,124.2,386.3,123.8,386.3z"/>
	<path id="XMLID_54_" fill="#4FC3C4" d="M123.8,388.9h-5.1c-0.4,0-0.7-0.3-0.7-0.7l0,0c0-0.4,0.3-0.7,0.7-0.7h5.1
		c0.4,0,0.7,0.3,0.7,0.7l0,0C124.5,388.6,124.2,388.9,123.8,388.9z"/>
</g>
<path id="XMLID_53_" fill="#6BCAD0" d="M138.7,373.4C138.7,373.4,138.7,373.4,138.7,373.4c-6,0-10.9,4.9-10.9,10.8
	s4.9,10.9,10.9,10.9c1.8,0,3.5-0.4,5-1.2l-5-9.6V373.4z"/>
<path id="XMLID_52_" fill="#FFF200" d="M143.7,393.8c3.5-1.8,5.8-5.4,5.8-9.6h-10.8L143.7,393.8z"/>
<path id="XMLID_51_" fill="#FFFFFF" d="M138.7,373.4v10.8h10.8C149.5,378.2,144.7,373.4,138.7,373.4z"/>
<path id="XMLID_249_" fill="#FFF200" d="M708.6,201.6l-2.8-0.4l-6.8-1c1.4-10.1,0.9-20.6-1.8-31.1l9.4-2.5c-0.8-3.1-1.8-6.2-2.9-9.1
	c-3-8-7.1-15.3-12.1-21.8l-4.3,3.2l-3.5,2.6c-6.3-8.5-14.3-15.4-23.2-20.7l4.9-8.4c-9.9-5.8-20.9-9.7-32.4-11.3l-1.4,9.6
	c-10.1-1.4-20.6-0.9-31.1,1.8l-2.5-9.4c-11.5,3-22,8.2-30.9,15l5.8,7.8c-8.5,6.3-15.5,14.3-20.7,23.2l-8.4-4.9
	c-5.8,9.9-9.7,20.9-11.3,32.4l0.1,0l6.3,0.9l3.2,0.5c-1.4,10.1-0.9,20.6,1.8,31.1l-9.4,2.5c3,11.5,8.2,22,14.9,30.9l7.8-5.8
	c6.4,8.5,14.3,15.5,23.3,20.7l-4.9,8.4c9.9,5.8,20.9,9.7,32.4,11.3l0.3-2.1l1.1-7.5c10.1,1.4,20.6,0.9,31.1-1.8l2.5,9.4
	c11.5-3,22-8.2,30.9-15l-5.8-7.8c8.5-6.3,15.5-14.3,20.8-23.2l8.4,4.9C703.1,224.1,707,213.1,708.6,201.6L708.6,201.6z M631.5,230.7
	c-22.9,6-46.4-7.8-52.4-30.7c-6-22.9,7.8-46.4,30.7-52.4c21-5.5,42.5,5.6,50.5,25.1c0.7,1.8,1.4,3.6,1.9,5.6c1,4,1.5,8,1.4,11.9
	C663.2,208.8,650.5,225.7,631.5,230.7z"/>
<path id="XMLID_48_" fill="#00A79D" d="M663.6,190.1c0.1-3.9-0.4-7.9-1.4-11.9c-0.5-1.9-1.1-3.8-1.9-5.6l27-33.7l4.3-3.2
	c5,6.5,9,13.9,12.1,21.8L663.6,190.1z"/>
</svg>
