<?xml version="1.0" encoding="utf-8"?>
<!-- Generator: Adobe Illustrator 19.0.0, SVG Export Plug-In . SVG Version: 6.00 Build 0)  -->
<svg version="1.1" xmlns="http://www.w3.org/2000/svg" xmlns:xlink="http://www.w3.org/1999/xlink" x="0px" y="0px"
	 viewBox="0 0 3710 3710" enable-background="new 0 0 3710 3710" xml:space="preserve">
<g id="Background">
	<g>
		<g>
			<rect fill="#FFFFFF" width="3710" height="3710"/>
		</g>
	</g>
</g>
<g id="Illustration">
	<path fill="#F4F7FA" d="M1901.3,466.5c-294.4,117.1-322.6,416.3-587.7,442c-231,22.4-318.8-194.2-480.8-155.4
		c-246.9,59.1-402.1,647.7-302.9,1131.7c102.4,499.7,532.5,1164,1245.2,1209.4c800.1,50.9,1405.5-713.5,1442.4-1384.2
		c4-72.5,27.6-680.3-437.1-1039.4C2757.2,652.6,2299.3,308.3,1901.3,466.5z"/>
	<g>
		<g>
			<defs>
				<path id="SVGID_1_" d="M2230.6,2577.2c-38.2-104.9-78.8-265.6-43-446.6c41-207.8,145.1-252.5,232.7-476
					c125.1-319.1-35.2-542.2,101.6-642.9c66.7-49.1,174-52.6,241.6-7.6c193,128.4,160,715.4-132.1,953.4
					c-132.1,107.6-250.6,99.2-347.9,236.1C2197.5,2314.6,2209.5,2470.2,2230.6,2577.2z"/>
			</defs>
			<linearGradient id="SVGID_2_" gradientUnits="userSpaceOnUse" x1="2775.4778" y1="1183.0958" x2="2274.5464" y2="1989.7416">
				<stop  offset="0" style="stop-color:#FBFF00"/>
				<stop  offset="0.9964" style="stop-color:#006E6E"/>
			</linearGradient>
			<use xlink:href="#SVGID_1_"  overflow="visible" fill="url(#SVGID_2_)"/>
			<clipPath id="SVGID_3_">
				<use xlink:href="#SVGID_1_"  overflow="visible"/>
			</clipPath>
			<g clip-path="url(#SVGID_3_)">
				<path fill="#FFFFFF" stroke="#FFFFFF" stroke-miterlimit="10" d="M2200.9,2311.2l-3.5-0.8c10-45.1,23.9-89.6,41.3-132.2
					c40.2-98,86.2-152.6,144.4-221.6c37.8-44.9,80.7-95.7,129.7-168.2c91.8-135.6,120.1-183,144.3-258.7c48-149.8,35.6-282.3,24-348
					c-16.5-93.2-50.7-181.2-101.8-261.7l3-1.9c51.3,80.9,85.7,169.4,102.3,263c11.7,66,24.1,199.2-24.1,349.7
					c-24.4,76.1-52.7,123.7-144.7,259.6c-49.2,72.6-92.1,123.6-130,168.5c-58,68.8-103.8,123.2-143.8,220.7
					C2224.6,2222,2210.8,2266.3,2200.9,2311.2z"/>
				<path fill="#FFFFFF" stroke="#FFFFFF" stroke-miterlimit="10" d="M2682.8,1424.9l-0.1-2.9c-5.4-109-77.4-177.3-136.8-215.4
					c-64.5-41.4-128.5-57.2-129.1-57.3l0.8-3.5c0.6,0.2,65.2,16.1,130.2,57.8c59.6,38.2,131.6,106.5,138.2,215.3
					c11.2-7.1,58.2-38.8,99.6-94.6c43.5-58.6,89.7-156.6,62.6-290.8l3.5-0.7c27.4,135.6-19.3,234.6-63.3,293.8
					c-47.7,64.1-102.6,96.6-103.1,96.9L2682.8,1424.9z"/>
				<path fill="#FFFFFF" stroke="#FFFFFF" stroke-miterlimit="10" d="M2667,1775.7c-72.5,0-126.8-22.2-127.8-22.7l-1.4-0.6l0.3-1.5
					c24.7-108-2.3-186.1-29.2-232.7c-29.2-50.4-64.5-75.5-64.9-75.7l2-2.9c0.4,0.3,36.4,25.8,65.9,76.9
					c27.1,46.9,54.2,125.4,29.9,233.7c16.8,6.5,182.3,66.3,316.3-45.1l2.3,2.7C2796.7,1761,2725.9,1775.7,2667,1775.7z"/>
				<path fill="#FFFFFF" stroke="#FFFFFF" stroke-miterlimit="10" d="M2546.6,1984.9c-27.8,0-51.1-3.4-69.7-7.8
					c-51.9-12.4-79.1-35.2-79.4-35.5l-1-0.8l0.5-1.2c44-110.3-28-286.1-28.7-287.9l3.3-1.4c0.7,1.8,72.7,177.7,29.2,289.3
					c11.2,8.7,117,84.1,307.7,7.5l1.3,3.3C2645.1,1976.5,2590.3,1984.9,2546.6,1984.9z"/>
			</g>
		</g>
	</g>
	<g>
		<defs>
			<path id="SVGID_4_" d="M1894.8,2806.7c-19.5-98.1-33.8-251.9,42.1-392.3c132.4-244.9,390.3-173.3,626.5-438.6
				c190.5-214,123.2-373.5,337.2-518.5c35.8-24.3,225-157.6,371.1-85.6c82.3,40.6,114.5,128.2,120.5,144.7
				c91.3,248.7-152.2,650.4-480.2,841.1c-188.4,109.5-251.4,77.7-584.9,209.1C2131.2,2643.8,1985.3,2739.8,1894.8,2806.7z"/>
		</defs>
		<linearGradient id="SVGID_5_" gradientUnits="userSpaceOnUse" x1="2865.8848" y1="1481.104" x2="2400.9751" y2="2868.2153">
			<stop  offset="0" style="stop-color:#FBFF00"/>
			<stop  offset="0.9964" style="stop-color:#006E6E"/>
		</linearGradient>
		<use xlink:href="#SVGID_4_"  overflow="visible" fill="url(#SVGID_5_)"/>
		<clipPath id="SVGID_6_">
			<use xlink:href="#SVGID_4_"  overflow="visible"/>
		</clipPath>
		<path clip-path="url(#SVGID_6_)" fill="#FFFFFF" d="M1869.8,2926.2l-3.5-0.6c41.6-237.4,129.6-398.8,261.7-479.7
			c64.7-39.6,116.9-47.2,172.2-55.3c59.5-8.7,121-17.6,200.9-69.5c77.7-50.4,104.6-97.5,138.7-157c30.7-53.6,68.8-120.2,156.4-210.1
			c76.7-78.8,133.2-116.4,183.1-149.5c54-35.9,96.7-64.2,145-131.9c78.9-110.5,117.5-250.2,114.7-415.2l3.6-0.1
			c2.8,165.8-36.1,306.2-115.4,417.3c-48.7,68.2-91.6,96.7-145.9,132.8c-49.7,33-106.1,70.5-182.5,149
			c-87.2,89.6-125.3,156-155.8,209.4c-34.3,60-61.4,107.3-139.8,158.2c-80.6,52.3-142.5,61.3-202.4,70.1
			c-54.9,8-106.8,15.6-170.9,54.8C1998.6,2529.3,1911.2,2689.9,1869.8,2926.2z"/>
		<path clip-path="url(#SVGID_6_)" fill="#FFFFFF" d="M2956.2,1822.2l0.7-2.3c1-3.3,96.4-334-28.5-465.5l2.6-2.5
			c36.5,38.4,77,119,62.6,285.1c-7.8,90-28.6,167.4-32.6,181.5c179.5-0.9,310.7-73,389.3-133.5c85.6-65.9,128.9-132.6,129.3-133.2
			l3,1.9c-0.4,0.7-44,67.8-130,134c-79.4,61.1-212.1,134.1-393.9,134.4L2956.2,1822.2z"/>
		<path clip-path="url(#SVGID_6_)" fill="#FFFFFF" d="M2975.7,2100.7c-18.1,0-35.2-0.6-51.2-1.6c-125.8-8.1-212.1-42.8-212.9-43.2
			l-1.4-0.6l0.4-1.5c41.7-172.2-7.7-413.7-8.2-416.1l3.5-0.7c0.5,2.4,49.7,243.3,8.5,416.1c11.7,4.5,94.1,34.9,210.5,42.4
			c115.5,7.4,289.2-7,460.6-117.3l1.9,3C3238.9,2076.8,3088.7,2100.7,2975.7,2100.7z"/>
		<path clip-path="url(#SVGID_6_)" fill="#FFFFFF" d="M2828.4,2503.8c-299.1,0-473.7-117.5-475.5-118.7l-1.5-1.1l1.1-1.5
			c124.5-162.3,65.7-422.1,65.1-424.7l3.5-0.8c0.6,2.6,59.4,262.4-64.6,426.1c19.3,12.5,214.1,132.6,534,115.4l0.2,3.6
			C2869.3,2503.3,2848.6,2503.8,2828.4,2503.8z"/>
	</g>
	<g>
		<g>
			<path fill="#22B573" d="M1769.5,2808.2c53.6-41.2,141.6-101.1,261-147.8c212.4-83,312.3-41.2,400.3-135
				c91.1-97,27.2-187.7,136.6-296.3c9.2-9.1,126.7-122.8,237.5-85.4c77.5,26.2,110.1,112.2,125.4,152.6
				c59.4,156.7,35.5,399.1-129.7,523.6c-156.6,118-361.3,70.7-426.2,55.2c-114-27.2-142.2-70.3-258-94.5
				C1975.6,2751.2,1850.9,2780.3,1769.5,2808.2z"/>
		</g>
	</g>
	<g>
		<g>
			<path fill="#BFC8D6" d="M3410,2988.8l-2792.1-24.1v71.4c0,19.4,12.2,35.9,28.7,38.8l789.5,140.6c9.4,1.7,18.9,2.1,28.3,1.3
				l1915.2-160.3c17.1-1.4,30.3-18,30.3-37.9V2988.8z"/>
			<g>
				<path fill="#BFC8D6" d="M2382.5,2874.4L607.9,3005c-31.8,2.3-57.6-22.5-57.6-55.5V1628.1c0-33,25.8-59.7,57.6-59.7h1774.6
					c26.2,0,47.3,24.2,47.3,54v1194.6C2429.8,2846.8,2408.7,2872.5,2382.5,2874.4z"/>
				<path fill="#FFFFFF" d="M2410.8,2874.4L636.2,3005c-31.8,2.3-57.6-22.5-57.6-55.5V1628.1c0-33,25.8-59.7,57.6-59.7h1774.6
					c26.2,0,47.3,24.2,47.3,54v1194.6C2458.1,2846.8,2437,2872.5,2410.8,2874.4z"/>
				<path fill="#D8DEE8" d="M2355.5,2790.2L702.6,2903.7c-25.8,1.8-46.8-18.6-46.8-45.5v-1157c0-26.9,21-48.8,46.8-49l1652.9-7.1
					c21.6-0.1,39,19.7,39,44.2v1053.8C2394.5,2767.6,2377.1,2788.7,2355.5,2790.2z"/>
				<path fill="#FFFFFF" d="M1586.2,1604.5c0,12.3-9.1,22.3-20.4,22.3c-11.3,0-20.5-9.9-20.5-22.2c0-12.3,9.2-22.3,20.5-22.3
					C1577,1582.2,1586.2,1592.2,1586.2,1604.5z"/>
				<path opacity="0.48" fill="#FFFFFF" d="M636.2,3005l1765.6-130l9-0.7c12-0.9,22.9-6.8,31.3-15.8c-127.1-7-206-52-256.9-98.6
					c-102.2-93.6-84.5-185.8-194.7-247.3c-137.5-76.7-245.6,20.5-350-75.4c-63.3-58.2-32.2-101.5-110-188.4
					c-86.2-96.3-142.3-63.9-229-150.5c-109.6-109.5-54.8-194.8-149.1-273.4c-114.5-95.4-237.9-7.1-346.9-98.6
					c-47-39.5-72.8-96.8-86.3-157.9h-82.9c-31.8,0-57.6,26.7-57.6,59.7v1321.5C578.6,2982.5,604.4,3007.4,636.2,3005z"/>
			</g>
			<linearGradient id="SVGID_7_" gradientUnits="userSpaceOnUse" x1="617.8834" y1="3009.4358" x2="3409.9927" y2="3009.4358">
				<stop  offset="0.494" style="stop-color:#EBEFF2"/>
				<stop  offset="1" style="stop-color:#FFFFFF"/>
			</linearGradient>
			<path fill="url(#SVGID_7_)" d="M2494.4,2867.2L617.9,3004.7l818.2,145.7c9.4,1.7,18.9,2.1,28.3,1.3L3410,2988.8l-885.7-120.7
				C2514.3,2866.7,2504.4,2866.4,2494.4,2867.2z"/>
			<polygon fill="#D8DEE8" points="891.7,3005.9 2454,2889.7 2937.5,2955 1388.7,3079.2 			"/>
		</g>
	</g>
	<path opacity="0.3" fill="#97A6B7" d="M1833.5,2009.3c-53.5-171.9-225.7-271.2-384.6-221.7c-158.8,49.5-244.2,228.9-190.7,400.9
		c53.5,171.9,225.7,271.2,384.6,221.7C1801.6,2360.7,1887,2181.2,1833.5,2009.3z"/>
	<path opacity="0.3" fill="#97A6B7" d="M1859.6,2640.2c0,21.7-17.2,40.4-39.2,41.6l-543.3,29.9c-25.9,1.4-47.4-16.7-47.4-40.6v-89.9
		c0-23.8,21.8-43.8,47.7-44.6l542.7-16.5c21.9-0.7,39.5,16.4,39.5,38.2V2640.2z"/>
	<linearGradient id="SVGID_8_" gradientUnits="userSpaceOnUse" x1="1723.2473" y1="1680.4636" x2="941.538" y2="1931.3376">
		<stop  offset="0" style="stop-color:#FCB148"/>
		<stop  offset="5.207239e-002" style="stop-color:#FDBA46"/>
		<stop  offset="0.1424" style="stop-color:#FFC244"/>
		<stop  offset="0.3183" style="stop-color:#FFC444"/>
		<stop  offset="0.4849" style="stop-color:#FDB946"/>
		<stop  offset="0.7754" style="stop-color:#F99C4D"/>
		<stop  offset="0.8658" style="stop-color:#F8924F"/>
		<stop  offset="1" style="stop-color:#F8924F"/>
	</linearGradient>
	<path fill="url(#SVGID_8_)" d="M2623.2,1652.1c0,362.6-283.6,647.9-646,636.8c-377.2-11.6-694.4-337.3-694.4-727.2
		c0-389.8,317.2-672.8,694.4-633.5C2339.6,965.9,2623.2,1289.5,2623.2,1652.1z"/>
	<linearGradient id="SVGID_9_" gradientUnits="userSpaceOnUse" x1="2355.6047" y1="902.3508" x2="1657.7429" y2="2441.9641">
		<stop  offset="0" style="stop-color:#FFDB44"/>
		<stop  offset="1" style="stop-color:#FEEF06"/>
	</linearGradient>
	<path fill="url(#SVGID_9_)" d="M2721.1,1620.8c0,362.6-283.6,647.9-646,636.8c-377.2-11.6-694.4-337.3-694.4-727.2
		c0-389.8,317.2-672.8,694.4-633.5C2437.5,934.7,2721.1,1258.2,2721.1,1620.8z"/>
	<linearGradient id="SVGID_10_" gradientUnits="userSpaceOnUse" x1="2227.2327" y1="2528.0129" x2="2092.5789" y2="1792.4037">
		<stop  offset="0" style="stop-color:#FCB148"/>
		<stop  offset="5.207239e-002" style="stop-color:#FDBA46"/>
		<stop  offset="0.1424" style="stop-color:#FFC244"/>
		<stop  offset="0.3183" style="stop-color:#FFC444"/>
		<stop  offset="0.4849" style="stop-color:#FDB946"/>
		<stop  offset="0.7754" style="stop-color:#F99C4D"/>
		<stop  offset="0.8658" style="stop-color:#F8924F"/>
		<stop  offset="1" style="stop-color:#F8924F"/>
	</linearGradient>
	<path fill="url(#SVGID_10_)" d="M2692.6,1618.9c0,346.7-271.3,618.9-617.5,607.7c-359.7-11.6-661.6-322.5-661.6-694
		c0-371.4,302-641.6,661.6-604.7C2421.3,963.4,2692.6,1272.2,2692.6,1618.9z"/>
	<linearGradient id="SVGID_11_" gradientUnits="userSpaceOnUse" x1="1941.7404" y1="1337.3485" x2="2496.6667" y2="2515.3513">
		<stop  offset="0" style="stop-color:#FCB148"/>
		<stop  offset="5.207239e-002" style="stop-color:#FDBA46"/>
		<stop  offset="0.1424" style="stop-color:#FFC244"/>
		<stop  offset="0.3183" style="stop-color:#FFC444"/>
		<stop  offset="0.4849" style="stop-color:#FDB946"/>
		<stop  offset="0.7754" style="stop-color:#F99C4D"/>
		<stop  offset="0.8658" style="stop-color:#F8924F"/>
		<stop  offset="1" style="stop-color:#F8924F"/>
	</linearGradient>
	<path fill="url(#SVGID_11_)" d="M2672.3,1617.5c0,335.2-262.5,598.2-597.2,587c-347.2-11.7-638.3-311.9-638.3-670.2
		s291.1-619.3,638.3-584.2C2409.7,984,2672.3,1282.3,2672.3,1617.5z"/>
	<linearGradient id="SVGID_12_" gradientUnits="userSpaceOnUse" x1="1778.4829" y1="1413.5831" x2="2332.29" y2="2589.2102">
		<stop  offset="0" style="stop-color:#FCB148"/>
		<stop  offset="5.207239e-002" style="stop-color:#FDBA46"/>
		<stop  offset="0.1424" style="stop-color:#FFC244"/>
		<stop  offset="0.3183" style="stop-color:#FFC444"/>
		<stop  offset="0.4849" style="stop-color:#FDB946"/>
		<stop  offset="0.7754" style="stop-color:#F99C4D"/>
		<stop  offset="0.8658" style="stop-color:#F8924F"/>
		<stop  offset="1" style="stop-color:#F8924F"/>
	</linearGradient>
	<path opacity="0.3" fill="url(#SVGID_12_)" d="M1967,1699.6c20.2-199.3,203.3-283.6,179.4-466.9c-14.7-113-100.4-208.2-195.9-282.5
		c-289.7,30.4-513.8,270.3-513.8,584.1c0,358.3,291.1,658.6,638.3,670.2c33.7,1.1,66.6-0.6,98.6-4.8
		C2035.9,2062.5,1949.7,1870.8,1967,1699.6z"/>
	<linearGradient id="SVGID_13_" gradientUnits="userSpaceOnUse" x1="1239.3109" y1="1793.2301" x2="2162.9626" y2="527.3625">
		<stop  offset="0" style="stop-color:#006E6E"/>
		<stop  offset="1" style="stop-color:#FBFF00"/>
	</linearGradient>
	<path fill="url(#SVGID_13_)" d="M2592.1,1203.7v2.8c-24.8-33.8-69.1-80.8-95.7-108c-0.5-1.2-1.3-2.4-1.8-3.6
		c-14.8-35.6-34.8-74.1-60.9-112.5c-25.9-38.5-58.9-76.5-97.3-111.4c-4.6-4.5-9.9-8.5-14.8-12.8c-2.5-2.1-5-4.2-7.6-6.3l-3.7-3.2
		c-1.3-1.1-2.7-2-4-3c-5.3-4-10.5-8-15.9-12.1l-4-3l-4.2-2.8c-2.8-1.9-5.5-3.8-8.3-5.7c-10.9-7.9-22.6-14.7-34.1-21.9
		c-5.8-3.5-12-6.7-17.9-10c-2.9-1.7-5.9-3.4-9-5c-3.1-1.5-6.2-3.1-9.2-4.6c-49.1-24.8-102.7-42.7-157.6-52.6
		c-6.9-1.1-13.7-2.3-20.7-3.4c-6.9-1-13.9-1.6-20.8-2.4l-10.4-1.2l-10.4-0.6l-10.4-0.6c-3.5-0.2-6.9-0.5-10.4-0.5
		c-6.9,0-13.9-0.1-20.8-0.1c-1.7,0-3.5-0.1-5.1,0l-4.6,0.2l-9.3,0.5l-9.2,0.5c-0.8,0-1.4,0-2.4,0.1l-9.4,0.7l-12.6,0.9l-9.4,0.7
		l-1.6,0.1l-0.6,0c0,0-3.3,0,2.2,0.1l-20.4,3c-3.4,0.5-6.8,0.8-10.1,1.6l-10,2l-10,2l-5,1c-1.7,0.3-3.3,0.8-4.9,1.2
		c-6.5,1.7-13.1,3.3-19.6,5c-3.3,0.7-6.5,1.8-9.7,2.8l-9.6,3l-9.6,2.9l-9.3,3.4c-6.2,2.3-12.5,4.4-18.5,6.9c-6,2.5-12.1,5.1-18,7.7
		c-47.6,21.2-90.4,48.5-126.8,79.8l-6.9,5.7l-6.5,6.1c-4.3,4-8.8,7.9-12.9,12c-0.2,0.1-0.3,0.4-0.5,0.5c-8,8.3-16.1,16.1-23.3,24.6
		c-1.9,2.1-3.8,4.2-5.6,6.3l-2.8,3.1l-2.6,3.3c-3.5,4.3-7,8.7-10.4,13c-0.9,1.1-1.8,2.1-2.6,3.2l-2.4,3.3c-1.6,2.2-3.2,4.5-4.8,6.6
		c-3.1,4.5-6.5,8.6-9.3,13.2c-23.6,35.4-41.6,70.8-53.9,104.5c-12.4,33.7-19.7,65.3-23.9,93.2c-0.5,3.5-0.9,6.9-1.4,10.3
		c-0.4,3.4-1.1,6.7-1.2,9.9c-0.5,6.6-1.1,12.8-1.6,18.8c-0.4,6.1-0.4,11.9-0.6,17.4c-0.1,2.8-0.3,5.4-0.3,8c0.1,2.7,0.2,5.2,0.2,7.7
		c0.1,5,0.1,9.7,0.2,14.1c0,1.2,0.2,1.9,0.2,2.7c0.1,0.8,0.2,1.6,0.3,2.4c0.1,1.6,0.4,1.3,0.5,2.8c0.1,1.2,0.2,1.8,0.4,1.8h232.9
		l-141.5,156.9l-329,359.9l-470.6-516.8h247.4c0.4,0,0.7-4.2,1.1-7.6c1-7.2,2-14.2,3.1-22.7c0.6-4.2,1.2-8.2,1.9-12.8
		c0.4-2.2,0.7-4.4,1-6.7c0.3-2.3,0.6-4.8,1.1-6.8c1.7-8.6,3.5-17.6,5.4-27.2c1-4.8,2-9.7,3.1-14.7c1.1-5,2.5-10.1,3.8-15.4
		c2.7-10.4,5.3-21.4,8.6-32.7c3.5-11.2,7.1-22.9,10.8-35c1.8-6.1,4.2-12.1,6.4-18.3c2.2-6.1,4.5-12.3,6.9-18.7
		c19.2-50.4,45.4-105.3,80.5-160.5c34.9-55.2,79.4-110.3,132.2-161.3c6.4-6.5,13.5-12.5,20.3-18.8c3.5-3.1,6.9-6.2,10.4-9.3l5.3-4.7
		l5.4-4.5c7.3-5.9,14.6-11.9,21.9-17.9l5.5-4.5l5.7-4.2c3.9-2.9,7.7-5.7,11.5-8.5c15.1-11.6,31.4-22,47.5-32.8
		c8.1-5.2,16.6-10.1,24.9-15.2c4.1-2.5,8.4-5,12.6-7.5c4.3-2.3,8.6-4.7,12.9-7c68.9-37.7,144.9-66.3,223.9-83.5
		c9.9-1.9,19.8-3.9,29.7-5.9c9.9-1.8,20-3.1,30-4.6l15-2.1l15.1-1.5l15.1-1.5c5-0.5,10-1,15.1-1.2c10-0.5,20.1-1.7,30.2-2.1
		c2.5-0.1,5-1.1,7.5-1.1h7.6l15,0.8l15,0.5c5,0,10,0.7,15,0.9l29.9,1.8c6.8,0.1,2.3,0.2,4.1,0.2l0.8,0.1l1.6,0.2l3.1,0.4l6.3,0.8
		l12.5,1.6l6.3,0.8l3.1,0.4l3.9,0.5l15.9,2.3l15.9,2.4l7.9,1.2c2.6,0.4,4.9,1,7.4,1.5c9.7,2.1,19.3,4.1,29,6.2
		c4.8,1,9.6,2.3,14.3,3.6l14.3,3.8l14.2,3.8l14,4.4c9.3,3,18.6,5.8,27.7,9.1c9.1,3.4,18.1,6.8,27.1,10.2
		c71.6,28.4,136.9,66.4,193.1,110.6c3.5,2.7,7,5.5,10.5,8.2c3.4,2.8,6.8,5.7,10.2,8.6c6.7,5.7,13.5,11.3,20,17.1
		c12.8,12,25.5,23.5,37.2,36c3,3,5.9,6.1,8.8,9.1l4.4,4.5l4.2,4.7c5.6,6.3,11,12.6,16.5,18.8l4.1,4.7l3.9,4.8
		c2.5,3.2,5.1,6.4,7.6,9.6c5,6.4,10.3,12.5,14.8,19.1c25.7,34.6,47.4,69.7,65.4,104.3c8.8,16.8,16.6,33.5,23.5,50.1
		c21.3,50.5,35,98.5,43.7,141.3c1,5.4,2,10.7,2.9,15.9c0.9,5.2,2,10.2,2.6,15.3c1.3,10.1,2.7,19.7,3.9,29.1
		c1.1,9.3,1.6,18.3,2.4,26.9c0.3,4.2,0.7,8.4,1,12.5c0.1,4,1,8,1.2,11.9C2590.8,1189.4,2592.1,1196.8,2592.1,1203.7z"/>
	<linearGradient id="SVGID_14_" gradientUnits="userSpaceOnUse" x1="1984.8643" y1="1170.9143" x2="2318.8704" y2="713.1578">
		<stop  offset="0" style="stop-color:#6165D7"/>
		<stop  offset="1" style="stop-color:#AA80F9"/>
	</linearGradient>
	<path opacity="0.4" fill="url(#SVGID_14_)" d="M2592.1,1203.7v2.8c-24.8-33.8-69.1-80.8-95.7-108c-0.5-1.2-1.3-2.4-1.8-3.6
		c-14.8-35.6-34.8-74.1-60.9-112.5c-25.9-38.5-58.9-76.5-97.3-111.4c-4.6-4.5-9.9-8.5-14.8-12.8c-2.5-2.1-5-4.2-7.6-6.3l-3.7-3.2
		c-1.3-1.1-2.7-2-4-3c-5.3-4-10.5-8-15.9-12.1l-4-3l-4.2-2.8c-2.8-1.9-5.5-3.8-8.3-5.7c-10.9-7.9-22.6-14.7-34.1-21.9
		c-5.8-3.5-12-6.7-17.9-10c-2.9-1.7-5.9-3.4-9-5c-3.1-1.5-6.2-3.1-9.2-4.6c-49.1-24.8-102.7-42.7-157.6-52.6
		c-6.9-1.1-13.7-2.3-20.7-3.4c-6.9-1-13.9-1.6-20.8-2.4l-10.4-1.2l-10.4-0.6l-10.4-0.6c-3.5-0.2-6.9-0.5-10.4-0.5
		c-6.9,0-13.9-0.1-20.8-0.1c-1.7,0-3.5-0.1-5.1,0l-4.6,0.2l-9.3,0.5l-9.2,0.5c-0.8,0-1.4,0-2.4,0.1l-9.4,0.7l-12.6,0.9l-9.4,0.7
		l-1.6,0.1l-0.6,0c0,0-3.3,0,2.2,0.1l-20.4,3c-3.4,0.5-6.8,0.8-10.1,1.6l-10,2l-10,2l-5,1c-1.7,0.3-3.3,0.8-4.9,1.2
		c-6.5,1.7-13.1,3.3-19.6,5c-3.3,0.7-6.5,1.8-9.7,2.8l-9.6,3l-9.6,2.9l-9.3,3.4c-6.2,2.3-12.5,4.4-18.5,6.9c-6,2.5-12.1,5.1-18,7.7
		c-47.6,21.2-90.4,48.5-126.8,79.8l-6.9,5.7l-6.5,6.1c-4.3,4-8.8,7.9-12.9,12c-0.2,0.1-0.3,0.4-0.5,0.5
		c104.6-129.5,273.9-213.6,465.1-213.6c195.9,0,368.8,88.3,472.7,223.1c8.8,16.8,16.6,33.5,23.5,50.1c21.3,50.5,35,98.5,43.7,141.3
		c1,5.4,2,10.7,2.9,15.9c0.9,5.2,2,10.2,2.6,15.3c1.3,10.1,2.7,19.7,3.9,29.1c1.1,9.3,1.6,18.3,2.4,26.9c0.3,4.2,0.7,8.4,1,12.5
		c0.1,4,1,8,1.2,11.9C2590.8,1189.4,2592.1,1196.8,2592.1,1203.7z"/>
	
		<linearGradient id="SVGID_15_" gradientUnits="userSpaceOnUse" x1="-662.3381" y1="1872.1096" x2="-646.7831" y2="1962.8075" gradientTransform="matrix(-1 0 0 1 501.1568 0)">
		<stop  offset="0" style="stop-color:#FFC444"/>
		<stop  offset="0.9964" style="stop-color:#F36F56"/>
	</linearGradient>
	<path fill="url(#SVGID_15_)" d="M1190.8,1908.1c-5.2-4.2-12.1-11-16-21.1c-4.2-10.9-1.3-15.7-6.6-22.5c-6.7-8.6-20.5-12.3-30-8.1
		c-2,0.9-4.4,2.1-5.9,4.7c-4.2,7.1,5.1,19.4,12.6,25.9c5.6,4.9,7.9,4.6,13.9,8.7c5.8,4.1,13.1,11.1,19,24.1L1190.8,1908.1z"/>
	
		<linearGradient id="SVGID_16_" gradientUnits="userSpaceOnUse" x1="1756.0404" y1="1362.3073" x2="1771.5964" y2="1453.01" gradientTransform="matrix(0.9207 0.3902 -0.3902 0.9207 -166.7031 -113.3621)">
		<stop  offset="0" style="stop-color:#FFC444"/>
		<stop  offset="0.9964" style="stop-color:#F36F56"/>
	</linearGradient>
	<path fill="url(#SVGID_16_)" d="M879.3,1848.6c6.4-1.8,15.4-5.4,23-13.2c8.1-8.4,7.3-14,14.8-18.2c9.6-5.3,23.7-3.3,30.7,4.2
		c1.5,1.6,3.2,3.7,3.6,6.7c1.1,8.2-12.3,15.8-21.7,19c-7.1,2.3-9.1,1.1-16.2,2.7c-6.9,1.5-16.4,5.1-26.8,14.8L879.3,1848.6z"/>
	<path fill="#009245" d="M909,1858.7c4.1,19.7-17.2,37.2-32.5,54.4c-30.8,34.5-63.1,96.1-51.2,149c6.5,28.9,27.2,60.1,56.5,74.9
		c31.5,15.9,50.4,1.4,83.2,20.4c2.4,1.4,43.9,26,45.1,59.1c1.5,40.9-58.7,84.5-110.2,87.8c-94.2,6.1-207.7-119.2-202.4-243.5
		c5.8-135.3,151.2-242.7,193-224.5C897,1839.2,906.7,1847.6,909,1858.7z"/>
	
		<linearGradient id="SVGID_17_" gradientUnits="userSpaceOnUse" x1="290.2566" y1="3338.479" x2="290.2566" y2="3003.5234" gradientTransform="matrix(0.9994 3.520000e-002 -3.520000e-002 0.9994 766.3218 -10.261)">
		<stop  offset="0" style="stop-color:#FFC444"/>
		<stop  offset="0.9964" style="stop-color:#F36F56"/>
	</linearGradient>
	<polygon fill="url(#SVGID_17_)" points="951,3259.9 954.3,3294.2 938.4,3291.3 927.6,3259.1 	"/>
	
		<linearGradient id="SVGID_18_" gradientUnits="userSpaceOnUse" x1="258.9899" y1="2694.9321" x2="231.7286" y2="3308.3137" gradientTransform="matrix(0.9994 3.520000e-002 -3.520000e-002 0.9994 766.3218 -10.261)">
		<stop  offset="0" style="stop-color:#022627"/>
		<stop  offset="1" style="stop-color:#006E6E"/>
	</linearGradient>
	<path fill="url(#SVGID_18_)" d="M853.7,2626.5c1.7,60.9,9.3,113,18.2,155.5c9.7,45.8,15.3,53.7,18.3,85.3
		c6.6,68.8-15.6,78.7-19.7,156.5c-4.5,85.9,18.3,154.2,27.3,180.3c7.9,22.8,16.1,41.2,22.3,53.9c7.9,6.9,19.9,4.2,32.6,1.6
		c4.7-77.9,10.5-151.3,15.2-229.2c15.1-117.2,30.2-234.5,45.3-351.7C960,2661.3,906.9,2643.9,853.7,2626.5z"/>
	
		<linearGradient id="SVGID_19_" gradientUnits="userSpaceOnUse" x1="258.9899" y1="2694.9321" x2="231.7286" y2="3308.3135" gradientTransform="matrix(0.9994 3.520000e-002 -3.520000e-002 0.9994 766.3218 -10.261)">
		<stop  offset="0" style="stop-color:#022627"/>
		<stop  offset="1" style="stop-color:#006E6E"/>
	</linearGradient>
	<path opacity="0.3" fill="url(#SVGID_19_)" d="M952.8,3259.6c4.7-77.9,10.5-151.3,15.2-229.2c15.1-117.2,30.2-234.5,45.3-351.7
		c-53.2-17.4-106.4-34.8-159.6-52.2c0.1,4,0.3,7.9,0.5,11.9c74.6,64.8,89.2,116.1,88.5,151.1c-0.9,42.5-24.1,63.5-19.6,125.1
		c3.2,44,16.5,51.8,16.5,91.5c0,51.2-22,79.9-32.7,109.5c-10.3,28.6-14,69,6,126.6c2.6,5.9,5.1,11.3,7.3,15.8
		C928,3264.9,940.1,3262.2,952.8,3259.6z"/>
	
		<linearGradient id="SVGID_20_" gradientUnits="userSpaceOnUse" x1="317.9468" y1="3340.2073" x2="261.9083" y2="3155.4312" gradientTransform="matrix(0.9994 3.520000e-002 -3.520000e-002 0.9994 766.3218 -10.261)">
		<stop  offset="0" style="stop-color:#FF9085"/>
		<stop  offset="1" style="stop-color:#FB6FBB"/>
	</linearGradient>
	<path fill="url(#SVGID_20_)" d="M945,3305.9c-7.6-9.4-14.5-8.7-15.8-15c-1-5,2.2-11,6.8-13.2c6.5-3.1,14.2,2.1,16,3.3
		c11.8,8.1,8.3,20.2,19.5,25.7c2.3,1.1,5.8,2.3,9.6,6c1.6,1.5,5.5,5.4,4.5,7.9c-1.1,3-8.3,2.7-15.1,2.5c-8.1-0.3-12.2-0.4-16.1-3
		C949.1,3316.6,950.8,3313.1,945,3305.9z"/>
	
		<linearGradient id="SVGID_21_" gradientUnits="userSpaceOnUse" x1="2741.9795" y1="1312.6458" x2="2741.9795" y2="1015.7821" gradientTransform="matrix(0.6521 0.7581 -0.7581 0.6521 107.7632 112.2658)">
		<stop  offset="0" style="stop-color:#FFC444"/>
		<stop  offset="0.9964" style="stop-color:#F36F56"/>
	</linearGradient>
	<polygon fill="url(#SVGID_21_)" points="961,3012.6 931.2,3024.3 922.5,3010.6 945.8,2994.9 	"/>
	
		<linearGradient id="SVGID_22_" gradientUnits="userSpaceOnUse" x1="2762.6187" y1="1323.8699" x2="2706.5776" y2="1139.0852" gradientTransform="matrix(0.6521 0.7581 -0.7581 0.6521 107.7632 112.2658)">
		<stop  offset="0" style="stop-color:#FF9085"/>
		<stop  offset="1" style="stop-color:#FB6FBB"/>
	</linearGradient>
	<path fill="url(#SVGID_22_)" d="M915.4,3031.6c1.8-11.9-3.5-16.5,0.4-21.8c3-4.1,9.6-5.9,14.4-4c6.7,2.7,8.1,11.9,8.4,14
		c2.1,14.2-9.2,19.8-5.7,31.8c0.7,2.4,2.3,5.9,2.1,11.1c-0.1,2.2-0.2,7.7-2.8,8.7c-3,1.2-7.6-4.2-12-9.4c-5.3-6.2-8-9.3-8.7-13.8
		C910.4,3041.8,914.1,3040.7,915.4,3031.6z"/>
	
		<linearGradient id="SVGID_23_" gradientUnits="userSpaceOnUse" x1="-201.0294" y1="2813.7861" x2="-772.7565" y2="2787.7981" gradientTransform="matrix(-1 0 0 1 501.1568 0)">
		<stop  offset="0" style="stop-color:#022627"/>
		<stop  offset="1" style="stop-color:#006E6E"/>
	</linearGradient>
	<path fill="url(#SVGID_23_)" d="M1090.2,2572.4c55.6,113.4,74.5,208,81.7,269.8c4.6,39.7,4.1,64.3-7.3,88.9
		c-41,88.3-183.9,94.2-205.6,94.8c-7.1-14.6-14.3-29.3-21.4-43.9c13.1-24.4,36.1-58.3,75.4-83c30.2-19,42-14.9,49.6-27.7
		c30.3-51.2-133.1-162.2-108.7-236.1C962.2,2609.7,994.7,2583.7,1090.2,2572.4z"/>
	<path fill="#22B573" d="M969.7,2164.6c60.1,10.3,105.9,21.1,126.3,52.6c21.6,33.3-12.7,58.3-22.1,131.2
		c-14.3,111.7,49.9,153.4,31.5,265.9c-3,18.4-7.6,34.7-12.5,48.6c-8.7,24.5-25.5,45.2-47.5,59c-16.5,10.4-36.6,20.8-60.2,29.1
		c-61,21.3-91,8.9-173,13.6c-134.1,7.7-154.2,46.6-214.8,22.6c-61.2-24.2-105.6-89.5-92.6-117.4c7.8-16.7,32.3-6.3,67.5-26.8
		c45.4-26.5,37.7-62.6,74.5-93.5c52.9-44.5,103.7,0.4,148.9-38.2c45.7-39.1,51.2-134.3,31.8-190.9c-12.7-37-12.9-77.2-22.4-115.2
		c-0.8-3.2-1.4-8.2,0.6-13.9c7.5-21.8,47.4-26,77.6-28.9C929.4,2157.9,964.7,2163.8,969.7,2164.6z"/>
	<path opacity="0.3" fill="#006837" d="M604.4,2744.9c18.6-12.4,8.5-47.5,36-66.1c25.5-17.3,45.4,5.3,83.1-6.2
		c48.3-14.8,45.7-61.3,92-76.1c33.3-10.7,43.3,10.6,91.3,11.5c47.9,0.9,110.7-18.8,150.4-69.6c16.9-21.6,26.3-44.6,31.5-65.8
		c12.8,41.4,26.7,81.4,16.8,141.7c-4,24.4-10.8,45.3-17.5,61.7c-6.2,15.3-16.8,28.5-30.3,37.9c-18.5,12.9-42.6,26.7-72.3,37.1
		c-61,21.3-91,8.9-173,13.6c-134.1,7.7-154.2,46.6-214.8,22.6c-39.1-15.5-71.3-47.7-86.1-76.3
		C564.3,2749.6,590.9,2753.9,604.4,2744.9z"/>
	
		<linearGradient id="SVGID_24_" gradientUnits="userSpaceOnUse" x1="325.4282" y1="2104.439" x2="261.4974" y2="2207.8564" gradientTransform="matrix(0.9994 3.520000e-002 -3.520000e-002 0.9994 766.3218 -10.261)">
		<stop  offset="0" style="stop-color:#FFC444"/>
		<stop  offset="0.9964" style="stop-color:#F36F56"/>
	</linearGradient>
	<path fill="url(#SVGID_24_)" d="M1004.4,2060.6c0,0,16.6,31.1,17.6,52.9c1,21.8-23.6,20.2-23.6,20.2l0.9,13.8
		c0.8,11.8,8.4,21.9,19.5,26l9.7,3.6c0,0-63.4,13.6-98.1-10.9l10-1c14.1-1.4,25.3-12.5,26.8-26.7l0.6-5.9
		C967.9,2132.7,956.9,2064.6,1004.4,2060.6z"/>
	<path fill="#009245" d="M1160.6,1914.3c-9.4,17.8,6.2,40.5,16.2,61.3c20.1,41.7,34.1,109.8,8.2,157.3c-14.2,26-42.7,50.3-75,56.4
		c-34.7,6.6-48.8-12.5-85.6-3.4c-2.7,0.7-49.3,12.9-59.6,44.4c-12.7,38.9,33.1,97.4,81.7,114.8c88.9,31.8,232.5-57.3,261.7-178.2
		c31.8-131.7-78.4-275-123.6-269C1177.5,1898.9,1165.9,1904.3,1160.6,1914.3z"/>
	
		<linearGradient id="SVGID_25_" gradientUnits="userSpaceOnUse" x1="-29.6409" y1="2537.6045" x2="228.817" y2="1985.344" gradientTransform="matrix(0.9994 3.520000e-002 -3.520000e-002 0.9994 766.3218 -10.261)">
		<stop  offset="0" style="stop-color:#666666"/>
		<stop  offset="0.9964" style="stop-color:#000000"/>
	</linearGradient>
	<path fill="url(#SVGID_25_)" d="M994.5,2091.5c-3.3-0.3-6-4.4-8.2-3.2c-2.4,1.3-2.1,7.4,0,11.6c1.7,3.5,4.4,5.5,5.9,6.4
		c-2.5,3.5-5.8,8.9-7.1,16.1c-3,15.8,5.4,28.4,8.9,35.9c15.7,33.4-8.7,86.3-35.5,113c-21.8,21.7-32,13-45,30.7
		c-25.3,34.5,9.6,72.4-3.5,118.9c-19.9,70.6-131.4,91.6-136,92.4c-1.8,0.3-3,0.5-4.9,0.8c-50,7.9-125.8,20-179.2-21.1
		c-39.9-30.7-58.3-84.2-55.2-131.3c0.8-12.4,4.5-59.4,42.9-97.8c6.1-6.1,42.1-42.1,90.7-42.5c25.8-0.2,31,8.8,50.7,3.2
		c27-7.7,43.6-32.2,53.9-47.4c19-28,11.3-34,24.9-47.7c26.7-27,58.1-5.8,86.7-29.6c28.1-23.5,11.2-55.3,38.3-75.6
		c28-20.9,81.6-13.6,93.1,11.3C1025.5,2057.1,1004.5,2092.3,994.5,2091.5z"/>
	
		<text transform="matrix(1.0185 0 0 1 1545.8414 1897.7589)" fill="#FCEE21" font-family="'Righteous-Regular'" font-size="789.6992px">RS</text>
</g>
</svg>
