<?xml version="1.0" encoding="utf-8"?>
<!-- Generator: Adobe Illustrator 19.0.0, SVG Export Plug-In . SVG Version: 6.00 Build 0)  -->
<svg version="1.1" id="Layer_1" xmlns="http://www.w3.org/2000/svg" xmlns:xlink="http://www.w3.org/1999/xlink" x="0px" y="0px"
	 viewBox="0 0 472 309" enable-background="new 0 0 472 309" xml:space="preserve">
<radialGradient id="XMLID_241_" cx="-441.0289" cy="5332.2407" r="114.1212" gradientTransform="matrix(1.5364 0 0 0.2273 911.8002 -962.4504)" gradientUnits="userSpaceOnUse">
	<stop  offset="0" style="stop-color:#B5B6B6"/>
	<stop  offset="0.2089" style="stop-color:#CAC9C9"/>
	<stop  offset="0.5251" style="stop-color:#E4E3E3"/>
	<stop  offset="0.7997" style="stop-color:#F6F5F5"/>
	<stop  offset="1" style="stop-color:#FFFFFF"/>
</radialGradient>
<ellipse id="XMLID_2_" fill="url(#XMLID_241_)" cx="234.2" cy="249.6" rx="175.3" ry="25.9"/>
<radialGradient id="XMLID_243_" cx="211.216" cy="57.516" r="190.0875" gradientUnits="userSpaceOnUse">
	<stop  offset="0.1" style="stop-color:#046F6F;stop-opacity:0.7"/>
	<stop  offset="1" style="stop-color:#046F6F"/>
</radialGradient>
<path id="XMLID_1_" fill="url(#XMLID_243_)" d="M378.1,236.2H97.5c-4.6,0-8.4-3.7-8.4-8.4V65.6c0-4.6,3.7-8.4,8.4-8.4h280.6
	c4.6,0,8.4,3.7,8.4,8.4v162.2C386.4,232.4,382.7,236.2,378.1,236.2z"/>
<linearGradient id="XMLID_245_" gradientUnits="userSpaceOnUse" x1="188.4313" y1="-4.6171" x2="172.4359" y2="226.1712">
	<stop  offset="0" style="stop-color:#FFFFFF"/>
	<stop  offset="3.051245e-002" style="stop-color:#DEDCDC"/>
	<stop  offset="0.1277" style="stop-color:#9C9999"/>
	<stop  offset="0.23" style="stop-color:#6C6969"/>
	<stop  offset="0.3357" style="stop-color:#4B4948"/>
	<stop  offset="0.4455" style="stop-color:#333231"/>
	<stop  offset="0.5609" style="stop-color:#20201F"/>
	<stop  offset="0.6844" style="stop-color:#111111"/>
	<stop  offset="0.8216" style="stop-color:#050505"/>
	<stop  offset="1" style="stop-color:#010101"/>
</linearGradient>
<path id="XMLID_97_" opacity="0.4" fill="url(#XMLID_245_)" d="M278,57.2H105.7c-9.1,0-16.5,7.4-16.5,16.6v145.8
	c0,9.1,7.4,16.6,16.5,16.6h69.9L278,57.2z"/>
<g id="XMLID_229_">
	<linearGradient id="XMLID_246_" gradientUnits="userSpaceOnUse" x1="121.1393" y1="187.5795" x2="121.1393" y2="171.4183">
		<stop  offset="0" style="stop-color:#F3EA15"/>
		<stop  offset="1.707368e-003" style="stop-color:#F2E717"/>
		<stop  offset="5.140718e-002" style="stop-color:#D7BE26"/>
		<stop  offset="0.1024" style="stop-color:#C5A22A"/>
		<stop  offset="0.1543" style="stop-color:#B88D2A"/>
		<stop  offset="0.2074" style="stop-color:#B07F2A"/>
		<stop  offset="0.2625" style="stop-color:#AB782A"/>
		<stop  offset="0.3227" style="stop-color:#A9752A"/>
		<stop  offset="0.395" style="stop-color:#AD7A2C"/>
		<stop  offset="0.4916" style="stop-color:#B88833"/>
		<stop  offset="0.6014" style="stop-color:#CCA241"/>
		<stop  offset="0.661" style="stop-color:#DCB64E"/>
		<stop  offset="0.6867" style="stop-color:#DEBC4A"/>
		<stop  offset="0.817" style="stop-color:#E9D337"/>
		<stop  offset="0.926" style="stop-color:#F0E222"/>
		<stop  offset="1" style="stop-color:#F3EA15"/>
	</linearGradient>
	<path id="XMLID_268_" fill="url(#XMLID_246_)" d="M123.2,169.2v13.2h-1.9v-11.3h-2.3v-1.9H123.2z"/>
	<linearGradient id="XMLID_248_" gradientUnits="userSpaceOnUse" x1="132.1976" y1="187.5795" x2="132.1976" y2="171.4183">
		<stop  offset="0" style="stop-color:#F3EA15"/>
		<stop  offset="1.707368e-003" style="stop-color:#F2E717"/>
		<stop  offset="5.140718e-002" style="stop-color:#D7BE26"/>
		<stop  offset="0.1024" style="stop-color:#C5A22A"/>
		<stop  offset="0.1543" style="stop-color:#B88D2A"/>
		<stop  offset="0.2074" style="stop-color:#B07F2A"/>
		<stop  offset="0.2625" style="stop-color:#AB782A"/>
		<stop  offset="0.3227" style="stop-color:#A9752A"/>
		<stop  offset="0.395" style="stop-color:#AD7A2C"/>
		<stop  offset="0.4916" style="stop-color:#B88833"/>
		<stop  offset="0.6014" style="stop-color:#CCA241"/>
		<stop  offset="0.661" style="stop-color:#DCB64E"/>
		<stop  offset="0.6867" style="stop-color:#DEBC4A"/>
		<stop  offset="0.817" style="stop-color:#E9D337"/>
		<stop  offset="0.926" style="stop-color:#F0E222"/>
		<stop  offset="1" style="stop-color:#F3EA15"/>
	</linearGradient>
	<path id="XMLID_266_" fill="url(#XMLID_248_)" d="M129.1,171.1v1.7h-1.9v-1.7c0-0.3,0.1-0.5,0.1-0.7c0.1-0.2,0.2-0.4,0.4-0.6
		c0.2-0.2,0.4-0.3,0.6-0.4c0.2-0.1,0.5-0.2,0.7-0.2h6c0.3,0,0.5,0.1,0.7,0.2c0.2,0.1,0.4,0.2,0.6,0.4c0.2,0.2,0.3,0.4,0.4,0.6
		c0.1,0.2,0.2,0.5,0.2,0.7v2.4c0,0.3,0,0.5-0.1,0.7c0,0.2-0.1,0.4-0.2,0.5c-0.1,0.2-0.2,0.3-0.4,0.4c-0.2,0.1-0.4,0.3-0.6,0.4
		l-6.6,3.1v1.9h6.2v-1.7h1.9v3.6h-10v-3.5c0-0.3,0-0.5,0.1-0.7c0.1-0.2,0.1-0.4,0.2-0.5c0.1-0.2,0.2-0.3,0.4-0.4
		c0.2-0.1,0.4-0.3,0.6-0.4l6.6-3.1v-2.7H129.1z"/>
	<linearGradient id="XMLID_249_" gradientUnits="userSpaceOnUse" x1="145.4067" y1="187.5795" x2="145.4067" y2="171.4183">
		<stop  offset="0" style="stop-color:#F3EA15"/>
		<stop  offset="1.707368e-003" style="stop-color:#F2E717"/>
		<stop  offset="5.140718e-002" style="stop-color:#D7BE26"/>
		<stop  offset="0.1024" style="stop-color:#C5A22A"/>
		<stop  offset="0.1543" style="stop-color:#B88D2A"/>
		<stop  offset="0.2074" style="stop-color:#B07F2A"/>
		<stop  offset="0.2625" style="stop-color:#AB782A"/>
		<stop  offset="0.3227" style="stop-color:#A9752A"/>
		<stop  offset="0.395" style="stop-color:#AD7A2C"/>
		<stop  offset="0.4916" style="stop-color:#B88833"/>
		<stop  offset="0.6014" style="stop-color:#CCA241"/>
		<stop  offset="0.661" style="stop-color:#DCB64E"/>
		<stop  offset="0.6867" style="stop-color:#DEBC4A"/>
		<stop  offset="0.817" style="stop-color:#E9D337"/>
		<stop  offset="0.926" style="stop-color:#F0E222"/>
		<stop  offset="1" style="stop-color:#F3EA15"/>
	</linearGradient>
	<path id="XMLID_264_" fill="url(#XMLID_249_)" d="M140.2,178.4h1.9v0.7c0,0.5,0.1,0.9,0.3,1.1c0.2,0.2,0.6,0.4,1.1,0.4h3.8
		c0.5,0,0.9-0.1,1.1-0.4c0.2-0.2,0.3-0.6,0.3-1.1v-1c0-0.5-0.1-0.9-0.3-1.1c-0.2-0.2-0.6-0.3-1.1-0.3h-3.9v-1.8h3.9
		c0.5,0,0.8-0.1,1-0.4c0.2-0.2,0.3-0.6,0.3-1.1v-0.9c0-0.5-0.1-0.9-0.3-1.1c-0.2-0.2-0.6-0.4-1.1-0.4h-3.4c-0.5,0-0.9,0.1-1.1,0.4
		c-0.2,0.2-0.3,0.6-0.3,1.1v0.7h-1.9v-0.8c0-2.1,1.1-3.2,3.2-3.2h3.6c1.1,0,1.9,0.3,2.4,0.8c0.5,0.5,0.8,1.3,0.8,2.4v0.2
		c0,0.7-0.1,1.4-0.4,1.8c-0.3,0.5-0.6,0.8-1.1,1.1c0.6,0.2,1,0.5,1.3,1c0.3,0.5,0.4,1.2,0.4,2v0.7c0,2.1-1.1,3.2-3.2,3.2h-3.9
		c-2.1,0-3.2-1.1-3.2-3.2V178.4z"/>
	<linearGradient id="XMLID_251_" gradientUnits="userSpaceOnUse" x1="157.9327" y1="187.5795" x2="157.9327" y2="171.4183">
		<stop  offset="0" style="stop-color:#F3EA15"/>
		<stop  offset="1.707368e-003" style="stop-color:#F2E717"/>
		<stop  offset="5.140718e-002" style="stop-color:#D7BE26"/>
		<stop  offset="0.1024" style="stop-color:#C5A22A"/>
		<stop  offset="0.1543" style="stop-color:#B88D2A"/>
		<stop  offset="0.2074" style="stop-color:#B07F2A"/>
		<stop  offset="0.2625" style="stop-color:#AB782A"/>
		<stop  offset="0.3227" style="stop-color:#A9752A"/>
		<stop  offset="0.395" style="stop-color:#AD7A2C"/>
		<stop  offset="0.4916" style="stop-color:#B88833"/>
		<stop  offset="0.6014" style="stop-color:#CCA241"/>
		<stop  offset="0.661" style="stop-color:#DCB64E"/>
		<stop  offset="0.6867" style="stop-color:#DEBC4A"/>
		<stop  offset="0.817" style="stop-color:#E9D337"/>
		<stop  offset="0.926" style="stop-color:#F0E222"/>
		<stop  offset="1" style="stop-color:#F3EA15"/>
	</linearGradient>
	<path id="XMLID_261_" fill="url(#XMLID_251_)" d="M152.7,177.8l6.5-8.7h2.2v8.7h1.8v1.8h-1.8v2.7h-1.9v-2.7h-6.9V177.8z
		 M159.5,177.8v-6.4l-4.8,6.4H159.5z"/>
	<linearGradient id="XMLID_252_" gradientUnits="userSpaceOnUse" x1="182.7254" y1="187.5795" x2="182.7254" y2="171.4183">
		<stop  offset="0" style="stop-color:#F3EA15"/>
		<stop  offset="1.707368e-003" style="stop-color:#F2E717"/>
		<stop  offset="5.140718e-002" style="stop-color:#D7BE26"/>
		<stop  offset="0.1024" style="stop-color:#C5A22A"/>
		<stop  offset="0.1543" style="stop-color:#B88D2A"/>
		<stop  offset="0.2074" style="stop-color:#B07F2A"/>
		<stop  offset="0.2625" style="stop-color:#AB782A"/>
		<stop  offset="0.3227" style="stop-color:#A9752A"/>
		<stop  offset="0.395" style="stop-color:#AD7A2C"/>
		<stop  offset="0.4916" style="stop-color:#B88833"/>
		<stop  offset="0.6014" style="stop-color:#CCA241"/>
		<stop  offset="0.661" style="stop-color:#DCB64E"/>
		<stop  offset="0.6867" style="stop-color:#DEBC4A"/>
		<stop  offset="0.817" style="stop-color:#E9D337"/>
		<stop  offset="0.926" style="stop-color:#F0E222"/>
		<stop  offset="1" style="stop-color:#F3EA15"/>
	</linearGradient>
	<path id="XMLID_259_" fill="url(#XMLID_252_)" d="M187.7,179.2c0,1.1-0.3,1.9-0.8,2.4c-0.5,0.5-1.3,0.8-2.4,0.8H181
		c-2.1,0-3.2-1.1-3.2-3.2v-0.8h1.9v0.7c0,0.5,0.1,0.9,0.3,1.1c0.2,0.2,0.6,0.4,1.1,0.4h3.4c0.5,0,0.9-0.1,1.1-0.4
		c0.2-0.2,0.3-0.6,0.3-1.1v-1.8c0-0.5-0.1-0.9-0.3-1.1c-0.2-0.2-0.6-0.3-1.1-0.3h-6.3v-6.7h9.3v1.9H180v3h4.5c1.1,0,1.9,0.3,2.4,0.8
		c0.5,0.5,0.8,1.3,0.8,2.4V179.2z"/>
	<linearGradient id="XMLID_253_" gradientUnits="userSpaceOnUse" x1="196.0313" y1="187.5795" x2="196.0313" y2="171.4183">
		<stop  offset="0" style="stop-color:#F3EA15"/>
		<stop  offset="1.707368e-003" style="stop-color:#F2E717"/>
		<stop  offset="5.140718e-002" style="stop-color:#D7BE26"/>
		<stop  offset="0.1024" style="stop-color:#C5A22A"/>
		<stop  offset="0.1543" style="stop-color:#B88D2A"/>
		<stop  offset="0.2074" style="stop-color:#B07F2A"/>
		<stop  offset="0.2625" style="stop-color:#AB782A"/>
		<stop  offset="0.3227" style="stop-color:#A9752A"/>
		<stop  offset="0.395" style="stop-color:#AD7A2C"/>
		<stop  offset="0.4916" style="stop-color:#B88833"/>
		<stop  offset="0.6014" style="stop-color:#CCA241"/>
		<stop  offset="0.661" style="stop-color:#DCB64E"/>
		<stop  offset="0.6867" style="stop-color:#DEBC4A"/>
		<stop  offset="0.817" style="stop-color:#E9D337"/>
		<stop  offset="0.926" style="stop-color:#F0E222"/>
		<stop  offset="1" style="stop-color:#F3EA15"/>
	</linearGradient>
	<path id="XMLID_256_" fill="url(#XMLID_253_)" d="M191.1,171.1c0-0.3,0-0.5,0.1-0.7c0.1-0.2,0.2-0.4,0.4-0.6
		c0.2-0.2,0.4-0.3,0.6-0.4c0.2-0.1,0.5-0.2,0.7-0.2h6c0.3,0,0.5,0.1,0.7,0.2c0.2,0.1,0.4,0.2,0.6,0.4c0.2,0.2,0.3,0.4,0.4,0.6
		c0.1,0.2,0.1,0.5,0.1,0.7v1.7h-1.9v-1.7h-6v3.8h6c0.3,0,0.5,0,0.7,0.1c0.2,0.1,0.4,0.2,0.6,0.4c0.2,0.2,0.3,0.4,0.4,0.6
		c0.1,0.2,0.1,0.5,0.1,0.7v3.8c0,0.3-0.1,0.5-0.1,0.7c-0.1,0.2-0.2,0.4-0.4,0.6c-0.2,0.2-0.4,0.3-0.6,0.4c-0.2,0.1-0.5,0.1-0.7,0.1
		h-6c-0.3,0-0.5,0-0.7-0.1c-0.2-0.1-0.4-0.2-0.6-0.4c-0.2-0.2-0.3-0.4-0.4-0.6c-0.1-0.2-0.1-0.5-0.1-0.7V171.1z M193,176.7v3.8h6
		v-3.8H193z"/>
	<linearGradient id="XMLID_255_" gradientUnits="userSpaceOnUse" x1="209.0789" y1="187.5795" x2="209.0789" y2="171.4183">
		<stop  offset="0" style="stop-color:#F3EA15"/>
		<stop  offset="1.707368e-003" style="stop-color:#F2E717"/>
		<stop  offset="5.140718e-002" style="stop-color:#D7BE26"/>
		<stop  offset="0.1024" style="stop-color:#C5A22A"/>
		<stop  offset="0.1543" style="stop-color:#B88D2A"/>
		<stop  offset="0.2074" style="stop-color:#B07F2A"/>
		<stop  offset="0.2625" style="stop-color:#AB782A"/>
		<stop  offset="0.3227" style="stop-color:#A9752A"/>
		<stop  offset="0.395" style="stop-color:#AD7A2C"/>
		<stop  offset="0.4916" style="stop-color:#B88833"/>
		<stop  offset="0.6014" style="stop-color:#CCA241"/>
		<stop  offset="0.661" style="stop-color:#DCB64E"/>
		<stop  offset="0.6867" style="stop-color:#DEBC4A"/>
		<stop  offset="0.817" style="stop-color:#E9D337"/>
		<stop  offset="0.926" style="stop-color:#F0E222"/>
		<stop  offset="1" style="stop-color:#F3EA15"/>
	</linearGradient>
	<path id="XMLID_254_" fill="url(#XMLID_255_)" d="M205.4,182.4l5.9-11.3H204v-1.9h10.2v0.6l-6.6,12.7H205.4z"/>
	<linearGradient id="XMLID_257_" gradientUnits="userSpaceOnUse" x1="221.4334" y1="187.5795" x2="221.4334" y2="171.4183">
		<stop  offset="0" style="stop-color:#F3EA15"/>
		<stop  offset="1.707368e-003" style="stop-color:#F2E717"/>
		<stop  offset="5.140718e-002" style="stop-color:#D7BE26"/>
		<stop  offset="0.1024" style="stop-color:#C5A22A"/>
		<stop  offset="0.1543" style="stop-color:#B88D2A"/>
		<stop  offset="0.2074" style="stop-color:#B07F2A"/>
		<stop  offset="0.2625" style="stop-color:#AB782A"/>
		<stop  offset="0.3227" style="stop-color:#A9752A"/>
		<stop  offset="0.395" style="stop-color:#AD7A2C"/>
		<stop  offset="0.4916" style="stop-color:#B88833"/>
		<stop  offset="0.6014" style="stop-color:#CCA241"/>
		<stop  offset="0.661" style="stop-color:#DCB64E"/>
		<stop  offset="0.6867" style="stop-color:#DEBC4A"/>
		<stop  offset="0.817" style="stop-color:#E9D337"/>
		<stop  offset="0.926" style="stop-color:#F0E222"/>
		<stop  offset="1" style="stop-color:#F3EA15"/>
	</linearGradient>
	<path id="XMLID_250_" fill="url(#XMLID_257_)" d="M219.5,182.4c-2.1,0-3.2-1.1-3.2-3.2v-0.7c0-0.8,0.1-1.5,0.4-2
		c0.3-0.5,0.7-0.8,1.3-1c-0.5-0.2-0.9-0.6-1.1-1.1c-0.3-0.5-0.4-1.1-0.4-1.8v-0.2c0-2.1,1.1-3.2,3.2-3.2h3.6c2.1,0,3.2,1.1,3.2,3.2
		v0.2c0,0.7-0.1,1.4-0.4,1.8c-0.3,0.5-0.6,0.8-1.1,1.1c0.6,0.2,1,0.5,1.3,1c0.3,0.5,0.4,1.2,0.4,2v0.7c0,2.1-1.1,3.2-3.2,3.2H219.5z
		 M223.3,180.5c0.5,0,0.9-0.1,1.1-0.4c0.2-0.2,0.3-0.6,0.3-1.1v-1c0-0.5-0.1-0.9-0.3-1.1c-0.2-0.2-0.6-0.3-1.1-0.3h-3.8
		c-0.5,0-0.9,0.1-1.1,0.3c-0.2,0.2-0.3,0.6-0.3,1.1v1c0,0.5,0.1,0.9,0.3,1.1c0.2,0.2,0.6,0.4,1.1,0.4H223.3z M223.3,174.8
		c0.5,0,0.8-0.1,1-0.4c0.2-0.2,0.3-0.6,0.3-1.1v-0.9c0-0.5-0.1-0.9-0.3-1.1c-0.2-0.2-0.6-0.4-1.1-0.4h-3.4c-0.5,0-0.9,0.1-1.1,0.4
		c-0.2,0.2-0.3,0.6-0.3,1.1v0.9c0,0.5,0.1,0.8,0.3,1.1c0.2,0.2,0.5,0.4,1,0.4H223.3z"/>
	<linearGradient id="XMLID_258_" gradientUnits="userSpaceOnUse" x1="247.5783" y1="187.5795" x2="247.5783" y2="171.4183">
		<stop  offset="0" style="stop-color:#F3EA15"/>
		<stop  offset="1.707368e-003" style="stop-color:#F2E717"/>
		<stop  offset="5.140718e-002" style="stop-color:#D7BE26"/>
		<stop  offset="0.1024" style="stop-color:#C5A22A"/>
		<stop  offset="0.1543" style="stop-color:#B88D2A"/>
		<stop  offset="0.2074" style="stop-color:#B07F2A"/>
		<stop  offset="0.2625" style="stop-color:#AB782A"/>
		<stop  offset="0.3227" style="stop-color:#A9752A"/>
		<stop  offset="0.395" style="stop-color:#AD7A2C"/>
		<stop  offset="0.4916" style="stop-color:#B88833"/>
		<stop  offset="0.6014" style="stop-color:#CCA241"/>
		<stop  offset="0.661" style="stop-color:#DCB64E"/>
		<stop  offset="0.6867" style="stop-color:#DEBC4A"/>
		<stop  offset="0.817" style="stop-color:#E9D337"/>
		<stop  offset="0.926" style="stop-color:#F0E222"/>
		<stop  offset="1" style="stop-color:#F3EA15"/>
	</linearGradient>
	<path id="XMLID_247_" fill="url(#XMLID_258_)" d="M252.5,180.5c0,0.3,0,0.5-0.1,0.7c-0.1,0.2-0.2,0.4-0.4,0.6
		c-0.2,0.2-0.4,0.3-0.6,0.4c-0.2,0.1-0.5,0.1-0.7,0.1h-6c-0.3,0-0.5,0-0.7-0.1c-0.2-0.1-0.4-0.2-0.6-0.4c-0.2-0.2-0.3-0.4-0.4-0.6
		c-0.1-0.2-0.1-0.5-0.1-0.7v-1.7h1.9v1.7h6v-3.8h-6c-0.3,0-0.5-0.1-0.7-0.2c-0.2-0.1-0.4-0.2-0.6-0.4c-0.2-0.2-0.3-0.4-0.4-0.6
		c-0.1-0.2-0.1-0.5-0.1-0.7v-3.8c0-0.3,0.1-0.5,0.1-0.7c0.1-0.2,0.2-0.4,0.4-0.6c0.2-0.2,0.4-0.3,0.6-0.4c0.2-0.1,0.5-0.2,0.7-0.2h6
		c0.3,0,0.5,0.1,0.7,0.2c0.2,0.1,0.4,0.2,0.6,0.4c0.2,0.2,0.3,0.4,0.4,0.6c0.1,0.2,0.1,0.5,0.1,0.7V180.5z M250.6,174.8v-3.8h-6v3.8
		H250.6z"/>
	<linearGradient id="XMLID_260_" gradientUnits="userSpaceOnUse" x1="261.6634" y1="187.5795" x2="261.6634" y2="171.4183">
		<stop  offset="0" style="stop-color:#F3EA15"/>
		<stop  offset="1.707368e-003" style="stop-color:#F2E717"/>
		<stop  offset="5.140718e-002" style="stop-color:#D7BE26"/>
		<stop  offset="0.1024" style="stop-color:#C5A22A"/>
		<stop  offset="0.1543" style="stop-color:#B88D2A"/>
		<stop  offset="0.2074" style="stop-color:#B07F2A"/>
		<stop  offset="0.2625" style="stop-color:#AB782A"/>
		<stop  offset="0.3227" style="stop-color:#A9752A"/>
		<stop  offset="0.395" style="stop-color:#AD7A2C"/>
		<stop  offset="0.4916" style="stop-color:#B88833"/>
		<stop  offset="0.6014" style="stop-color:#CCA241"/>
		<stop  offset="0.661" style="stop-color:#DCB64E"/>
		<stop  offset="0.6867" style="stop-color:#DEBC4A"/>
		<stop  offset="0.817" style="stop-color:#E9D337"/>
		<stop  offset="0.926" style="stop-color:#F0E222"/>
		<stop  offset="1" style="stop-color:#F3EA15"/>
	</linearGradient>
	<path id="XMLID_244_" fill="url(#XMLID_260_)" d="M266.9,180.5c0,0.3,0,0.5-0.1,0.7c-0.1,0.2-0.2,0.4-0.4,0.6
		c-0.2,0.2-0.4,0.3-0.6,0.4c-0.2,0.1-0.5,0.1-0.7,0.1h-6.6c-0.3,0-0.5,0-0.7-0.1c-0.2-0.1-0.4-0.2-0.6-0.4c-0.2-0.2-0.3-0.4-0.4-0.6
		c-0.1-0.2-0.1-0.5-0.1-0.7v-9.4c0-0.3,0.1-0.5,0.1-0.7c0.1-0.2,0.2-0.4,0.4-0.6c0.2-0.2,0.4-0.3,0.6-0.4c0.2-0.1,0.5-0.2,0.7-0.2
		h6.6c0.3,0,0.5,0.1,0.7,0.2c0.2,0.1,0.4,0.2,0.6,0.4c0.2,0.2,0.3,0.4,0.4,0.6c0.1,0.2,0.1,0.5,0.1,0.7V180.5z M258.4,171.1v9.4h6.6
		v-9.4H258.4z"/>
	<linearGradient id="XMLID_262_" gradientUnits="userSpaceOnUse" x1="271.7727" y1="187.5795" x2="271.7727" y2="171.4183">
		<stop  offset="0" style="stop-color:#F3EA15"/>
		<stop  offset="1.707368e-003" style="stop-color:#F2E717"/>
		<stop  offset="5.140718e-002" style="stop-color:#D7BE26"/>
		<stop  offset="0.1024" style="stop-color:#C5A22A"/>
		<stop  offset="0.1543" style="stop-color:#B88D2A"/>
		<stop  offset="0.2074" style="stop-color:#B07F2A"/>
		<stop  offset="0.2625" style="stop-color:#AB782A"/>
		<stop  offset="0.3227" style="stop-color:#A9752A"/>
		<stop  offset="0.395" style="stop-color:#AD7A2C"/>
		<stop  offset="0.4916" style="stop-color:#B88833"/>
		<stop  offset="0.6014" style="stop-color:#CCA241"/>
		<stop  offset="0.661" style="stop-color:#DCB64E"/>
		<stop  offset="0.6867" style="stop-color:#DEBC4A"/>
		<stop  offset="0.817" style="stop-color:#E9D337"/>
		<stop  offset="0.926" style="stop-color:#F0E222"/>
		<stop  offset="1" style="stop-color:#F3EA15"/>
	</linearGradient>
	<path id="XMLID_242_" fill="url(#XMLID_262_)" d="M273.9,169.2v13.2H272v-11.3h-2.3v-1.9H273.9z"/>
	<linearGradient id="XMLID_263_" gradientUnits="userSpaceOnUse" x1="282.8311" y1="187.5795" x2="282.8311" y2="171.4183">
		<stop  offset="0" style="stop-color:#F3EA15"/>
		<stop  offset="1.707368e-003" style="stop-color:#F2E717"/>
		<stop  offset="5.140718e-002" style="stop-color:#D7BE26"/>
		<stop  offset="0.1024" style="stop-color:#C5A22A"/>
		<stop  offset="0.1543" style="stop-color:#B88D2A"/>
		<stop  offset="0.2074" style="stop-color:#B07F2A"/>
		<stop  offset="0.2625" style="stop-color:#AB782A"/>
		<stop  offset="0.3227" style="stop-color:#A9752A"/>
		<stop  offset="0.395" style="stop-color:#AD7A2C"/>
		<stop  offset="0.4916" style="stop-color:#B88833"/>
		<stop  offset="0.6014" style="stop-color:#CCA241"/>
		<stop  offset="0.661" style="stop-color:#DCB64E"/>
		<stop  offset="0.6867" style="stop-color:#DEBC4A"/>
		<stop  offset="0.817" style="stop-color:#E9D337"/>
		<stop  offset="0.926" style="stop-color:#F0E222"/>
		<stop  offset="1" style="stop-color:#F3EA15"/>
	</linearGradient>
	<path id="XMLID_240_" fill="url(#XMLID_263_)" d="M279.7,171.1v1.7h-1.9v-1.7c0-0.3,0-0.5,0.1-0.7c0.1-0.2,0.2-0.4,0.4-0.6
		c0.2-0.2,0.4-0.3,0.6-0.4c0.2-0.1,0.5-0.2,0.7-0.2h6c0.3,0,0.5,0.1,0.7,0.2c0.2,0.1,0.4,0.2,0.6,0.4c0.2,0.2,0.3,0.4,0.4,0.6
		c0.1,0.2,0.2,0.5,0.2,0.7v2.4c0,0.3,0,0.5-0.1,0.7c-0.1,0.2-0.1,0.4-0.2,0.5c-0.1,0.2-0.2,0.3-0.4,0.4c-0.2,0.1-0.4,0.3-0.6,0.4
		l-6.6,3.1v1.9h6.2v-1.7h1.9v3.6h-10v-3.5c0-0.3,0-0.5,0.1-0.7c0.1-0.2,0.1-0.4,0.2-0.5c0.1-0.2,0.2-0.3,0.4-0.4
		c0.2-0.1,0.4-0.3,0.6-0.4l6.6-3.1v-2.7H279.7z"/>
	<linearGradient id="XMLID_265_" gradientUnits="userSpaceOnUse" x1="308.5049" y1="187.5795" x2="308.5049" y2="171.4183">
		<stop  offset="0" style="stop-color:#F3EA15"/>
		<stop  offset="1.707368e-003" style="stop-color:#F2E717"/>
		<stop  offset="5.140718e-002" style="stop-color:#D7BE26"/>
		<stop  offset="0.1024" style="stop-color:#C5A22A"/>
		<stop  offset="0.1543" style="stop-color:#B88D2A"/>
		<stop  offset="0.2074" style="stop-color:#B07F2A"/>
		<stop  offset="0.2625" style="stop-color:#AB782A"/>
		<stop  offset="0.3227" style="stop-color:#A9752A"/>
		<stop  offset="0.395" style="stop-color:#AD7A2C"/>
		<stop  offset="0.4916" style="stop-color:#B88833"/>
		<stop  offset="0.6014" style="stop-color:#CCA241"/>
		<stop  offset="0.661" style="stop-color:#DCB64E"/>
		<stop  offset="0.6867" style="stop-color:#DEBC4A"/>
		<stop  offset="0.817" style="stop-color:#E9D337"/>
		<stop  offset="0.926" style="stop-color:#F0E222"/>
		<stop  offset="1" style="stop-color:#F3EA15"/>
	</linearGradient>
	<path id="XMLID_238_" fill="url(#XMLID_265_)" d="M303.3,178.4h1.9v0.7c0,0.5,0.1,0.9,0.3,1.1c0.2,0.2,0.6,0.4,1.1,0.4h3.8
		c0.5,0,0.9-0.1,1.1-0.4c0.2-0.2,0.3-0.6,0.3-1.1v-1c0-0.5-0.1-0.9-0.3-1.1c-0.2-0.2-0.6-0.3-1.1-0.3h-3.9v-1.8h3.9
		c0.5,0,0.8-0.1,1-0.4c0.2-0.2,0.3-0.6,0.3-1.1v-0.9c0-0.5-0.1-0.9-0.3-1.1c-0.2-0.2-0.6-0.4-1.1-0.4h-3.4c-0.5,0-0.9,0.1-1.1,0.4
		c-0.2,0.2-0.3,0.6-0.3,1.1v0.7h-1.9v-0.8c0-2.1,1.1-3.2,3.2-3.2h3.6c1.1,0,1.9,0.3,2.4,0.8c0.5,0.5,0.8,1.3,0.8,2.4v0.2
		c0,0.7-0.1,1.4-0.4,1.8c-0.3,0.5-0.6,0.8-1.1,1.1c0.6,0.2,1,0.5,1.3,1c0.3,0.5,0.4,1.2,0.4,2v0.7c0,2.1-1.1,3.2-3.2,3.2h-3.9
		c-2.1,0-3.2-1.1-3.2-3.2V178.4z"/>
	<linearGradient id="XMLID_267_" gradientUnits="userSpaceOnUse" x1="321.0302" y1="187.5795" x2="321.0302" y2="171.4183">
		<stop  offset="0" style="stop-color:#F3EA15"/>
		<stop  offset="1.707368e-003" style="stop-color:#F2E717"/>
		<stop  offset="5.140718e-002" style="stop-color:#D7BE26"/>
		<stop  offset="0.1024" style="stop-color:#C5A22A"/>
		<stop  offset="0.1543" style="stop-color:#B88D2A"/>
		<stop  offset="0.2074" style="stop-color:#B07F2A"/>
		<stop  offset="0.2625" style="stop-color:#AB782A"/>
		<stop  offset="0.3227" style="stop-color:#A9752A"/>
		<stop  offset="0.395" style="stop-color:#AD7A2C"/>
		<stop  offset="0.4916" style="stop-color:#B88833"/>
		<stop  offset="0.6014" style="stop-color:#CCA241"/>
		<stop  offset="0.661" style="stop-color:#DCB64E"/>
		<stop  offset="0.6867" style="stop-color:#DEBC4A"/>
		<stop  offset="0.817" style="stop-color:#E9D337"/>
		<stop  offset="0.926" style="stop-color:#F0E222"/>
		<stop  offset="1" style="stop-color:#F3EA15"/>
	</linearGradient>
	<path id="XMLID_235_" fill="url(#XMLID_267_)" d="M315.8,177.8l6.5-8.7h2.2v8.7h1.8v1.8h-1.8v2.7h-1.9v-2.7h-6.9V177.8z
		 M322.6,177.8v-6.4l-4.8,6.4H322.6z"/>
	<linearGradient id="XMLID_269_" gradientUnits="userSpaceOnUse" x1="333.3588" y1="187.5795" x2="333.3588" y2="171.4183">
		<stop  offset="0" style="stop-color:#F3EA15"/>
		<stop  offset="1.707368e-003" style="stop-color:#F2E717"/>
		<stop  offset="5.140718e-002" style="stop-color:#D7BE26"/>
		<stop  offset="0.1024" style="stop-color:#C5A22A"/>
		<stop  offset="0.1543" style="stop-color:#B88D2A"/>
		<stop  offset="0.2074" style="stop-color:#B07F2A"/>
		<stop  offset="0.2625" style="stop-color:#AB782A"/>
		<stop  offset="0.3227" style="stop-color:#A9752A"/>
		<stop  offset="0.395" style="stop-color:#AD7A2C"/>
		<stop  offset="0.4916" style="stop-color:#B88833"/>
		<stop  offset="0.6014" style="stop-color:#CCA241"/>
		<stop  offset="0.661" style="stop-color:#DCB64E"/>
		<stop  offset="0.6867" style="stop-color:#DEBC4A"/>
		<stop  offset="0.817" style="stop-color:#E9D337"/>
		<stop  offset="0.926" style="stop-color:#F0E222"/>
		<stop  offset="1" style="stop-color:#F3EA15"/>
	</linearGradient>
	<path id="XMLID_233_" fill="url(#XMLID_269_)" d="M338.4,179.2c0,1.1-0.3,1.9-0.8,2.4c-0.5,0.5-1.3,0.8-2.4,0.8h-3.6
		c-2.1,0-3.2-1.1-3.2-3.2v-0.8h1.9v0.7c0,0.5,0.1,0.9,0.3,1.1c0.2,0.2,0.6,0.4,1.1,0.4h3.4c0.5,0,0.9-0.1,1.1-0.4
		c0.2-0.2,0.3-0.6,0.3-1.1v-1.8c0-0.5-0.1-0.9-0.3-1.1c-0.2-0.2-0.6-0.3-1.1-0.3h-6.3v-6.7h9.3v1.9h-7.4v3h4.5
		c1.1,0,1.9,0.3,2.4,0.8c0.5,0.5,0.8,1.3,0.8,2.4V179.2z"/>
	<linearGradient id="XMLID_270_" gradientUnits="userSpaceOnUse" x1="346.6638" y1="187.5795" x2="346.6638" y2="171.4183">
		<stop  offset="0" style="stop-color:#F3EA15"/>
		<stop  offset="1.707368e-003" style="stop-color:#F2E717"/>
		<stop  offset="5.140718e-002" style="stop-color:#D7BE26"/>
		<stop  offset="0.1024" style="stop-color:#C5A22A"/>
		<stop  offset="0.1543" style="stop-color:#B88D2A"/>
		<stop  offset="0.2074" style="stop-color:#B07F2A"/>
		<stop  offset="0.2625" style="stop-color:#AB782A"/>
		<stop  offset="0.3227" style="stop-color:#A9752A"/>
		<stop  offset="0.395" style="stop-color:#AD7A2C"/>
		<stop  offset="0.4916" style="stop-color:#B88833"/>
		<stop  offset="0.6014" style="stop-color:#CCA241"/>
		<stop  offset="0.661" style="stop-color:#DCB64E"/>
		<stop  offset="0.6867" style="stop-color:#DEBC4A"/>
		<stop  offset="0.817" style="stop-color:#E9D337"/>
		<stop  offset="0.926" style="stop-color:#F0E222"/>
		<stop  offset="1" style="stop-color:#F3EA15"/>
	</linearGradient>
	<path id="XMLID_230_" fill="url(#XMLID_270_)" d="M341.8,171.1c0-0.3,0.1-0.5,0.1-0.7c0.1-0.2,0.2-0.4,0.4-0.6
		c0.2-0.2,0.4-0.3,0.6-0.4c0.2-0.1,0.5-0.2,0.7-0.2h6c0.3,0,0.5,0.1,0.7,0.2c0.2,0.1,0.4,0.2,0.6,0.4c0.2,0.2,0.3,0.4,0.4,0.6
		c0.1,0.2,0.1,0.5,0.1,0.7v1.7h-1.9v-1.7h-6v3.8h6c0.3,0,0.5,0,0.7,0.1c0.2,0.1,0.4,0.2,0.6,0.4c0.2,0.2,0.3,0.4,0.4,0.6
		c0.1,0.2,0.1,0.5,0.1,0.7v3.8c0,0.3,0,0.5-0.1,0.7c-0.1,0.2-0.2,0.4-0.4,0.6c-0.2,0.2-0.4,0.3-0.6,0.4c-0.2,0.1-0.5,0.1-0.7,0.1h-6
		c-0.3,0-0.5,0-0.7-0.1c-0.2-0.1-0.4-0.2-0.6-0.4c-0.2-0.2-0.3-0.4-0.4-0.6c-0.1-0.2-0.1-0.5-0.1-0.7V171.1z M343.6,176.7v3.8h6
		v-3.8H343.6z"/>
</g>
<g id="XMLID_219_">
	<path id="XMLID_227_" fill="#FFFFFF" d="M120.7,192v6.2h-0.9v-5.3h-1.1V192H120.7z"/>
	<path id="XMLID_225_" fill="#FFFFFF" d="M123.5,192.9v0.8h-0.9v-0.8c0-0.1,0-0.2,0.1-0.3c0-0.1,0.1-0.2,0.2-0.3
		c0.1-0.1,0.2-0.1,0.3-0.2c0.1,0,0.2-0.1,0.3-0.1h2.8c0.1,0,0.2,0,0.3,0.1c0.1,0,0.2,0.1,0.3,0.2c0.1,0.1,0.1,0.2,0.2,0.3
		c0,0.1,0.1,0.2,0.1,0.3v1.1c0,0.1,0,0.2,0,0.3c0,0.1-0.1,0.2-0.1,0.3c-0.1,0.1-0.1,0.1-0.2,0.2c-0.1,0.1-0.2,0.1-0.3,0.2l-3.1,1.4
		v0.9h2.9v-0.8h0.9v1.7h-4.7v-1.6c0-0.1,0-0.2,0-0.3c0-0.1,0.1-0.2,0.1-0.3c0.1-0.1,0.1-0.1,0.2-0.2c0.1-0.1,0.2-0.1,0.3-0.2
		l3.1-1.4v-1.3H123.5z"/>
	<path id="XMLID_223_" fill="#FFFFFF" d="M128.7,196.4h0.9v0.3c0,0.2,0.1,0.4,0.2,0.5c0.1,0.1,0.3,0.2,0.5,0.2h1.8
		c0.2,0,0.4-0.1,0.5-0.2c0.1-0.1,0.2-0.3,0.2-0.5v-0.5c0-0.2-0.1-0.4-0.2-0.5c-0.1-0.1-0.3-0.2-0.5-0.2h-1.8v-0.9h1.8
		c0.2,0,0.4-0.1,0.5-0.2c0.1-0.1,0.1-0.3,0.1-0.5v-0.4c0-0.2-0.1-0.4-0.2-0.5c-0.1-0.1-0.3-0.2-0.5-0.2h-1.6c-0.2,0-0.4,0.1-0.5,0.2
		c-0.1,0.1-0.2,0.3-0.2,0.5v0.3h-0.9v-0.4c0-1,0.5-1.5,1.5-1.5h1.7c0.5,0,0.9,0.1,1.1,0.4c0.2,0.2,0.4,0.6,0.4,1.1v0.1
		c0,0.3-0.1,0.6-0.2,0.9c-0.1,0.2-0.3,0.4-0.5,0.5c0.3,0.1,0.5,0.2,0.6,0.5c0.1,0.2,0.2,0.5,0.2,0.9v0.3c0,1-0.5,1.5-1.5,1.5h-1.8
		c-1,0-1.5-0.5-1.5-1.5V196.4z"/>
	<path id="XMLID_220_" fill="#FFFFFF" d="M134.5,196.1l3.1-4.1h1v4.1h0.8v0.9h-0.8v1.3h-0.9v-1.3h-3.2V196.1z M137.7,196.1v-3
		l-2.2,3H137.7z"/>
</g>
<g id="XMLID_181_">
	<g id="XMLID_205_">
		<path id="XMLID_216_" fill="#FFFFFF" d="M328.1,214.5c0,0.1,0,0.2-0.1,0.3c0,0.1-0.1,0.2-0.2,0.3c-0.1,0.1-0.2,0.1-0.3,0.2
			c-0.1,0-0.2,0.1-0.3,0.1h-3.1c-0.1,0-0.2,0-0.3-0.1c-0.1,0-0.2-0.1-0.3-0.2c-0.1-0.1-0.1-0.2-0.2-0.3c0-0.1-0.1-0.2-0.1-0.3v-4.4
			c0-0.1,0-0.2,0.1-0.3c0-0.1,0.1-0.2,0.2-0.3c0.1-0.1,0.2-0.1,0.3-0.2c0.1,0,0.2-0.1,0.3-0.1h3.1c0.1,0,0.2,0,0.3,0.1
			c0.1,0,0.2,0.1,0.3,0.2c0.1,0.1,0.1,0.2,0.2,0.3c0,0.1,0.1,0.2,0.1,0.3V214.5z M324.1,210.1v4.4h3.1v-4.4H324.1z"/>
		<path id="XMLID_213_" fill="#FFFFFF" d="M330,210.1c0-0.1,0-0.2,0.1-0.3c0-0.1,0.1-0.2,0.2-0.3c0.1-0.1,0.2-0.1,0.3-0.2
			c0.1,0,0.2-0.1,0.3-0.1h2.8c0.1,0,0.2,0,0.3,0.1c0.1,0,0.2,0.1,0.3,0.2c0.1,0.1,0.1,0.2,0.2,0.3c0,0.1,0.1,0.2,0.1,0.3v0.8h-0.9
			v-0.8h-2.8v1.8h2.8c0.1,0,0.2,0,0.3,0.1c0.1,0,0.2,0.1,0.3,0.2c0.1,0.1,0.1,0.2,0.2,0.3c0,0.1,0.1,0.2,0.1,0.3v1.8
			c0,0.1,0,0.2-0.1,0.3c0,0.1-0.1,0.2-0.2,0.3c-0.1,0.1-0.2,0.1-0.3,0.2c-0.1,0-0.2,0.1-0.3,0.1h-2.8c-0.1,0-0.2,0-0.3-0.1
			c-0.1,0-0.2-0.1-0.3-0.2c-0.1-0.1-0.1-0.2-0.2-0.3c0-0.1-0.1-0.2-0.1-0.3V210.1z M330.9,212.7v1.8h2.8v-1.8H330.9z"/>
		<path id="XMLID_211_" fill="#FFFFFF" d="M336,215.8l2.4-7.1h0.9l-2.4,7.1H336z"/>
		<path id="XMLID_209_" fill="#FFFFFF" d="M340.3,213.5h0.9v0.3c0,0.2,0.1,0.4,0.2,0.5c0.1,0.1,0.3,0.2,0.5,0.2h1.8
			c0.2,0,0.4-0.1,0.5-0.2c0.1-0.1,0.2-0.3,0.2-0.5v-0.5c0-0.2-0.1-0.4-0.2-0.5c-0.1-0.1-0.3-0.2-0.5-0.2h-1.8v-0.9h1.8
			c0.2,0,0.4-0.1,0.5-0.2c0.1-0.1,0.1-0.3,0.1-0.5v-0.4c0-0.2-0.1-0.4-0.2-0.5c-0.1-0.1-0.3-0.2-0.5-0.2h-1.6
			c-0.2,0-0.4,0.1-0.5,0.2c-0.1,0.1-0.2,0.3-0.2,0.5v0.3h-0.9v-0.4c0-1,0.5-1.5,1.5-1.5h1.7c0.5,0,0.9,0.1,1.1,0.4
			c0.2,0.2,0.4,0.6,0.4,1.1v0.1c0,0.3-0.1,0.6-0.2,0.9c-0.1,0.2-0.3,0.4-0.5,0.5c0.3,0.1,0.5,0.2,0.6,0.5c0.1,0.2,0.2,0.5,0.2,0.9
			v0.3c0,1-0.5,1.5-1.5,1.5h-1.8c-1,0-1.5-0.5-1.5-1.5V213.5z"/>
		<path id="XMLID_206_" fill="#FFFFFF" d="M351.6,214.5c0,0.1,0,0.2-0.1,0.3c0,0.1-0.1,0.2-0.2,0.3c-0.1,0.1-0.2,0.1-0.3,0.2
			c-0.1,0-0.2,0.1-0.3,0.1h-3.1c-0.1,0-0.2,0-0.3-0.1c-0.1,0-0.2-0.1-0.3-0.2c-0.1-0.1-0.1-0.2-0.2-0.3c0-0.1-0.1-0.2-0.1-0.3v-4.4
			c0-0.1,0-0.2,0.1-0.3c0-0.1,0.1-0.2,0.2-0.3c0.1-0.1,0.2-0.1,0.3-0.2c0.1,0,0.2-0.1,0.3-0.1h3.1c0.1,0,0.2,0,0.3,0.1
			c0.1,0,0.2,0.1,0.3,0.2c0.1,0.1,0.1,0.2,0.2,0.3c0,0.1,0.1,0.2,0.1,0.3V214.5z M347.6,210.1v4.4h3.1v-4.4H347.6z"/>
	</g>
	<g id="XMLID_183_">
		<path id="XMLID_203_" fill="#FFFFFF" d="M298,210.9l-1.6-4.1h0.6l1.3,3.3l1.3-3.3h0.6l-1.6,4.1H298z"/>
		<path id="XMLID_200_" fill="#FFFFFF" d="M302.5,206.8l1.6,4.1h-0.6l-0.4-0.9h-1.8l-0.4,0.9h-0.6l1.6-4.1H302.5z M301.5,209.4h1.4
			l-0.7-1.8L301.5,209.4z"/>
		<path id="XMLID_198_" fill="#FFFFFF" d="M305.5,206.8v3.5h2.1v0.6h-2.7v-4.1H305.5z"/>
		<path id="XMLID_196_" fill="#FFFFFF" d="M309,206.8v4.1h-0.6v-4.1H309z"/>
		<path id="XMLID_193_" fill="#FFFFFF" d="M310.3,210.9v-4.1h2.1c0.2,0,0.4,0,0.6,0.1c0.2,0.1,0.3,0.2,0.4,0.3
			c0.1,0.1,0.2,0.3,0.3,0.5c0.1,0.2,0.1,0.4,0.1,0.6v1.2c0,0.2,0,0.4-0.1,0.6c-0.1,0.2-0.2,0.3-0.3,0.4c-0.1,0.1-0.3,0.2-0.4,0.3
			c-0.2,0.1-0.4,0.1-0.6,0.1H310.3z M312.3,210.3c0.3,0,0.5-0.1,0.6-0.2c0.1-0.1,0.2-0.4,0.2-0.6v-1.2c0-0.1,0-0.3-0.1-0.4
			c0-0.1-0.1-0.2-0.2-0.3c-0.1-0.1-0.2-0.1-0.3-0.2c-0.1,0-0.2-0.1-0.4-0.1h-1.5v2.9H312.3z"/>
		<path id="XMLID_191_" fill="#FFFFFF" d="M297,213.8h3.2v0.6h-1.3v3.5h-0.6v-3.5H297V213.8z"/>
		<path id="XMLID_189_" fill="#FFFFFF" d="M304.6,213.8v4.1H304v-1.7h-2.3v1.7h-0.6v-4.1h0.6v1.7h2.3v-1.7H304.6z"/>
		<path id="XMLID_186_" fill="#FFFFFF" d="M309,215.2c0,0.6-0.2,0.9-0.7,1l0.8,1.6h-0.6l-0.8-1.6h-1.3v1.6h-0.6v-4.1h2.2
			c0.7,0,1,0.3,1,1V215.2z M306.4,215.6h1.6c0.2,0,0.3,0,0.3-0.1c0.1-0.1,0.1-0.2,0.1-0.3v-0.4c0-0.2,0-0.3-0.1-0.3
			c-0.1-0.1-0.2-0.1-0.3-0.1h-1.6V215.6z"/>
		<path id="XMLID_184_" fill="#FFFFFF" d="M310.2,213.8h0.6v3.5h2.3v-3.5h0.6v3.5c0,0.1,0,0.2,0,0.2c0,0.1-0.1,0.1-0.1,0.2
			c-0.1,0.1-0.1,0.1-0.2,0.1c-0.1,0-0.1,0-0.2,0h-2.3c-0.1,0-0.2,0-0.2,0c-0.1,0-0.1-0.1-0.2-0.1c-0.1-0.1-0.1-0.1-0.1-0.2
			c0-0.1,0-0.1,0-0.2V213.8z"/>
	</g>
	<polygon id="XMLID_47_" fill="#FFFFFF" points="316.5,209.6 316.5,214.7 319.7,212.2 	"/>
</g>
<g id="XMLID_145_">
	<path id="XMLID_179_" fill="#FFFFFF" d="M119.4,210.9c0-0.1,0-0.3,0.1-0.4c0.1-0.1,0.1-0.2,0.2-0.3c0.1-0.1,0.2-0.2,0.3-0.2
		c0.1-0.1,0.3-0.1,0.4-0.1h4c0.1,0,0.3,0,0.4,0.1c0.1,0.1,0.2,0.1,0.3,0.2c0.1,0.1,0.2,0.2,0.2,0.3c0.1,0.1,0.1,0.3,0.1,0.4v1h-1.1
		v-1h-4v5.3h4v-0.9h1.1v0.9c0,0.1,0,0.3-0.1,0.4c-0.1,0.1-0.1,0.2-0.2,0.3c-0.1,0.1-0.2,0.2-0.3,0.2c-0.1,0.1-0.3,0.1-0.4,0.1h-4
		c-0.1,0-0.3,0-0.4-0.1c-0.1-0.1-0.2-0.1-0.3-0.2c-0.1-0.1-0.2-0.2-0.2-0.3c-0.1-0.1-0.1-0.3-0.1-0.4V210.9z"/>
	<path id="XMLID_176_" fill="#FFFFFF" d="M130.9,209.8l2.9,7.4h-1.1l-0.7-1.7h-3.3l-0.7,1.7h-1.1l2.9-7.4H130.9z M129.1,214.5h2.5
		l-1.3-3.3L129.1,214.5z"/>
	<path id="XMLID_173_" fill="#FFFFFF" d="M141.1,212.5c0,1-0.4,1.6-1.3,1.8l1.4,3H140l-1.4-3h-2.3v3h-1.1v-7.4h4
		c1.2,0,1.8,0.6,1.8,1.8V212.5z M136.3,213.2h2.9c0.3,0,0.5-0.1,0.6-0.2s0.2-0.3,0.2-0.6v-0.7c0-0.3-0.1-0.5-0.2-0.6
		c-0.1-0.1-0.3-0.2-0.6-0.2h-2.9V213.2z"/>
	<path id="XMLID_170_" fill="#FFFFFF" d="M143.2,217.2v-7.4h3.8c0.4,0,0.8,0.1,1.1,0.2c0.3,0.1,0.6,0.3,0.8,0.5
		c0.2,0.2,0.4,0.5,0.5,0.8c0.1,0.3,0.2,0.7,0.2,1.1v2.2c0,0.4-0.1,0.7-0.2,1.1c-0.1,0.3-0.3,0.6-0.5,0.8c-0.2,0.2-0.5,0.4-0.8,0.5
		c-0.3,0.1-0.7,0.2-1.1,0.2H143.2z M147,216.2c0.5,0,0.9-0.1,1.1-0.4c0.3-0.3,0.4-0.6,0.4-1.1v-2.2c0-0.2,0-0.5-0.1-0.6
		c-0.1-0.2-0.2-0.3-0.3-0.5c-0.1-0.1-0.3-0.2-0.5-0.3c-0.2-0.1-0.4-0.1-0.6-0.1h-2.7v5.3H147z"/>
	<path id="XMLID_168_" fill="#FFFFFF" d="M157.9,209.8v7.4h-1.1V214h-4.2v3.2h-1.1v-7.4h1.1v3.2h4.2v-3.2H157.9z"/>
	<path id="XMLID_165_" fill="#FFFFFF" d="M166.5,216.2c0,0.1,0,0.3-0.1,0.4c-0.1,0.1-0.1,0.2-0.2,0.3c-0.1,0.1-0.2,0.2-0.3,0.2
		c-0.1,0.1-0.3,0.1-0.4,0.1h-4.2c-0.1,0-0.3,0-0.4-0.1c-0.1-0.1-0.2-0.1-0.3-0.2c-0.1-0.1-0.2-0.2-0.2-0.3c-0.1-0.1-0.1-0.3-0.1-0.4
		v-5.3c0-0.1,0-0.3,0.1-0.4c0.1-0.1,0.1-0.2,0.2-0.3c0.1-0.1,0.2-0.2,0.3-0.2c0.1-0.1,0.3-0.1,0.4-0.1h4.2c0.1,0,0.3,0,0.4,0.1
		c0.1,0.1,0.2,0.1,0.3,0.2c0.1,0.1,0.2,0.2,0.2,0.3c0.1,0.1,0.1,0.3,0.1,0.4V216.2z M161.2,210.9v5.3h4.2v-5.3H161.2z"/>
	<path id="XMLID_163_" fill="#FFFFFF" d="M169.7,209.8v6.3h3.8v1.1h-4.9v-7.4H169.7z"/>
	<path id="XMLID_160_" fill="#FFFFFF" d="M175.1,217.2v-7.4h3.8c0.4,0,0.8,0.1,1.1,0.2c0.3,0.1,0.6,0.3,0.8,0.5
		c0.2,0.2,0.4,0.5,0.5,0.8c0.1,0.3,0.2,0.7,0.2,1.1v2.2c0,0.4-0.1,0.7-0.2,1.1c-0.1,0.3-0.3,0.6-0.5,0.8c-0.2,0.2-0.5,0.4-0.8,0.5
		c-0.3,0.1-0.7,0.2-1.1,0.2H175.1z M178.9,216.2c0.5,0,0.9-0.1,1.1-0.4c0.3-0.3,0.4-0.6,0.4-1.1v-2.2c0-0.2,0-0.5-0.1-0.6
		c-0.1-0.2-0.2-0.3-0.3-0.5c-0.1-0.1-0.3-0.2-0.5-0.3c-0.2-0.1-0.4-0.1-0.6-0.1h-2.7v5.3H178.9z"/>
	<path id="XMLID_158_" fill="#FFFFFF" d="M183.5,209.8h5.4v1.1h-4.3v2.1h3.7v1.1h-3.7v2.1h4.3v1.1h-5.4V209.8z"/>
	<path id="XMLID_155_" fill="#FFFFFF" d="M196.6,212.5c0,1-0.4,1.6-1.3,1.8l1.4,3h-1.2l-1.4-3h-2.3v3h-1.1v-7.4h4
		c1.2,0,1.8,0.6,1.8,1.8V212.5z M191.8,213.2h2.9c0.3,0,0.5-0.1,0.6-0.2s0.2-0.3,0.2-0.6v-0.7c0-0.3-0.1-0.5-0.2-0.6
		c-0.1-0.1-0.3-0.2-0.6-0.2h-2.9V213.2z"/>
	<path id="XMLID_153_" fill="#FFFFFF" d="M203.2,217.2h-1.1v-7.4h1.1l4.4,5.7v-5.7h1.1v7.4h-1.1l-4.4-5.7V217.2z"/>
	<path id="XMLID_150_" fill="#FFFFFF" d="M214.2,209.8l2.9,7.4H216l-0.7-1.7H212l-0.7,1.7h-1.1l2.9-7.4H214.2z M212.4,214.5h2.5
		l-1.3-3.3L212.4,214.5z"/>
	<path id="XMLID_148_" fill="#FFFFFF" d="M222.5,217.2l-2.8-5.4v5.4h-1.1v-7.4h1.2l2.8,5.6l2.8-5.6h1.1v7.4h-1.1v-5.4l-2.8,5.4
		H222.5z"/>
	<path id="XMLID_146_" fill="#FFFFFF" d="M228.8,209.8h5.4v1.1h-4.3v2.1h3.7v1.1h-3.7v2.1h4.3v1.1h-5.4V209.8z"/>
</g>
<g id="XMLID_124_">
	<path id="XMLID_143_" fill="#FFFFFF" d="M121.5,83.2c0-0.2,0-0.4,0.1-0.5c0.1-0.2,0.2-0.3,0.3-0.4c0.1-0.1,0.3-0.2,0.4-0.3
		c0.2-0.1,0.4-0.1,0.5-0.1h5.3c0.2,0,0.4,0,0.5,0.1c0.2,0.1,0.3,0.2,0.4,0.3c0.1,0.1,0.2,0.3,0.3,0.4c0.1,0.2,0.1,0.4,0.1,0.5v1.3
		h-1.4v-1.3h-5.3v7h5.3v-1.3h1.4v1.3c0,0.2,0,0.4-0.1,0.5c-0.1,0.2-0.2,0.3-0.3,0.4c-0.1,0.1-0.3,0.2-0.4,0.3
		c-0.2,0.1-0.4,0.1-0.5,0.1h-5.3c-0.2,0-0.4,0-0.5-0.1c-0.2-0.1-0.3-0.2-0.4-0.3c-0.1-0.1-0.2-0.3-0.3-0.4c-0.1-0.2-0.1-0.4-0.1-0.5
		V83.2z"/>
	<path id="XMLID_140_" fill="#FFFFFF" d="M136.6,81.8l3.8,9.8H139l-0.9-2.3h-4.4l-0.9,2.3h-1.4l3.8-9.8H136.6z M134.2,87.9h3.4
		l-1.7-4.3L134.2,87.9z"/>
	<path id="XMLID_137_" fill="#FFFFFF" d="M150.3,85.3c0,1.4-0.6,2.1-1.7,2.3l1.8,4h-1.6l-1.8-3.9h-3.1v3.9h-1.4v-9.8h5.4
		c1.6,0,2.4,0.8,2.4,2.4V85.3z M143.9,86.3h3.9c0.4,0,0.6-0.1,0.8-0.2c0.2-0.2,0.2-0.4,0.2-0.8v-1c0-0.4-0.1-0.6-0.2-0.8
		c-0.2-0.2-0.4-0.2-0.8-0.2h-3.9V86.3z"/>
	<path id="XMLID_134_" fill="#FFFFFF" d="M153,91.6v-9.8h5c0.5,0,1,0.1,1.4,0.2c0.4,0.2,0.8,0.4,1.1,0.7c0.3,0.3,0.5,0.7,0.7,1.1
		c0.2,0.4,0.2,0.9,0.2,1.4v2.9c0,0.5-0.1,1-0.2,1.4c-0.2,0.4-0.4,0.8-0.7,1.1c-0.3,0.3-0.7,0.5-1.1,0.7c-0.4,0.2-0.9,0.2-1.4,0.2
		H153z M158,90.2c0.7,0,1.2-0.2,1.5-0.5c0.3-0.3,0.5-0.9,0.5-1.5v-2.9c0-0.3,0-0.6-0.1-0.9c-0.1-0.3-0.2-0.5-0.4-0.6
		c-0.2-0.2-0.4-0.3-0.6-0.4c-0.3-0.1-0.5-0.1-0.9-0.1h-3.6v7H158z"/>
	<path id="XMLID_132_" fill="#FFFFFF" d="M167.9,81.8h7.8v1.4h-3.2v8.4h-1.4v-8.4h-3.2V81.8z"/>
	<path id="XMLID_130_" fill="#FFFFFF" d="M178.5,81.8l2.9,4.6l2.9-4.6h1.6l-3.8,5.9v3.9h-1.4v-3.9l-3.8-5.9H178.5z"/>
	<path id="XMLID_127_" fill="#FFFFFF" d="M187.8,91.6v-9.8h5.4c1.6,0,2.4,0.8,2.4,2.4v1.4c0,1.6-0.8,2.4-2.4,2.4h-4v3.6H187.8z
		 M189.2,86.5h3.9c0.4,0,0.6-0.1,0.8-0.2c0.2-0.2,0.2-0.4,0.2-0.8v-1.3c0-0.4-0.1-0.6-0.2-0.8c-0.2-0.2-0.4-0.2-0.8-0.2h-3.9V86.5z"
		/>
	<path id="XMLID_125_" fill="#FFFFFF" d="M197.9,81.8h7.1v1.4h-5.7V86h4.9v1.4h-4.9v2.8h5.7v1.4h-7.1V81.8z"/>
</g>
<g id="XMLID_101_">
	<linearGradient id="XMLID_271_" gradientUnits="userSpaceOnUse" x1="143.664" y1="141.81" x2="143.664" y2="111.358">
		<stop  offset="0" style="stop-color:#FFF08C"/>
		<stop  offset="4.911657e-002" style="stop-color:#DFC368"/>
		<stop  offset="0.1001" style="stop-color:#CAA44C"/>
		<stop  offset="0.1525" style="stop-color:#BB8E3A"/>
		<stop  offset="0.2062" style="stop-color:#B18030"/>
		<stop  offset="0.2619" style="stop-color:#AB782B"/>
		<stop  offset="0.3227" style="stop-color:#A9752A"/>
		<stop  offset="0.395" style="stop-color:#AD7A2C"/>
		<stop  offset="0.4916" style="stop-color:#B88833"/>
		<stop  offset="0.6014" style="stop-color:#CCA241"/>
		<stop  offset="0.661" style="stop-color:#DCB64E"/>
		<stop  offset="0.7073" style="stop-color:#E2C15A"/>
		<stop  offset="0.829" style="stop-color:#F1DA79"/>
		<stop  offset="0.9309" style="stop-color:#FAEB8B"/>
		<stop  offset="1" style="stop-color:#FFF392"/>
	</linearGradient>
	<path id="XMLID_13_" fill="url(#XMLID_271_)" d="M165.1,141.8h-42.9c-1.8,0-3.2-1.4-3.2-3.2v-24c0-1.8,1.4-3.2,3.2-3.2h42.9
		c1.8,0,3.2,1.4,3.2,3.2v24C168.4,140.4,166.9,141.8,165.1,141.8z"/>
	<g id="XMLID_102_">
		<g id="XMLID_119_">
			<path id="XMLID_120_" fill="#0D0F12" d="M143.7,136.9c-3.2,0-5.8-2.6-5.8-5.8c0-1.8,0.8-3.4,2.1-4.5c-1.3-1.1-2.1-2.7-2.1-4.5
				c0-3.2,2.6-5.8,5.8-5.8c3.2,0,5.8,2.6,5.8,5.8c0,1.8-0.8,3.4-2.1,4.5c1.3,1.1,2.1,2.7,2.1,4.5
				C149.5,134.3,146.9,136.9,143.7,136.9z M143.7,117.2c-2.7,0-4.9,2.2-4.9,4.9c0,1.7,0.8,3.2,2.2,4.1l0.6,0.4L141,127
				c-1.4,0.9-2.2,2.4-2.2,4.1c0,2.7,2.2,4.9,4.9,4.9c2.7,0,4.9-2.2,4.9-4.9c0-1.6-0.8-3.2-2.2-4.1l-0.6-0.4l0.6-0.4
				c1.4-0.9,2.2-2.4,2.2-4.1C148.5,119.4,146.3,117.2,143.7,117.2z"/>
		</g>
		<g id="XMLID_117_">
			<rect id="XMLID_10_" x="119" y="119.7" fill="#0D0F12" width="19.7" height="1"/>
		</g>
		<g id="XMLID_115_">
			<rect id="XMLID_9_" x="149" y="119.7" fill="#0D0F12" width="19.3" height="1"/>
		</g>
		<g id="XMLID_113_">
			<rect id="XMLID_8_" x="119" y="132.3" fill="#0D0F12" width="19.7" height="1"/>
		</g>
		<g id="XMLID_111_">
			<rect id="XMLID_7_" x="149" y="132.3" fill="#0D0F12" width="19.3" height="1"/>
		</g>
		<g id="XMLID_109_">
			<rect id="XMLID_6_" x="128.3" y="111.4" fill="#0D0F12" width="1" height="30.5"/>
		</g>
		<g id="XMLID_107_">
			<rect id="XMLID_5_" x="155.3" y="120.2" fill="#0D0F12" width="1" height="12.6"/>
		</g>
		<g id="XMLID_105_">
			<rect id="XMLID_4_" x="159.9" y="111.4" fill="#0D0F12" width="1" height="8.9"/>
		</g>
		<g id="XMLID_103_">
			<rect id="XMLID_3_" x="159.9" y="132.8" fill="#0D0F12" width="1" height="9"/>
		</g>
	</g>
</g>
</svg>
